<svg width="190" height="600" viewBox="0 0 190 600" fill="none" xmlns="http://www.w3.org/2000/svg">
<g clip-path="url(#clip0)">
<rect width="190" height="600" fill="#00D1FF" fill-opacity="0.2"/>
<path d="M28.68 45L27.38 41.22H22L20.72 45H18L23.24 30.66H26.16L31.4 45H28.68ZM26.72 39.02L25.48 35.34C25.4267 35.1533 25.3467 34.9 25.24 34.58C25.1333 34.26 25.0267 33.9333 24.92 33.6C24.8267 33.2533 24.7533 32.9667 24.7 32.74C24.6333 33.0067 24.5467 33.3133 24.44 33.66C24.3467 34.0067 24.2533 34.3333 24.16 34.64C24.0667 34.9467 24 35.18 23.96 35.34L22.7 39.02H26.72ZM39.438 33.96C40.6513 33.96 41.598 34.2733 42.278 34.9C42.9713 35.5267 43.318 36.54 43.318 37.94V45H40.798V38.44C40.798 36.8133 40.1313 36 38.798 36C37.7846 36 37.0913 36.32 36.718 36.96C36.3446 37.6 36.158 38.5133 36.158 39.7V45H33.638V34.16H35.578L35.938 35.58H36.078C36.4246 35.02 36.898 34.6133 37.498 34.36C38.1113 34.0933 38.758 33.96 39.438 33.96ZM45.45 34.16H48.19L50.35 40.28C50.4967 40.6667 50.6167 41.0467 50.71 41.42C50.8033 41.7933 50.87 42.1733 50.91 42.56H50.99C51.0433 42.2267 51.1233 41.86 51.23 41.46C51.3367 41.06 51.4567 40.6667 51.59 40.28L53.67 34.16H56.39L51.77 46.44C51.3567 47.52 50.79 48.3467 50.07 48.92C49.3633 49.5067 48.49 49.8 47.45 49.8C47.1167 49.8 46.83 49.78 46.59 49.74C46.35 49.7133 46.1367 49.68 45.95 49.64V47.64C46.0967 47.6667 46.27 47.6933 46.47 47.72C46.6833 47.7467 46.9033 47.76 47.13 47.76C47.7567 47.76 48.25 47.5733 48.61 47.2C48.9833 46.84 49.27 46.3867 49.47 45.84L49.79 44.96L45.45 34.16ZM26 72L22.08 60.3H22C22.0133 60.5667 22.0333 60.9467 22.06 61.44C22.0867 61.92 22.1067 62.4467 22.12 63.02C22.1467 63.58 22.16 64.1067 22.16 64.6V72H19.86V57.72H23.42L27.18 68.94H27.26L31.18 57.72H34.74V72H32.3V64.48C32.3 64.0267 32.3067 63.5333 32.32 63C32.3467 62.4533 32.3667 61.94 32.38 61.46C32.4067 60.98 32.4267 60.6 32.44 60.32H32.36L28.28 72H26ZM48.4742 66.56C48.4742 68.36 48.0076 69.7533 47.0742 70.74C46.1409 71.7133 44.8742 72.2 43.2742 72.2C42.2876 72.2 41.4076 71.98 40.6342 71.54C39.8609 71.1 39.2542 70.46 38.8142 69.62C38.3742 68.78 38.1542 67.76 38.1542 66.56C38.1542 64.76 38.6142 63.38 39.5342 62.42C40.4676 61.4467 41.7342 60.96 43.3342 60.96C44.3342 60.96 45.2209 61.18 45.9942 61.62C46.7676 62.0467 47.3742 62.68 47.8142 63.52C48.2542 64.3467 48.4742 65.36 48.4742 66.56ZM40.7342 66.56C40.7342 67.7067 40.9342 68.5933 41.3342 69.22C41.7476 69.8467 42.4076 70.16 43.3142 70.16C44.2209 70.16 44.8742 69.8467 45.2742 69.22C45.6876 68.5933 45.8942 67.7067 45.8942 66.56C45.8942 65.4133 45.6876 64.5333 45.2742 63.92C44.8742 63.3067 44.2142 63 43.2942 63C42.4009 63 41.7476 63.3067 41.3342 63.92C40.9342 64.5333 40.7342 65.4133 40.7342 66.56ZM61.3594 66.56C61.3594 68.36 60.8927 69.7533 59.9594 70.74C59.026 71.7133 57.7594 72.2 56.1594 72.2C55.1727 72.2 54.2927 71.98 53.5194 71.54C52.746 71.1 52.1394 70.46 51.6994 69.62C51.2594 68.78 51.0394 67.76 51.0394 66.56C51.0394 64.76 51.4994 63.38 52.4194 62.42C53.3527 61.4467 54.6194 60.96 56.2194 60.96C57.2194 60.96 58.106 61.18 58.8794 61.62C59.6527 62.0467 60.2594 62.68 60.6994 63.52C61.1394 64.3467 61.3594 65.36 61.3594 66.56ZM53.6194 66.56C53.6194 67.7067 53.8194 68.5933 54.2194 69.22C54.6327 69.8467 55.2927 70.16 56.1994 70.16C57.106 70.16 57.7594 69.8467 58.1594 69.22C58.5727 68.5933 58.7794 67.7067 58.7794 66.56C58.7794 65.4133 58.5727 64.5333 58.1594 63.92C57.7594 63.3067 57.0994 63 56.1794 63C55.286 63 54.6327 63.3067 54.2194 63.92C53.8194 64.5333 53.6194 65.4133 53.6194 66.56ZM68.1445 72.2C66.8779 72.2 65.8579 71.7267 65.0845 70.78C64.3112 69.8333 63.9245 68.44 63.9245 66.6C63.9245 64.7333 64.3179 63.3267 65.1045 62.38C65.8912 61.4333 66.9245 60.96 68.2045 60.96C69.0045 60.96 69.6579 61.1133 70.1645 61.42C70.6845 61.7267 71.0979 62.1 71.4045 62.54H71.5245C71.4845 62.3533 71.4445 62.0667 71.4045 61.68C71.3645 61.2933 71.3445 60.9333 71.3445 60.6V56.8H73.8645V72H71.9045L71.4445 70.58H71.3445C71.0379 71.0333 70.6312 71.42 70.1245 71.74C69.6179 72.0467 68.9579 72.2 68.1445 72.2ZM68.9045 70.16C69.8379 70.16 70.4912 69.8933 70.8645 69.36C71.2512 68.8267 71.4512 68.02 71.4645 66.94V66.62C71.4645 65.46 71.2779 64.5733 70.9045 63.96C70.5445 63.3333 69.8645 63.02 68.8645 63.02C68.0912 63.02 67.4979 63.34 67.0845 63.98C66.6845 64.6067 66.4845 65.4933 66.4845 66.64C66.4845 67.7867 66.6912 68.66 67.1045 69.26C67.5179 69.86 68.1179 70.16 68.9045 70.16Z" fill="#0500FF"/>
<path d="M143.293 83L141.992 79.22H136.612L135.332 83H132.612L137.852 68.66H140.772L146.012 83H143.293ZM141.332 77.02L140.092 73.34C140.039 73.1533 139.959 72.9 139.852 72.58C139.746 72.26 139.639 71.9333 139.532 71.6C139.439 71.2533 139.366 70.9667 139.312 70.74C139.246 71.0067 139.159 71.3133 139.052 71.66C138.959 72.0067 138.866 72.3333 138.772 72.64C138.679 72.9467 138.612 73.18 138.572 73.34L137.312 77.02H141.332ZM154.05 71.96C155.264 71.96 156.21 72.2733 156.89 72.9C157.584 73.5267 157.93 74.54 157.93 75.94V83H155.41V76.44C155.41 74.8133 154.744 74 153.41 74C152.397 74 151.704 74.32 151.33 74.96C150.957 75.6 150.77 76.5133 150.77 77.7V83H148.25V72.16H150.19L150.55 73.58H150.69C151.037 73.02 151.51 72.6133 152.11 72.36C152.724 72.0933 153.37 71.96 154.05 71.96ZM160.062 72.16H162.803L164.963 78.28C165.109 78.6667 165.229 79.0467 165.323 79.42C165.416 79.7933 165.483 80.1733 165.523 80.56H165.603C165.656 80.2267 165.736 79.86 165.843 79.46C165.949 79.06 166.069 78.6667 166.203 78.28L168.283 72.16H171.003L166.383 84.44C165.969 85.52 165.403 86.3467 164.683 86.92C163.976 87.5067 163.103 87.8 162.063 87.8C161.729 87.8 161.443 87.78 161.203 87.74C160.963 87.7133 160.749 87.68 160.563 87.64V85.64C160.709 85.6667 160.883 85.6933 161.083 85.72C161.296 85.7467 161.516 85.76 161.743 85.76C162.369 85.76 162.863 85.5733 163.223 85.2C163.596 84.84 163.883 84.3867 164.083 83.84L164.403 82.96L160.062 72.16ZM128.133 110H125.573V97.88H121.473V95.72H132.233V97.88H128.133V110ZM136.039 94.98C136.426 94.98 136.753 95.08 137.019 95.28C137.299 95.4667 137.439 95.8067 137.439 96.3C137.439 96.7933 137.299 97.14 137.019 97.34C136.753 97.54 136.426 97.64 136.039 97.64C135.653 97.64 135.319 97.54 135.039 97.34C134.773 97.14 134.639 96.7933 134.639 96.3C134.639 95.8067 134.773 95.4667 135.039 95.28C135.319 95.08 135.653 94.98 136.039 94.98ZM137.299 99.16V110H134.779V99.16H137.299ZM153.542 98.96C154.768 98.96 155.688 99.2733 156.302 99.9C156.928 100.527 157.242 101.54 157.242 102.94V110H154.722V103.42C154.722 101.807 154.108 101 152.882 101C152.002 101 151.375 101.287 151.002 101.86C150.628 102.433 150.442 103.267 150.442 104.36V110H147.922V103.42C147.922 101.807 147.302 101 146.062 101C145.142 101 144.508 101.32 144.162 101.96C143.815 102.6 143.642 103.513 143.642 104.7V110H141.122V99.16H143.062L143.422 100.58H143.562C143.882 100.02 144.328 99.6133 144.902 99.36C145.488 99.0933 146.095 98.96 146.722 98.96C147.535 98.96 148.215 99.1 148.762 99.38C149.322 99.6467 149.748 100.067 150.042 100.64H150.242C150.575 100.053 151.042 99.6267 151.642 99.36C152.242 99.0933 152.875 98.96 153.542 98.96ZM165.359 98.96C166.812 98.96 167.959 99.3933 168.799 100.26C169.652 101.127 170.079 102.333 170.079 103.88V105.16H162.919C162.946 106.147 163.219 106.913 163.739 107.46C164.259 107.993 164.979 108.26 165.899 108.26C166.592 108.26 167.219 108.193 167.779 108.06C168.339 107.913 168.912 107.707 169.499 107.44V109.46C168.966 109.713 168.412 109.9 167.839 110.02C167.266 110.14 166.579 110.2 165.779 110.2C164.726 110.2 163.786 110 162.959 109.6C162.146 109.187 161.506 108.567 161.039 107.74C160.586 106.913 160.359 105.887 160.359 104.66C160.359 102.807 160.819 101.393 161.739 100.42C162.659 99.4467 163.866 98.96 165.359 98.96ZM165.359 100.82C164.679 100.82 164.126 101.04 163.699 101.48C163.286 101.907 163.046 102.547 162.979 103.4H167.639C167.626 102.653 167.432 102.04 167.059 101.56C166.699 101.067 166.132 100.82 165.359 100.82Z" fill="#0500FF"/>
<path d="M109.832 234.189L109.942 235.558C110.808 234.463 111.953 233.915 113.376 233.915C114.853 233.915 115.897 234.581 116.508 235.914C117.356 234.581 118.565 233.915 120.134 233.915C122.724 233.915 124.051 235.709 124.115 239.297V249.006H120.243V239.543C120.243 238.685 120.124 238.074 119.887 237.708C119.65 237.343 119.249 237.161 118.683 237.161C117.963 237.161 117.425 237.603 117.069 238.489L117.097 238.955V249.006H113.225V239.571C113.225 238.722 113.111 238.11 112.883 237.736C112.655 237.352 112.249 237.161 111.665 237.161C111 237.161 110.471 237.521 110.079 238.242V249.006H106.207V234.189H109.832Z" fill="#5F00FA"/>
<path d="M134.201 247.65C133.399 248.737 132.322 249.28 130.973 249.28C129.614 249.28 128.583 248.814 127.881 247.883C127.179 246.943 126.827 245.578 126.827 243.789V234.189H130.699V243.884C130.717 245.327 131.196 246.048 132.135 246.048C133.02 246.048 133.659 245.665 134.051 244.898V234.189H137.95V249.006H134.311L134.201 247.65Z" fill="#5F00FA"/>
<path d="M147.202 245.035C147.202 244.706 147.042 244.405 146.723 244.131C146.413 243.848 145.715 243.469 144.63 242.994C143.034 242.346 141.935 241.675 141.333 240.981C140.74 240.287 140.444 239.425 140.444 238.393C140.444 237.097 140.909 236.028 141.839 235.189C142.778 234.34 144.019 233.915 145.56 233.915C147.183 233.915 148.483 234.335 149.459 235.175C150.435 236.015 150.923 237.142 150.923 238.557H147.051C147.051 237.352 146.55 236.75 145.546 236.75C145.136 236.75 144.798 236.878 144.534 237.133C144.27 237.389 144.137 237.745 144.137 238.201C144.137 238.53 144.283 238.822 144.575 239.078C144.867 239.324 145.555 239.68 146.641 240.146C148.219 240.73 149.331 241.383 149.979 242.104C150.635 242.816 150.964 243.743 150.964 244.884C150.964 246.208 150.467 247.272 149.473 248.075C148.478 248.878 147.174 249.28 145.56 249.28C144.475 249.28 143.517 249.07 142.687 248.65C141.857 248.221 141.205 247.628 140.731 246.87C140.266 246.112 140.033 245.295 140.033 244.419H143.713C143.731 245.094 143.886 245.601 144.178 245.939C144.479 246.276 144.967 246.445 145.642 246.445C146.682 246.445 147.202 245.975 147.202 245.035Z" fill="#5F00FA"/>
<path d="M157.37 249.006H153.485V234.189H157.37V241.598V249.006ZM153.307 230.354C153.307 229.752 153.499 229.259 153.882 228.876C154.265 228.492 154.776 228.3 155.414 228.3C156.052 228.3 156.563 228.492 156.946 228.876C157.329 229.259 157.521 229.752 157.521 230.354C157.521 230.948 157.329 231.441 156.946 231.833C156.572 232.226 156.062 232.422 155.414 232.422C154.767 232.422 154.251 232.226 153.868 231.833C153.494 231.441 153.307 230.948 153.307 230.354Z" fill="#5F00FA"/>
<path d="M165.651 246.062C166.773 246.062 167.343 245.331 167.361 243.871H171C170.982 245.487 170.485 246.792 169.509 247.787C168.533 248.782 167.275 249.28 165.733 249.28C163.827 249.28 162.372 248.687 161.369 247.5C160.366 246.313 159.855 244.565 159.837 242.255V241.077C159.837 238.749 160.33 236.973 161.315 235.75C162.309 234.527 163.772 233.915 165.706 233.915C167.338 233.915 168.624 234.422 169.564 235.435C170.503 236.439 170.982 237.868 171 239.721H167.361C167.352 238.891 167.215 238.252 166.951 237.804C166.686 237.357 166.249 237.133 165.637 237.133C164.963 237.133 164.479 237.375 164.187 237.859C163.896 238.334 163.74 239.26 163.722 240.639V242.145C163.722 243.35 163.782 244.195 163.9 244.679C164.019 245.153 164.215 245.505 164.488 245.733C164.762 245.952 165.15 246.062 165.651 246.062Z" fill="#5F00FA"/>
<path d="M25.4609 249.005C25.3514 248.776 25.2419 248.393 25.1323 247.855C24.4387 248.804 23.4987 249.278 22.3123 249.278C21.0711 249.278 20.0398 248.868 19.2184 248.046C18.4061 247.225 18 246.162 18 244.857C18 243.305 18.4928 242.105 19.4785 241.256C20.4733 240.407 21.9016 239.974 23.7634 239.956H24.9407V238.765C24.9407 238.098 24.8266 237.628 24.5984 237.355C24.3703 237.081 24.0372 236.944 23.5991 236.944C22.6317 236.944 22.148 237.51 22.148 238.641H18.2738C18.2738 237.272 18.7849 236.145 19.807 235.26C20.8383 234.366 22.1389 233.918 23.7086 233.918C25.3331 233.918 26.588 234.343 27.4733 235.192C28.3677 236.031 28.8149 237.236 28.8149 238.806V245.774C28.8331 247.051 29.0157 248.051 29.3625 248.772V249.005H25.4609ZM23.1747 246.239C23.6037 246.239 23.9687 246.152 24.2699 245.979C24.5711 245.806 24.7947 245.6 24.9407 245.363V242.283H24.0098C23.3527 242.283 22.8325 242.493 22.4492 242.913C22.075 243.332 21.8879 243.894 21.8879 244.596C21.8879 245.692 22.3168 246.239 23.1747 246.239Z" fill="#5F00FA"/>
<path d="M34.9824 234.192L35.0919 235.561C35.9589 234.466 37.1043 233.918 38.528 233.918C40.0065 233.918 41.0515 234.585 41.6629 235.917C42.5117 234.585 43.721 233.918 45.2907 233.918C47.8826 233.918 49.2105 235.712 49.2744 239.299V249.005H45.4002V239.545C45.4002 238.687 45.2816 238.076 45.0443 237.711C44.807 237.345 44.4055 237.163 43.8396 237.163C43.1186 237.163 42.5802 237.606 42.2242 238.491L42.2516 238.956V249.005H38.3774V239.572C38.3774 238.724 38.2633 238.112 38.0352 237.738C37.807 237.355 37.4009 237.163 36.8168 237.163C36.1506 237.163 35.6212 237.523 35.2288 238.244V249.005H31.3546V234.192H34.9824Z" fill="#5F00FA"/>
<path d="M58.9054 249.005C58.7959 248.776 58.6864 248.393 58.5769 247.855C57.8833 248.804 56.9432 249.278 55.7568 249.278C54.5156 249.278 53.4843 248.868 52.6629 248.046C51.8507 247.225 51.4445 246.162 51.4445 244.857C51.4445 243.305 51.9374 242.105 52.923 241.256C53.9178 240.407 55.3461 239.974 57.2079 239.956H58.3852V238.765C58.3852 238.098 58.2711 237.628 58.043 237.355C57.8148 237.081 57.4817 236.944 57.0436 236.944C56.0762 236.944 55.5925 237.51 55.5925 238.641H51.7183C51.7183 237.272 52.2294 236.145 53.2516 235.26C54.2829 234.366 55.5834 233.918 57.1531 233.918C58.7776 233.918 60.0325 234.343 60.9178 235.192C61.8122 236.031 62.2594 237.236 62.2594 238.806V245.774C62.2777 247.051 62.4602 248.051 62.807 248.772V249.005H58.9054ZM56.6192 246.239C57.0482 246.239 57.4132 246.152 57.7144 245.979C58.0156 245.806 58.2392 245.6 58.3852 245.363V242.283H57.4543C56.7972 242.283 56.277 242.493 55.8937 242.913C55.5195 243.332 55.3324 243.894 55.3324 244.596C55.3324 245.692 55.7613 246.239 56.6192 246.239Z" fill="#5F00FA"/>
<path d="M68.9882 244.931H70.8106L72.3909 245.133L74.8474 245.897V249.005L73.5123 248.375L72.3909 247.855L71.2694 247.732H70.148H68.9882H67.8179L66.2228 248.046L64.3884 249.005V246.581L70.1107 237.423H64.5253V234.192H74.7652V236.533L68.9882 244.931Z" fill="#5F00FA"/>
<path d="M76.5383 241.119C76.5383 238.874 77.0677 237.113 78.1263 235.835C79.185 234.557 80.6498 233.918 82.5207 233.918C84.4099 233.918 85.8838 234.557 86.9425 235.835C88.0012 237.113 88.5305 238.883 88.5305 241.147V242.091C88.5305 244.345 88.0057 246.107 86.9562 247.375C85.9066 248.644 84.4373 249.278 82.5481 249.278C80.6498 249.278 79.1713 248.644 78.1126 247.375C77.0631 246.098 76.5383 244.327 76.5383 242.064V241.119ZM80.4262 242.091C80.4262 244.738 81.1335 246.061 82.5481 246.061C83.8532 246.061 84.5559 244.957 84.6563 242.748L84.67 241.119C84.67 239.769 84.4829 238.769 84.1087 238.121C83.7346 237.464 83.2052 237.136 82.5207 237.136C81.8636 237.136 81.348 237.464 80.9738 238.121C80.6087 238.769 80.4262 239.769 80.4262 241.119V242.091Z" fill="#5F00FA"/>
<path d="M94.2189 234.192L94.3284 235.657C95.2045 234.498 96.3499 233.918 97.7645 233.918C100.311 233.918 101.62 235.703 101.693 239.271V249.005H97.8056V239.559C97.8056 238.719 97.6778 238.112 97.4223 237.738C97.1758 237.355 96.7378 237.163 96.108 237.163C95.4053 237.163 94.8577 237.523 94.4653 238.244V249.005H90.5774V234.192H94.2189Z" fill="#5F00FA"/>
<path d="M68.512 252.545C68.7267 254.179 61.1262 257.862 51.323 259.15C41.5197 260.438 28.3314 252.129 28.1167 250.495C27.9021 248.861 41.6062 257.226 51.4095 255.939C61.2128 254.651 68.2974 250.911 68.512 252.545Z" fill="#5F00FA"/>
<path d="M69.0683 256.373C67.6125 257.527 71.96 252.82 69.5871 250.846C67.5115 249.12 63.2744 251.406 64.7301 250.251C66.1859 249.096 67.9103 248.462 71.4099 249.265C72.5311 253.742 70.3688 255.341 69.0683 256.373Z" fill="#5F00FA"/>
<path d="M25.86 314.28C23.78 314.28 22.16 313.713 21 312.58C19.8533 311.447 19.28 309.84 19.28 307.76V300H23.24V307.64C23.24 309.88 24.1267 311 25.9 311C27.66 311 28.54 309.88 28.54 307.64V300H32.44V307.76C32.44 309.84 31.86 311.447 30.7 312.58C29.5533 313.713 27.94 314.28 25.86 314.28ZM49.0427 300V314H45.7827L39.6027 306.54V314H35.7227V300H38.9827L45.1627 307.46V300H49.0427ZM52.4359 300H56.3959V310.86H63.0759V314H52.4359V300ZM65.243 300H69.203V314H65.243V300ZM85.2603 314L85.2203 306.58L81.6203 312.62H79.8603L76.2803 306.78V314H72.6203V300H75.8803L80.8003 308.08L85.6003 300H88.8603L88.9003 314H85.2603ZM92.3023 300H96.2623V314H92.3023V300ZM102.66 303.14H98.3597V300H110.9V303.14H106.62V314H102.66V303.14ZM124.215 310.94V314H112.975V300H123.955V303.06H116.895V305.42H123.115V308.38H116.895V310.94H124.215ZM127.013 300H133.633C135.166 300 136.526 300.287 137.713 300.86C138.899 301.433 139.819 302.247 140.473 303.3C141.126 304.353 141.453 305.587 141.453 307C141.453 308.413 141.126 309.647 140.473 310.7C139.819 311.753 138.899 312.567 137.713 313.14C136.526 313.713 135.166 314 133.633 314H127.013V300ZM133.473 310.84C134.673 310.84 135.633 310.5 136.353 309.82C137.086 309.14 137.453 308.2 137.453 307C137.453 305.8 137.086 304.86 136.353 304.18C135.633 303.5 134.673 303.16 133.473 303.16H130.973V310.84H133.473ZM23.78 327.08C25.4467 327.08 26.7267 327.48 27.62 328.28C28.5133 329.067 28.96 330.26 28.96 331.86V338H26.04V336.66C25.4533 337.66 24.36 338.16 22.76 338.16C21.9333 338.16 21.2133 338.02 20.6 337.74C20 337.46 19.54 337.073 19.22 336.58C18.9 336.087 18.74 335.527 18.74 334.9C18.74 333.9 19.1133 333.113 19.86 332.54C20.62 331.967 21.7867 331.68 23.36 331.68H25.84C25.84 331 25.6333 330.48 25.22 330.12C24.8067 329.747 24.1867 329.56 23.36 329.56C22.7867 329.56 22.22 329.653 21.66 329.84C21.1133 330.013 20.6467 330.253 20.26 330.56L19.14 328.38C19.7267 327.967 20.4267 327.647 21.24 327.42C22.0667 327.193 22.9133 327.08 23.78 327.08ZM23.54 336.06C24.0733 336.06 24.5467 335.94 24.96 335.7C25.3733 335.447 25.6667 335.08 25.84 334.6V333.5H23.7C22.42 333.5 21.78 333.92 21.78 334.76C21.78 335.16 21.9333 335.48 22.24 335.72C22.56 335.947 22.9933 336.06 23.54 336.06ZM37.7009 338.16C36.5543 338.16 35.5209 337.927 34.6009 337.46C33.6943 336.98 32.9809 336.32 32.4609 335.48C31.9543 334.64 31.7009 333.687 31.7009 332.62C31.7009 331.553 31.9543 330.6 32.4609 329.76C32.9809 328.92 33.6943 328.267 34.6009 327.8C35.5209 327.32 36.5543 327.08 37.7009 327.08C38.8343 327.08 39.8209 327.32 40.6609 327.8C41.5143 328.267 42.1343 328.94 42.5209 329.82L40.1009 331.12C39.5409 330.133 38.7343 329.64 37.6809 329.64C36.8676 329.64 36.1943 329.907 35.6609 330.44C35.1276 330.973 34.8609 331.7 34.8609 332.62C34.8609 333.54 35.1276 334.267 35.6609 334.8C36.1943 335.333 36.8676 335.6 37.6809 335.6C38.7476 335.6 39.5543 335.107 40.1009 334.12L42.5209 335.44C42.1343 336.293 41.5143 336.96 40.6609 337.44C39.8209 337.92 38.8343 338.16 37.7009 338.16ZM49.9806 338.16C48.834 338.16 47.8006 337.927 46.8806 337.46C45.974 336.98 45.2606 336.32 44.7406 335.48C44.234 334.64 43.9806 333.687 43.9806 332.62C43.9806 331.553 44.234 330.6 44.7406 329.76C45.2606 328.92 45.974 328.267 46.8806 327.8C47.8006 327.32 48.834 327.08 49.9806 327.08C51.114 327.08 52.1006 327.32 52.9406 327.8C53.794 328.267 54.414 328.94 54.8006 329.82L52.3806 331.12C51.8206 330.133 51.014 329.64 49.9606 329.64C49.1473 329.64 48.474 329.907 47.9406 330.44C47.4073 330.973 47.1406 331.7 47.1406 332.62C47.1406 333.54 47.4073 334.267 47.9406 334.8C48.474 335.333 49.1473 335.6 49.9606 335.6C51.0273 335.6 51.834 335.107 52.3806 334.12L54.8006 335.44C54.414 336.293 53.794 336.96 52.9406 337.44C52.1006 337.92 51.114 338.16 49.9806 338.16ZM67.6003 332.66C67.6003 332.7 67.5803 332.98 67.5403 333.5H59.4003C59.547 334.167 59.8936 334.693 60.4403 335.08C60.987 335.467 61.667 335.66 62.4803 335.66C63.0403 335.66 63.5336 335.58 63.9603 335.42C64.4003 335.247 64.807 334.98 65.1803 334.62L66.8403 336.42C65.827 337.58 64.347 338.16 62.4003 338.16C61.187 338.16 60.1136 337.927 59.1803 337.46C58.247 336.98 57.527 336.32 57.0203 335.48C56.5136 334.64 56.2603 333.687 56.2603 332.62C56.2603 331.567 56.507 330.62 57.0003 329.78C57.507 328.927 58.1936 328.267 59.0603 327.8C59.9403 327.32 60.9203 327.08 62.0003 327.08C63.0536 327.08 64.007 327.307 64.8603 327.76C65.7136 328.213 66.3803 328.867 66.8603 329.72C67.3536 330.56 67.6003 331.54 67.6003 332.66ZM62.0203 329.44C61.3136 329.44 60.7203 329.64 60.2403 330.04C59.7603 330.44 59.467 330.987 59.3603 331.68H64.6603C64.5536 331 64.2603 330.46 63.7803 330.06C63.3003 329.647 62.7136 329.44 62.0203 329.44ZM73.8975 338.16C73.0042 338.16 72.1308 338.053 71.2775 337.84C70.4242 337.613 69.7442 337.333 69.2375 337L70.2775 334.76C70.7575 335.067 71.3375 335.32 72.0175 335.52C72.6975 335.707 73.3642 335.8 74.0175 335.8C75.3375 335.8 75.9975 335.473 75.9975 334.82C75.9975 334.513 75.8175 334.293 75.4575 334.16C75.0975 334.027 74.5442 333.913 73.7975 333.82C72.9175 333.687 72.1908 333.533 71.6175 333.36C71.0442 333.187 70.5442 332.88 70.1175 332.44C69.7042 332 69.4975 331.373 69.4975 330.56C69.4975 329.88 69.6908 329.28 70.0775 328.76C70.4775 328.227 71.0508 327.813 71.7975 327.52C72.5575 327.227 73.4508 327.08 74.4775 327.08C75.2375 327.08 75.9908 327.167 76.7375 327.34C77.4975 327.5 78.1242 327.727 78.6175 328.02L77.5775 330.24C76.6308 329.707 75.5975 329.44 74.4775 329.44C73.8108 329.44 73.3108 329.533 72.9775 329.72C72.6442 329.907 72.4775 330.147 72.4775 330.44C72.4775 330.773 72.6575 331.007 73.0175 331.14C73.3775 331.273 73.9508 331.4 74.7375 331.52C75.6175 331.667 76.3375 331.827 76.8975 332C77.4575 332.16 77.9442 332.46 78.3575 332.9C78.7708 333.34 78.9775 333.953 78.9775 334.74C78.9775 335.407 78.7775 336 78.3775 336.52C77.9775 337.04 77.3908 337.447 76.6175 337.74C75.8575 338.02 74.9508 338.16 73.8975 338.16ZM85.1225 338.16C84.2292 338.16 83.3558 338.053 82.5025 337.84C81.6492 337.613 80.9692 337.333 80.4625 337L81.5025 334.76C81.9825 335.067 82.5625 335.32 83.2425 335.52C83.9225 335.707 84.5892 335.8 85.2425 335.8C86.5625 335.8 87.2225 335.473 87.2225 334.82C87.2225 334.513 87.0425 334.293 86.6825 334.16C86.3225 334.027 85.7692 333.913 85.0225 333.82C84.1425 333.687 83.4158 333.533 82.8425 333.36C82.2692 333.187 81.7692 332.88 81.3425 332.44C80.9292 332 80.7225 331.373 80.7225 330.56C80.7225 329.88 80.9158 329.28 81.3025 328.76C81.7025 328.227 82.2758 327.813 83.0225 327.52C83.7825 327.227 84.6758 327.08 85.7025 327.08C86.4625 327.08 87.2158 327.167 87.9625 327.34C88.7225 327.5 89.3492 327.727 89.8425 328.02L88.8025 330.24C87.8558 329.707 86.8225 329.44 85.7025 329.44C85.0358 329.44 84.5358 329.533 84.2025 329.72C83.8692 329.907 83.7025 330.147 83.7025 330.44C83.7025 330.773 83.8825 331.007 84.2425 331.14C84.6025 331.273 85.1758 331.4 85.9625 331.52C86.8425 331.667 87.5625 331.827 88.1225 332C88.6825 332.16 89.1692 332.46 89.5825 332.9C89.9958 333.34 90.2025 333.953 90.2025 334.74C90.2025 335.407 90.0025 336 89.6025 336.52C89.2025 337.04 88.6158 337.447 87.8425 337.74C87.0825 338.02 86.1758 338.16 85.1225 338.16ZM105.932 337.48C105.625 337.707 105.245 337.88 104.792 338C104.352 338.107 103.885 338.16 103.392 338.16C102.112 338.16 101.118 337.833 100.412 337.18C99.7182 336.527 99.3716 335.567 99.3716 334.3V329.88H97.7116V327.48H99.3716V324.86H102.492V327.48H105.172V329.88H102.492V334.26C102.492 334.713 102.605 335.067 102.832 335.32C103.072 335.56 103.405 335.68 103.832 335.68C104.325 335.68 104.745 335.547 105.092 335.28L105.932 337.48ZM113.071 338.16C111.938 338.16 110.918 337.927 110.011 337.46C109.118 336.98 108.418 336.32 107.911 335.48C107.404 334.64 107.151 333.687 107.151 332.62C107.151 331.553 107.404 330.6 107.911 329.76C108.418 328.92 109.118 328.267 110.011 327.8C110.918 327.32 111.938 327.08 113.071 327.08C114.204 327.08 115.218 327.32 116.111 327.8C117.004 328.267 117.704 328.92 118.211 329.76C118.718 330.6 118.971 331.553 118.971 332.62C118.971 333.687 118.718 334.64 118.211 335.48C117.704 336.32 117.004 336.98 116.111 337.46C115.218 337.927 114.204 338.16 113.071 338.16ZM113.071 335.6C113.871 335.6 114.524 335.333 115.031 334.8C115.551 334.253 115.811 333.527 115.811 332.62C115.811 331.713 115.551 330.993 115.031 330.46C114.524 329.913 113.871 329.64 113.071 329.64C112.271 329.64 111.611 329.913 111.091 330.46C110.571 330.993 110.311 331.713 110.311 332.62C110.311 333.527 110.571 334.253 111.091 334.8C111.611 335.333 112.271 335.6 113.071 335.6ZM23.58 353.26C25.5533 353.26 27.0067 353.653 27.94 354.44C28.8867 355.227 29.36 356.28 29.36 357.6C29.36 358.453 29.1467 359.233 28.72 359.94C28.2933 360.633 27.64 361.193 26.76 361.62C25.8933 362.033 24.82 362.24 23.54 362.24C22.5533 362.24 21.58 362.113 20.62 361.86C19.6733 361.593 18.8667 361.22 18.2 360.74L19.48 358.26C20.0133 358.66 20.6267 358.973 21.32 359.2C22.0133 359.413 22.7267 359.52 23.46 359.52C24.2733 359.52 24.9133 359.36 25.38 359.04C25.8467 358.72 26.08 358.273 26.08 357.7C26.08 357.1 25.8333 356.647 25.34 356.34C24.86 356.033 24.02 355.88 22.82 355.88H19.24L19.96 348H28.5V350.6H22.66L22.44 353.26H23.58ZM37.2745 362.24C36.1145 362.24 35.0812 361.953 34.1745 361.38C33.2679 360.807 32.5545 359.98 32.0345 358.9C31.5279 357.807 31.2745 356.507 31.2745 355C31.2745 353.493 31.5279 352.2 32.0345 351.12C32.5545 350.027 33.2679 349.193 34.1745 348.62C35.0812 348.047 36.1145 347.76 37.2745 347.76C38.4345 347.76 39.4679 348.047 40.3745 348.62C41.2812 349.193 41.9879 350.027 42.4945 351.12C43.0145 352.2 43.2745 353.493 43.2745 355C43.2745 356.507 43.0145 357.807 42.4945 358.9C41.9879 359.98 41.2812 360.807 40.3745 361.38C39.4679 361.953 38.4345 362.24 37.2745 362.24ZM37.2745 359.5C38.1279 359.5 38.7945 359.133 39.2745 358.4C39.7679 357.667 40.0145 356.533 40.0145 355C40.0145 353.467 39.7679 352.333 39.2745 351.6C38.7945 350.867 38.1279 350.5 37.2745 350.5C36.4345 350.5 35.7679 350.867 35.2745 351.6C34.7945 352.333 34.5545 353.467 34.5545 355C34.5545 356.533 34.7945 357.667 35.2745 358.4C35.7679 359.133 36.4345 359.5 37.2745 359.5ZM66.1528 351.08C67.4995 351.08 68.5661 351.48 69.3528 352.28C70.1528 353.067 70.5528 354.253 70.5528 355.84V362H67.4328V356.32C67.4328 355.467 67.2528 354.833 66.8928 354.42C66.5461 353.993 66.0461 353.78 65.3928 353.78C64.6595 353.78 64.0795 354.02 63.6528 354.5C63.2261 354.967 63.0128 355.667 63.0128 356.6V362H59.8928V356.32C59.8928 354.627 59.2128 353.78 57.8528 353.78C57.1328 353.78 56.5595 354.02 56.1328 354.5C55.7061 354.967 55.4928 355.667 55.4928 356.6V362H52.3728V351.24H55.3528V352.48C55.7528 352.027 56.2395 351.68 56.8128 351.44C57.3995 351.2 58.0395 351.08 58.7328 351.08C59.4928 351.08 60.1795 351.233 60.7928 351.54C61.4061 351.833 61.8995 352.267 62.2728 352.84C62.7128 352.28 63.2661 351.847 63.9328 351.54C64.6128 351.233 65.3528 351.08 66.1528 351.08ZM73.9494 351.24H77.0694V362H73.9494V351.24ZM75.5094 349.74C74.936 349.74 74.4694 349.573 74.1094 349.24C73.7494 348.907 73.5694 348.493 73.5694 348C73.5694 347.507 73.7494 347.093 74.1094 346.76C74.4694 346.427 74.936 346.26 75.5094 346.26C76.0827 346.26 76.5494 346.42 76.9094 346.74C77.2694 347.06 77.4494 347.46 77.4494 347.94C77.4494 348.46 77.2694 348.893 76.9094 349.24C76.5494 349.573 76.0827 349.74 75.5094 349.74ZM80.565 347.16H83.685V362H80.565V347.16ZM87.1806 347.16H90.3006V362H87.1806V347.16ZM93.7962 351.24H96.9162V362H93.7962V351.24ZM95.3562 349.74C94.7829 349.74 94.3162 349.573 93.9562 349.24C93.5962 348.907 93.4162 348.493 93.4162 348C93.4162 347.507 93.5962 347.093 93.9562 346.76C94.3162 346.427 94.7829 346.26 95.3562 346.26C95.9296 346.26 96.3962 346.42 96.7562 346.74C97.1162 347.06 97.2962 347.46 97.2962 347.94C97.2962 348.46 97.1162 348.893 96.7562 349.24C96.3962 349.573 95.9296 349.74 95.3562 349.74ZM105.532 362.16C104.399 362.16 103.379 361.927 102.472 361.46C101.579 360.98 100.879 360.32 100.372 359.48C99.8652 358.64 99.6119 357.687 99.6119 356.62C99.6119 355.553 99.8652 354.6 100.372 353.76C100.879 352.92 101.579 352.267 102.472 351.8C103.379 351.32 104.399 351.08 105.532 351.08C106.665 351.08 107.679 351.32 108.572 351.8C109.465 352.267 110.165 352.92 110.672 353.76C111.179 354.6 111.432 355.553 111.432 356.62C111.432 357.687 111.179 358.64 110.672 359.48C110.165 360.32 109.465 360.98 108.572 361.46C107.679 361.927 106.665 362.16 105.532 362.16ZM105.532 359.6C106.332 359.6 106.985 359.333 107.492 358.8C108.012 358.253 108.272 357.527 108.272 356.62C108.272 355.713 108.012 354.993 107.492 354.46C106.985 353.913 106.332 353.64 105.532 353.64C104.732 353.64 104.072 353.913 103.552 354.46C103.032 354.993 102.772 355.713 102.772 356.62C102.772 357.527 103.032 358.253 103.552 358.8C104.072 359.333 104.732 359.6 105.532 359.6ZM120.657 351.08C121.991 351.08 123.064 351.48 123.877 352.28C124.704 353.08 125.117 354.267 125.117 355.84V362H121.997V356.32C121.997 355.467 121.811 354.833 121.437 354.42C121.064 353.993 120.524 353.78 119.817 353.78C119.031 353.78 118.404 354.027 117.937 354.52C117.471 355 117.237 355.72 117.237 356.68V362H114.117V351.24H117.097V352.5C117.511 352.047 118.024 351.7 118.637 351.46C119.251 351.207 119.924 351.08 120.657 351.08ZM23.06 386.16C22.1667 386.16 21.2933 386.053 20.44 385.84C19.5867 385.613 18.9067 385.333 18.4 385L19.44 382.76C19.92 383.067 20.5 383.32 21.18 383.52C21.86 383.707 22.5267 383.8 23.18 383.8C24.5 383.8 25.16 383.473 25.16 382.82C25.16 382.513 24.98 382.293 24.62 382.16C24.26 382.027 23.7067 381.913 22.96 381.82C22.08 381.687 21.3533 381.533 20.78 381.36C20.2067 381.187 19.7067 380.88 19.28 380.44C18.8667 380 18.66 379.373 18.66 378.56C18.66 377.88 18.8533 377.28 19.24 376.76C19.64 376.227 20.2133 375.813 20.96 375.52C21.72 375.227 22.6133 375.08 23.64 375.08C24.4 375.08 25.1533 375.167 25.9 375.34C26.66 375.5 27.2867 375.727 27.78 376.02L26.74 378.24C25.7933 377.707 24.76 377.44 23.64 377.44C22.9733 377.44 22.4733 377.533 22.14 377.72C21.8067 377.907 21.64 378.147 21.64 378.44C21.64 378.773 21.82 379.007 22.18 379.14C22.54 379.273 23.1133 379.4 23.9 379.52C24.78 379.667 25.5 379.827 26.06 380C26.62 380.16 27.1067 380.46 27.52 380.9C27.9333 381.34 28.14 381.953 28.14 382.74C28.14 383.407 27.94 384 27.54 384.52C27.14 385.04 26.5533 385.447 25.78 385.74C25.02 386.02 24.1133 386.16 23.06 386.16ZM35.785 386.16C34.6517 386.16 33.6317 385.927 32.725 385.46C31.8317 384.98 31.1317 384.32 30.625 383.48C30.1183 382.64 29.865 381.687 29.865 380.62C29.865 379.553 30.1183 378.6 30.625 377.76C31.1317 376.92 31.8317 376.267 32.725 375.8C33.6317 375.32 34.6517 375.08 35.785 375.08C36.9183 375.08 37.9317 375.32 38.825 375.8C39.7183 376.267 40.4183 376.92 40.925 377.76C41.4317 378.6 41.685 379.553 41.685 380.62C41.685 381.687 41.4317 382.64 40.925 383.48C40.4183 384.32 39.7183 384.98 38.825 385.46C37.9317 385.927 36.9183 386.16 35.785 386.16ZM35.785 383.6C36.585 383.6 37.2383 383.333 37.745 382.8C38.265 382.253 38.525 381.527 38.525 380.62C38.525 379.713 38.265 378.993 37.745 378.46C37.2383 377.913 36.585 377.64 35.785 377.64C34.985 377.64 34.325 377.913 33.805 378.46C33.285 378.993 33.025 379.713 33.025 380.62C33.025 381.527 33.285 382.253 33.805 382.8C34.325 383.333 34.985 383.6 35.785 383.6ZM50.9105 375.08C52.2438 375.08 53.3171 375.48 54.1305 376.28C54.9571 377.08 55.3705 378.267 55.3705 379.84V386H52.2505V380.32C52.2505 379.467 52.0638 378.833 51.6905 378.42C51.3171 377.993 50.7771 377.78 50.0705 377.78C49.2838 377.78 48.6571 378.027 48.1905 378.52C47.7238 379 47.4905 379.72 47.4905 380.68V386H44.3705V375.24H47.3505V376.5C47.7638 376.047 48.2771 375.7 48.8905 375.46C49.5038 375.207 50.1771 375.08 50.9105 375.08ZM70.0158 375.24V384.2C70.0158 386.173 69.5024 387.64 68.4758 388.6C67.4491 389.56 65.9491 390.04 63.9758 390.04C62.9358 390.04 61.9491 389.913 61.0158 389.66C60.0824 389.407 59.3091 389.04 58.6958 388.56L59.9358 386.32C60.3891 386.693 60.9624 386.987 61.6558 387.2C62.3491 387.427 63.0424 387.54 63.7358 387.54C64.8158 387.54 65.6091 387.293 66.1158 386.8C66.6358 386.32 66.8958 385.587 66.8958 384.6V384.14C66.0824 385.033 64.9491 385.48 63.4958 385.48C62.5091 385.48 61.6024 385.267 60.7758 384.84C59.9624 384.4 59.3158 383.787 58.8358 383C58.3558 382.213 58.1158 381.307 58.1158 380.28C58.1158 379.253 58.3558 378.347 58.8358 377.56C59.3158 376.773 59.9624 376.167 60.7758 375.74C61.6024 375.3 62.5091 375.08 63.4958 375.08C65.0558 375.08 66.2424 375.593 67.0558 376.62V375.24H70.0158ZM64.1158 382.92C64.9424 382.92 65.6158 382.68 66.1358 382.2C66.6691 381.707 66.9358 381.067 66.9358 380.28C66.9358 379.493 66.6691 378.86 66.1358 378.38C65.6158 377.887 64.9424 377.64 64.1158 377.64C63.2891 377.64 62.6091 377.887 62.0758 378.38C61.5424 378.86 61.2758 379.493 61.2758 380.28C61.2758 381.067 61.5424 381.707 62.0758 382.2C62.6091 382.68 63.2891 382.92 64.1158 382.92ZM77.1397 386.16C76.2464 386.16 75.373 386.053 74.5197 385.84C73.6664 385.613 72.9864 385.333 72.4797 385L73.5197 382.76C73.9997 383.067 74.5797 383.32 75.2597 383.52C75.9397 383.707 76.6064 383.8 77.2597 383.8C78.5797 383.8 79.2397 383.473 79.2397 382.82C79.2397 382.513 79.0597 382.293 78.6997 382.16C78.3397 382.027 77.7864 381.913 77.0397 381.82C76.1597 381.687 75.433 381.533 74.8597 381.36C74.2864 381.187 73.7864 380.88 73.3597 380.44C72.9464 380 72.7397 379.373 72.7397 378.56C72.7397 377.88 72.933 377.28 73.3197 376.76C73.7197 376.227 74.293 375.813 75.0397 375.52C75.7997 375.227 76.693 375.08 77.7197 375.08C78.4797 375.08 79.233 375.167 79.9797 375.34C80.7397 375.5 81.3664 375.727 81.8597 376.02L80.8197 378.24C79.873 377.707 78.8397 377.44 77.7197 377.44C77.053 377.44 76.553 377.533 76.2197 377.72C75.8864 377.907 75.7197 378.147 75.7197 378.44C75.7197 378.773 75.8997 379.007 76.2597 379.14C76.6197 379.273 77.193 379.4 77.9797 379.52C78.8597 379.667 79.5797 379.827 80.1397 380C80.6997 380.16 81.1864 380.46 81.5997 380.9C82.013 381.34 82.2197 381.953 82.2197 382.74C82.2197 383.407 82.0197 384 81.6197 384.52C81.2197 385.04 80.633 385.447 79.8597 385.74C79.0997 386.02 78.193 386.16 77.1397 386.16Z" fill="#0500FF"/>
<path d="M72.0248 449H68.9528V434.456H64.0328V431.864H76.9448V434.456H72.0248V449ZM85.6209 435.752C85.8289 435.752 86.0529 435.76 86.2929 435.776C86.5489 435.792 86.7649 435.824 86.9409 435.872L86.6769 438.68C86.5169 438.648 86.3249 438.624 86.1009 438.608C85.8769 438.576 85.6769 438.56 85.5009 438.56C84.8609 438.56 84.2609 438.696 83.7009 438.968C83.1409 439.224 82.6849 439.632 82.3329 440.192C81.9969 440.736 81.8289 441.424 81.8289 442.256V449H78.8049V435.992H81.1329L81.5649 438.248H81.7089C82.0929 437.56 82.6209 436.976 83.2929 436.496C83.9649 436 84.7409 435.752 85.6209 435.752ZM88.1278 435.992H91.4158L94.0078 443.336C94.1838 443.8 94.3278 444.256 94.4398 444.704C94.5518 445.152 94.6318 445.608 94.6798 446.072H94.7758C94.8398 445.672 94.9358 445.232 95.0638 444.752C95.1918 444.272 95.3358 443.8 95.4958 443.336L97.9918 435.992H101.256L95.7118 450.728C95.2158 452.024 94.5358 453.016 93.6718 453.704C92.8238 454.408 91.7758 454.76 90.5278 454.76C90.1278 454.76 89.7838 454.736 89.4958 454.688C89.2078 454.656 88.9518 454.616 88.7278 454.568V452.168C88.9038 452.2 89.1118 452.232 89.3518 452.264C89.6078 452.296 89.8718 452.312 90.1438 452.312C90.8958 452.312 91.4878 452.088 91.9198 451.64C92.3678 451.208 92.7118 450.664 92.9518 450.008L93.3358 448.952L88.1278 435.992ZM125.727 449H121.911L113.799 435.56H113.703C113.751 436.28 113.791 437.056 113.823 437.888C113.871 438.704 113.903 439.528 113.919 440.36V449H111.159V431.864H114.951L123.039 445.208H123.111C123.079 444.568 123.047 443.832 123.015 443C122.983 442.168 122.959 441.36 122.943 440.576V431.864H125.727V449ZM146.222 440.408C146.222 442.184 145.926 443.736 145.334 445.064C144.758 446.376 143.87 447.4 142.67 448.136C141.47 448.872 139.966 449.24 138.158 449.24C136.334 449.24 134.822 448.872 133.622 448.136C132.438 447.4 131.55 446.368 130.958 445.04C130.382 443.712 130.094 442.16 130.094 440.384C130.094 438.624 130.382 437.088 130.958 435.776C131.55 434.448 132.438 433.424 133.622 432.704C134.822 431.968 136.342 431.6 138.182 431.6C139.99 431.6 141.486 431.968 142.67 432.704C143.87 433.424 144.758 434.448 145.334 435.776C145.926 437.088 146.222 438.632 146.222 440.408ZM133.334 440.408C133.334 442.344 133.718 443.864 134.486 444.968C135.254 446.072 136.478 446.624 138.158 446.624C139.854 446.624 141.078 446.072 141.83 444.968C142.598 443.864 142.982 442.344 142.982 440.408C142.982 438.472 142.606 436.952 141.854 435.848C141.102 434.744 139.878 434.192 138.182 434.192C136.502 434.192 135.27 434.744 134.486 435.848C133.718 436.952 133.334 438.472 133.334 440.408ZM170.877 431.864L166.437 449H163.053L160.341 439.16C160.245 438.84 160.141 438.432 160.029 437.936C159.917 437.424 159.813 436.928 159.717 436.448C159.621 435.968 159.557 435.616 159.525 435.392C159.493 435.616 159.429 435.968 159.333 436.448C159.253 436.912 159.149 437.4 159.021 437.912C158.909 438.424 158.805 438.856 158.709 439.208L156.069 449H152.661L148.245 431.864H151.317L153.669 441.632C153.781 442.048 153.885 442.52 153.981 443.048C154.093 443.576 154.197 444.104 154.293 444.632C154.389 445.144 154.461 445.592 154.509 445.976C154.557 445.576 154.629 445.112 154.725 444.584C154.821 444.056 154.925 443.544 155.037 443.048C155.149 442.536 155.253 442.104 155.349 441.752L158.037 431.864H161.013L163.749 441.776C163.861 442.128 163.973 442.568 164.085 443.096C164.197 443.608 164.301 444.12 164.397 444.632C164.493 445.144 164.565 445.592 164.613 445.976C164.661 445.576 164.725 445.12 164.805 444.608C164.901 444.096 165.005 443.576 165.117 443.048C165.229 442.52 165.341 442.048 165.453 441.632L167.805 431.864H170.877ZM91.0494 468.776C91.0494 469.944 90.7054 470.88 90.0174 471.584C89.3454 472.272 88.4734 472.736 87.4014 472.976V473.048C88.7774 473.224 89.8174 473.656 90.5214 474.344C91.2254 475.016 91.5774 475.92 91.5774 477.056C91.5774 478.048 91.3374 478.936 90.8574 479.72C90.3774 480.504 89.6334 481.12 88.6254 481.568C87.6334 482.016 86.3534 482.24 84.7854 482.24C83.8574 482.24 82.9934 482.16 82.1934 482C81.3934 481.856 80.6414 481.624 79.9374 481.304V478.64C80.6574 479.008 81.4254 479.288 82.2414 479.48C83.0574 479.672 83.8254 479.768 84.5454 479.768C85.9374 479.768 86.9214 479.52 87.4974 479.024C88.0734 478.512 88.3614 477.808 88.3614 476.912C88.3614 476.064 88.0254 475.432 87.3534 475.016C86.6814 474.6 85.5614 474.392 83.9934 474.392H82.5534V471.968H84.0174C85.5374 471.968 86.5854 471.728 87.1614 471.248C87.7374 470.752 88.0254 470.104 88.0254 469.304C88.0254 468.616 87.8014 468.08 87.3534 467.696C86.9054 467.312 86.2334 467.12 85.3374 467.12C84.4734 467.12 83.7294 467.264 83.1054 467.552C82.4814 467.824 81.9214 468.12 81.4254 468.44L79.9854 466.352C80.6254 465.872 81.3934 465.464 82.2894 465.128C83.2014 464.792 84.2654 464.624 85.4814 464.624C87.2574 464.624 88.6254 465 89.5854 465.752C90.5614 466.488 91.0494 467.496 91.0494 468.776ZM106.128 473.432C106.128 475.272 105.936 476.848 105.552 478.16C105.168 479.472 104.544 480.48 103.68 481.184C102.816 481.888 101.672 482.24 100.248 482.24C98.2318 482.24 96.7518 481.464 95.8078 479.912C94.8638 478.344 94.3918 476.184 94.3918 473.432C94.3918 471.576 94.5838 469.992 94.9678 468.68C95.3518 467.368 95.9678 466.36 96.8158 465.656C97.6798 464.952 98.8238 464.6 100.248 464.6C102.248 464.6 103.728 465.376 104.688 466.928C105.648 468.48 106.128 470.648 106.128 473.432ZM97.4398 473.432C97.4398 475.528 97.6398 477.104 98.0398 478.16C98.4558 479.216 99.1918 479.744 100.248 479.744C101.288 479.744 102.016 479.224 102.432 478.184C102.864 477.128 103.08 475.544 103.08 473.432C103.08 471.32 102.864 469.736 102.432 468.68C102.016 467.624 101.288 467.096 100.248 467.096C99.1918 467.096 98.4558 467.624 98.0398 468.68C97.6398 469.736 97.4398 471.32 97.4398 473.432ZM121.057 482.24C119.537 482.24 118.313 481.672 117.385 480.536C116.457 479.4 115.993 477.728 115.993 475.52C115.993 473.28 116.465 471.592 117.409 470.456C118.353 469.32 119.593 468.752 121.129 468.752C122.089 468.752 122.873 468.936 123.481 469.304C124.105 469.672 124.601 470.12 124.969 470.648H125.113C125.065 470.424 125.017 470.08 124.969 469.616C124.921 469.152 124.897 468.72 124.897 468.32V463.76H127.921V482H125.569L125.017 480.296H124.897C124.529 480.84 124.041 481.304 123.433 481.688C122.825 482.056 122.033 482.24 121.057 482.24ZM121.969 479.792C123.089 479.792 123.873 479.472 124.321 478.832C124.785 478.192 125.025 477.224 125.041 475.928V475.544C125.041 474.152 124.817 473.088 124.369 472.352C123.937 471.6 123.121 471.224 121.921 471.224C120.993 471.224 120.281 471.608 119.785 472.376C119.305 473.128 119.065 474.192 119.065 475.568C119.065 476.944 119.313 477.992 119.809 478.712C120.305 479.432 121.025 479.792 121.969 479.792ZM137.688 468.752C139.368 468.752 140.64 469.12 141.504 469.856C142.384 470.592 142.824 471.728 142.824 473.264V482H140.688L140.088 480.2H139.992C139.432 480.904 138.84 481.424 138.216 481.76C137.592 482.08 136.744 482.24 135.672 482.24C134.504 482.24 133.536 481.912 132.768 481.256C132 480.6 131.616 479.584 131.616 478.208C131.616 476.864 132.104 475.856 133.08 475.184C134.072 474.512 135.568 474.136 137.568 474.056L139.824 473.984V473.336C139.824 472.52 139.624 471.936 139.224 471.584C138.824 471.216 138.264 471.032 137.544 471.032C136.888 471.032 136.256 471.128 135.648 471.32C135.056 471.512 134.464 471.736 133.872 471.992L132.912 469.88C133.552 469.544 134.28 469.272 135.096 469.064C135.928 468.856 136.792 468.752 137.688 468.752ZM139.824 475.856L138.24 475.904C136.912 475.952 135.992 476.184 135.48 476.6C134.968 477 134.712 477.544 134.712 478.232C134.712 478.856 134.888 479.304 135.24 479.576C135.608 479.832 136.088 479.96 136.68 479.96C137.56 479.96 138.304 479.712 138.912 479.216C139.52 478.704 139.824 477.952 139.824 476.96V475.856ZM145.389 468.992H148.677L151.269 476.336C151.445 476.8 151.589 477.256 151.701 477.704C151.813 478.152 151.893 478.608 151.941 479.072H152.037C152.101 478.672 152.197 478.232 152.325 477.752C152.453 477.272 152.597 476.8 152.757 476.336L155.253 468.992H158.517L152.973 483.728C152.477 485.024 151.797 486.016 150.933 486.704C150.085 487.408 149.037 487.76 147.789 487.76C147.389 487.76 147.045 487.736 146.757 487.688C146.469 487.656 146.213 487.616 145.989 487.568V485.168C146.165 485.2 146.373 485.232 146.613 485.264C146.869 485.296 147.133 485.312 147.405 485.312C148.157 485.312 148.749 485.088 149.181 484.64C149.629 484.208 149.973 483.664 150.213 483.008L150.597 481.952L145.389 468.992ZM170.034 478.232C170.034 479.544 169.562 480.544 168.618 481.232C167.69 481.904 166.354 482.24 164.61 482.24C163.698 482.24 162.914 482.176 162.258 482.048C161.618 481.92 160.994 481.72 160.386 481.448V478.88C161.026 479.184 161.73 479.44 162.498 479.648C163.282 479.856 164.018 479.96 164.706 479.96C165.538 479.96 166.138 479.832 166.506 479.576C166.874 479.32 167.058 478.976 167.058 478.544C167.058 478.288 166.986 478.064 166.842 477.872C166.698 477.664 166.41 477.44 165.978 477.2C165.562 476.96 164.938 476.664 164.106 476.312C163.274 475.992 162.578 475.664 162.018 475.328C161.474 474.976 161.058 474.568 160.77 474.104C160.498 473.64 160.362 473.04 160.362 472.304C160.362 471.136 160.818 470.256 161.73 469.664C162.658 469.056 163.89 468.752 165.426 468.752C166.226 468.752 166.978 468.832 167.682 468.992C168.402 469.152 169.122 469.392 169.842 469.712L168.882 471.944C168.274 471.688 167.682 471.472 167.106 471.296C166.53 471.12 165.938 471.032 165.33 471.032C164.002 471.032 163.338 471.408 163.338 472.16C163.338 472.432 163.418 472.664 163.578 472.856C163.754 473.048 164.05 473.256 164.466 473.48C164.898 473.688 165.506 473.944 166.29 474.248C167.058 474.552 167.722 474.872 168.282 475.208C168.842 475.528 169.274 475.928 169.578 476.408C169.882 476.888 170.034 477.496 170.034 478.232ZM118.181 515H115.157V497.864H124.877V500.432H118.181V505.472H124.421V508.04H118.181V515ZM133.663 497.864C135.919 497.864 137.583 498.28 138.655 499.112C139.743 499.944 140.287 501.208 140.287 502.904C140.287 503.736 140.127 504.448 139.807 505.04C139.503 505.632 139.103 506.128 138.607 506.528C138.111 506.912 137.575 507.224 136.999 507.464L141.919 515H138.463L134.359 508.232H131.863V515H128.791V497.864H133.663ZM133.471 500.432H131.863V505.712H133.567C134.831 505.712 135.743 505.488 136.303 505.04C136.879 504.576 137.167 503.896 137.167 503C137.167 502.072 136.863 501.416 136.255 501.032C135.663 500.632 134.735 500.432 133.471 500.432ZM154.77 515H145.026V497.864H154.77V500.432H148.098V504.8H154.338V507.368H148.098V512.408H154.77V515ZM168.873 515H159.129V497.864H168.873V500.432H162.201V504.8H168.441V507.368H162.201V512.408H168.873V515Z" fill="#5F00FA"/>
<path fill-rule="evenodd" clip-rule="evenodd" d="M0.0758244 464.976L29.2019 404.245L20.1853 399.921L-13.2992 469.739L-4.28254 474.064L-4.24861 473.993L142.074 545.355C129.542 548.305 118.388 556.653 112.304 569.128C101.55 591.177 110.708 617.769 132.757 628.522C154.806 639.276 181.398 630.119 192.151 608.069C202.905 586.02 193.748 559.428 171.698 548.675C171.594 548.624 171.489 548.573 171.385 548.523L0.0758244 464.976Z" fill="black" fill-opacity="0.9"/>
<path fill-rule="evenodd" clip-rule="evenodd" d="M117.571 9.82576L62.3122 150.786L62.3121 150.786C55.1062 169.167 33.3881 177.845 13.8034 170.167C-5.78133 162.49 -15.8163 141.365 -8.61037 122.983C-1.40444 104.601 20.3137 95.9239 39.8984 103.601C50.2505 107.66 57.9344 115.475 61.8143 124.657L111.716 -2.63723L113.996 -1.74329L114.191 -2.24023L220.575 39.464L220.38 39.9612L227.406 42.7157L168.692 192.489L168.692 192.489C161.486 210.87 139.768 219.547 120.183 211.87C100.599 204.192 90.5636 183.067 97.7695 164.685C104.975 146.304 126.694 137.626 146.278 145.304C156.631 149.362 164.315 157.178 168.194 166.36L214.641 47.8789L117.571 9.82576Z" fill="black" fill-opacity="0.9"/>
<path d="M21.016 594H19.656V589.416H18.176V588.288H22.496V589.416H21.016V594ZM24.8292 589.528C25.4479 589.528 25.9385 589.699 26.3012 590.04C26.6639 590.376 26.8452 590.872 26.8452 591.528V592.152H24.0692C24.0799 592.44 24.1732 592.669 24.3492 592.84C24.5252 593.011 24.7759 593.096 25.1012 593.096C25.3785 593.096 25.6319 593.069 25.8612 593.016C26.0959 592.963 26.3359 592.877 26.5812 592.76V593.76C26.3625 593.872 26.1305 593.952 25.8852 594C25.6452 594.053 25.3465 594.08 24.9892 594.08C24.5465 594.08 24.1519 594 23.8052 593.84C23.4639 593.68 23.1945 593.435 22.9972 593.104C22.8052 592.768 22.7092 592.344 22.7092 591.832C22.7092 591.315 22.7972 590.885 22.9732 590.544C23.1492 590.203 23.3945 589.949 23.7092 589.784C24.0292 589.613 24.4025 589.528 24.8292 589.528ZM24.8532 590.464C24.6452 590.464 24.4719 590.531 24.3332 590.664C24.1999 590.792 24.1199 590.997 24.0932 591.28H25.6052C25.5999 591.051 25.5359 590.859 25.4132 590.704C25.2905 590.544 25.1039 590.464 24.8532 590.464ZM30.5455 589.528C30.6148 589.528 30.6922 589.533 30.7775 589.544C30.8628 589.549 30.9295 589.557 30.9775 589.568L30.8655 590.832C30.8175 590.821 30.7562 590.813 30.6815 590.808C30.6068 590.797 30.5242 590.792 30.4335 590.792C30.2628 590.792 30.0922 590.819 29.9215 590.872C29.7562 590.925 29.6175 591.027 29.5055 591.176C29.3988 591.32 29.3455 591.528 29.3455 591.8V594H27.9935V589.608H29.0095L29.2175 590.328H29.2735C29.4015 590.109 29.5775 589.923 29.8015 589.768C30.0255 589.608 30.2735 589.528 30.5455 589.528ZM37.177 589.528C37.6783 589.528 38.057 589.656 38.313 589.912C38.5743 590.163 38.705 590.571 38.705 591.136V594H37.361V591.512C37.361 591.192 37.3103 590.96 37.209 590.816C37.113 590.667 36.9637 590.592 36.761 590.592C36.4783 590.592 36.2783 590.704 36.161 590.928C36.0437 591.147 35.985 591.459 35.985 591.864V594H34.641V591.512C34.641 590.899 34.4437 590.592 34.049 590.592C33.7503 590.592 33.545 590.715 33.433 590.96C33.3263 591.2 33.273 591.547 33.273 592V594H31.921V589.608H32.945L33.137 590.16H33.193C33.3157 589.957 33.489 589.803 33.713 589.696C33.9423 589.584 34.201 589.528 34.489 589.528C35.1183 589.528 35.5583 589.736 35.809 590.152H35.889C36.0277 589.944 36.2117 589.789 36.441 589.688C36.6703 589.581 36.9157 589.528 37.177 589.528ZM43.2429 592.672C43.2429 593.104 43.0909 593.448 42.7869 593.704C42.4882 593.955 42.0189 594.08 41.3789 594.08C41.0695 594.08 40.7975 594.061 40.5629 594.024C40.3335 593.987 40.1015 593.92 39.8669 593.824V592.736C40.1229 592.853 40.3895 592.944 40.6669 593.008C40.9442 593.067 41.1789 593.096 41.3709 593.096C41.5735 593.096 41.7202 593.069 41.8109 593.016C41.9015 592.963 41.9469 592.888 41.9469 592.792C41.9469 592.723 41.9229 592.661 41.8749 592.608C41.8322 592.555 41.7415 592.496 41.6029 592.432C41.4695 592.363 41.2695 592.272 41.0029 592.16C40.7415 592.048 40.5255 591.933 40.3549 591.816C40.1895 591.699 40.0642 591.56 39.9789 591.4C39.8989 591.235 39.8589 591.029 39.8589 590.784C39.8589 590.368 40.0189 590.056 40.3389 589.848C40.6642 589.635 41.0935 589.528 41.6269 589.528C41.9095 589.528 42.1762 589.557 42.4269 589.616C42.6775 589.675 42.9362 589.765 43.2029 589.888L42.8189 590.8C42.6002 590.704 42.3869 590.627 42.1789 590.568C41.9762 590.509 41.7922 590.48 41.6269 590.48C41.3175 590.48 41.1629 590.56 41.1629 590.72C41.1629 590.779 41.1842 590.835 41.2269 590.888C41.2749 590.936 41.3629 590.989 41.4909 591.048C41.6242 591.107 41.8162 591.189 42.0669 591.296C42.3175 591.397 42.5309 591.507 42.7069 591.624C42.8829 591.736 43.0162 591.875 43.1069 592.04C43.1975 592.205 43.2429 592.416 43.2429 592.672ZM50.2799 594L49.9279 592.776H47.9519L47.5999 594H46.1119L48.0559 588.264H49.7999L51.7679 594H50.2799ZM49.6239 591.64L49.2879 590.496C49.2612 590.4 49.2239 590.272 49.1759 590.112C49.1332 589.947 49.0879 589.779 49.0399 589.608C48.9972 589.437 48.9625 589.293 48.9359 589.176C48.9145 589.293 48.8799 589.44 48.8319 589.616C48.7892 589.787 48.7465 589.955 48.7039 590.12C48.6612 590.28 48.6265 590.405 48.5999 590.496L48.2639 591.64H49.6239ZM55.1441 589.528C55.6348 589.528 56.0268 589.723 56.3201 590.112C56.6135 590.496 56.7601 591.056 56.7601 591.792C56.7601 592.293 56.6881 592.715 56.5441 593.056C56.4001 593.392 56.2028 593.648 55.9521 593.824C55.7068 593.995 55.4241 594.08 55.1041 594.08C54.7895 594.08 54.5415 594.024 54.3601 593.912C54.1841 593.8 54.0428 593.677 53.9361 593.544H53.8801C53.8961 593.645 53.9095 593.752 53.9201 593.864C53.9308 593.976 53.9361 594.096 53.9361 594.224V595.92H52.5841V589.608H53.6801L53.8721 590.168H53.9361C54.0481 589.997 54.2001 589.848 54.3921 589.72C54.5841 589.592 54.8348 589.528 55.1441 589.528ZM54.6721 590.592C54.4001 590.592 54.2108 590.683 54.1041 590.864C53.9975 591.04 53.9415 591.307 53.9361 591.664V591.784C53.9361 592.173 53.9895 592.472 54.0961 592.68C54.2028 592.888 54.4001 592.992 54.6881 592.992C55.1521 592.992 55.3841 592.587 55.3841 591.776C55.3841 591.365 55.3255 591.067 55.2081 590.88C55.0908 590.688 54.9121 590.592 54.6721 590.592ZM60.4857 589.528C60.9764 589.528 61.3684 589.723 61.6617 590.112C61.955 590.496 62.1017 591.056 62.1017 591.792C62.1017 592.293 62.0297 592.715 61.8857 593.056C61.7417 593.392 61.5444 593.648 61.2937 593.824C61.0484 593.995 60.7657 594.08 60.4457 594.08C60.131 594.08 59.883 594.024 59.7017 593.912C59.5257 593.8 59.3844 593.677 59.2777 593.544H59.2217C59.2377 593.645 59.251 593.752 59.2617 593.864C59.2724 593.976 59.2777 594.096 59.2777 594.224V595.92H57.9257V589.608H59.0217L59.2137 590.168H59.2777C59.3897 589.997 59.5417 589.848 59.7337 589.72C59.9257 589.592 60.1764 589.528 60.4857 589.528ZM60.0137 590.592C59.7417 590.592 59.5524 590.683 59.4457 590.864C59.339 591.04 59.283 591.307 59.2777 591.664V591.784C59.2777 592.173 59.331 592.472 59.4377 592.68C59.5444 592.888 59.7417 592.992 60.0297 592.992C60.4937 592.992 60.7257 592.587 60.7257 591.776C60.7257 591.365 60.667 591.067 60.5497 590.88C60.4324 590.688 60.2537 590.592 60.0137 590.592ZM64.6192 594H63.2672V587.92H64.6192V594ZM65.4391 589.608H66.8791L67.6711 592.096C67.6977 592.187 67.7191 592.288 67.7351 592.4C67.7564 592.507 67.7724 592.616 67.7831 592.728H67.8071C67.8231 592.605 67.8417 592.493 67.8631 592.392C67.8897 592.285 67.9164 592.189 67.9431 592.104L68.7351 589.608H70.1431L68.3351 594.432C68.1537 594.923 67.9057 595.293 67.5911 595.544C67.2764 595.795 66.8737 595.92 66.3831 595.92C66.2444 595.92 66.1244 595.912 66.0231 595.896C65.9271 595.885 65.8417 595.872 65.7671 595.856V594.792C65.8257 594.803 65.8951 594.813 65.9751 594.824C66.0604 594.835 66.1484 594.84 66.2391 594.84C66.4897 594.84 66.6817 594.765 66.8151 594.616C66.9484 594.467 67.0524 594.291 67.1271 594.088L67.1751 593.952L65.4391 589.608Z" fill="#0500FF"/>
</g>
<defs>
<clipPath id="clip0">
<rect width="190" height="600" fill="white"/>
</clipPath>
</defs>
</svg>
