<svg width="407" height="608" viewBox="0 0 407 608" fill="none" xmlns="http://www.w3.org/2000/svg">
<g clip-path="url(#clip0)">
<rect x="112.576" width="190" height="600" fill="black" fill-opacity="0.3"/>
<rect x="288.576" y="575" width="9" height="9" transform="rotate(-90 288.576 575)" fill="#522891" fill-opacity="0.5"/>
<rect x="277.576" y="575" width="9" height="9" transform="rotate(-90 277.576 575)" fill="#522891" fill-opacity="0.5"/>
<rect x="266.576" y="575" width="9" height="9" transform="rotate(-90 266.576 575)" fill="#522891" fill-opacity="0.5"/>
<rect x="255.576" y="575" width="9" height="9" transform="rotate(-90 255.576 575)" fill="#522891" fill-opacity="0.5"/>
<rect x="288.576" y="563" width="9" height="9" transform="rotate(-90 288.576 563)" fill="#7C009A" fill-opacity="0.5"/>
<rect x="277.576" y="563" width="9" height="9" transform="rotate(-90 277.576 563)" fill="#7C009A" fill-opacity="0.5"/>
<rect x="266.576" y="563" width="9" height="9" transform="rotate(-90 266.576 563)" fill="#7C009A" fill-opacity="0.5"/>
<rect x="255.576" y="563" width="9" height="9" transform="rotate(-90 255.576 563)" fill="#7C009A" fill-opacity="0.5"/>
<rect x="244.576" y="563" width="9" height="9" transform="rotate(-90 244.576 563)" fill="#7C009A" fill-opacity="0.5"/>
<rect x="233.576" y="563" width="9" height="9" transform="rotate(-90 233.576 563)" fill="#7C009A" fill-opacity="0.5"/>
<rect x="222.576" y="563" width="9" height="9" transform="rotate(-90 222.576 563)" fill="#7C009A" fill-opacity="0.5"/>
<rect x="288.576" y="551" width="9" height="9" transform="rotate(-90 288.576 551)" fill="#B900E8" fill-opacity="0.5"/>
<rect x="277.576" y="551" width="9" height="9" transform="rotate(-90 277.576 551)" fill="#B900E8" fill-opacity="0.5"/>
<rect x="266.576" y="551" width="9" height="9" transform="rotate(-90 266.576 551)" fill="#B900E8" fill-opacity="0.5"/>
<rect x="255.576" y="551" width="9" height="9" transform="rotate(-90 255.576 551)" fill="#B900E8" fill-opacity="0.5"/>
<rect x="244.576" y="551" width="9" height="9" transform="rotate(-90 244.576 551)" fill="#B900E8" fill-opacity="0.5"/>
<rect x="233.576" y="551" width="9" height="9" transform="rotate(-90 233.576 551)" fill="#B900E8" fill-opacity="0.5"/>
<rect x="288.576" y="539" width="9" height="9" transform="rotate(-90 288.576 539)" fill="#C94DE8" fill-opacity="0.5"/>
<rect x="277.576" y="539" width="9" height="9" transform="rotate(-90 277.576 539)" fill="#C94DE8" fill-opacity="0.5"/>
<rect x="266.576" y="539" width="9" height="9" transform="rotate(-90 266.576 539)" fill="#C94DE8" fill-opacity="0.5"/>
<rect x="255.576" y="539" width="9" height="9" transform="rotate(-90 255.576 539)" fill="#C94DE8" fill-opacity="0.5"/>
<rect x="244.576" y="539" width="9" height="9" transform="rotate(-90 244.576 539)" fill="#C94DE8" fill-opacity="0.5"/>
<rect x="233.576" y="539" width="9" height="9" transform="rotate(-90 233.576 539)" fill="#C94DE8" fill-opacity="0.5"/>
<rect x="222.576" y="539" width="9" height="9" transform="rotate(-90 222.576 539)" fill="#C94DE8" fill-opacity="0.5"/>
<rect x="288.576" y="527" width="9" height="9" transform="rotate(-90 288.576 527)" fill="#E84D8B" fill-opacity="0.5"/>
<rect x="277.576" y="527" width="9" height="9" transform="rotate(-90 277.576 527)" fill="#E84D8B" fill-opacity="0.5"/>
<rect x="266.576" y="527" width="9" height="9" transform="rotate(-90 266.576 527)" fill="#E84D8B" fill-opacity="0.5"/>
<rect x="255.576" y="527" width="9" height="9" transform="rotate(-90 255.576 527)" fill="#E84D8B" fill-opacity="0.5"/>
<rect x="244.576" y="527" width="9" height="9" transform="rotate(-90 244.576 527)" fill="#E84D8B" fill-opacity="0.5"/>
<rect x="288.576" y="515" width="9" height="9" transform="rotate(-90 288.576 515)" fill="#9A003E" fill-opacity="0.5"/>
<rect x="277.576" y="515" width="9" height="9" transform="rotate(-90 277.576 515)" fill="#9A003E" fill-opacity="0.5"/>
<rect x="266.576" y="515" width="9" height="9" transform="rotate(-90 266.576 515)" fill="#9A003E" fill-opacity="0.5"/>
<rect x="255.576" y="515" width="9" height="9" transform="rotate(-90 255.576 515)" fill="#9A003E" fill-opacity="0.5"/>
<rect x="244.576" y="515" width="9" height="9" transform="rotate(-90 244.576 515)" fill="#9A003E" fill-opacity="0.5"/>
<rect x="233.576" y="515" width="9" height="9" transform="rotate(-90 233.576 515)" fill="#9A003E" fill-opacity="0.5"/>
<rect x="222.576" y="515" width="9" height="9" transform="rotate(-90 222.576 515)" fill="#9A003E" fill-opacity="0.5"/>
<rect x="288.576" y="503" width="9" height="9" transform="rotate(-90 288.576 503)" fill="#E82626" fill-opacity="0.5"/>
<rect x="277.576" y="503" width="9" height="9" transform="rotate(-90 277.576 503)" fill="#E82626" fill-opacity="0.5"/>
<rect x="266.576" y="503" width="9" height="9" transform="rotate(-90 266.576 503)" fill="#E82626" fill-opacity="0.5"/>
<rect x="255.576" y="503" width="9" height="9" transform="rotate(-90 255.576 503)" fill="#E82626" fill-opacity="0.5"/>
<rect x="288.576" y="491" width="9" height="9" transform="rotate(-90 288.576 491)" fill="#E82626" fill-opacity="0.5"/>
<rect x="277.576" y="491" width="9" height="9" transform="rotate(-90 277.576 491)" fill="#E82626" fill-opacity="0.5"/>
<rect x="266.576" y="491" width="9" height="9" transform="rotate(-90 266.576 491)" fill="#E82626" fill-opacity="0.5"/>
<rect x="255.576" y="491" width="9" height="9" transform="rotate(-90 255.576 491)" fill="#E82626" fill-opacity="0.5"/>
<rect x="244.576" y="491" width="9" height="9" transform="rotate(-90 244.576 491)" fill="#E82626" fill-opacity="0.5"/>
<rect x="233.576" y="491" width="9" height="9" transform="rotate(-90 233.576 491)" fill="#E82626" fill-opacity="0.5"/>
<rect x="222.576" y="491" width="9" height="9" transform="rotate(-90 222.576 491)" fill="#E82626" fill-opacity="0.5"/>
<rect x="288.576" y="479" width="9" height="9" transform="rotate(-90 288.576 479)" fill="#E87326" fill-opacity="0.5"/>
<rect x="277.576" y="479" width="9" height="9" transform="rotate(-90 277.576 479)" fill="#E87326" fill-opacity="0.5"/>
<rect x="266.576" y="479" width="9" height="9" transform="rotate(-90 266.576 479)" fill="#E87326" fill-opacity="0.5"/>
<rect x="255.576" y="479" width="9" height="9" transform="rotate(-90 255.576 479)" fill="#E87326" fill-opacity="0.5"/>
<rect x="244.576" y="479" width="9" height="9" transform="rotate(-90 244.576 479)" fill="#E87326" fill-opacity="0.5"/>
<rect x="288.576" y="467" width="9" height="9" transform="rotate(-90 288.576 467)" fill="#E85D00" fill-opacity="0.5"/>
<rect x="277.576" y="467" width="9" height="9" transform="rotate(-90 277.576 467)" fill="#E85D00" fill-opacity="0.5"/>
<rect x="266.576" y="467" width="9" height="9" transform="rotate(-90 266.576 467)" fill="#E85D00" fill-opacity="0.5"/>
<rect x="255.576" y="467" width="9" height="9" transform="rotate(-90 255.576 467)" fill="#E85D00" fill-opacity="0.5"/>
<rect x="244.576" y="467" width="9" height="9" transform="rotate(-90 244.576 467)" fill="#E85D00" fill-opacity="0.5"/>
<rect x="233.576" y="467" width="9" height="9" transform="rotate(-90 233.576 467)" fill="#E85D00" fill-opacity="0.5"/>
<rect x="288.576" y="455" width="9" height="9" transform="rotate(-90 288.576 455)" fill="#E5E519" fill-opacity="0.5"/>
<rect x="277.576" y="455" width="9" height="9" transform="rotate(-90 277.576 455)" fill="#E5E519" fill-opacity="0.5"/>
<rect x="266.576" y="455" width="9" height="9" transform="rotate(-90 266.576 455)" fill="#E5E519" fill-opacity="0.5"/>
<rect x="255.576" y="455" width="9" height="9" transform="rotate(-90 255.576 455)" fill="#E5E519" fill-opacity="0.5"/>
<rect x="244.576" y="455" width="9" height="9" transform="rotate(-90 244.576 455)" fill="#E5E519" fill-opacity="0.5"/>
<rect x="233.576" y="455" width="9" height="9" transform="rotate(-90 233.576 455)" fill="#E5E519" fill-opacity="0.5"/>
<rect x="222.576" y="455" width="9" height="9" transform="rotate(-90 222.576 455)" fill="#E5E519" fill-opacity="0.5"/>
<rect x="288.576" y="443" width="9" height="9" transform="rotate(-90 288.576 443)" fill="#E8C126" fill-opacity="0.5"/>
<rect x="277.576" y="443" width="9" height="9" transform="rotate(-90 277.576 443)" fill="#E8C126" fill-opacity="0.5"/>
<rect x="266.576" y="443" width="9" height="9" transform="rotate(-90 266.576 443)" fill="#E8C126" fill-opacity="0.5"/>
<rect x="255.576" y="443" width="9" height="9" transform="rotate(-90 255.576 443)" fill="#E8C126" fill-opacity="0.5"/>
<rect x="288.576" y="431" width="9" height="9" transform="rotate(-90 288.576 431)" fill="#F0E464" fill-opacity="0.5"/>
<rect x="277.576" y="431" width="9" height="9" transform="rotate(-90 277.576 431)" fill="#F0E464" fill-opacity="0.5"/>
<rect x="266.576" y="431" width="9" height="9" transform="rotate(-90 266.576 431)" fill="#F0E464" fill-opacity="0.5"/>
<rect x="255.576" y="431" width="9" height="9" transform="rotate(-90 255.576 431)" fill="#F0E464" fill-opacity="0.5"/>
<rect x="244.576" y="431" width="9" height="9" transform="rotate(-90 244.576 431)" fill="#F0E464" fill-opacity="0.5"/>
<rect x="233.576" y="431" width="9" height="9" transform="rotate(-90 233.576 431)" fill="#F0E464" fill-opacity="0.5"/>
<rect x="222.576" y="431" width="9" height="9" transform="rotate(-90 222.576 431)" fill="#F0E464" fill-opacity="0.5"/>
<rect x="288.576" y="419" width="9" height="9" transform="rotate(-90 288.576 419)" fill="#DCB834" fill-opacity="0.5"/>
<rect x="277.576" y="419" width="9" height="9" transform="rotate(-90 277.576 419)" fill="#DCB834" fill-opacity="0.5"/>
<rect x="266.576" y="419" width="9" height="9" transform="rotate(-90 266.576 419)" fill="#DCB834" fill-opacity="0.5"/>
<rect x="255.576" y="419" width="9" height="9" transform="rotate(-90 255.576 419)" fill="#DCB834" fill-opacity="0.5"/>
<rect x="244.576" y="419" width="9" height="9" transform="rotate(-90 244.576 419)" fill="#DCB834" fill-opacity="0.5"/>
<rect x="288.576" y="407" width="9" height="9" transform="rotate(-90 288.576 407)" fill="#C8FC04" fill-opacity="0.5"/>
<rect x="277.576" y="407" width="9" height="9" transform="rotate(-90 277.576 407)" fill="#C8FC04" fill-opacity="0.5"/>
<rect x="266.576" y="407" width="9" height="9" transform="rotate(-90 266.576 407)" fill="#C8FC04" fill-opacity="0.5"/>
<rect x="288.576" y="395" width="9" height="9" transform="rotate(-90 288.576 395)" fill="#00C800" fill-opacity="0.5"/>
<rect x="277.576" y="395" width="9" height="9" transform="rotate(-90 277.576 395)" fill="#00C800" fill-opacity="0.5"/>
<rect x="266.576" y="395" width="9" height="9" transform="rotate(-90 266.576 395)" fill="#00C800" fill-opacity="0.5"/>
<rect x="255.576" y="395" width="9" height="9" transform="rotate(-90 255.576 395)" fill="#00C800" fill-opacity="0.5"/>
<rect x="244.576" y="395" width="9" height="9" transform="rotate(-90 244.576 395)" fill="#00C800" fill-opacity="0.5"/>
<rect x="233.576" y="395" width="9" height="9" transform="rotate(-90 233.576 395)" fill="#00C800" fill-opacity="0.5"/>
<rect x="222.576" y="395" width="9" height="9" transform="rotate(-90 222.576 395)" fill="#00C800" fill-opacity="0.5"/>
<rect x="288.576" y="383" width="9" height="9" transform="rotate(-90 288.576 383)" fill="#00AC00" fill-opacity="0.5"/>
<rect x="277.576" y="383" width="9" height="9" transform="rotate(-90 277.576 383)" fill="#00AC00" fill-opacity="0.5"/>
<rect x="266.576" y="383" width="9" height="9" transform="rotate(-90 266.576 383)" fill="#00AC00" fill-opacity="0.5"/>
<rect x="255.576" y="383" width="9" height="9" transform="rotate(-90 255.576 383)" fill="#00AC00" fill-opacity="0.5"/>
<rect x="244.576" y="383" width="9" height="9" transform="rotate(-90 244.576 383)" fill="#00AC00" fill-opacity="0.5"/>
<rect x="233.576" y="383" width="9" height="9" transform="rotate(-90 233.576 383)" fill="#00AC00" fill-opacity="0.5"/>
<rect x="288.576" y="371" width="9" height="9" transform="rotate(-90 288.576 371)" fill="#24D000" fill-opacity="0.5"/>
<rect x="277.576" y="371" width="9" height="9" transform="rotate(-90 277.576 371)" fill="#24D000" fill-opacity="0.5"/>
<rect x="266.576" y="371" width="9" height="9" transform="rotate(-90 266.576 371)" fill="#24D000" fill-opacity="0.5"/>
<rect x="255.576" y="371" width="9" height="9" transform="rotate(-90 255.576 371)" fill="#24D000" fill-opacity="0.5"/>
<rect x="244.576" y="371" width="9" height="9" transform="rotate(-90 244.576 371)" fill="#24D000" fill-opacity="0.5"/>
<rect x="233.576" y="371" width="9" height="9" transform="rotate(-90 233.576 371)" fill="#24D000" fill-opacity="0.5"/>
<rect x="222.576" y="371" width="9" height="9" transform="rotate(-90 222.576 371)" fill="#24D000" fill-opacity="0.5"/>
<rect x="288.576" y="359" width="9" height="9" transform="rotate(-90 288.576 359)" fill="#64E000" fill-opacity="0.5"/>
<rect x="277.576" y="359" width="9" height="9" transform="rotate(-90 277.576 359)" fill="#64E000" fill-opacity="0.5"/>
<rect x="266.576" y="359" width="9" height="9" transform="rotate(-90 266.576 359)" fill="#64E000" fill-opacity="0.5"/>
<rect x="255.576" y="359" width="9" height="9" transform="rotate(-90 255.576 359)" fill="#64E000" fill-opacity="0.5"/>
<rect x="244.576" y="359" width="9" height="9" transform="rotate(-90 244.576 359)" fill="#64E000" fill-opacity="0.5"/>
<rect x="288.576" y="347" width="9" height="9" transform="rotate(-90 288.576 347)" fill="#4CD8FC" fill-opacity="0.5"/>
<rect x="277.576" y="347" width="9" height="9" transform="rotate(-90 277.576 347)" fill="#4CD8FC" fill-opacity="0.5"/>
<rect x="266.576" y="347" width="9" height="9" transform="rotate(-90 266.576 347)" fill="#4CD8FC" fill-opacity="0.5"/>
<rect x="255.576" y="347" width="9" height="9" transform="rotate(-90 255.576 347)" fill="#4CD8FC" fill-opacity="0.5"/>
<rect x="244.576" y="347" width="9" height="9" transform="rotate(-90 244.576 347)" fill="#4CD8FC" fill-opacity="0.5"/>
<rect x="233.576" y="347" width="9" height="9" transform="rotate(-90 233.576 347)" fill="#4CD8FC" fill-opacity="0.5"/>
<rect x="288.576" y="335" width="9" height="9" transform="rotate(-90 288.576 335)" fill="#00B8F8" fill-opacity="0.5"/>
<rect x="277.576" y="335" width="9" height="9" transform="rotate(-90 277.576 335)" fill="#00B8F8" fill-opacity="0.5"/>
<rect x="266.576" y="335" width="9" height="9" transform="rotate(-90 266.576 335)" fill="#00B8F8" fill-opacity="0.5"/>
<rect x="255.576" y="335" width="9" height="9" transform="rotate(-90 255.576 335)" fill="#00B8F8" fill-opacity="0.5"/>
<rect x="244.576" y="335" width="9" height="9" transform="rotate(-90 244.576 335)" fill="#00B8F8" fill-opacity="0.5"/>
<rect x="233.576" y="335" width="9" height="9" transform="rotate(-90 233.576 335)" fill="#00B8F8" fill-opacity="0.5"/>
<rect x="222.576" y="335" width="9" height="9" transform="rotate(-90 222.576 335)" fill="#00B8F8" fill-opacity="0.5"/>
<rect x="288.576" y="323" width="9" height="9" transform="rotate(-90 288.576 323)" fill="#0074E4" fill-opacity="0.5"/>
<rect x="277.576" y="323" width="9" height="9" transform="rotate(-90 277.576 323)" fill="#0074E4" fill-opacity="0.5"/>
<rect x="266.576" y="323" width="9" height="9" transform="rotate(-90 266.576 323)" fill="#0074E4" fill-opacity="0.5"/>
<rect x="255.576" y="323" width="9" height="9" transform="rotate(-90 255.576 323)" fill="#0074E4" fill-opacity="0.5"/>
<rect x="288.576" y="311" width="9" height="9" transform="rotate(-90 288.576 311)" fill="#0004C8" fill-opacity="0.5"/>
<rect x="277.576" y="311" width="9" height="9" transform="rotate(-90 277.576 311)" fill="#0004C8" fill-opacity="0.5"/>
<rect x="266.576" y="311" width="9" height="9" transform="rotate(-90 266.576 311)" fill="#0004C8" fill-opacity="0.5"/>
<rect x="255.576" y="311" width="9" height="9" transform="rotate(-90 255.576 311)" fill="#0004C8" fill-opacity="0.5"/>
<rect x="244.576" y="311" width="9" height="9" transform="rotate(-90 244.576 311)" fill="#0004C8" fill-opacity="0.5"/>
<rect x="233.576" y="311" width="9" height="9" transform="rotate(-90 233.576 311)" fill="#0004C8" fill-opacity="0.5"/>
<rect x="222.576" y="311" width="9" height="9" transform="rotate(-90 222.576 311)" fill="#0004C8" fill-opacity="0.5"/>
<rect x="288.576" y="299" width="9" height="9" transform="rotate(-90 288.576 299)" fill="#0004C8" fill-opacity="0.5"/>
<rect x="277.576" y="299" width="9" height="9" transform="rotate(-90 277.576 299)" fill="#0004C8" fill-opacity="0.5"/>
<rect x="266.576" y="299" width="9" height="9" transform="rotate(-90 266.576 299)" fill="#0004C8" fill-opacity="0.5"/>
<rect x="255.576" y="299" width="9" height="9" transform="rotate(-90 255.576 299)" fill="#0004C8" fill-opacity="0.5"/>
<rect x="244.576" y="299" width="9" height="9" transform="rotate(-90 244.576 299)" fill="#0004C8" fill-opacity="0.5"/>
<rect x="233.576" y="299" width="9" height="9" transform="rotate(-90 233.576 299)" fill="#0004C8" fill-opacity="0.5"/>
<rect x="288.576" y="287" width="9" height="9" transform="rotate(-90 288.576 287)" fill="#0074E4" fill-opacity="0.5"/>
<rect x="277.576" y="287" width="9" height="9" transform="rotate(-90 277.576 287)" fill="#0074E4" fill-opacity="0.5"/>
<rect x="266.576" y="287" width="9" height="9" transform="rotate(-90 266.576 287)" fill="#0074E4" fill-opacity="0.5"/>
<rect x="255.576" y="287" width="9" height="9" transform="rotate(-90 255.576 287)" fill="#0074E4" fill-opacity="0.5"/>
<rect x="244.576" y="287" width="9" height="9" transform="rotate(-90 244.576 287)" fill="#0074E4" fill-opacity="0.5"/>
<rect x="288.576" y="275" width="9" height="9" transform="rotate(-90 288.576 275)" fill="#00B8F8" fill-opacity="0.5"/>
<rect x="277.576" y="275" width="9" height="9" transform="rotate(-90 277.576 275)" fill="#00B8F8" fill-opacity="0.5"/>
<rect x="266.576" y="275" width="9" height="9" transform="rotate(-90 266.576 275)" fill="#00B8F8" fill-opacity="0.5"/>
<rect x="255.576" y="275" width="9" height="9" transform="rotate(-90 255.576 275)" fill="#00B8F8" fill-opacity="0.5"/>
<rect x="244.576" y="275" width="9" height="9" transform="rotate(-90 244.576 275)" fill="#00B8F8" fill-opacity="0.5"/>
<rect x="233.576" y="275" width="9" height="9" transform="rotate(-90 233.576 275)" fill="#00B8F8" fill-opacity="0.5"/>
<rect x="222.576" y="275" width="9" height="9" transform="rotate(-90 222.576 275)" fill="#00B8F8" fill-opacity="0.5"/>
<rect x="288.576" y="263" width="9" height="9" transform="rotate(-90 288.576 263)" fill="#4CD8FC" fill-opacity="0.5"/>
<rect x="277.576" y="263" width="9" height="9" transform="rotate(-90 277.576 263)" fill="#4CD8FC" fill-opacity="0.5"/>
<rect x="266.576" y="263" width="9" height="9" transform="rotate(-90 266.576 263)" fill="#4CD8FC" fill-opacity="0.5"/>
<rect x="255.576" y="263" width="9" height="9" transform="rotate(-90 255.576 263)" fill="#4CD8FC" fill-opacity="0.5"/>
<rect x="244.576" y="263" width="9" height="9" transform="rotate(-90 244.576 263)" fill="#4CD8FC" fill-opacity="0.5"/>
<rect x="233.576" y="263" width="9" height="9" transform="rotate(-90 233.576 263)" fill="#4CD8FC" fill-opacity="0.5"/>
<rect x="288.576" y="251" width="9" height="9" transform="rotate(-90 288.576 251)" fill="#64E000" fill-opacity="0.5"/>
<rect x="277.576" y="251" width="9" height="9" transform="rotate(-90 277.576 251)" fill="#64E000" fill-opacity="0.5"/>
<rect x="266.576" y="251" width="9" height="9" transform="rotate(-90 266.576 251)" fill="#64E000" fill-opacity="0.5"/>
<rect x="255.576" y="251" width="9" height="9" transform="rotate(-90 255.576 251)" fill="#64E000" fill-opacity="0.5"/>
<rect x="288.576" y="239" width="9" height="9" transform="rotate(-90 288.576 239)" fill="#24D000" fill-opacity="0.5"/>
<rect x="277.576" y="239" width="9" height="9" transform="rotate(-90 277.576 239)" fill="#24D000" fill-opacity="0.5"/>
<rect x="266.576" y="239" width="9" height="9" transform="rotate(-90 266.576 239)" fill="#24D000" fill-opacity="0.5"/>
<rect x="255.576" y="239" width="9" height="9" transform="rotate(-90 255.576 239)" fill="#24D000" fill-opacity="0.5"/>
<rect x="244.576" y="239" width="9" height="9" transform="rotate(-90 244.576 239)" fill="#24D000" fill-opacity="0.5"/>
<rect x="233.576" y="239" width="9" height="9" transform="rotate(-90 233.576 239)" fill="#24D000" fill-opacity="0.5"/>
<rect x="222.576" y="239" width="9" height="9" transform="rotate(-90 222.576 239)" fill="#24D000" fill-opacity="0.5"/>
<rect x="288.576" y="227" width="9" height="9" transform="rotate(-90 288.576 227)" fill="#00AC00" fill-opacity="0.5"/>
<rect x="277.576" y="227" width="9" height="9" transform="rotate(-90 277.576 227)" fill="#00AC00" fill-opacity="0.5"/>
<rect x="266.576" y="227" width="9" height="9" transform="rotate(-90 266.576 227)" fill="#00AC00" fill-opacity="0.5"/>
<rect x="255.576" y="227" width="9" height="9" transform="rotate(-90 255.576 227)" fill="#00AC00" fill-opacity="0.5"/>
<rect x="244.576" y="227" width="9" height="9" transform="rotate(-90 244.576 227)" fill="#00AC00" fill-opacity="0.5"/>
<rect x="288.576" y="215" width="9" height="9" transform="rotate(-90 288.576 215)" fill="#00C800" fill-opacity="0.5"/>
<rect x="277.576" y="215" width="9" height="9" transform="rotate(-90 277.576 215)" fill="#00C800" fill-opacity="0.5"/>
<rect x="266.576" y="215" width="9" height="9" transform="rotate(-90 266.576 215)" fill="#00C800" fill-opacity="0.5"/>
<rect x="255.576" y="215" width="9" height="9" transform="rotate(-90 255.576 215)" fill="#00C800" fill-opacity="0.5"/>
<rect x="244.576" y="215" width="9" height="9" transform="rotate(-90 244.576 215)" fill="#00C800" fill-opacity="0.5"/>
<rect x="233.576" y="215" width="9" height="9" transform="rotate(-90 233.576 215)" fill="#00C800" fill-opacity="0.5"/>
<rect x="288.576" y="203" width="9" height="9" transform="rotate(-90 288.576 203)" fill="#C8FC04" fill-opacity="0.5"/>
<rect x="277.576" y="203" width="9" height="9" transform="rotate(-90 277.576 203)" fill="#C8FC04" fill-opacity="0.5"/>
<rect x="266.576" y="203" width="9" height="9" transform="rotate(-90 266.576 203)" fill="#C8FC04" fill-opacity="0.5"/>
<rect x="255.576" y="203" width="9" height="9" transform="rotate(-90 255.576 203)" fill="#C8FC04" fill-opacity="0.5"/>
<rect x="288.576" y="191" width="9" height="9" transform="rotate(-90 288.576 191)" fill="#DCB834" fill-opacity="0.5"/>
<rect x="277.576" y="191" width="9" height="9" transform="rotate(-90 277.576 191)" fill="#DCB834" fill-opacity="0.5"/>
<rect x="266.576" y="191" width="9" height="9" transform="rotate(-90 266.576 191)" fill="#DCB834" fill-opacity="0.5"/>
<rect x="255.576" y="191" width="9" height="9" transform="rotate(-90 255.576 191)" fill="#DCB834" fill-opacity="0.5"/>
<rect x="244.576" y="191" width="9" height="9" transform="rotate(-90 244.576 191)" fill="#DCB834" fill-opacity="0.5"/>
<rect x="233.576" y="191" width="9" height="9" transform="rotate(-90 233.576 191)" fill="#DCB834" fill-opacity="0.5"/>
<rect x="222.576" y="191" width="9" height="9" transform="rotate(-90 222.576 191)" fill="#DCB834" fill-opacity="0.5"/>
<rect x="288.576" y="179" width="9" height="9" transform="rotate(-90 288.576 179)" fill="#F0E464" fill-opacity="0.5"/>
<rect x="277.576" y="179" width="9" height="9" transform="rotate(-90 277.576 179)" fill="#F0E464" fill-opacity="0.5"/>
<rect x="266.576" y="179" width="9" height="9" transform="rotate(-90 266.576 179)" fill="#F0E464" fill-opacity="0.5"/>
<rect x="255.576" y="179" width="9" height="9" transform="rotate(-90 255.576 179)" fill="#F0E464" fill-opacity="0.5"/>
<rect x="244.576" y="179" width="9" height="9" transform="rotate(-90 244.576 179)" fill="#F0E464" fill-opacity="0.5"/>
<rect x="233.576" y="179" width="9" height="9" transform="rotate(-90 233.576 179)" fill="#F0E464" fill-opacity="0.5"/>
<rect x="288.576" y="167" width="9" height="9" transform="rotate(-90 288.576 167)" fill="#E8C126" fill-opacity="0.5"/>
<rect x="277.576" y="167" width="9" height="9" transform="rotate(-90 277.576 167)" fill="#E8C126" fill-opacity="0.5"/>
<rect x="266.576" y="167" width="9" height="9" transform="rotate(-90 266.576 167)" fill="#E8C126" fill-opacity="0.5"/>
<rect x="255.576" y="167" width="9" height="9" transform="rotate(-90 255.576 167)" fill="#E8C126" fill-opacity="0.5"/>
<rect x="244.576" y="167" width="9" height="9" transform="rotate(-90 244.576 167)" fill="#E8C126" fill-opacity="0.5"/>
<rect x="233.576" y="167" width="9" height="9" transform="rotate(-90 233.576 167)" fill="#E8C126" fill-opacity="0.5"/>
<rect x="222.576" y="167" width="9" height="9" transform="rotate(-90 222.576 167)" fill="#E8C126" fill-opacity="0.5"/>
<rect x="288.576" y="155" width="9" height="9" transform="rotate(-90 288.576 155)" fill="#E5E519" fill-opacity="0.5"/>
<rect x="277.576" y="155" width="9" height="9" transform="rotate(-90 277.576 155)" fill="#E5E519" fill-opacity="0.5"/>
<rect x="266.576" y="155" width="9" height="9" transform="rotate(-90 266.576 155)" fill="#E5E519" fill-opacity="0.5"/>
<rect x="255.576" y="155" width="9" height="9" transform="rotate(-90 255.576 155)" fill="#E5E519" fill-opacity="0.5"/>
<rect x="244.576" y="155" width="9" height="9" transform="rotate(-90 244.576 155)" fill="#E5E519" fill-opacity="0.5"/>
<rect x="288.576" y="143" width="9" height="9" transform="rotate(-90 288.576 143)" fill="#E85D00" fill-opacity="0.5"/>
<rect x="277.576" y="143" width="9" height="9" transform="rotate(-90 277.576 143)" fill="#E85D00" fill-opacity="0.5"/>
<rect x="266.576" y="143" width="9" height="9" transform="rotate(-90 266.576 143)" fill="#E85D00" fill-opacity="0.5"/>
<rect x="255.576" y="143" width="9" height="9" transform="rotate(-90 255.576 143)" fill="#E85D00" fill-opacity="0.5"/>
<rect x="244.576" y="143" width="9" height="9" transform="rotate(-90 244.576 143)" fill="#E85D00" fill-opacity="0.5"/>
<rect x="233.576" y="143" width="9" height="9" transform="rotate(-90 233.576 143)" fill="#E85D00" fill-opacity="0.5"/>
<rect x="222.576" y="143" width="9" height="9" transform="rotate(-90 222.576 143)" fill="#E85D00" fill-opacity="0.5"/>
<rect x="288.576" y="131" width="9" height="9" transform="rotate(-90 288.576 131)" fill="#E87326" fill-opacity="0.5"/>
<rect x="277.576" y="131" width="9" height="9" transform="rotate(-90 277.576 131)" fill="#E87326" fill-opacity="0.5"/>
<rect x="266.576" y="131" width="9" height="9" transform="rotate(-90 266.576 131)" fill="#E87326" fill-opacity="0.5"/>
<rect x="255.576" y="131" width="9" height="9" transform="rotate(-90 255.576 131)" fill="#E87326" fill-opacity="0.5"/>
<rect x="288.576" y="119" width="9" height="9" transform="rotate(-90 288.576 119)" fill="#E82626" fill-opacity="0.5"/>
<rect x="277.576" y="119" width="9" height="9" transform="rotate(-90 277.576 119)" fill="#E82626" fill-opacity="0.5"/>
<rect x="266.576" y="119" width="9" height="9" transform="rotate(-90 266.576 119)" fill="#E82626" fill-opacity="0.5"/>
<rect x="255.576" y="119" width="9" height="9" transform="rotate(-90 255.576 119)" fill="#E82626" fill-opacity="0.5"/>
<rect x="244.576" y="119" width="9" height="9" transform="rotate(-90 244.576 119)" fill="#E82626" fill-opacity="0.5"/>
<rect x="233.576" y="119" width="9" height="9" transform="rotate(-90 233.576 119)" fill="#E82626" fill-opacity="0.5"/>
<rect x="288.576" y="107" width="9" height="9" transform="rotate(-90 288.576 107)" fill="#E82626" fill-opacity="0.5"/>
<rect x="277.576" y="107" width="9" height="9" transform="rotate(-90 277.576 107)" fill="#E82626" fill-opacity="0.5"/>
<rect x="266.576" y="107" width="9" height="9" transform="rotate(-90 266.576 107)" fill="#E82626" fill-opacity="0.5"/>
<rect x="255.576" y="107" width="9" height="9" transform="rotate(-90 255.576 107)" fill="#E82626" fill-opacity="0.5"/>
<rect x="244.576" y="107" width="9" height="9" transform="rotate(-90 244.576 107)" fill="#E82626" fill-opacity="0.5"/>
<rect x="233.576" y="107" width="9" height="9" transform="rotate(-90 233.576 107)" fill="#E82626" fill-opacity="0.5"/>
<rect x="222.576" y="107" width="9" height="9" transform="rotate(-90 222.576 107)" fill="#E82626" fill-opacity="0.5"/>
<rect x="288.576" y="95" width="9" height="9" transform="rotate(-90 288.576 95)" fill="#9A003E" fill-opacity="0.5"/>
<rect x="277.576" y="95" width="9" height="9" transform="rotate(-90 277.576 95)" fill="#9A003E" fill-opacity="0.5"/>
<rect x="266.576" y="95" width="9" height="9" transform="rotate(-90 266.576 95)" fill="#9A003E" fill-opacity="0.5"/>
<rect x="255.576" y="95" width="9" height="9" transform="rotate(-90 255.576 95)" fill="#9A003E" fill-opacity="0.5"/>
<rect x="288.576" y="83" width="9" height="9" transform="rotate(-90 288.576 83)" fill="#E84D8B" fill-opacity="0.5"/>
<rect x="277.576" y="83" width="9" height="9" transform="rotate(-90 277.576 83)" fill="#E84D8B" fill-opacity="0.5"/>
<rect x="266.576" y="83" width="9" height="9" transform="rotate(-90 266.576 83)" fill="#E84D8B" fill-opacity="0.5"/>
<rect x="255.576" y="83" width="9" height="9" transform="rotate(-90 255.576 83)" fill="#E84D8B" fill-opacity="0.5"/>
<rect x="244.576" y="83" width="9" height="9" transform="rotate(-90 244.576 83)" fill="#E84D8B" fill-opacity="0.5"/>
<rect x="233.576" y="83" width="9" height="9" transform="rotate(-90 233.576 83)" fill="#E84D8B" fill-opacity="0.5"/>
<rect x="222.576" y="83" width="9" height="9" transform="rotate(-90 222.576 83)" fill="#E84D8B" fill-opacity="0.5"/>
<rect x="288.576" y="71" width="9" height="9" transform="rotate(-90 288.576 71)" fill="#C94DE8" fill-opacity="0.5"/>
<rect x="277.576" y="71" width="9" height="9" transform="rotate(-90 277.576 71)" fill="#C94DE8" fill-opacity="0.5"/>
<rect x="266.576" y="71" width="9" height="9" transform="rotate(-90 266.576 71)" fill="#C94DE8" fill-opacity="0.5"/>
<rect x="288.576" y="59" width="9" height="9" transform="rotate(-90 288.576 59)" fill="#B900E8" fill-opacity="0.5"/>
<rect x="277.576" y="59" width="9" height="9" transform="rotate(-90 277.576 59)" fill="#B900E8" fill-opacity="0.5"/>
<rect x="266.576" y="59" width="9" height="9" transform="rotate(-90 266.576 59)" fill="#B900E8" fill-opacity="0.5"/>
<rect x="255.576" y="59" width="9" height="9" transform="rotate(-90 255.576 59)" fill="#B900E8" fill-opacity="0.5"/>
<rect x="244.576" y="59" width="9" height="9" transform="rotate(-90 244.576 59)" fill="#B900E8" fill-opacity="0.5"/>
<rect x="288.576" y="47" width="9" height="9" transform="rotate(-90 288.576 47)" fill="#7C009A" fill-opacity="0.5"/>
<rect x="277.576" y="47" width="9" height="9" transform="rotate(-90 277.576 47)" fill="#7C009A" fill-opacity="0.5"/>
<rect x="266.576" y="47" width="9" height="9" transform="rotate(-90 266.576 47)" fill="#7C009A" fill-opacity="0.5"/>
<rect x="255.576" y="47" width="9" height="9" transform="rotate(-90 255.576 47)" fill="#7C009A" fill-opacity="0.5"/>
<rect x="244.576" y="47" width="9" height="9" transform="rotate(-90 244.576 47)" fill="#7C009A" fill-opacity="0.5"/>
<rect x="233.576" y="47" width="9" height="9" transform="rotate(-90 233.576 47)" fill="#7C009A" fill-opacity="0.5"/>
<rect x="222.576" y="47" width="9" height="9" transform="rotate(-90 222.576 47)" fill="#7C009A" fill-opacity="0.5"/>
<rect x="288.576" y="35" width="9" height="9" transform="rotate(-90 288.576 35)" fill="#522891" fill-opacity="0.5"/>
<rect x="277.576" y="35" width="9" height="9" transform="rotate(-90 277.576 35)" fill="#522891" fill-opacity="0.5"/>
<rect x="266.576" y="35" width="9" height="9" transform="rotate(-90 266.576 35)" fill="#522891" fill-opacity="0.5"/>
<rect x="255.576" y="35" width="9" height="9" transform="rotate(-90 255.576 35)" fill="#522891" fill-opacity="0.5"/>
<rect width="9" height="9" transform="matrix(4.37114e-08 -1 -1 -4.37114e-08 126.576 575)" fill="#522891" fill-opacity="0.3"/>
<rect width="9" height="9" transform="matrix(4.37114e-08 -1 -1 -4.37114e-08 137.576 575)" fill="#522891" fill-opacity="0.3"/>
<rect width="9" height="9" transform="matrix(4.37114e-08 -1 -1 -4.37114e-08 148.576 575)" fill="#522891" fill-opacity="0.3"/>
<rect width="9" height="9" transform="matrix(4.37114e-08 -1 -1 -4.37114e-08 159.576 575)" fill="#522891" fill-opacity="0.3"/>
<rect width="9" height="9" transform="matrix(4.37114e-08 -1 -1 -4.37114e-08 126.576 563)" fill="#7C009A" fill-opacity="0.3"/>
<rect width="9" height="9" transform="matrix(4.37114e-08 -1 -1 -4.37114e-08 137.576 563)" fill="#7C009A" fill-opacity="0.3"/>
<rect width="9" height="9" transform="matrix(4.37114e-08 -1 -1 -4.37114e-08 148.576 563)" fill="#7C009A" fill-opacity="0.3"/>
<rect width="9" height="9" transform="matrix(4.37114e-08 -1 -1 -4.37114e-08 159.576 563)" fill="#7C009A" fill-opacity="0.3"/>
<rect width="9" height="9" transform="matrix(4.37114e-08 -1 -1 -4.37114e-08 170.576 563)" fill="#7C009A" fill-opacity="0.3"/>
<rect width="9" height="9" transform="matrix(4.37114e-08 -1 -1 -4.37114e-08 181.576 563)" fill="#7C009A" fill-opacity="0.3"/>
<rect width="9" height="9" transform="matrix(4.37114e-08 -1 -1 -4.37114e-08 192.576 563)" fill="#7C009A" fill-opacity="0.3"/>
<rect width="9" height="9" transform="matrix(4.37114e-08 -1 -1 -4.37114e-08 126.576 551)" fill="#B900E8" fill-opacity="0.3"/>
<rect width="9" height="9" transform="matrix(4.37114e-08 -1 -1 -4.37114e-08 137.576 551)" fill="#B900E8" fill-opacity="0.3"/>
<rect width="9" height="9" transform="matrix(4.37114e-08 -1 -1 -4.37114e-08 148.576 551)" fill="#B900E8" fill-opacity="0.3"/>
<rect width="9" height="9" transform="matrix(4.37114e-08 -1 -1 -4.37114e-08 159.576 551)" fill="#B900E8" fill-opacity="0.3"/>
<rect width="9" height="9" transform="matrix(4.37114e-08 -1 -1 -4.37114e-08 170.576 551)" fill="#B900E8" fill-opacity="0.3"/>
<rect width="9" height="9" transform="matrix(4.37114e-08 -1 -1 -4.37114e-08 181.576 551)" fill="#B900E8" fill-opacity="0.3"/>
<rect width="9" height="9" transform="matrix(4.37114e-08 -1 -1 -4.37114e-08 126.576 539)" fill="#C94DE8" fill-opacity="0.3"/>
<rect width="9" height="9" transform="matrix(4.37114e-08 -1 -1 -4.37114e-08 137.576 539)" fill="#C94DE8" fill-opacity="0.3"/>
<rect width="9" height="9" transform="matrix(4.37114e-08 -1 -1 -4.37114e-08 148.576 539)" fill="#C94DE8" fill-opacity="0.3"/>
<rect width="9" height="9" transform="matrix(4.37114e-08 -1 -1 -4.37114e-08 159.576 539)" fill="#C94DE8" fill-opacity="0.3"/>
<rect width="9" height="9" transform="matrix(4.37114e-08 -1 -1 -4.37114e-08 170.576 539)" fill="#C94DE8" fill-opacity="0.3"/>
<rect width="9" height="9" transform="matrix(4.37114e-08 -1 -1 -4.37114e-08 181.576 539)" fill="#C94DE8" fill-opacity="0.3"/>
<rect width="9" height="9" transform="matrix(4.37114e-08 -1 -1 -4.37114e-08 192.576 539)" fill="#C94DE8" fill-opacity="0.3"/>
<rect width="9" height="9" transform="matrix(4.37114e-08 -1 -1 -4.37114e-08 126.576 527)" fill="#E84D8B" fill-opacity="0.3"/>
<rect width="9" height="9" transform="matrix(4.37114e-08 -1 -1 -4.37114e-08 137.576 527)" fill="#E84D8B" fill-opacity="0.3"/>
<rect width="9" height="9" transform="matrix(4.37114e-08 -1 -1 -4.37114e-08 148.576 527)" fill="#E84D8B" fill-opacity="0.3"/>
<rect width="9" height="9" transform="matrix(4.37114e-08 -1 -1 -4.37114e-08 159.576 527)" fill="#E84D8B" fill-opacity="0.3"/>
<rect width="9" height="9" transform="matrix(4.37114e-08 -1 -1 -4.37114e-08 170.576 527)" fill="#E84D8B" fill-opacity="0.3"/>
<rect width="9" height="9" transform="matrix(4.37114e-08 -1 -1 -4.37114e-08 126.576 515)" fill="#9A003E" fill-opacity="0.3"/>
<rect width="9" height="9" transform="matrix(4.37114e-08 -1 -1 -4.37114e-08 137.576 515)" fill="#9A003E" fill-opacity="0.3"/>
<rect width="9" height="9" transform="matrix(4.37114e-08 -1 -1 -4.37114e-08 148.576 515)" fill="#9A003E" fill-opacity="0.3"/>
<rect width="9" height="9" transform="matrix(4.37114e-08 -1 -1 -4.37114e-08 159.576 515)" fill="#9A003E" fill-opacity="0.3"/>
<rect width="9" height="9" transform="matrix(4.37114e-08 -1 -1 -4.37114e-08 170.576 515)" fill="#9A003E" fill-opacity="0.3"/>
<rect width="9" height="9" transform="matrix(4.37114e-08 -1 -1 -4.37114e-08 181.576 515)" fill="#9A003E" fill-opacity="0.3"/>
<rect width="9" height="9" transform="matrix(4.37114e-08 -1 -1 -4.37114e-08 192.576 515)" fill="#9A003E" fill-opacity="0.3"/>
<rect width="9" height="9" transform="matrix(4.37114e-08 -1 -1 -4.37114e-08 126.576 503)" fill="#E82626" fill-opacity="0.3"/>
<rect width="9" height="9" transform="matrix(4.37114e-08 -1 -1 -4.37114e-08 137.576 503)" fill="#E82626" fill-opacity="0.3"/>
<rect width="9" height="9" transform="matrix(4.37114e-08 -1 -1 -4.37114e-08 148.576 503)" fill="#E82626" fill-opacity="0.3"/>
<rect width="9" height="9" transform="matrix(4.37114e-08 -1 -1 -4.37114e-08 159.576 503)" fill="#E82626" fill-opacity="0.3"/>
<rect width="9" height="9" transform="matrix(4.37114e-08 -1 -1 -4.37114e-08 126.576 491)" fill="#E82626" fill-opacity="0.3"/>
<rect width="9" height="9" transform="matrix(4.37114e-08 -1 -1 -4.37114e-08 137.576 491)" fill="#E82626" fill-opacity="0.3"/>
<rect width="9" height="9" transform="matrix(4.37114e-08 -1 -1 -4.37114e-08 148.576 491)" fill="#E82626" fill-opacity="0.3"/>
<rect width="9" height="9" transform="matrix(4.37114e-08 -1 -1 -4.37114e-08 159.576 491)" fill="#E82626" fill-opacity="0.3"/>
<rect width="9" height="9" transform="matrix(4.37114e-08 -1 -1 -4.37114e-08 170.576 491)" fill="#E82626" fill-opacity="0.3"/>
<rect width="9" height="9" transform="matrix(4.37114e-08 -1 -1 -4.37114e-08 181.576 491)" fill="#E82626" fill-opacity="0.3"/>
<rect width="9" height="9" transform="matrix(4.37114e-08 -1 -1 -4.37114e-08 192.576 491)" fill="#E82626" fill-opacity="0.3"/>
<rect width="9" height="9" transform="matrix(4.37114e-08 -1 -1 -4.37114e-08 126.576 479)" fill="#E87326" fill-opacity="0.3"/>
<rect width="9" height="9" transform="matrix(4.37114e-08 -1 -1 -4.37114e-08 137.576 479)" fill="#E87326" fill-opacity="0.3"/>
<rect width="9" height="9" transform="matrix(4.37114e-08 -1 -1 -4.37114e-08 148.576 479)" fill="#E87326" fill-opacity="0.3"/>
<rect width="9" height="9" transform="matrix(4.37114e-08 -1 -1 -4.37114e-08 159.576 479)" fill="#E87326" fill-opacity="0.3"/>
<rect width="9" height="9" transform="matrix(4.37114e-08 -1 -1 -4.37114e-08 170.576 479)" fill="#E87326" fill-opacity="0.3"/>
<rect width="9" height="9" transform="matrix(4.37114e-08 -1 -1 -4.37114e-08 126.576 467)" fill="#E85D00" fill-opacity="0.3"/>
<rect width="9" height="9" transform="matrix(4.37114e-08 -1 -1 -4.37114e-08 137.576 467)" fill="#E85D00" fill-opacity="0.3"/>
<rect width="9" height="9" transform="matrix(4.37114e-08 -1 -1 -4.37114e-08 148.576 467)" fill="#E85D00" fill-opacity="0.3"/>
<rect width="9" height="9" transform="matrix(4.37114e-08 -1 -1 -4.37114e-08 159.576 467)" fill="#E85D00" fill-opacity="0.3"/>
<rect width="9" height="9" transform="matrix(4.37114e-08 -1 -1 -4.37114e-08 170.576 467)" fill="#E85D00" fill-opacity="0.3"/>
<rect width="9" height="9" transform="matrix(4.37114e-08 -1 -1 -4.37114e-08 181.576 467)" fill="#E85D00" fill-opacity="0.3"/>
<rect width="9" height="9" transform="matrix(4.37114e-08 -1 -1 -4.37114e-08 126.576 455)" fill="#E5E519" fill-opacity="0.3"/>
<rect width="9" height="9" transform="matrix(4.37114e-08 -1 -1 -4.37114e-08 137.576 455)" fill="#E5E519" fill-opacity="0.3"/>
<rect width="9" height="9" transform="matrix(4.37114e-08 -1 -1 -4.37114e-08 148.576 455)" fill="#E5E519" fill-opacity="0.3"/>
<rect width="9" height="9" transform="matrix(4.37114e-08 -1 -1 -4.37114e-08 159.576 455)" fill="#E5E519" fill-opacity="0.3"/>
<rect width="9" height="9" transform="matrix(4.37114e-08 -1 -1 -4.37114e-08 170.576 455)" fill="#E5E519" fill-opacity="0.3"/>
<rect width="9" height="9" transform="matrix(4.37114e-08 -1 -1 -4.37114e-08 181.576 455)" fill="#E5E519" fill-opacity="0.3"/>
<rect width="9" height="9" transform="matrix(4.37114e-08 -1 -1 -4.37114e-08 192.576 455)" fill="#E5E519" fill-opacity="0.3"/>
<rect width="9" height="9" transform="matrix(4.37114e-08 -1 -1 -4.37114e-08 126.576 443)" fill="#E8C126" fill-opacity="0.3"/>
<rect width="9" height="9" transform="matrix(4.37114e-08 -1 -1 -4.37114e-08 137.576 443)" fill="#E8C126" fill-opacity="0.3"/>
<rect width="9" height="9" transform="matrix(4.37114e-08 -1 -1 -4.37114e-08 148.576 443)" fill="#E8C126" fill-opacity="0.3"/>
<rect width="9" height="9" transform="matrix(4.37114e-08 -1 -1 -4.37114e-08 159.576 443)" fill="#E8C126" fill-opacity="0.3"/>
<rect width="9" height="9" transform="matrix(4.37114e-08 -1 -1 -4.37114e-08 126.576 431)" fill="#F0E464" fill-opacity="0.3"/>
<rect width="9" height="9" transform="matrix(4.37114e-08 -1 -1 -4.37114e-08 137.576 431)" fill="#F0E464" fill-opacity="0.3"/>
<rect width="9" height="9" transform="matrix(4.37114e-08 -1 -1 -4.37114e-08 148.576 431)" fill="#F0E464" fill-opacity="0.3"/>
<rect width="9" height="9" transform="matrix(4.37114e-08 -1 -1 -4.37114e-08 159.576 431)" fill="#F0E464" fill-opacity="0.3"/>
<rect width="9" height="9" transform="matrix(4.37114e-08 -1 -1 -4.37114e-08 170.576 431)" fill="#F0E464" fill-opacity="0.3"/>
<rect width="9" height="9" transform="matrix(4.37114e-08 -1 -1 -4.37114e-08 181.576 431)" fill="#F0E464" fill-opacity="0.3"/>
<rect width="9" height="9" transform="matrix(4.37114e-08 -1 -1 -4.37114e-08 192.576 431)" fill="#F0E464" fill-opacity="0.3"/>
<rect width="9" height="9" transform="matrix(4.37114e-08 -1 -1 -4.37114e-08 126.576 419)" fill="#DCB834" fill-opacity="0.3"/>
<rect width="9" height="9" transform="matrix(4.37114e-08 -1 -1 -4.37114e-08 137.576 419)" fill="#DCB834" fill-opacity="0.3"/>
<rect width="9" height="9" transform="matrix(4.37114e-08 -1 -1 -4.37114e-08 148.576 419)" fill="#DCB834" fill-opacity="0.3"/>
<rect width="9" height="9" transform="matrix(4.37114e-08 -1 -1 -4.37114e-08 159.576 419)" fill="#DCB834" fill-opacity="0.3"/>
<rect width="9" height="9" transform="matrix(4.37114e-08 -1 -1 -4.37114e-08 170.576 419)" fill="#DCB834" fill-opacity="0.3"/>
<rect width="9" height="9" transform="matrix(4.37114e-08 -1 -1 -4.37114e-08 126.576 407)" fill="#C8FC04" fill-opacity="0.3"/>
<rect width="9" height="9" transform="matrix(4.37114e-08 -1 -1 -4.37114e-08 137.576 407)" fill="#C8FC04" fill-opacity="0.3"/>
<rect width="9" height="9" transform="matrix(4.37114e-08 -1 -1 -4.37114e-08 148.576 407)" fill="#C8FC04" fill-opacity="0.3"/>
<rect width="9" height="9" transform="matrix(4.37114e-08 -1 -1 -4.37114e-08 126.576 395)" fill="#00C800" fill-opacity="0.3"/>
<rect width="9" height="9" transform="matrix(4.37114e-08 -1 -1 -4.37114e-08 137.576 395)" fill="#00C800" fill-opacity="0.3"/>
<rect width="9" height="9" transform="matrix(4.37114e-08 -1 -1 -4.37114e-08 148.576 395)" fill="#00C800" fill-opacity="0.3"/>
<rect width="9" height="9" transform="matrix(4.37114e-08 -1 -1 -4.37114e-08 159.576 395)" fill="#00C800" fill-opacity="0.3"/>
<rect width="9" height="9" transform="matrix(4.37114e-08 -1 -1 -4.37114e-08 170.576 395)" fill="#00C800" fill-opacity="0.3"/>
<rect width="9" height="9" transform="matrix(4.37114e-08 -1 -1 -4.37114e-08 181.576 395)" fill="#00C800" fill-opacity="0.3"/>
<rect width="9" height="9" transform="matrix(4.37114e-08 -1 -1 -4.37114e-08 192.576 395)" fill="#00C800" fill-opacity="0.3"/>
<rect width="9" height="9" transform="matrix(4.37114e-08 -1 -1 -4.37114e-08 126.576 383)" fill="#00AC00" fill-opacity="0.3"/>
<rect width="9" height="9" transform="matrix(4.37114e-08 -1 -1 -4.37114e-08 137.576 383)" fill="#00AC00" fill-opacity="0.3"/>
<rect width="9" height="9" transform="matrix(4.37114e-08 -1 -1 -4.37114e-08 148.576 383)" fill="#00AC00" fill-opacity="0.3"/>
<rect width="9" height="9" transform="matrix(4.37114e-08 -1 -1 -4.37114e-08 159.576 383)" fill="#00AC00" fill-opacity="0.3"/>
<rect width="9" height="9" transform="matrix(4.37114e-08 -1 -1 -4.37114e-08 170.576 383)" fill="#00AC00" fill-opacity="0.3"/>
<rect width="9" height="9" transform="matrix(4.37114e-08 -1 -1 -4.37114e-08 181.576 383)" fill="#00AC00" fill-opacity="0.3"/>
<rect width="9" height="9" transform="matrix(4.37114e-08 -1 -1 -4.37114e-08 126.576 371)" fill="#24D000" fill-opacity="0.3"/>
<rect width="9" height="9" transform="matrix(4.37114e-08 -1 -1 -4.37114e-08 137.576 371)" fill="#24D000" fill-opacity="0.3"/>
<rect width="9" height="9" transform="matrix(4.37114e-08 -1 -1 -4.37114e-08 148.576 371)" fill="#24D000" fill-opacity="0.3"/>
<rect width="9" height="9" transform="matrix(4.37114e-08 -1 -1 -4.37114e-08 159.576 371)" fill="#24D000" fill-opacity="0.3"/>
<rect width="9" height="9" transform="matrix(4.37114e-08 -1 -1 -4.37114e-08 170.576 371)" fill="#24D000" fill-opacity="0.3"/>
<rect width="9" height="9" transform="matrix(4.37114e-08 -1 -1 -4.37114e-08 181.576 371)" fill="#24D000" fill-opacity="0.3"/>
<rect width="9" height="9" transform="matrix(4.37114e-08 -1 -1 -4.37114e-08 192.576 371)" fill="#24D000" fill-opacity="0.3"/>
<rect width="9" height="9" transform="matrix(4.37114e-08 -1 -1 -4.37114e-08 126.576 359)" fill="#64E000" fill-opacity="0.3"/>
<rect width="9" height="9" transform="matrix(4.37114e-08 -1 -1 -4.37114e-08 137.576 359)" fill="#64E000" fill-opacity="0.3"/>
<rect width="9" height="9" transform="matrix(4.37114e-08 -1 -1 -4.37114e-08 148.576 359)" fill="#64E000" fill-opacity="0.3"/>
<rect width="9" height="9" transform="matrix(4.37114e-08 -1 -1 -4.37114e-08 159.576 359)" fill="#64E000" fill-opacity="0.3"/>
<rect width="9" height="9" transform="matrix(4.37114e-08 -1 -1 -4.37114e-08 170.576 359)" fill="#64E000" fill-opacity="0.3"/>
<rect width="9" height="9" transform="matrix(4.37114e-08 -1 -1 -4.37114e-08 126.576 347)" fill="#4CD8FC" fill-opacity="0.3"/>
<rect width="9" height="9" transform="matrix(4.37114e-08 -1 -1 -4.37114e-08 137.576 347)" fill="#4CD8FC" fill-opacity="0.3"/>
<rect width="9" height="9" transform="matrix(4.37114e-08 -1 -1 -4.37114e-08 148.576 347)" fill="#4CD8FC" fill-opacity="0.3"/>
<rect width="9" height="9" transform="matrix(4.37114e-08 -1 -1 -4.37114e-08 159.576 347)" fill="#4CD8FC" fill-opacity="0.3"/>
<rect width="9" height="9" transform="matrix(4.37114e-08 -1 -1 -4.37114e-08 170.576 347)" fill="#4CD8FC" fill-opacity="0.3"/>
<rect width="9" height="9" transform="matrix(4.37114e-08 -1 -1 -4.37114e-08 181.576 347)" fill="#4CD8FC" fill-opacity="0.3"/>
<rect width="9" height="9" transform="matrix(4.37114e-08 -1 -1 -4.37114e-08 126.576 335)" fill="#00B8F8" fill-opacity="0.3"/>
<rect width="9" height="9" transform="matrix(4.37114e-08 -1 -1 -4.37114e-08 137.576 335)" fill="#00B8F8" fill-opacity="0.3"/>
<rect width="9" height="9" transform="matrix(4.37114e-08 -1 -1 -4.37114e-08 148.576 335)" fill="#00B8F8" fill-opacity="0.3"/>
<rect width="9" height="9" transform="matrix(4.37114e-08 -1 -1 -4.37114e-08 159.576 335)" fill="#00B8F8" fill-opacity="0.3"/>
<rect width="9" height="9" transform="matrix(4.37114e-08 -1 -1 -4.37114e-08 170.576 335)" fill="#00B8F8" fill-opacity="0.3"/>
<rect width="9" height="9" transform="matrix(4.37114e-08 -1 -1 -4.37114e-08 181.576 335)" fill="#00B8F8" fill-opacity="0.3"/>
<rect width="9" height="9" transform="matrix(4.37114e-08 -1 -1 -4.37114e-08 192.576 335)" fill="#00B8F8" fill-opacity="0.3"/>
<rect width="9" height="9" transform="matrix(4.37114e-08 -1 -1 -4.37114e-08 126.576 323)" fill="#0074E4" fill-opacity="0.3"/>
<rect width="9" height="9" transform="matrix(4.37114e-08 -1 -1 -4.37114e-08 137.576 323)" fill="#0074E4" fill-opacity="0.3"/>
<rect width="9" height="9" transform="matrix(4.37114e-08 -1 -1 -4.37114e-08 148.576 323)" fill="#0074E4" fill-opacity="0.3"/>
<rect width="9" height="9" transform="matrix(4.37114e-08 -1 -1 -4.37114e-08 159.576 323)" fill="#0074E4" fill-opacity="0.3"/>
<rect width="9" height="9" transform="matrix(4.37114e-08 -1 -1 -4.37114e-08 126.576 311)" fill="#0004C8" fill-opacity="0.3"/>
<rect width="9" height="9" transform="matrix(4.37114e-08 -1 -1 -4.37114e-08 137.576 311)" fill="#0004C8" fill-opacity="0.3"/>
<rect width="9" height="9" transform="matrix(4.37114e-08 -1 -1 -4.37114e-08 148.576 311)" fill="#0004C8" fill-opacity="0.3"/>
<rect width="9" height="9" transform="matrix(4.37114e-08 -1 -1 -4.37114e-08 159.576 311)" fill="#0004C8" fill-opacity="0.3"/>
<rect width="9" height="9" transform="matrix(4.37114e-08 -1 -1 -4.37114e-08 170.576 311)" fill="#0004C8" fill-opacity="0.3"/>
<rect width="9" height="9" transform="matrix(4.37114e-08 -1 -1 -4.37114e-08 181.576 311)" fill="#0004C8" fill-opacity="0.3"/>
<rect width="9" height="9" transform="matrix(4.37114e-08 -1 -1 -4.37114e-08 192.576 311)" fill="#0004C8" fill-opacity="0.3"/>
<rect width="9" height="9" transform="matrix(4.37114e-08 -1 -1 -4.37114e-08 126.576 299)" fill="#0004C8" fill-opacity="0.3"/>
<rect width="9" height="9" transform="matrix(4.37114e-08 -1 -1 -4.37114e-08 137.576 299)" fill="#0004C8" fill-opacity="0.3"/>
<rect width="9" height="9" transform="matrix(4.37114e-08 -1 -1 -4.37114e-08 148.576 299)" fill="#0004C8" fill-opacity="0.3"/>
<rect width="9" height="9" transform="matrix(4.37114e-08 -1 -1 -4.37114e-08 159.576 299)" fill="#0004C8" fill-opacity="0.3"/>
<rect width="9" height="9" transform="matrix(4.37114e-08 -1 -1 -4.37114e-08 170.576 299)" fill="#0004C8" fill-opacity="0.3"/>
<rect width="9" height="9" transform="matrix(4.37114e-08 -1 -1 -4.37114e-08 181.576 299)" fill="#0004C8" fill-opacity="0.3"/>
<rect width="9" height="9" transform="matrix(4.37114e-08 -1 -1 -4.37114e-08 126.576 287)" fill="#0074E4" fill-opacity="0.3"/>
<rect width="9" height="9" transform="matrix(4.37114e-08 -1 -1 -4.37114e-08 137.576 287)" fill="#0074E4" fill-opacity="0.3"/>
<rect width="9" height="9" transform="matrix(4.37114e-08 -1 -1 -4.37114e-08 148.576 287)" fill="#0074E4" fill-opacity="0.3"/>
<rect width="9" height="9" transform="matrix(4.37114e-08 -1 -1 -4.37114e-08 159.576 287)" fill="#0074E4" fill-opacity="0.3"/>
<rect width="9" height="9" transform="matrix(4.37114e-08 -1 -1 -4.37114e-08 170.576 287)" fill="#0074E4" fill-opacity="0.3"/>
<rect width="9" height="9" transform="matrix(4.37114e-08 -1 -1 -4.37114e-08 126.576 275)" fill="#00B8F8" fill-opacity="0.3"/>
<rect width="9" height="9" transform="matrix(4.37114e-08 -1 -1 -4.37114e-08 137.576 275)" fill="#00B8F8" fill-opacity="0.3"/>
<rect width="9" height="9" transform="matrix(4.37114e-08 -1 -1 -4.37114e-08 148.576 275)" fill="#00B8F8" fill-opacity="0.3"/>
<rect width="9" height="9" transform="matrix(4.37114e-08 -1 -1 -4.37114e-08 159.576 275)" fill="#00B8F8" fill-opacity="0.3"/>
<rect width="9" height="9" transform="matrix(4.37114e-08 -1 -1 -4.37114e-08 170.576 275)" fill="#00B8F8" fill-opacity="0.3"/>
<rect width="9" height="9" transform="matrix(4.37114e-08 -1 -1 -4.37114e-08 181.576 275)" fill="#00B8F8" fill-opacity="0.3"/>
<rect width="9" height="9" transform="matrix(4.37114e-08 -1 -1 -4.37114e-08 192.576 275)" fill="#00B8F8" fill-opacity="0.3"/>
<rect width="9" height="9" transform="matrix(4.37114e-08 -1 -1 -4.37114e-08 126.576 263)" fill="#4CD8FC" fill-opacity="0.3"/>
<rect width="9" height="9" transform="matrix(4.37114e-08 -1 -1 -4.37114e-08 137.576 263)" fill="#4CD8FC" fill-opacity="0.3"/>
<rect width="9" height="9" transform="matrix(4.37114e-08 -1 -1 -4.37114e-08 148.576 263)" fill="#4CD8FC" fill-opacity="0.3"/>
<rect width="9" height="9" transform="matrix(4.37114e-08 -1 -1 -4.37114e-08 159.576 263)" fill="#4CD8FC" fill-opacity="0.3"/>
<rect width="9" height="9" transform="matrix(4.37114e-08 -1 -1 -4.37114e-08 170.576 263)" fill="#4CD8FC" fill-opacity="0.3"/>
<rect width="9" height="9" transform="matrix(4.37114e-08 -1 -1 -4.37114e-08 181.576 263)" fill="#4CD8FC" fill-opacity="0.3"/>
<rect width="9" height="9" transform="matrix(4.37114e-08 -1 -1 -4.37114e-08 126.576 251)" fill="#64E000" fill-opacity="0.3"/>
<rect width="9" height="9" transform="matrix(4.37114e-08 -1 -1 -4.37114e-08 137.576 251)" fill="#64E000" fill-opacity="0.3"/>
<rect width="9" height="9" transform="matrix(4.37114e-08 -1 -1 -4.37114e-08 148.576 251)" fill="#64E000" fill-opacity="0.3"/>
<rect width="9" height="9" transform="matrix(4.37114e-08 -1 -1 -4.37114e-08 159.576 251)" fill="#64E000" fill-opacity="0.3"/>
<rect width="9" height="9" transform="matrix(4.37114e-08 -1 -1 -4.37114e-08 126.576 239)" fill="#24D000" fill-opacity="0.3"/>
<rect width="9" height="9" transform="matrix(4.37114e-08 -1 -1 -4.37114e-08 137.576 239)" fill="#24D000" fill-opacity="0.3"/>
<rect width="9" height="9" transform="matrix(4.37114e-08 -1 -1 -4.37114e-08 148.576 239)" fill="#24D000" fill-opacity="0.3"/>
<rect width="9" height="9" transform="matrix(4.37114e-08 -1 -1 -4.37114e-08 159.576 239)" fill="#24D000" fill-opacity="0.3"/>
<rect width="9" height="9" transform="matrix(4.37114e-08 -1 -1 -4.37114e-08 170.576 239)" fill="#24D000" fill-opacity="0.3"/>
<rect width="9" height="9" transform="matrix(4.37114e-08 -1 -1 -4.37114e-08 181.576 239)" fill="#24D000" fill-opacity="0.3"/>
<rect width="9" height="9" transform="matrix(4.37114e-08 -1 -1 -4.37114e-08 192.576 239)" fill="#24D000" fill-opacity="0.3"/>
<rect width="9" height="9" transform="matrix(4.37114e-08 -1 -1 -4.37114e-08 126.576 227)" fill="#00AC00" fill-opacity="0.3"/>
<rect width="9" height="9" transform="matrix(4.37114e-08 -1 -1 -4.37114e-08 137.576 227)" fill="#00AC00" fill-opacity="0.3"/>
<rect width="9" height="9" transform="matrix(4.37114e-08 -1 -1 -4.37114e-08 148.576 227)" fill="#00AC00" fill-opacity="0.3"/>
<rect width="9" height="9" transform="matrix(4.37114e-08 -1 -1 -4.37114e-08 159.576 227)" fill="#00AC00" fill-opacity="0.3"/>
<rect width="9" height="9" transform="matrix(4.37114e-08 -1 -1 -4.37114e-08 170.576 227)" fill="#00AC00" fill-opacity="0.3"/>
<rect width="9" height="9" transform="matrix(4.37114e-08 -1 -1 -4.37114e-08 126.576 215)" fill="#00C800" fill-opacity="0.3"/>
<rect width="9" height="9" transform="matrix(4.37114e-08 -1 -1 -4.37114e-08 137.576 215)" fill="#00C800" fill-opacity="0.3"/>
<rect width="9" height="9" transform="matrix(4.37114e-08 -1 -1 -4.37114e-08 148.576 215)" fill="#00C800" fill-opacity="0.3"/>
<rect width="9" height="9" transform="matrix(4.37114e-08 -1 -1 -4.37114e-08 159.576 215)" fill="#00C800" fill-opacity="0.3"/>
<rect width="9" height="9" transform="matrix(4.37114e-08 -1 -1 -4.37114e-08 170.576 215)" fill="#00C800" fill-opacity="0.3"/>
<rect width="9" height="9" transform="matrix(4.37114e-08 -1 -1 -4.37114e-08 181.576 215)" fill="#00C800" fill-opacity="0.3"/>
<rect width="9" height="9" transform="matrix(4.37114e-08 -1 -1 -4.37114e-08 126.576 203)" fill="#C8FC04" fill-opacity="0.3"/>
<rect width="9" height="9" transform="matrix(4.37114e-08 -1 -1 -4.37114e-08 137.576 203)" fill="#C8FC04" fill-opacity="0.3"/>
<rect width="9" height="9" transform="matrix(4.37114e-08 -1 -1 -4.37114e-08 148.576 203)" fill="#C8FC04" fill-opacity="0.3"/>
<rect width="9" height="9" transform="matrix(4.37114e-08 -1 -1 -4.37114e-08 159.576 203)" fill="#C8FC04" fill-opacity="0.3"/>
<rect width="9" height="9" transform="matrix(4.37114e-08 -1 -1 -4.37114e-08 126.576 191)" fill="#DCB834" fill-opacity="0.3"/>
<rect width="9" height="9" transform="matrix(4.37114e-08 -1 -1 -4.37114e-08 137.576 191)" fill="#DCB834" fill-opacity="0.3"/>
<rect width="9" height="9" transform="matrix(4.37114e-08 -1 -1 -4.37114e-08 148.576 191)" fill="#DCB834" fill-opacity="0.3"/>
<rect width="9" height="9" transform="matrix(4.37114e-08 -1 -1 -4.37114e-08 159.576 191)" fill="#DCB834" fill-opacity="0.3"/>
<rect width="9" height="9" transform="matrix(4.37114e-08 -1 -1 -4.37114e-08 170.576 191)" fill="#DCB834" fill-opacity="0.3"/>
<rect width="9" height="9" transform="matrix(4.37114e-08 -1 -1 -4.37114e-08 181.576 191)" fill="#DCB834" fill-opacity="0.3"/>
<rect width="9" height="9" transform="matrix(4.37114e-08 -1 -1 -4.37114e-08 192.576 191)" fill="#DCB834" fill-opacity="0.3"/>
<rect width="9" height="9" transform="matrix(4.37114e-08 -1 -1 -4.37114e-08 126.576 179)" fill="#F0E464" fill-opacity="0.3"/>
<rect width="9" height="9" transform="matrix(4.37114e-08 -1 -1 -4.37114e-08 137.576 179)" fill="#F0E464" fill-opacity="0.3"/>
<rect width="9" height="9" transform="matrix(4.37114e-08 -1 -1 -4.37114e-08 148.576 179)" fill="#F0E464" fill-opacity="0.3"/>
<rect width="9" height="9" transform="matrix(4.37114e-08 -1 -1 -4.37114e-08 159.576 179)" fill="#F0E464" fill-opacity="0.3"/>
<rect width="9" height="9" transform="matrix(4.37114e-08 -1 -1 -4.37114e-08 170.576 179)" fill="#F0E464" fill-opacity="0.3"/>
<rect width="9" height="9" transform="matrix(4.37114e-08 -1 -1 -4.37114e-08 181.576 179)" fill="#F0E464" fill-opacity="0.3"/>
<rect width="9" height="9" transform="matrix(4.37114e-08 -1 -1 -4.37114e-08 126.576 167)" fill="#E8C126" fill-opacity="0.3"/>
<rect width="9" height="9" transform="matrix(4.37114e-08 -1 -1 -4.37114e-08 137.576 167)" fill="#E8C126" fill-opacity="0.3"/>
<rect width="9" height="9" transform="matrix(4.37114e-08 -1 -1 -4.37114e-08 148.576 167)" fill="#E8C126" fill-opacity="0.3"/>
<rect width="9" height="9" transform="matrix(4.37114e-08 -1 -1 -4.37114e-08 159.576 167)" fill="#E8C126" fill-opacity="0.3"/>
<rect width="9" height="9" transform="matrix(4.37114e-08 -1 -1 -4.37114e-08 170.576 167)" fill="#E8C126" fill-opacity="0.3"/>
<rect width="9" height="9" transform="matrix(4.37114e-08 -1 -1 -4.37114e-08 181.576 167)" fill="#E8C126" fill-opacity="0.3"/>
<rect width="9" height="9" transform="matrix(4.37114e-08 -1 -1 -4.37114e-08 192.576 167)" fill="#E8C126" fill-opacity="0.3"/>
<rect width="9" height="9" transform="matrix(4.37114e-08 -1 -1 -4.37114e-08 126.576 155)" fill="#E5E519" fill-opacity="0.3"/>
<rect width="9" height="9" transform="matrix(4.37114e-08 -1 -1 -4.37114e-08 137.576 155)" fill="#E5E519" fill-opacity="0.3"/>
<rect width="9" height="9" transform="matrix(4.37114e-08 -1 -1 -4.37114e-08 148.576 155)" fill="#E5E519" fill-opacity="0.3"/>
<rect width="9" height="9" transform="matrix(4.37114e-08 -1 -1 -4.37114e-08 159.576 155)" fill="#E5E519" fill-opacity="0.3"/>
<rect width="9" height="9" transform="matrix(4.37114e-08 -1 -1 -4.37114e-08 170.576 155)" fill="#E5E519" fill-opacity="0.3"/>
<rect width="9" height="9" transform="matrix(4.37114e-08 -1 -1 -4.37114e-08 126.576 143)" fill="#E85D00" fill-opacity="0.3"/>
<rect width="9" height="9" transform="matrix(4.37114e-08 -1 -1 -4.37114e-08 137.576 143)" fill="#E85D00" fill-opacity="0.3"/>
<rect width="9" height="9" transform="matrix(4.37114e-08 -1 -1 -4.37114e-08 148.576 143)" fill="#E85D00" fill-opacity="0.3"/>
<rect width="9" height="9" transform="matrix(4.37114e-08 -1 -1 -4.37114e-08 159.576 143)" fill="#E85D00" fill-opacity="0.3"/>
<rect width="9" height="9" transform="matrix(4.37114e-08 -1 -1 -4.37114e-08 170.576 143)" fill="#E85D00" fill-opacity="0.3"/>
<rect width="9" height="9" transform="matrix(4.37114e-08 -1 -1 -4.37114e-08 181.576 143)" fill="#E85D00" fill-opacity="0.3"/>
<rect width="9" height="9" transform="matrix(4.37114e-08 -1 -1 -4.37114e-08 192.576 143)" fill="#E85D00" fill-opacity="0.3"/>
<rect width="9" height="9" transform="matrix(4.37114e-08 -1 -1 -4.37114e-08 126.576 131)" fill="#E87326" fill-opacity="0.3"/>
<rect width="9" height="9" transform="matrix(4.37114e-08 -1 -1 -4.37114e-08 137.576 131)" fill="#E87326" fill-opacity="0.3"/>
<rect width="9" height="9" transform="matrix(4.37114e-08 -1 -1 -4.37114e-08 148.576 131)" fill="#E87326" fill-opacity="0.3"/>
<rect width="9" height="9" transform="matrix(4.37114e-08 -1 -1 -4.37114e-08 159.576 131)" fill="#E87326" fill-opacity="0.3"/>
<rect width="9" height="9" transform="matrix(4.37114e-08 -1 -1 -4.37114e-08 126.576 119)" fill="#E82626" fill-opacity="0.3"/>
<rect width="9" height="9" transform="matrix(4.37114e-08 -1 -1 -4.37114e-08 137.576 119)" fill="#E82626" fill-opacity="0.3"/>
<rect width="9" height="9" transform="matrix(4.37114e-08 -1 -1 -4.37114e-08 148.576 119)" fill="#E82626" fill-opacity="0.3"/>
<rect width="9" height="9" transform="matrix(4.37114e-08 -1 -1 -4.37114e-08 159.576 119)" fill="#E82626" fill-opacity="0.3"/>
<rect width="9" height="9" transform="matrix(4.37114e-08 -1 -1 -4.37114e-08 170.576 119)" fill="#E82626" fill-opacity="0.3"/>
<rect width="9" height="9" transform="matrix(4.37114e-08 -1 -1 -4.37114e-08 181.576 119)" fill="#E82626" fill-opacity="0.3"/>
<rect width="9" height="9" transform="matrix(4.37114e-08 -1 -1 -4.37114e-08 126.576 107)" fill="#E82626" fill-opacity="0.3"/>
<rect width="9" height="9" transform="matrix(4.37114e-08 -1 -1 -4.37114e-08 137.576 107)" fill="#E82626" fill-opacity="0.3"/>
<rect width="9" height="9" transform="matrix(4.37114e-08 -1 -1 -4.37114e-08 148.576 107)" fill="#E82626" fill-opacity="0.3"/>
<rect width="9" height="9" transform="matrix(4.37114e-08 -1 -1 -4.37114e-08 159.576 107)" fill="#E82626" fill-opacity="0.3"/>
<rect width="9" height="9" transform="matrix(4.37114e-08 -1 -1 -4.37114e-08 170.576 107)" fill="#E82626" fill-opacity="0.3"/>
<rect width="9" height="9" transform="matrix(4.37114e-08 -1 -1 -4.37114e-08 181.576 107)" fill="#E82626" fill-opacity="0.3"/>
<rect width="9" height="9" transform="matrix(4.37114e-08 -1 -1 -4.37114e-08 192.576 107)" fill="#E82626" fill-opacity="0.3"/>
<rect width="9" height="9" transform="matrix(4.37114e-08 -1 -1 -4.37114e-08 126.576 95)" fill="#9A003E" fill-opacity="0.3"/>
<rect width="9" height="9" transform="matrix(4.37114e-08 -1 -1 -4.37114e-08 137.576 95)" fill="#9A003E" fill-opacity="0.3"/>
<rect width="9" height="9" transform="matrix(4.37114e-08 -1 -1 -4.37114e-08 148.576 95)" fill="#9A003E" fill-opacity="0.3"/>
<rect width="9" height="9" transform="matrix(4.37114e-08 -1 -1 -4.37114e-08 159.576 95)" fill="#9A003E" fill-opacity="0.3"/>
<rect width="9" height="9" transform="matrix(4.37114e-08 -1 -1 -4.37114e-08 126.576 83)" fill="#E84D8B" fill-opacity="0.3"/>
<rect width="9" height="9" transform="matrix(4.37114e-08 -1 -1 -4.37114e-08 137.576 83)" fill="#E84D8B" fill-opacity="0.3"/>
<rect width="9" height="9" transform="matrix(4.37114e-08 -1 -1 -4.37114e-08 148.576 83)" fill="#E84D8B" fill-opacity="0.3"/>
<rect width="9" height="9" transform="matrix(4.37114e-08 -1 -1 -4.37114e-08 159.576 83)" fill="#E84D8B" fill-opacity="0.3"/>
<rect width="9" height="9" transform="matrix(4.37114e-08 -1 -1 -4.37114e-08 170.576 83)" fill="#E84D8B" fill-opacity="0.3"/>
<rect width="9" height="9" transform="matrix(4.37114e-08 -1 -1 -4.37114e-08 181.576 83)" fill="#E84D8B" fill-opacity="0.3"/>
<rect width="9" height="9" transform="matrix(4.37114e-08 -1 -1 -4.37114e-08 192.576 83)" fill="#E84D8B" fill-opacity="0.3"/>
<rect width="9" height="9" transform="matrix(4.37114e-08 -1 -1 -4.37114e-08 126.576 71)" fill="#C94DE8" fill-opacity="0.3"/>
<rect width="9" height="9" transform="matrix(4.37114e-08 -1 -1 -4.37114e-08 137.576 71)" fill="#C94DE8" fill-opacity="0.3"/>
<rect width="9" height="9" transform="matrix(4.37114e-08 -1 -1 -4.37114e-08 148.576 71)" fill="#C94DE8" fill-opacity="0.3"/>
<rect width="9" height="9" transform="matrix(4.37114e-08 -1 -1 -4.37114e-08 126.576 59)" fill="#B900E8" fill-opacity="0.3"/>
<rect width="9" height="9" transform="matrix(4.37114e-08 -1 -1 -4.37114e-08 137.576 59)" fill="#B900E8" fill-opacity="0.3"/>
<rect width="9" height="9" transform="matrix(4.37114e-08 -1 -1 -4.37114e-08 148.576 59)" fill="#B900E8" fill-opacity="0.3"/>
<rect width="9" height="9" transform="matrix(4.37114e-08 -1 -1 -4.37114e-08 159.576 59)" fill="#B900E8" fill-opacity="0.3"/>
<rect width="9" height="9" transform="matrix(4.37114e-08 -1 -1 -4.37114e-08 170.576 59)" fill="#B900E8" fill-opacity="0.3"/>
<rect width="9" height="9" transform="matrix(4.37114e-08 -1 -1 -4.37114e-08 126.576 47)" fill="#7C009A" fill-opacity="0.3"/>
<rect width="9" height="9" transform="matrix(4.37114e-08 -1 -1 -4.37114e-08 137.576 47)" fill="#7C009A" fill-opacity="0.3"/>
<rect width="9" height="9" transform="matrix(4.37114e-08 -1 -1 -4.37114e-08 148.576 47)" fill="#7C009A" fill-opacity="0.3"/>
<rect width="9" height="9" transform="matrix(4.37114e-08 -1 -1 -4.37114e-08 159.576 47)" fill="#7C009A" fill-opacity="0.3"/>
<rect width="9" height="9" transform="matrix(4.37114e-08 -1 -1 -4.37114e-08 170.576 47)" fill="#7C009A" fill-opacity="0.3"/>
<rect width="9" height="9" transform="matrix(4.37114e-08 -1 -1 -4.37114e-08 181.576 47)" fill="#7C009A" fill-opacity="0.3"/>
<rect width="9" height="9" transform="matrix(4.37114e-08 -1 -1 -4.37114e-08 192.576 47)" fill="#7C009A" fill-opacity="0.3"/>
<rect width="9" height="9" transform="matrix(4.37114e-08 -1 -1 -4.37114e-08 126.576 35)" fill="#522891" fill-opacity="0.3"/>
<rect width="9" height="9" transform="matrix(4.37114e-08 -1 -1 -4.37114e-08 137.576 35)" fill="#522891" fill-opacity="0.3"/>
<rect width="9" height="9" transform="matrix(4.37114e-08 -1 -1 -4.37114e-08 148.576 35)" fill="#522891" fill-opacity="0.3"/>
<rect width="9" height="9" transform="matrix(4.37114e-08 -1 -1 -4.37114e-08 159.576 35)" fill="#522891" fill-opacity="0.3"/>
<g filter="url(#filter0_d)">
<path d="M183.731 46.4868C183.731 46.4868 176.722 21.8039 184.707 19.5129" stroke="black" stroke-width="5"/>
</g>
<g filter="url(#filter1_d)">
<ellipse cx="185.207" cy="63.5129" rx="16.5" ry="22" transform="rotate(15 185.207 63.5129)" fill="#4B4646"/>
<path d="M200.662 67.654C199.115 73.4277 195.964 78.1658 192.142 81.1656C188.321 84.1652 183.858 85.4097 179.643 84.2803C175.428 83.1509 172.185 79.8417 170.375 75.3332C168.566 70.8245 168.206 65.1455 169.753 59.3718C171.3 53.598 174.451 48.86 178.273 45.8602C182.094 42.8606 186.557 41.6161 190.772 42.7455C194.987 43.8749 198.23 47.1841 200.039 51.6926C201.849 56.2012 202.209 61.8803 200.662 67.654Z" stroke="black"/>
</g>
<g filter="url(#filter2_i)">
<path d="M196.316 66.4893C194.172 74.4913 187.461 79.6456 181.326 78.0018C175.191 76.3579 173.063 68.0149 175.207 60.0129C177.351 52.0109 182.955 47.3802 189.09 49.024C195.225 50.6678 198.46 58.4873 196.316 66.4893Z" fill="#C4C4C4"/>
</g>
<path d="M196.316 66.4893C194.172 74.4913 187.461 79.6456 181.326 78.0018C175.191 76.3579 173.063 68.0149 175.207 60.0129C177.351 52.0109 182.955 47.3802 189.09 49.024C195.225 50.6678 198.46 58.4873 196.316 66.4893Z" stroke="black"/>
<g filter="url(#filter3_d)">
<ellipse cx="210.339" cy="72.0338" rx="16.5" ry="22" transform="rotate(15 210.339 72.0338)" fill="#4B4646"/>
<path d="M225.794 76.1749C224.247 81.9486 221.095 86.6867 217.274 89.6864C213.452 92.6861 208.989 93.9306 204.774 92.8012C200.559 91.6718 197.317 88.3626 195.507 83.8541C193.697 79.3454 193.337 73.6664 194.884 67.8927C196.431 62.1189 199.583 57.3808 203.404 54.3811C207.226 51.3814 211.689 50.137 215.904 51.2664C220.119 52.3958 223.361 55.7049 225.171 60.2134C226.981 64.7221 227.341 70.4011 225.794 76.1749Z" stroke="black"/>
</g>
<g filter="url(#filter4_d)">
<ellipse cx="210.493" cy="71.9454" rx="6.09837" ry="8.13116" transform="rotate(15 210.493 71.9454)" fill="black"/>
</g>
<path d="M182.707 21.0203C204.707 0.520309 223.707 17.0128 226.707 22.0129" stroke="black" stroke-width="5"/>
<path d="M225.707 20.5129C234.208 30.0128 218.836 64.9647 211.044 74.2912" stroke="black" stroke-width="5"/>
<mask id="path-535-outside-1" maskUnits="userSpaceOnUse" x="173.727" y="46.5104" width="23" height="34" fill="black">
<rect fill="white" x="173.727" y="46.5104" width="23" height="34"/>
<path fill-rule="evenodd" clip-rule="evenodd" d="M195.545 53.7396C194.123 51.4908 192.149 49.7748 189.862 48.8764L189.836 48.8664L189.81 48.8593C186.618 47.9914 183.566 48.7799 181.057 50.8107C178.558 52.8332 176.607 56.077 175.535 60.1345C174.464 64.1905 174.458 68.3562 175.51 71.7399C176.563 75.1256 178.7 77.7841 181.939 78.6647L181.971 78.6733L182.003 78.6777C182.399 78.7313 182.795 78.7644 183.192 78.7777L183.683 77.7811C183.175 77.7863 182.668 77.756 182.163 77.6893C179.373 76.9174 177.445 74.6053 176.463 71.4469C175.476 68.2746 175.469 64.3044 176.5 60.3969C177.532 56.4909 179.39 53.4512 181.686 51.5921C183.966 49.7471 186.684 49.0545 189.529 49.819C191.753 50.7005 193.688 52.4673 195.02 54.8036L195.545 53.7396Z"/>
</mask>
<path fill-rule="evenodd" clip-rule="evenodd" d="M195.545 53.7396C194.123 51.4908 192.149 49.7748 189.862 48.8764L189.836 48.8664L189.81 48.8593C186.618 47.9914 183.566 48.7799 181.057 50.8107C178.558 52.8332 176.607 56.077 175.535 60.1345C174.464 64.1905 174.458 68.3562 175.51 71.7399C176.563 75.1256 178.7 77.7841 181.939 78.6647L181.971 78.6733L182.003 78.6777C182.399 78.7313 182.795 78.7644 183.192 78.7777L183.683 77.7811C183.175 77.7863 182.668 77.756 182.163 77.6893C179.373 76.9174 177.445 74.6053 176.463 71.4469C175.476 68.2746 175.469 64.3044 176.5 60.3969C177.532 56.4909 179.39 53.4512 181.686 51.5921C183.966 49.7471 186.684 49.0545 189.529 49.819C191.753 50.7005 193.688 52.4673 195.02 54.8036L195.545 53.7396Z" fill="black"/>
<path d="M189.862 48.8764L190.227 47.9456L190.227 47.9456L189.862 48.8764ZM195.545 53.7396L196.442 54.1821L196.69 53.6793L196.39 53.2053L195.545 53.7396ZM189.836 48.8664L190.202 47.9357L190.151 47.9158L190.099 47.9015L189.836 48.8664ZM189.81 48.8593L190.073 47.8943L190.073 47.8943L189.81 48.8593ZM181.057 50.8107L180.428 50.0335L180.428 50.0335L181.057 50.8107ZM175.535 60.1345L176.502 60.3898L175.535 60.1345ZM175.51 71.7399L176.465 71.4429H176.465L175.51 71.7399ZM181.939 78.6647L181.677 79.6297L181.677 79.6297L181.939 78.6647ZM181.971 78.6733L181.709 79.6383L181.772 79.6555L181.837 79.6643L181.971 78.6733ZM182.003 78.6777L181.869 79.6687L181.869 79.6687L182.003 78.6777ZM183.192 78.7777L183.158 79.7771L183.803 79.7986L184.088 79.2201L183.192 78.7777ZM183.683 77.7811L184.58 78.2236L185.3 76.7644L183.673 76.7812L183.683 77.7811ZM182.163 77.6893L181.897 78.6531L181.963 78.6715L182.032 78.6806L182.163 77.6893ZM176.463 71.4469L177.418 71.1499L176.463 71.4469ZM176.5 60.3969L175.534 60.1416L176.5 60.3969ZM181.686 51.5921L182.316 52.3694L181.686 51.5921ZM189.529 49.819L189.897 48.8893L189.844 48.8682L189.788 48.8533L189.529 49.819ZM195.02 54.8036L194.151 55.2988L195.084 56.9347L195.917 55.2461L195.02 54.8036ZM189.496 49.8072C191.561 50.6183 193.377 52.1816 194.7 54.274L196.39 53.2053C194.87 50.8 192.737 48.9313 190.227 47.9456L189.496 49.8072ZM189.471 49.7972L189.496 49.8072L190.227 47.9456L190.202 47.9357L189.471 49.7972ZM189.548 49.8242L189.574 49.8314L190.099 47.9015L190.073 47.8943L189.548 49.8242ZM181.686 51.588C183.969 49.7396 186.695 49.0485 189.548 49.8243L190.073 47.8943C186.541 46.9342 183.162 47.8202 180.428 50.0335L181.686 51.588ZM176.502 60.3898C177.534 56.4835 179.391 53.4454 181.686 51.588L180.428 50.0335C177.725 52.2211 175.68 55.6704 174.569 59.8792L176.502 60.3898ZM176.465 71.4429C175.478 68.2686 175.47 64.2973 176.502 60.3898L174.569 59.8792C173.458 64.0837 173.438 68.4438 174.555 72.0368L176.465 71.4429ZM182.202 77.6998C179.394 76.9363 177.452 74.6168 176.465 71.4429L174.555 72.0368C175.674 75.6343 178.007 78.6319 181.677 79.6297L182.202 77.6998ZM182.233 77.7083L182.202 77.6998L181.677 79.6297L181.709 79.6383L182.233 77.7083ZM182.138 77.6868L182.105 77.6824L181.837 79.6643L181.869 79.6687L182.138 77.6868ZM183.225 77.7782C182.862 77.7661 182.499 77.7357 182.138 77.6868L181.869 79.6687C182.298 79.7268 182.728 79.7628 183.158 79.7771L183.225 77.7782ZM184.088 79.2201L184.58 78.2236L182.787 77.3386L182.295 78.3352L184.088 79.2201ZM182.032 78.6806C182.584 78.7536 183.139 78.7868 183.694 78.7811L183.673 76.7812C183.212 76.7859 182.751 76.7583 182.294 76.6979L182.032 78.6806ZM175.508 71.7439C176.556 75.1144 178.679 77.7629 181.897 78.6531L182.43 76.7255C180.067 76.0718 178.334 74.0963 177.418 71.1499L175.508 71.7439ZM175.534 60.1416C174.462 64.1977 174.456 68.3623 175.508 71.7439L177.418 71.1499C176.496 68.187 176.475 64.4112 177.467 60.6522L175.534 60.1416ZM181.057 50.8149C178.557 52.839 176.605 56.0842 175.534 60.1416L177.467 60.6522C178.459 56.8975 180.223 54.0634 182.316 52.3694L181.057 50.8149ZM189.788 48.8533C186.606 47.9978 183.561 48.7879 181.057 50.8149L182.316 52.3694C184.37 50.7063 186.763 50.1111 189.269 50.7847L189.788 48.8533ZM195.889 54.3084C194.461 51.8035 192.362 49.866 189.897 48.8893L189.16 50.7487C191.144 51.5349 192.916 53.1311 194.151 55.2988L195.889 54.3084ZM195.917 55.2461L196.442 54.1821L194.648 53.2972L194.123 54.3612L195.917 55.2461Z" fill="black" fill-opacity="0.1" mask="url(#path-535-outside-1)"/>
<circle cx="192.479" cy="135.563" r="2.85714" transform="rotate(30 192.479 135.563)" fill="black"/>
<line x1="194.52" y1="136.742" x2="200.949" y2="125.607" stroke="black"/>
<circle cx="140.479" cy="161.182" r="2.85714" transform="rotate(30 140.479 161.182)" fill="black"/>
<line x1="142.52" y1="162.36" x2="148.948" y2="151.226" stroke="black"/>
<path d="M148.365 151.38L153.313 154.237M146.716 154.236L151.665 157.093" stroke="black"/>
<circle cx="192.479" cy="214.563" r="2.85714" transform="rotate(30 192.479 214.563)" fill="black"/>
<line x1="194.52" y1="215.742" x2="200.949" y2="204.607" stroke="black"/>
<circle cx="197.514" cy="424.166" r="2.85714" transform="rotate(67.1483 197.514 424.166)" fill="black"/>
<line x1="198.429" y1="426.338" x2="210.277" y2="421.345" stroke="black"/>
<path d="M209.719 421.116L211.938 426.381M206.68 422.396L208.899 427.662" stroke="black"/>
<circle cx="153.298" cy="456.991" r="2.85714" transform="rotate(69.4122 153.298 456.991)" fill="black"/>
<line x1="154.127" y1="459.198" x2="166.163" y2="454.677" stroke="black"/>
<circle cx="234.75" cy="501.902" r="2.85714" transform="rotate(57.7387 234.75 501.902)" fill="black"/>
<line x1="236.009" y1="503.895" x2="246.881" y2="497.032" stroke="black"/>
<circle cx="178.163" cy="505.503" r="2.85714" transform="rotate(57.0129 178.163 505.503)" fill="black"/>
<line x1="179.446" y1="507.481" x2="190.231" y2="500.48" stroke="black"/>
<circle cx="182.83" cy="512.693" r="2.85714" transform="rotate(57.0129 182.83 512.693)" fill="black"/>
<line x1="184.113" y1="514.67" x2="194.898" y2="507.67" stroke="black"/>
<path d="M189.744 500.614L194.411 507.803" stroke="black"/>
<circle cx="196.614" cy="571.59" r="2.85714" transform="rotate(52.5088 196.614 571.59)" fill="black"/>
<line x1="198.048" y1="573.46" x2="208.25" y2="565.634" stroke="black"/>
<path d="M207.779 565.323L211.257 569.857" stroke="black"/>
<circle cx="238.157" cy="196.123" r="2.85714" transform="rotate(17.4275 238.157 196.123)" fill="black"/>
<line x1="240.406" y1="196.829" x2="244.257" y2="184.562" stroke="black"/>
<path d="M243.693 184.578L249.145 186.289" stroke="black"/>
</g>
<path d="M222.576 110C222.576 110 213.819 119.426 216.611 153.311C219.402 187.196 294.538 252.748 282.339 287.367C270.14 321.985 191.291 363.6 195.643 416.421C199.994 469.242 283.696 565.695 283.696 565.695" stroke="black" stroke-width="2"/>
<path d="M205.075 92.4999C205.075 92.4999 188.627 125.859 191.419 159.744C194.21 193.629 269.346 259.181 257.148 293.8C244.949 328.418 166.099 370.033 170.451 422.854C174.802 475.675 258.504 572.128 258.504 572.128" stroke="black" stroke-width="2"/>
<path d="M178.076 96.5C178.076 96.5 163.436 132.292 166.227 166.177C169.019 200.062 244.155 265.615 231.956 300.233C219.757 334.851 140.908 376.466 145.259 429.287C149.611 482.108 233.313 578.561 233.313 578.561" stroke="black" stroke-width="2"/>
<path d="M146.076 117.5C146.076 117.5 137.529 139.1 140.321 172.986C143.112 206.871 218.248 272.423 206.049 307.041C193.85 341.66 115.001 383.274 119.353 436.096C123.704 488.917 207.406 585.37 207.406 585.37" stroke="black" stroke-width="2"/>
<defs>
<filter id="filter0_d" x="88.3865" y="-68.8902" width="187.75" height="210.059" filterUnits="userSpaceOnUse" color-interpolation-filters="sRGB">
<feFlood flood-opacity="0" result="BackgroundImageFix"/>
<feColorMatrix in="SourceAlpha" type="matrix" values="0 0 0 0 0 0 0 0 0 0 0 0 0 0 0 0 0 0 127 0"/>
<feOffset dy="4"/>
<feGaussianBlur stdDeviation="45"/>
<feColorMatrix type="matrix" values="0 0 0 0 0 0 0 0 0 0 0 0 0 0 0 0 0 0 1 0"/>
<feBlend mode="normal" in2="BackgroundImageFix" result="effect1_dropShadow"/>
<feBlend mode="normal" in="SourceGraphic" in2="effect1_dropShadow" result="shape"/>
</filter>
<filter id="filter1_d" x="164.278" y="41.8335" width="41.858" height="51.3589" filterUnits="userSpaceOnUse" color-interpolation-filters="sRGB">
<feFlood flood-opacity="0" result="BackgroundImageFix"/>
<feColorMatrix in="SourceAlpha" type="matrix" values="0 0 0 0 0 0 0 0 0 0 0 0 0 0 0 0 0 0 127 0"/>
<feOffset dy="4"/>
<feGaussianBlur stdDeviation="2"/>
<feColorMatrix type="matrix" values="0 0 0 0 0 0 0 0 0 0 0 0 0 0 0 0 0 0 0.25 0"/>
<feBlend mode="normal" in2="BackgroundImageFix" result="effect1_dropShadow"/>
<feBlend mode="normal" in="SourceGraphic" in2="effect1_dropShadow" result="shape"/>
</filter>
<filter id="filter2_i" x="173.896" y="48.194" width="23.5823" height="30.6135" filterUnits="userSpaceOnUse" color-interpolation-filters="sRGB">
<feFlood flood-opacity="0" result="BackgroundImageFix"/>
<feBlend mode="normal" in="SourceGraphic" in2="BackgroundImageFix" result="shape"/>
<feColorMatrix in="SourceAlpha" type="matrix" values="0 0 0 0 0 0 0 0 0 0 0 0 0 0 0 0 0 0 127 0" result="hardAlpha"/>
<feOffset dx="6" dy="4"/>
<feComposite in2="hardAlpha" operator="arithmetic" k2="-1" k3="1"/>
<feColorMatrix type="matrix" values="0 0 0 0 0 0 0 0 0 0 0 0 0 0 0 0 0 0 0.25 0"/>
<feBlend mode="normal" in2="shape" result="effect1_innerShadow"/>
</filter>
<filter id="filter3_d" x="189.41" y="50.3543" width="41.858" height="51.3589" filterUnits="userSpaceOnUse" color-interpolation-filters="sRGB">
<feFlood flood-opacity="0" result="BackgroundImageFix"/>
<feColorMatrix in="SourceAlpha" type="matrix" values="0 0 0 0 0 0 0 0 0 0 0 0 0 0 0 0 0 0 127 0"/>
<feOffset dy="4"/>
<feGaussianBlur stdDeviation="2"/>
<feColorMatrix type="matrix" values="0 0 0 0 0 0 0 0 0 0 0 0 0 0 0 0 0 0 0.25 0"/>
<feBlend mode="normal" in2="BackgroundImageFix" result="effect1_dropShadow"/>
<feBlend mode="normal" in="SourceGraphic" in2="effect1_dropShadow" result="shape"/>
</filter>
<filter id="filter4_d" x="184.236" y="47.9327" width="52.5139" height="56.0254" filterUnits="userSpaceOnUse" color-interpolation-filters="sRGB">
<feFlood flood-opacity="0" result="BackgroundImageFix"/>
<feColorMatrix in="SourceAlpha" type="matrix" values="0 0 0 0 0 0 0 0 0 0 0 0 0 0 0 0 0 0 127 0"/>
<feOffset dy="4"/>
<feGaussianBlur stdDeviation="10"/>
<feColorMatrix type="matrix" values="0 0 0 0 0 0 0 0 0 0 0 0 0 0 0 0 0 0 1 0"/>
<feBlend mode="normal" in2="BackgroundImageFix" result="effect1_dropShadow"/>
<feBlend mode="normal" in="SourceGraphic" in2="effect1_dropShadow" result="shape"/>
</filter>
<clipPath id="clip0">
<rect x="112.576" width="190" height="600" fill="white"/>
</clipPath>
</defs>
</svg>
