<svg width="288" height="908" viewBox="0 0 288 908" fill="none" xmlns="http://www.w3.org/2000/svg">
<g clip-path="url(#clip0)">
<path d="M288 0H0V907.89H288V0Z" fill="#00D1FF" fill-opacity="0.2"/>
<path d="M43.4728 68.0911L41.5023 62.3714H33.3473L31.4071 68.0911H27.2842L35.2269 46.3926H39.653L47.5958 68.0911H43.4728ZM40.5019 59.0425L38.6223 53.4741C38.5415 53.1916 38.4202 52.8083 38.2585 52.3241C38.0968 51.8399 37.9352 51.3456 37.7734 50.8412C37.632 50.3166 37.5208 49.883 37.44 49.5399C37.3389 49.9435 37.2076 50.4074 37.0459 50.932C36.9044 51.4566 36.7629 51.9508 36.6214 52.4149C36.48 52.879 36.3789 53.232 36.3183 53.4741L34.4084 59.0425H40.5019ZM59.7797 51.386C61.6188 51.386 63.0538 51.86 64.0845 52.8083C65.1354 53.7566 65.6609 55.2899 65.6609 57.4083V68.0911H61.8411V58.1649C61.8411 55.7034 60.8306 54.4728 58.8096 54.4728C57.2735 54.4728 56.2226 54.957 55.6567 55.9254C55.0907 56.8938 54.8079 58.2758 54.8079 60.0715V68.0911H50.9881V51.6886H53.9287L54.4744 53.8373H54.6866C55.212 52.9899 55.9296 52.3745 56.839 51.9912C57.7687 51.5877 58.7489 51.386 59.7797 51.386ZM68.8926 51.6886H73.0459L76.32 60.9491C76.5423 61.5342 76.7242 62.1092 76.8657 62.6741C77.0071 63.2389 77.1082 63.8139 77.1688 64.3991H77.2901C77.3709 63.8947 77.4921 63.3399 77.6539 62.7346C77.8156 62.1293 77.9975 61.5342 78.1996 60.9491L81.3524 51.6886H85.4753L78.4724 70.2701C77.8459 71.9043 76.9869 73.1552 75.8955 74.0227C74.8243 74.9105 73.5006 75.3543 71.9242 75.3543C71.419 75.3543 70.9844 75.324 70.6206 75.2635C70.2568 75.2231 69.9335 75.1727 69.6505 75.1122V72.0859C69.8729 72.1263 70.1356 72.1665 70.4387 72.2069C70.762 72.2473 71.0955 72.2674 71.4391 72.2674C72.3891 72.2674 73.1368 71.9849 73.6825 71.4201C74.2483 70.8753 74.6829 70.1894 74.9861 69.3622L75.4711 68.0306L68.8926 51.6886ZM39.4105 108.946L33.4686 91.2423H33.3473C33.3675 91.6459 33.3978 92.2209 33.4383 92.9673C33.4788 93.6936 33.5091 94.4906 33.5292 95.3581C33.5697 96.2055 33.5899 97.0024 33.5899 97.7489V108.946H30.1035V87.3384H35.4998L41.1991 104.316H41.3204L47.2623 87.3384H52.6585V108.946H48.96V97.5673C48.96 96.8814 48.9701 96.1348 48.9903 95.3279C49.0308 94.5006 49.0611 93.7239 49.0812 92.9976C49.1217 92.2713 49.152 91.6963 49.1722 91.2726H49.0509L42.8665 108.946H39.4105ZM73.4767 100.715C73.4767 103.438 72.7694 105.547 71.3545 107.04C69.9399 108.512 68.0198 109.249 65.5945 109.249C64.0991 109.249 62.7652 108.916 61.5929 108.25C60.4207 107.584 59.5011 106.616 58.8341 105.345C58.1672 104.074 57.8337 102.53 57.8337 100.715C57.8337 97.991 58.531 95.9028 59.9255 94.4502C61.3403 92.9775 63.2602 92.241 65.6855 92.241C67.2013 92.241 68.5453 92.5739 69.7175 93.2397C70.8898 93.8854 71.8093 94.8436 72.4762 96.1147C73.1432 97.3656 73.4767 98.8989 73.4767 100.715ZM61.7444 100.715C61.7444 102.45 62.0476 103.791 62.6539 104.74C63.2805 105.688 64.281 106.162 65.6552 106.162C67.0295 106.162 68.0198 105.688 68.6261 104.74C69.2528 103.791 69.5659 102.45 69.5659 100.715C69.5659 98.9795 69.2528 97.648 68.6261 96.7199C68.0198 95.7919 67.0194 95.3279 65.6249 95.3279C64.2708 95.3279 63.2805 95.7919 62.6539 96.7199C62.0476 97.648 61.7444 98.9795 61.7444 100.715ZM93.0079 100.715C93.0079 103.438 92.3005 105.547 90.8858 107.04C89.471 108.512 87.5511 109.249 85.1258 109.249C83.6302 109.249 82.2963 108.916 81.1241 108.25C79.9518 107.584 79.0323 106.616 78.3654 105.345C77.6984 104.074 77.365 102.53 77.365 100.715C77.365 97.991 78.0622 95.9028 79.4567 94.4502C80.8714 92.9775 82.7915 92.241 85.2167 92.241C86.7325 92.241 88.0764 92.5739 89.2487 93.2397C90.4209 93.8854 91.3405 94.8436 92.0075 96.1147C92.6744 97.3656 93.0079 98.8989 93.0079 100.715ZM81.2757 100.715C81.2757 102.45 81.5788 103.791 82.1852 104.74C82.8116 105.688 83.8121 106.162 85.1864 106.162C86.5606 106.162 87.5511 105.688 88.1574 104.74C88.7839 103.791 89.0972 102.45 89.0972 100.715C89.0972 98.9795 88.7839 97.648 88.1574 96.7199C87.5511 95.7919 86.5506 95.3279 85.1561 95.3279C83.8019 95.3279 82.8116 95.7919 82.1852 96.7199C81.5788 97.648 81.2757 98.9795 81.2757 100.715ZM103.293 109.249C101.373 109.249 99.8267 108.533 98.6544 107.1C97.4822 105.668 96.8961 103.559 96.8961 100.775C96.8961 97.9506 97.4924 95.8222 98.6847 94.3897C99.8772 92.9572 101.443 92.241 103.384 92.241C104.596 92.241 105.587 92.473 106.355 92.9371C107.143 93.4012 107.769 93.966 108.234 94.6318H108.416C108.355 94.3493 108.295 93.9156 108.234 93.3305C108.174 92.7454 108.143 92.2006 108.143 91.6963V85.9463H111.963V108.946H108.992L108.295 106.798H108.143C107.678 107.483 107.062 108.069 106.294 108.553C105.526 109.017 104.526 109.249 103.293 109.249ZM104.445 106.162C105.86 106.162 106.85 105.758 107.416 104.951C108.002 104.145 108.305 102.924 108.325 101.29V100.805C108.325 99.0502 108.042 97.7085 107.476 96.7805C106.931 95.8322 105.9 95.3581 104.384 95.3581C103.212 95.3581 102.313 95.8423 101.686 96.8107C101.08 97.759 100.776 99.1006 100.776 100.836C100.776 102.571 101.09 103.892 101.716 104.8C102.343 105.708 103.252 106.162 104.445 106.162Z" fill="#0500FF"/>
<path d="M217.202 125.591L215.23 119.871H207.075L205.135 125.591H201.012L208.955 103.893H213.381L221.323 125.591H217.202ZM214.23 116.543L212.35 110.974C212.27 110.692 212.148 110.308 211.986 109.824C211.825 109.34 211.663 108.846 211.501 108.341C211.36 107.817 211.249 107.383 211.168 107.04C211.068 107.443 210.936 107.907 210.774 108.432C210.633 108.957 210.492 109.451 210.349 109.915C210.208 110.379 210.107 110.732 210.046 110.974L208.136 116.543H214.23ZM233.507 108.886C235.347 108.886 236.781 109.36 237.812 110.308C238.864 111.257 239.389 112.79 239.389 114.908V125.591H235.569V115.665C235.569 113.203 234.559 111.973 232.537 111.973C231.002 111.973 229.951 112.457 229.384 113.425C228.819 114.394 228.536 115.776 228.536 117.571V125.591H224.716V109.189H227.656L228.202 111.337H228.414C228.94 110.49 229.657 109.875 230.567 109.491C231.497 109.088 232.477 108.886 233.507 108.886ZM242.62 109.189H246.775L250.049 118.449C250.27 119.034 250.452 119.609 250.595 120.174C250.736 120.739 250.837 121.314 250.898 121.899H251.019C251.1 121.395 251.221 120.84 251.383 120.235C251.544 119.629 251.726 119.034 251.929 118.449L255.082 109.189H259.204L252.202 127.77C251.574 129.404 250.716 130.655 249.625 131.523C248.553 132.41 247.23 132.854 245.653 132.854C245.147 132.854 244.714 132.824 244.35 132.763C243.986 132.723 243.662 132.673 243.38 132.612V129.586C243.601 129.626 243.865 129.667 244.168 129.707C244.491 129.747 244.824 129.767 245.168 129.767C246.117 129.767 246.866 129.485 247.412 128.92C247.977 128.375 248.412 127.689 248.715 126.862L249.2 125.531L242.62 109.189ZM194.223 166.446H190.342V148.107H184.127V144.838H200.437V148.107H194.223V166.446ZM206.206 143.719C206.793 143.719 207.289 143.87 207.692 144.173C208.116 144.455 208.329 144.97 208.329 145.716C208.329 146.462 208.116 146.987 207.692 147.29C207.289 147.592 206.793 147.744 206.206 147.744C205.621 147.744 205.115 147.592 204.691 147.29C204.287 146.987 204.084 146.462 204.084 145.716C204.084 144.97 204.287 144.455 204.691 144.173C205.115 143.87 205.621 143.719 206.206 143.719ZM208.116 150.044V166.446H204.297V150.044H208.116ZM232.737 149.741C234.596 149.741 235.99 150.215 236.921 151.163C237.87 152.112 238.346 153.645 238.346 155.763V166.446H234.526V156.49C234.526 154.049 233.595 152.828 231.737 152.828C230.403 152.828 229.453 153.262 228.887 154.129C228.32 154.996 228.038 156.258 228.038 157.912V166.446H224.219V156.49C224.219 154.049 223.279 152.828 221.399 152.828C220.005 152.828 219.044 153.312 218.519 154.28C217.993 155.249 217.731 156.63 217.731 158.427V166.446H213.911V150.044H216.852L217.397 152.192H217.61C218.095 151.345 218.771 150.73 219.641 150.346C220.529 149.943 221.449 149.741 222.4 149.741C223.632 149.741 224.663 149.953 225.492 150.377C226.341 150.78 226.986 151.416 227.432 152.283H227.735C228.24 151.395 228.948 150.75 229.857 150.346C230.767 149.943 231.726 149.741 232.737 149.741ZM250.649 149.741C252.852 149.741 254.59 150.397 255.864 151.708C257.157 153.02 257.804 154.845 257.804 157.186V159.123H246.951C246.992 160.616 247.406 161.775 248.194 162.603C248.982 163.409 250.073 163.813 251.468 163.813C252.518 163.813 253.469 163.712 254.318 163.511C255.166 163.288 256.035 162.977 256.925 162.573V165.629C256.117 166.012 255.277 166.295 254.409 166.476C253.54 166.658 252.499 166.749 251.286 166.749C249.69 166.749 248.265 166.446 247.011 165.841C245.779 165.216 244.809 164.278 244.101 163.026C243.415 161.775 243.07 160.223 243.07 158.366C243.07 155.562 243.768 153.423 245.162 151.95C246.557 150.477 248.386 149.741 250.649 149.741ZM250.649 152.555C249.619 152.555 248.78 152.888 248.133 153.554C247.507 154.2 247.143 155.169 247.042 156.459H254.105C254.086 155.329 253.792 154.402 253.226 153.675C252.681 152.929 251.821 152.555 250.649 152.555Z" fill="#0500FF"/>
<path d="M166.482 354.363L166.649 356.434C167.962 354.777 169.697 353.948 171.854 353.948C174.093 353.948 175.676 354.956 176.602 356.973C177.887 354.956 179.72 353.948 182.098 353.948C186.024 353.948 188.035 356.663 188.132 362.092V376.783H182.263V362.464C182.263 361.166 182.083 360.241 181.724 359.688C181.364 359.135 180.756 358.86 179.899 358.86C178.807 358.86 177.992 359.529 177.452 360.869L177.494 361.575V376.783H171.625V362.507C171.625 361.222 171.453 360.296 171.107 359.73C170.761 359.149 170.146 358.86 169.261 358.86C168.253 358.86 167.451 359.405 166.857 360.496V376.783H160.988V354.363H166.482Z" fill="#5F00FA"/>
<path d="M203.42 374.731C202.205 376.376 200.572 377.198 198.527 377.198C196.467 377.198 194.905 376.493 193.841 375.084C192.776 373.661 192.243 371.596 192.243 368.889V354.363H198.112V369.033C198.139 371.216 198.865 372.307 200.289 372.307C201.63 372.307 202.599 371.728 203.193 370.567V354.363H209.103V376.783H203.587L203.42 374.731Z" fill="#5F00FA"/>
<path d="M223.127 370.774C223.127 370.277 222.885 369.821 222.401 369.407C221.931 368.978 220.873 368.405 219.229 367.686C216.809 366.706 215.144 365.69 214.231 364.64C213.332 363.59 212.883 362.286 212.883 360.724C212.883 358.763 213.588 357.146 214.998 355.876C216.421 354.591 218.302 353.948 220.638 353.948C223.098 353.948 225.069 354.584 226.548 355.855C228.028 357.126 228.767 358.831 228.767 360.972H222.898C222.898 359.149 222.139 358.238 220.617 358.238C219.996 358.238 219.483 358.432 219.083 358.818C218.683 359.205 218.481 359.744 218.481 360.434C218.481 360.931 218.703 361.373 219.145 361.761C219.588 362.133 220.631 362.672 222.277 363.377C224.669 364.26 226.354 365.248 227.337 366.339C228.331 367.417 228.83 368.819 228.83 370.546C228.83 372.549 228.076 374.159 226.57 375.374C225.061 376.589 223.085 377.198 220.638 377.198C218.994 377.198 217.541 376.88 216.283 376.244C215.025 375.595 214.037 374.698 213.319 373.551C212.614 372.404 212.26 371.168 212.26 369.842H217.839C217.866 370.864 218.101 371.631 218.543 372.142C219 372.652 219.739 372.908 220.763 372.908C222.339 372.908 223.127 372.197 223.127 370.774Z" fill="#5F00FA"/>
<path d="M238.54 376.783H232.651V354.363H238.54V365.574V376.783ZM232.381 348.56C232.381 347.649 232.672 346.903 233.253 346.324C233.833 345.743 234.608 345.452 235.575 345.452C236.542 345.452 237.316 345.743 237.897 346.324C238.478 346.903 238.769 347.649 238.769 348.56C238.769 349.459 238.478 350.205 237.897 350.798C237.33 351.393 236.557 351.689 235.575 351.689C234.594 351.689 233.812 351.393 233.231 350.798C232.665 350.205 232.381 349.459 232.381 348.56Z" fill="#5F00FA"/>
<path d="M251.092 372.328C252.793 372.328 253.657 371.222 253.684 369.013H259.2C259.173 371.458 258.419 373.433 256.94 374.939C255.461 376.444 253.554 377.198 251.216 377.198C248.327 377.198 246.122 376.3 244.601 374.504C243.081 372.708 242.307 370.063 242.279 366.568V364.785C242.279 361.263 243.027 358.575 244.52 356.725C246.026 354.874 248.244 353.948 251.175 353.948C253.649 353.948 255.599 354.715 257.023 356.248C258.447 357.767 259.173 359.93 259.2 362.734H253.684C253.67 361.478 253.463 360.511 253.063 359.833C252.661 359.157 251.999 358.818 251.071 358.818C250.049 358.818 249.316 359.184 248.873 359.916C248.432 360.635 248.195 362.036 248.168 364.123V366.401C248.168 368.225 248.259 369.503 248.438 370.236C248.618 370.953 248.915 371.486 249.329 371.831C249.745 372.162 250.333 372.328 251.092 372.328Z" fill="#5F00FA"/>
<path d="M38.5933 376.782C38.4274 376.436 38.2614 375.856 38.0952 375.042C37.0439 376.478 35.6191 377.195 33.8207 377.195C31.9393 377.195 30.3761 376.575 29.131 375.331C27.8997 374.089 27.2842 372.48 27.2842 370.505C27.2842 368.157 28.0312 366.341 29.5253 365.057C31.0332 363.772 33.1982 363.117 36.0203 363.09H37.8048V361.287C37.8048 360.278 37.6319 359.567 37.286 359.154C36.9402 358.739 36.4353 358.532 35.7712 358.532C34.3049 358.532 33.5717 359.388 33.5717 361.1H27.6992C27.6992 359.028 28.4739 357.323 30.0232 355.984C31.5864 354.631 33.5579 353.953 35.9372 353.953C38.3996 353.953 40.3018 354.596 41.6437 355.881C42.9994 357.15 43.6773 358.974 43.6773 361.349V371.893C43.7049 373.825 43.9817 375.338 44.5073 376.429V376.782H38.5933ZM35.1279 372.597C35.7782 372.597 36.3315 372.465 36.788 372.203C37.2446 371.941 37.5835 371.63 37.8048 371.271V366.611H36.3938C35.3977 366.611 34.6092 366.928 34.0282 367.564C33.461 368.198 33.1774 369.048 33.1774 370.111C33.1774 371.769 33.8275 372.597 35.1279 372.597Z" fill="#5F00FA"/>
<path d="M53.0258 354.368L53.1918 356.439C54.506 354.782 56.2422 353.953 58.4002 353.953C60.6413 353.953 62.2253 354.962 63.1521 356.978C64.4387 354.962 66.2717 353.953 68.6511 353.953C72.5798 353.953 74.5926 356.668 74.6895 362.095V376.782H68.817V362.468C68.817 361.169 68.6373 360.245 68.2776 359.693C67.9179 359.139 67.3093 358.863 66.4515 358.863C65.3586 358.863 64.5425 359.534 64.0029 360.873L64.0444 361.576V376.782H58.1719V362.508C58.1719 361.225 57.999 360.299 57.6532 359.733C57.3073 359.154 56.6918 358.863 55.8064 358.863C54.7966 358.863 53.9941 359.408 53.3993 360.499V376.782H47.5269V354.368H53.0258Z" fill="#5F00FA"/>
<path d="M89.2882 376.782C89.1222 376.436 88.9562 375.856 88.7902 375.042C87.7389 376.478 86.3139 377.195 84.5155 377.195C82.6341 377.195 81.0709 376.575 79.8258 375.331C78.5947 374.089 77.979 372.48 77.979 370.505C77.979 368.157 78.7261 366.341 80.2201 365.057C81.728 363.772 83.893 363.117 86.7151 363.09H88.4996V361.287C88.4996 360.278 88.3267 359.567 87.9809 359.154C87.635 358.739 87.1301 358.532 86.4661 358.532C84.9997 358.532 84.2665 359.388 84.2665 361.1H78.394C78.394 359.028 79.1687 357.323 80.7182 355.984C82.2814 354.631 84.2527 353.953 86.632 353.953C89.0944 353.953 90.9966 354.596 92.3385 355.881C93.6943 357.15 94.3721 358.974 94.3721 361.349V371.893C94.3999 373.825 94.6765 375.338 95.2022 376.429V376.782H89.2882ZM85.8228 372.597C86.473 372.597 87.0263 372.465 87.4829 372.203C87.9394 371.941 88.2783 371.63 88.4996 371.271V366.611H87.0886C86.0926 366.611 85.3041 366.928 84.7231 367.564C84.1558 368.198 83.8722 369.048 83.8722 370.111C83.8722 371.769 84.5224 372.597 85.8228 372.597Z" fill="#5F00FA"/>
<path d="M104.571 370.617H107.334L109.729 370.923L113.453 372.079V376.781L111.429 375.828L109.729 375.041L108.029 374.855H106.329H104.571H102.798L100.38 375.33L97.5991 376.781V373.114L106.273 359.256H97.8066V354.367H113.328V357.909L104.571 370.617Z" fill="#5F00FA"/>
<path d="M116.016 364.849C116.016 361.452 116.818 358.788 118.423 356.854C120.028 354.92 122.248 353.953 125.084 353.953C127.948 353.953 130.182 354.92 131.786 356.854C133.391 358.788 134.194 361.466 134.194 364.892V366.32C134.194 369.731 133.398 372.397 131.807 374.316C130.216 376.236 127.989 377.195 125.125 377.195C122.248 377.195 120.007 376.236 118.402 374.316C116.811 372.383 116.016 369.704 116.016 366.279V364.849ZM121.909 366.32C121.909 370.325 122.981 372.327 125.125 372.327C127.104 372.327 128.169 370.657 128.321 367.314L128.342 364.849C128.342 362.807 128.058 361.293 127.491 360.313C126.924 359.319 126.121 358.822 125.084 358.822C124.088 358.822 123.306 359.319 122.739 360.313C122.186 361.293 121.909 362.807 121.909 364.849V366.32Z" fill="#5F00FA"/>
<path d="M142.816 354.368L142.982 356.584C144.31 354.831 146.046 353.953 148.19 353.953C152.05 353.953 154.034 356.654 154.145 362.053V376.782H148.253V362.489C148.253 361.218 148.059 360.299 147.672 359.733C147.298 359.154 146.634 358.863 145.679 358.863C144.614 358.863 143.784 359.408 143.189 360.499V376.782H137.296V354.368H142.816Z" fill="#5F00FA"/>
<path d="M103.85 382.138C104.175 384.611 92.6545 390.184 77.7949 392.133C62.9351 394.082 42.9444 381.509 42.619 379.036C42.2937 376.564 63.0662 389.221 77.926 387.274C92.7857 385.325 103.524 379.666 103.85 382.138Z" fill="#5F00FA"/>
<path d="M104.693 387.931C102.486 389.677 109.076 382.555 105.479 379.568C102.333 376.956 95.9106 380.415 98.1171 378.667C100.324 376.921 102.938 375.96 108.242 377.175C109.942 383.95 106.664 386.369 104.693 387.931Z" fill="#5F00FA"/>
<path d="M39.1981 475.553C36.0453 475.553 33.5897 474.695 31.8314 472.98C30.0932 471.266 29.2242 468.834 29.2242 465.687V453.945H35.2267V465.505C35.2267 468.895 36.5708 470.589 39.2587 470.589C41.9265 470.589 43.2604 468.895 43.2604 465.505V453.945H49.172V465.687C49.172 468.834 48.2928 471.266 46.5345 472.98C44.7964 474.695 42.3509 475.553 39.1981 475.553ZM74.3382 453.945V475.129H69.3967L60.0291 463.841V475.129H54.1479V453.945H59.0894L68.4569 465.233V453.945H74.3382ZM79.4816 453.945H85.4841V470.378H95.6096V475.129H79.4816V453.945ZM98.8944 453.945H104.897V475.129H98.8944V453.945ZM129.236 475.129L129.176 463.901L123.719 473.041H121.051L115.625 464.204V475.129H110.077V453.945H115.018L122.476 466.171L129.752 453.945H134.693L134.754 475.129H129.236ZM139.911 453.945H145.913V475.129H139.911V453.945ZM155.611 458.696H149.092V453.945H168.101V458.696H161.613V475.129H155.611V458.696ZM188.284 470.499V475.129H171.246V453.945H187.889V458.575H177.188V462.146H186.616V466.625H177.188V470.499H188.284ZM192.525 453.945H202.559C204.883 453.945 206.944 454.379 208.744 455.246C210.541 456.113 211.936 457.345 212.927 458.938C213.917 460.532 214.413 462.399 214.413 464.537C214.413 466.675 213.917 468.542 212.927 470.136C211.936 471.729 210.541 472.961 208.744 473.828C206.944 474.695 204.883 475.129 202.559 475.129H192.525V453.945ZM202.317 470.347C204.136 470.347 205.591 469.833 206.682 468.804C207.793 467.775 208.35 466.353 208.35 464.537C208.35 462.721 207.793 461.299 206.682 460.27C205.591 459.241 204.136 458.726 202.317 458.726H198.527V470.347H202.317ZM36.0453 494.921C38.5716 494.921 40.5118 495.526 41.8659 496.737C43.2199 497.928 43.897 499.733 43.897 502.154V511.445H39.4709V509.417C38.5816 510.93 36.9244 511.687 34.4992 511.687C33.2461 511.687 32.1547 511.475 31.2251 511.051C30.3156 510.627 29.6183 510.042 29.1333 509.296C28.6482 508.55 28.4057 507.702 28.4057 506.754C28.4057 505.241 28.9715 504.05 30.1034 503.183C31.2554 502.316 33.0238 501.881 35.4086 501.881H39.1678C39.1678 500.852 38.8545 500.066 38.228 499.521C37.6015 498.956 36.6617 498.674 35.4086 498.674C34.5396 498.674 33.6806 498.814 32.8318 499.097C32.0031 499.359 31.2958 499.722 30.7097 500.187L29.012 496.888C29.9013 496.263 30.9624 495.779 32.1952 495.435C33.4483 495.092 34.7315 494.921 36.0453 494.921ZM35.6815 508.509C36.4898 508.509 37.2074 508.327 37.8339 507.964C38.4604 507.581 38.9051 507.026 39.1678 506.3V504.635H35.924C33.9838 504.635 33.0137 505.271 33.0137 506.542C33.0137 507.147 33.2461 507.631 33.7109 507.995C34.196 508.338 34.8528 508.509 35.6815 508.509ZM57.1464 511.687C55.4084 511.687 53.842 511.334 52.4475 510.627C51.0732 509.901 49.9919 508.902 49.2037 507.631C48.4358 506.36 48.0517 504.918 48.0517 503.304C48.0517 501.689 48.4358 500.247 49.2037 498.976C49.9919 497.705 51.0732 496.717 52.4475 496.01C53.842 495.284 55.4084 494.921 57.1464 494.921C58.8644 494.921 60.3599 495.284 61.6332 496.01C62.9267 496.717 63.8665 497.735 64.4525 499.067L60.7843 501.034C59.9355 499.541 58.7128 498.795 57.1161 498.795C55.8833 498.795 54.8627 499.199 54.0542 500.005C53.2458 500.812 52.8416 501.912 52.8416 503.304C52.8416 504.696 53.2458 505.796 54.0542 506.602C54.8627 507.409 55.8833 507.813 57.1161 507.813C58.733 507.813 59.9558 507.067 60.7843 505.573L64.4525 507.571C63.8665 508.862 62.9267 509.871 61.6332 510.597C60.3599 511.323 58.8644 511.687 57.1464 511.687ZM75.7598 511.687C74.0218 511.687 72.4554 511.334 71.0609 510.627C69.6867 509.901 68.6053 508.902 67.8171 507.631C67.0492 506.36 66.6651 504.918 66.6651 503.304C66.6651 501.689 67.0492 500.247 67.8171 498.976C68.6053 497.705 69.6867 496.717 71.0609 496.01C72.4554 495.284 74.0218 494.921 75.7598 494.921C77.4778 494.921 78.9733 495.284 80.2466 496.01C81.5402 496.717 82.4799 497.735 83.066 499.067L79.3977 501.034C78.5489 499.541 77.3263 498.795 75.7295 498.795C74.4967 498.795 73.4762 499.199 72.6676 500.005C71.8593 500.812 71.455 501.912 71.455 503.304C71.455 504.696 71.8593 505.796 72.6676 506.602C73.4762 507.409 74.4967 507.813 75.7295 507.813C77.3464 507.813 78.5692 507.067 79.3977 505.573L83.066 507.571C82.4799 508.862 81.5402 509.871 80.2466 510.597C78.9733 511.323 77.4778 511.687 75.7598 511.687ZM102.468 503.364C102.468 503.425 102.437 503.849 102.377 504.635H90.0381C90.2605 505.645 90.7859 506.441 91.6146 507.026C92.4432 507.612 93.474 507.904 94.7068 507.904C95.5556 507.904 96.3033 507.783 96.9501 507.541C97.6171 507.279 98.2336 506.875 98.7994 506.33L101.316 509.054C99.7797 510.809 97.5363 511.687 94.5855 511.687C92.7464 511.687 91.1194 511.334 89.7047 510.627C88.29 509.901 87.1986 508.902 86.4306 507.631C85.6625 506.36 85.2786 504.918 85.2786 503.304C85.2786 501.71 85.6525 500.277 86.4002 499.006C87.1683 497.716 88.209 496.717 89.5228 496.01C90.8567 495.284 92.3421 494.921 93.9792 494.921C95.5758 494.921 97.0209 495.264 98.3143 495.95C99.6078 496.635 100.618 497.625 101.346 498.916C102.094 500.187 102.468 501.67 102.468 503.364ZM94.0095 498.492C92.9383 498.492 92.039 498.795 91.3114 499.4C90.5838 500.005 90.1392 500.833 89.9775 501.881H98.0112C97.8495 500.852 97.4049 500.035 96.6773 499.43C95.9497 498.805 95.0604 498.492 94.0095 498.492ZM112.013 511.687C110.659 511.687 109.335 511.525 108.041 511.202C106.748 510.859 105.717 510.435 104.949 509.931L106.526 506.542C107.253 507.006 108.132 507.389 109.163 507.692C110.194 507.975 111.204 508.116 112.195 508.116C114.196 508.116 115.196 507.621 115.196 506.633C115.196 506.168 114.923 505.835 114.377 505.634C113.832 505.433 112.993 505.26 111.861 505.12C110.527 504.918 109.426 504.685 108.557 504.423C107.688 504.162 106.93 503.697 106.283 503.031C105.657 502.366 105.343 501.417 105.343 500.187C105.343 499.158 105.636 498.25 106.223 497.463C106.829 496.657 107.698 496.03 108.83 495.587C109.982 495.143 111.336 494.921 112.892 494.921C114.044 494.921 115.186 495.053 116.318 495.314C117.47 495.556 118.42 495.9 119.167 496.343L117.591 499.702C116.156 498.896 114.59 498.492 112.892 498.492C111.881 498.492 111.124 498.633 110.618 498.916C110.113 499.199 109.86 499.562 109.86 500.005C109.86 500.509 110.133 500.863 110.679 501.064C111.225 501.266 112.094 501.458 113.286 501.639C114.62 501.862 115.711 502.104 116.56 502.366C117.409 502.608 118.147 503.062 118.773 503.727C119.4 504.393 119.713 505.321 119.713 506.512C119.713 507.521 119.41 508.418 118.804 509.205C118.197 509.992 117.308 510.608 116.136 511.051C114.984 511.475 113.609 511.687 112.013 511.687ZM129.028 511.687C127.674 511.687 126.35 511.525 125.056 511.202C123.763 510.859 122.732 510.435 121.964 509.931L123.54 506.542C124.268 507.006 125.147 507.389 126.178 507.692C127.209 507.975 128.219 508.116 129.209 508.116C131.21 508.116 132.211 507.621 132.211 506.633C132.211 506.168 131.938 505.835 131.392 505.634C130.847 505.433 130.008 505.26 128.876 505.12C127.542 504.918 126.441 504.685 125.572 504.423C124.703 504.162 123.945 503.697 123.298 503.031C122.671 502.366 122.358 501.417 122.358 500.187C122.358 499.158 122.651 498.25 123.237 497.463C123.844 496.657 124.713 496.03 125.844 495.587C126.996 495.143 128.35 494.921 129.907 494.921C131.059 494.921 132.201 495.053 133.332 495.314C134.484 495.556 135.434 495.9 136.182 496.343L134.606 499.702C133.171 498.896 131.604 498.492 129.907 498.492C128.896 498.492 128.138 498.633 127.633 498.916C127.128 499.199 126.875 499.562 126.875 500.005C126.875 500.509 127.148 500.863 127.694 501.064C128.239 501.266 129.108 501.458 130.301 501.639C131.635 501.862 132.726 502.104 133.575 502.366C134.424 502.608 135.162 503.062 135.788 503.727C136.414 504.393 136.728 505.321 136.728 506.512C136.728 507.521 136.425 508.418 135.818 509.205C135.212 509.992 134.323 510.608 133.151 511.051C131.999 511.475 130.624 511.687 129.028 511.687ZM160.57 510.658C160.105 511.001 159.529 511.263 158.842 511.445C158.175 511.606 157.468 511.687 156.72 511.687C154.78 511.687 153.273 511.192 152.203 510.204C151.152 509.216 150.626 507.763 150.626 505.846V499.158H148.11V495.526H150.626V491.562H155.356V495.526H159.418V499.158H155.356V505.785C155.356 506.471 155.527 507.006 155.871 507.389C156.235 507.752 156.74 507.934 157.387 507.934C158.135 507.934 158.771 507.733 159.297 507.329L160.57 510.658ZM171.392 511.687C169.674 511.687 168.128 511.334 166.753 510.627C165.4 509.901 164.339 508.902 163.57 507.631C162.802 506.36 162.418 504.918 162.418 503.304C162.418 501.689 162.802 500.247 163.57 498.976C164.339 497.705 165.4 496.717 166.753 496.01C168.128 495.284 169.674 494.921 171.392 494.921C173.109 494.921 174.646 495.284 176 496.01C177.353 496.717 178.414 497.705 179.183 498.976C179.951 500.247 180.335 501.689 180.335 503.304C180.335 504.918 179.951 506.36 179.183 507.631C178.414 508.902 177.353 509.901 176 510.627C174.646 511.334 173.109 511.687 171.392 511.687ZM171.392 507.813C172.604 507.813 173.594 507.409 174.363 506.602C175.151 505.775 175.545 504.676 175.545 503.304C175.545 501.931 175.151 500.842 174.363 500.035C173.594 499.208 172.604 498.795 171.392 498.795C170.179 498.795 169.179 499.208 168.39 500.035C167.602 500.842 167.208 501.931 167.208 503.304C167.208 504.676 167.602 505.775 168.39 506.602C169.179 507.409 170.179 507.813 171.392 507.813ZM35.7421 534.535C38.7332 534.535 40.9363 535.13 42.3509 536.321C43.7859 537.512 44.5034 539.105 44.5034 541.102C44.5034 542.393 44.18 543.573 43.5333 544.643C42.8865 545.692 41.8962 546.539 40.5623 547.185C39.2486 547.81 37.6217 548.123 35.6815 548.123C34.1858 548.123 32.7105 547.931 31.2554 547.548C29.8204 547.144 28.5977 546.58 27.5872 545.854L29.5274 542.101C30.3357 542.706 31.2655 543.18 32.3164 543.523C33.3673 543.846 34.4487 544.007 35.5602 544.007C36.793 544.007 37.7631 543.765 38.4705 543.281C39.1779 542.797 39.5316 542.121 39.5316 541.254C39.5316 540.346 39.1576 539.66 38.4099 539.196C37.6823 538.731 36.4091 538.5 34.5901 538.5H29.1636L30.2549 526.576H43.1998V530.51H34.3476L34.0141 534.535H35.7421ZM56.5001 548.123C54.7418 548.123 53.1755 547.689 51.8011 546.822C50.4269 545.955 49.3456 544.704 48.5573 543.069C47.7894 541.415 47.4053 539.448 47.4053 537.168C47.4053 534.888 47.7894 532.931 48.5573 531.297C49.3456 529.643 50.4269 528.381 51.8011 527.514C53.1755 526.647 54.7418 526.213 56.5001 526.213C58.2584 526.213 59.8248 526.647 61.199 527.514C62.5734 528.381 63.6446 529.643 64.4125 531.297C65.2007 532.931 65.5948 534.888 65.5948 537.168C65.5948 539.448 65.2007 541.415 64.4125 543.069C63.6446 544.704 62.5734 545.955 61.199 546.822C59.8248 547.689 58.2584 548.123 56.5001 548.123ZM56.5001 543.977C57.7937 543.977 58.8041 543.422 59.5317 542.313C60.2796 541.204 60.6533 539.488 60.6533 537.168C60.6533 534.848 60.2796 533.132 59.5317 532.023C58.8041 530.914 57.7937 530.359 56.5001 530.359C55.2268 530.359 54.2164 530.914 53.4685 532.023C52.7409 533.132 52.3771 534.848 52.3771 537.168C52.3771 539.488 52.7409 541.204 53.4685 542.313C54.2164 543.422 55.2268 543.977 56.5001 543.977ZM100.274 531.236C102.315 531.236 103.932 531.842 105.124 533.052C106.337 534.243 106.943 536.038 106.943 538.439V547.76H102.214V539.165C102.214 537.875 101.941 536.915 101.395 536.29C100.87 535.644 100.112 535.322 99.1215 535.322C98.01 535.322 97.1308 535.685 96.484 536.411C95.8372 537.118 95.5139 538.177 95.5139 539.589V547.76H90.7847V539.165C90.7847 536.604 89.7539 535.322 87.6924 535.322C86.6011 535.322 85.7321 535.685 85.0853 536.411C84.4385 537.118 84.1152 538.177 84.1152 539.589V547.76H79.3859V531.479H83.903V533.355C84.5093 532.669 85.247 532.144 86.116 531.781C87.0053 531.418 87.9754 531.236 89.0263 531.236C90.1783 531.236 91.2192 531.468 92.1489 531.933C93.0785 532.376 93.8264 533.033 94.3922 533.9C95.0592 533.052 95.8979 532.397 96.9084 531.933C97.9392 531.468 99.0609 531.236 100.274 531.236ZM112.092 531.479H116.821V547.76H112.092V531.479ZM114.456 529.209C113.587 529.209 112.88 528.956 112.334 528.452C111.788 527.948 111.516 527.322 111.516 526.576C111.516 525.83 111.788 525.204 112.334 524.7C112.88 524.196 113.587 523.943 114.456 523.943C115.325 523.943 116.033 524.185 116.578 524.669C117.124 525.154 117.397 525.759 117.397 526.485C117.397 527.272 117.124 527.927 116.578 528.452C116.033 528.956 115.325 529.209 114.456 529.209ZM122.119 525.305H126.849V547.76H122.119V525.305ZM132.147 525.305H136.876V547.76H132.147V525.305ZM142.175 531.479H146.904V547.76H142.175V531.479ZM144.54 529.209C143.671 529.209 142.963 528.956 142.418 528.452C141.872 527.948 141.599 527.322 141.599 526.576C141.599 525.83 141.872 525.204 142.418 524.7C142.963 524.196 143.671 523.943 144.54 523.943C145.409 523.943 146.116 524.185 146.662 524.669C147.207 525.154 147.48 525.759 147.48 526.485C147.48 527.272 147.207 527.927 146.662 528.452C146.116 528.956 145.409 529.209 144.54 529.209ZM159.964 548.002C158.247 548.002 156.701 547.65 155.326 546.943C153.972 546.217 152.911 545.218 152.143 543.947C151.374 542.676 150.99 541.234 150.99 539.619C150.99 538.005 151.374 536.563 152.143 535.292C152.911 534.021 153.972 533.033 155.326 532.326C156.701 531.6 158.247 531.236 159.964 531.236C161.681 531.236 163.218 531.6 164.572 532.326C165.926 533.033 166.987 534.021 167.755 535.292C168.524 536.563 168.907 538.005 168.907 539.619C168.907 541.234 168.524 542.676 167.755 543.947C166.987 545.218 165.926 546.217 164.572 546.943C163.218 547.65 161.681 548.002 159.964 548.002ZM159.964 544.129C161.177 544.129 162.167 543.725 162.935 542.918C163.723 542.09 164.117 540.992 164.117 539.619C164.117 538.247 163.723 537.157 162.935 536.351C162.167 535.523 161.177 535.11 159.964 535.11C158.751 535.11 157.751 535.523 156.963 536.351C156.175 537.157 155.781 538.247 155.781 539.619C155.781 540.992 156.175 542.09 156.963 542.918C157.751 543.725 158.751 544.129 159.964 544.129ZM182.89 531.236C184.912 531.236 186.539 531.842 187.771 533.052C189.025 534.263 189.651 536.059 189.651 538.439V547.76H184.922V539.165C184.922 537.875 184.64 536.915 184.073 536.29C183.507 535.644 182.689 535.322 181.617 535.322C180.426 535.322 179.475 535.696 178.767 536.442C178.061 537.168 177.706 538.258 177.706 539.71V547.76H172.977V531.479H177.494V533.385C178.122 532.7 178.899 532.175 179.828 531.812C180.759 531.429 181.779 531.236 182.89 531.236ZM34.9539 584.318C33.5998 584.318 32.2759 584.156 30.9825 583.834C29.6891 583.49 28.6584 583.066 27.8903 582.563L29.4667 579.173C30.1943 579.638 31.0735 580.02 32.1042 580.323C33.1349 580.606 34.1455 580.747 35.1358 580.747C37.1366 580.747 38.1371 580.252 38.1371 579.264C38.1371 578.799 37.8642 578.466 37.3185 578.265C36.7728 578.064 35.9342 577.891 34.8023 577.751C33.4684 577.549 32.3669 577.316 31.4979 577.055C30.6289 576.793 29.871 576.328 29.2242 575.663C28.5977 574.997 28.2844 574.048 28.2844 572.818C28.2844 571.789 28.5774 570.881 29.1636 570.094C29.7699 569.288 30.6389 568.661 31.7707 568.218C32.9227 567.775 34.2768 567.552 35.8331 567.552C36.9851 567.552 38.1269 567.684 39.2587 567.946C40.4107 568.188 41.3607 568.531 42.1084 568.974L40.532 572.334C39.097 571.527 37.5307 571.123 35.8331 571.123C34.8225 571.123 34.0646 571.264 33.5594 571.547C33.0542 571.83 32.8015 572.193 32.8015 572.636C32.8015 573.14 33.0743 573.494 33.62 573.696C34.1657 573.897 35.0347 574.089 36.2272 574.27C37.5611 574.493 38.6524 574.735 39.5013 574.997C40.3501 575.239 41.0878 575.693 41.7143 576.359C42.3408 577.024 42.6541 577.952 42.6541 579.143C42.6541 580.152 42.3509 581.049 41.7446 581.836C41.1383 582.623 40.249 583.239 39.0768 583.682C37.9248 584.106 36.5505 584.318 34.9539 584.318ZM54.2423 584.318C52.5245 584.318 50.9784 583.965 49.604 583.259C48.2499 582.532 47.1889 581.534 46.4208 580.263C45.6528 578.992 45.2688 577.549 45.2688 575.935C45.2688 574.32 45.6528 572.878 46.4208 571.607C47.1889 570.336 48.2499 569.348 49.604 568.642C50.9784 567.915 52.5245 567.552 54.2423 567.552C55.9602 567.552 57.4963 567.915 58.8503 568.642C60.2044 569.348 61.2654 570.336 62.0335 571.607C62.8015 572.878 63.1855 574.32 63.1855 575.935C63.1855 577.549 62.8015 578.992 62.0335 580.263C61.2654 581.534 60.2044 582.532 58.8503 583.259C57.4963 583.965 55.9602 584.318 54.2423 584.318ZM54.2423 580.444C55.4549 580.444 56.4452 580.04 57.2133 579.234C58.0015 578.406 58.3956 577.307 58.3956 575.935C58.3956 574.563 58.0015 573.473 57.2133 572.667C56.4452 571.839 55.4549 571.426 54.2423 571.426C53.0297 571.426 52.0293 571.839 51.2411 572.667C50.4528 573.473 50.0587 574.563 50.0587 575.935C50.0587 577.307 50.4528 578.406 51.2411 579.234C52.0293 580.04 53.0297 580.444 54.2423 580.444ZM77.1694 567.552C79.1904 567.552 80.8173 568.157 82.0502 569.368C83.3032 570.578 83.9298 572.375 83.9298 574.755V584.076H79.2005V575.481C79.2005 574.19 78.9175 573.231 78.3517 572.606C77.7857 571.96 76.9672 571.638 75.8961 571.638C74.7037 571.638 73.7537 572.011 73.0464 572.757C72.339 573.484 71.9854 574.573 71.9854 576.026V584.076H67.2561V567.794H71.7732V569.701C72.3997 569.015 73.1777 568.49 74.1075 568.127C75.0371 567.744 76.0577 567.552 77.1694 567.552ZM106.129 567.794V581.352C106.129 584.337 105.351 586.557 103.795 588.01C102.238 589.463 99.9647 590.189 96.9736 590.189C95.3972 590.189 93.9016 589.997 92.4869 589.614C91.0721 589.231 89.8999 588.676 88.9703 587.949L90.8498 584.56C91.5369 585.124 92.406 585.569 93.457 585.891C94.5079 586.235 95.5588 586.406 96.6098 586.406C98.2469 586.406 99.4494 586.032 100.217 585.286C101.006 584.56 101.4 583.451 101.4 581.957V581.261C100.167 582.613 98.4489 583.289 96.246 583.289C94.7504 583.289 93.3761 582.967 92.1231 582.32C90.8902 581.655 89.91 580.727 89.1825 579.536C88.4549 578.345 88.0911 576.974 88.0911 575.42C88.0911 573.866 88.4549 572.496 89.1825 571.305C89.91 570.114 90.8902 569.197 92.1231 568.551C93.3761 567.885 94.7504 567.552 96.246 567.552C98.6107 567.552 100.409 568.328 101.642 569.882V567.794H106.129ZM97.1858 579.415C98.4388 579.415 99.4595 579.052 100.248 578.326C101.056 577.58 101.46 576.611 101.46 575.42C101.46 574.23 101.056 573.272 100.248 572.546C99.4595 571.8 98.4388 571.426 97.1858 571.426C95.9327 571.426 94.902 571.8 94.0936 572.546C93.2851 573.272 92.881 574.23 92.881 575.42C92.881 576.611 93.2851 577.58 94.0936 578.326C94.902 579.052 95.9327 579.415 97.1858 579.415ZM116.927 584.318C115.573 584.318 114.249 584.156 112.956 583.834C111.663 583.49 110.632 583.066 109.864 582.563L111.44 579.173C112.168 579.638 113.047 580.02 114.078 580.323C115.108 580.606 116.119 580.747 117.109 580.747C119.11 580.747 120.11 580.252 120.11 579.264C120.11 578.799 119.838 578.466 119.292 578.265C118.746 578.064 117.908 577.891 116.776 577.751C115.442 577.549 114.34 577.316 113.471 577.055C112.602 576.793 111.844 576.328 111.198 575.663C110.571 574.997 110.258 574.048 110.258 572.818C110.258 571.789 110.551 570.881 111.137 570.094C111.743 569.288 112.612 568.661 113.744 568.218C114.896 567.775 116.25 567.552 117.806 567.552C118.958 567.552 120.1 567.684 121.232 567.946C122.384 568.188 123.334 568.531 124.082 568.974L122.505 572.334C121.07 571.527 119.504 571.123 117.806 571.123C116.796 571.123 116.038 571.264 115.533 571.547C115.028 571.83 114.775 572.193 114.775 572.636C114.775 573.14 115.048 573.494 115.593 573.696C116.139 573.897 117.008 574.089 118.201 574.27C119.534 574.493 120.626 574.735 121.475 574.997C122.324 575.239 123.061 575.693 123.688 576.359C124.314 577.024 124.628 577.952 124.628 579.143C124.628 580.152 124.324 581.049 123.718 581.836C123.112 582.623 122.222 583.239 121.05 583.682C119.898 584.106 118.524 584.318 116.927 584.318Z" fill="#0500FF"/>
<path d="M109.174 679.404H104.518V657.397H97.0603V653.475H116.632V657.397H109.174V679.404ZM129.783 659.358C130.099 659.358 130.438 659.37 130.802 659.394C131.19 659.418 131.517 659.467 131.784 659.539L131.384 663.788C131.141 663.74 130.85 663.704 130.511 663.679C130.171 663.631 129.868 663.607 129.601 663.607C128.631 663.607 127.722 663.812 126.873 664.224C126.024 664.611 125.333 665.229 124.799 666.076C124.29 666.899 124.035 667.94 124.035 669.199V679.404H119.452V659.721H122.98L123.635 663.135H123.854C124.436 662.094 125.236 661.21 126.255 660.484C127.273 659.733 128.449 659.358 129.783 659.358ZM133.583 659.721H138.567L142.496 670.834C142.763 671.536 142.981 672.226 143.151 672.904C143.321 673.581 143.442 674.271 143.515 674.973H143.66C143.757 674.368 143.903 673.702 144.097 672.976C144.291 672.25 144.509 671.536 144.752 670.834L148.535 659.721H153.483L145.079 682.019C144.327 683.98 143.296 685.481 141.987 686.522C140.701 687.587 139.113 688.12 137.221 688.12C136.615 688.12 136.093 688.083 135.657 688.011C135.22 687.962 134.832 687.902 134.493 687.829V684.198C134.76 684.246 135.075 684.294 135.439 684.343C135.827 684.391 136.227 684.416 136.639 684.416C137.779 684.416 138.676 684.077 139.331 683.399C140.01 682.745 140.532 681.922 140.895 680.929L141.477 679.331L133.583 659.721ZM190.576 679.404H184.791L172.495 659.067H172.35C172.423 660.157 172.483 661.331 172.532 662.59C172.605 663.825 172.653 665.071 172.677 666.33V679.404H168.494V653.475H174.242L186.501 673.666H186.61C186.562 672.698 186.513 671.584 186.465 670.325C186.416 669.066 186.38 667.844 186.356 666.657V653.475H190.576V679.404ZM221.642 666.403C221.642 669.09 221.193 671.439 220.296 673.448C219.423 675.433 218.077 676.983 216.258 678.097C214.439 679.21 212.159 679.767 209.419 679.767C206.654 679.767 204.362 679.21 202.543 678.097C200.748 676.983 199.402 675.421 198.505 673.412C197.632 671.402 197.195 669.054 197.195 666.367C197.195 663.704 197.632 661.379 198.505 659.394C199.402 657.385 200.748 655.835 202.543 654.746C204.362 653.632 206.666 653.075 209.455 653.075C212.195 653.075 214.463 653.632 216.258 654.746C218.077 655.835 219.423 657.385 220.296 659.394C221.193 661.379 221.642 663.716 221.642 666.403ZM202.106 666.403C202.106 669.332 202.688 671.632 203.853 673.303C205.017 674.973 206.872 675.809 209.419 675.809C211.989 675.809 213.845 674.973 214.984 673.303C216.149 671.632 216.731 669.332 216.731 666.403C216.731 663.474 216.161 661.174 215.021 659.503C213.881 657.833 212.026 656.997 209.455 656.997C206.908 656.997 205.041 657.833 203.853 659.503C202.688 661.174 202.106 663.474 202.106 666.403ZM259.014 653.475L252.284 679.404H247.154L243.043 664.515C242.898 664.03 242.74 663.413 242.57 662.663C242.401 661.888 242.243 661.137 242.097 660.411C241.952 659.685 241.855 659.152 241.806 658.813C241.758 659.152 241.661 659.685 241.515 660.411C241.394 661.113 241.236 661.851 241.042 662.626C240.873 663.401 240.715 664.055 240.569 664.587L236.568 679.404H231.402L224.708 653.475H229.365L232.93 668.255C233.1 668.885 233.257 669.599 233.403 670.398C233.573 671.197 233.73 671.996 233.876 672.795C234.021 673.569 234.13 674.247 234.203 674.828C234.276 674.223 234.385 673.521 234.531 672.722C234.676 671.923 234.834 671.148 235.004 670.398C235.173 669.623 235.331 668.969 235.476 668.437L239.551 653.475H244.062L248.209 668.473C248.379 669.006 248.549 669.671 248.718 670.47C248.888 671.245 249.046 672.02 249.191 672.795C249.337 673.569 249.446 674.247 249.519 674.828C249.591 674.223 249.688 673.533 249.81 672.758C249.955 671.984 250.113 671.197 250.283 670.398C250.452 669.599 250.622 668.885 250.792 668.255L254.357 653.475H259.014ZM138.012 709.328C138.012 711.095 137.49 712.512 136.447 713.577C135.429 714.618 134.107 715.32 132.482 715.683V715.792C134.568 716.059 136.144 716.712 137.211 717.753C138.279 718.77 138.812 720.138 138.812 721.857C138.812 723.358 138.448 724.702 137.721 725.888C136.993 727.074 135.865 728.006 134.338 728.684C132.834 729.362 130.894 729.701 128.517 729.701C127.11 729.701 125.801 729.58 124.588 729.338C123.375 729.12 122.235 728.769 121.168 728.285V724.254C122.26 724.811 123.424 725.234 124.661 725.525C125.898 725.815 127.062 725.961 128.153 725.961C130.263 725.961 131.755 725.585 132.628 724.835C133.501 724.06 133.937 722.995 133.937 721.639C133.937 720.356 133.428 719.4 132.409 718.77C131.391 718.141 129.693 717.826 127.316 717.826H125.134V714.158H127.353C129.657 714.158 131.245 713.795 132.118 713.069C132.991 712.318 133.428 711.337 133.428 710.127C133.428 709.086 133.089 708.275 132.409 707.694C131.73 707.113 130.712 706.822 129.354 706.822C128.044 706.822 126.916 707.04 125.97 707.476C125.024 707.888 124.176 708.335 123.424 708.82L121.241 705.66C122.211 704.934 123.375 704.316 124.733 703.808C126.116 703.3 127.729 703.045 129.572 703.045C132.264 703.045 134.338 703.614 135.793 704.752C137.272 705.866 138.012 707.391 138.012 709.328ZM160.868 716.373C160.868 719.157 160.577 721.542 159.995 723.527C159.413 725.513 158.467 727.038 157.157 728.103C155.847 729.168 154.113 729.701 151.955 729.701C148.899 729.701 146.655 728.527 145.225 726.178C143.794 723.806 143.078 720.537 143.078 716.373C143.078 713.565 143.369 711.168 143.951 709.183C144.533 707.198 145.467 705.672 146.752 704.607C148.062 703.542 149.796 703.009 151.955 703.009C154.987 703.009 157.23 704.183 158.685 706.532C160.14 708.88 160.868 712.161 160.868 716.373ZM147.698 716.373C147.698 719.545 148.001 721.93 148.608 723.527C149.238 725.125 150.354 725.924 151.955 725.924C153.531 725.924 154.635 725.137 155.265 723.564C155.92 721.966 156.248 719.569 156.248 716.373C156.248 713.177 155.92 710.781 155.265 709.183C154.635 707.585 153.531 706.786 151.955 706.786C150.354 706.786 149.238 707.585 148.608 709.183C148.001 710.781 147.698 713.177 147.698 716.373ZM183.497 729.701C181.193 729.701 179.338 728.842 177.931 727.123C176.524 725.404 175.821 722.874 175.821 719.533C175.821 716.143 176.536 713.589 177.967 711.87C179.398 710.151 181.278 709.292 183.606 709.292C185.061 709.292 186.25 709.57 187.171 710.127C188.117 710.684 188.869 711.362 189.427 712.161H189.645C189.572 711.822 189.5 711.301 189.427 710.599C189.354 709.897 189.318 709.243 189.318 708.638V701.738H193.901V729.338H190.336L189.5 726.759H189.318C188.76 727.583 188.02 728.285 187.099 728.866C186.177 729.423 184.976 729.701 183.497 729.701ZM184.879 725.997C186.577 725.997 187.765 725.513 188.445 724.544C189.148 723.576 189.512 722.111 189.536 720.15V719.569C189.536 717.463 189.196 715.853 188.517 714.739C187.862 713.601 186.626 713.032 184.807 713.032C183.4 713.032 182.321 713.613 181.569 714.775C180.841 715.913 180.478 717.523 180.478 719.605C180.478 721.687 180.853 723.273 181.605 724.363C182.357 725.452 183.448 725.997 184.879 725.997ZM208.706 709.292C211.253 709.292 213.181 709.849 214.49 710.962C215.824 712.076 216.491 713.795 216.491 716.119V729.338H213.253L212.344 726.614H212.198C211.35 727.68 210.452 728.466 209.506 728.975C208.561 729.459 207.275 729.701 205.65 729.701C203.88 729.701 202.413 729.205 201.248 728.212C200.084 727.22 199.502 725.682 199.502 723.6C199.502 721.566 200.242 720.041 201.721 719.024C203.225 718.007 205.493 717.439 208.524 717.317L211.944 717.209V716.228C211.944 714.993 211.641 714.11 211.034 713.577C210.428 713.02 209.579 712.742 208.488 712.742C207.493 712.742 206.535 712.887 205.614 713.177C204.717 713.468 203.819 713.807 202.922 714.194L201.467 710.999C202.437 710.49 203.54 710.079 204.777 709.764C206.038 709.449 207.348 709.292 208.706 709.292ZM211.944 720.041L209.543 720.114C207.53 720.186 206.135 720.537 205.359 721.167C204.583 721.772 204.195 722.595 204.195 723.636C204.195 724.581 204.462 725.258 204.995 725.67C205.553 726.057 206.281 726.251 207.178 726.251C208.512 726.251 209.64 725.876 210.561 725.125C211.483 724.351 211.944 723.213 211.944 721.712V720.041ZM220.379 709.655H225.363L229.292 720.767C229.559 721.47 229.777 722.16 229.947 722.837C230.117 723.515 230.238 724.205 230.311 724.907H230.456C230.553 724.302 230.699 723.636 230.893 722.91C231.087 722.184 231.305 721.47 231.548 720.767L235.331 709.655H240.278L231.875 731.953C231.123 733.914 230.092 735.415 228.783 736.456C227.497 737.521 225.909 738.054 224.017 738.054C223.411 738.054 222.889 738.017 222.453 737.945C222.016 737.896 221.628 737.836 221.289 737.763V734.132C221.555 734.18 221.871 734.228 222.235 734.277C222.623 734.325 223.023 734.349 223.435 734.349C224.575 734.349 225.472 734.011 226.127 733.333C226.806 732.679 227.328 731.856 227.691 730.863L228.273 729.265L220.379 709.655ZM257.736 723.636C257.736 725.622 257.02 727.135 255.589 728.176C254.183 729.193 252.158 729.701 249.514 729.701C248.132 729.701 246.943 729.604 245.949 729.411C244.979 729.217 244.033 728.914 243.111 728.503V724.617C244.082 725.077 245.149 725.464 246.313 725.779C247.501 726.094 248.617 726.251 249.66 726.251C250.921 726.251 251.83 726.057 252.388 725.67C252.946 725.283 253.225 724.762 253.225 724.108C253.225 723.721 253.116 723.382 252.897 723.092C252.679 722.777 252.243 722.438 251.588 722.075C250.957 721.712 250.011 721.264 248.75 720.731C247.489 720.247 246.434 719.751 245.585 719.242C244.761 718.71 244.13 718.092 243.694 717.39C243.281 716.688 243.075 715.78 243.075 714.666C243.075 712.899 243.766 711.567 245.149 710.672C246.555 709.752 248.423 709.292 250.751 709.292C251.964 709.292 253.104 709.413 254.171 709.655C255.262 709.897 256.353 710.26 257.445 710.744L255.99 714.122C255.068 713.734 254.171 713.407 253.298 713.141C252.424 712.875 251.527 712.742 250.606 712.742C248.593 712.742 247.586 713.311 247.586 714.449C247.586 714.86 247.707 715.211 247.95 715.502C248.217 715.792 248.665 716.107 249.296 716.446C249.951 716.761 250.872 717.148 252.061 717.608C253.225 718.068 254.231 718.552 255.08 719.061C255.929 719.545 256.584 720.15 257.045 720.876C257.505 721.603 257.736 722.523 257.736 723.636ZM179.138 779.272H174.554V753.343H189.287V757.228H179.138V764.855H188.596V768.74H179.138V779.272ZM202.605 753.343C206.025 753.343 208.547 753.972 210.172 755.231C211.821 756.49 212.646 758.402 212.646 760.969C212.646 762.228 212.403 763.305 211.918 764.201C211.457 765.097 210.851 765.847 210.099 766.452C209.347 767.034 208.535 767.506 207.662 767.869L215.119 779.272H209.881L203.66 769.031H199.877V779.272H195.22V753.343H202.605ZM202.314 757.228H199.877V765.218H202.46C204.375 765.218 205.758 764.879 206.607 764.201C207.48 763.499 207.916 762.47 207.916 761.114C207.916 759.71 207.456 758.717 206.534 758.136C205.637 757.531 204.23 757.228 202.314 757.228ZM234.599 779.272H219.829V753.343H234.599V757.228H224.485V763.838H233.944V767.724H224.485V775.35H234.599V779.272ZM255.976 779.272H241.206V753.343H255.976V757.228H245.863V763.838H255.321V767.724H245.863V775.35H255.976V779.272Z" fill="#5F00FA"/>
<path fill-rule="evenodd" clip-rule="evenodd" d="M0.11491 703.579L44.2639 611.683L30.5966 605.141L-20.1588 710.786L-6.49145 717.33L-6.44002 717.223L215.354 825.204C196.358 829.668 179.451 842.3 170.229 861.176C153.928 894.54 167.81 934.777 201.232 951.048C234.653 967.321 274.961 953.465 291.26 920.1C307.561 886.736 293.681 846.499 260.258 830.228C260.1 830.151 259.941 830.073 259.784 829.998L0.11491 703.579Z" fill="black" fill-opacity="0.9"/>
<path fill-rule="evenodd" clip-rule="evenodd" d="M178.213 14.8672L94.4522 228.161H94.4521C83.5295 255.974 50.6094 269.105 20.9231 257.488C-8.76323 245.871 -23.9741 213.906 -13.0515 186.091C-2.12878 158.276 30.7913 145.147 60.4776 156.763C76.1692 162.905 87.8164 174.73 93.6975 188.624L169.338 -3.99121L172.794 -2.63855L173.09 -3.39049L334.345 59.7143L334.05 60.4666L344.7 64.6346L255.702 291.264C244.779 319.077 211.859 332.207 182.172 320.59C152.487 308.972 137.275 277.007 148.198 249.192C159.12 221.379 192.042 208.248 221.727 219.866C237.42 226.006 249.067 237.833 254.947 251.727L325.351 72.4473L178.213 14.8672Z" fill="black" fill-opacity="0.9"/>
<path d="M31.8559 898.811H29.7944V891.875H27.551V890.168H34.0992V891.875H31.8559V898.811ZM37.6359 892.045C38.5737 892.045 39.3173 892.303 39.8671 892.819C40.4169 893.328 40.6917 894.078 40.6917 895.071V896.015H36.4839C36.5001 896.451 36.6415 896.797 36.9083 897.056C37.1751 897.315 37.5551 897.443 38.0482 897.443C38.4685 897.443 38.8526 897.403 39.2002 897.322C39.5559 897.242 39.9197 897.112 40.2915 896.935V898.448C39.96 898.618 39.6084 898.739 39.2365 898.811C38.8728 898.892 38.42 898.932 37.8784 898.932C37.2074 898.932 36.6092 898.811 36.0837 898.569C35.5664 898.327 35.158 897.956 34.8589 897.456C34.5679 896.947 34.4224 896.305 34.4224 895.531C34.4224 894.748 34.5558 894.098 34.8226 893.582C35.0893 893.066 35.4612 892.682 35.9382 892.432C36.4232 892.173 36.9891 892.045 37.6359 892.045ZM37.6723 893.461C37.357 893.461 37.0943 893.562 36.884 893.763C36.682 893.957 36.5607 894.267 36.5203 894.696H38.8121C38.8041 894.349 38.7071 894.058 38.5211 893.824C38.3351 893.582 38.0523 893.461 37.6723 893.461ZM46.3006 892.045C46.4056 892.045 46.5229 892.052 46.6522 892.069C46.7815 892.076 46.8826 892.088 46.9554 892.105L46.7856 894.018C46.7129 894.001 46.62 893.989 46.5067 893.981C46.3935 893.965 46.2683 893.957 46.1308 893.957C45.8721 893.957 45.6135 893.998 45.3547 894.078C45.1042 894.158 44.8939 894.313 44.7242 894.538C44.5624 894.756 44.4816 895.071 44.4816 895.482V898.811H42.4323V892.166H43.9723L44.2876 893.255H44.3725C44.5665 892.924 44.8333 892.642 45.1728 892.408C45.5124 892.166 45.8883 892.045 46.3006 892.045ZM56.3525 892.045C57.1124 892.045 57.6864 892.238 58.0745 892.626C58.4706 893.005 58.6687 893.623 58.6687 894.478V898.811H56.6314V895.047C56.6314 894.562 56.5546 894.211 56.401 893.993C56.2555 893.768 56.0292 893.654 55.722 893.654C55.2935 893.654 54.9903 893.824 54.8125 894.163C54.6347 894.494 54.5457 894.966 54.5457 895.579V898.811H52.5085V895.047C52.5085 894.119 52.2094 893.654 51.6112 893.654C51.1584 893.654 50.8472 893.841 50.6774 894.211C50.5157 894.575 50.4349 895.1 50.4349 895.785V898.811H48.3856V892.166H49.9377L50.2288 893.001H50.3136C50.4996 892.694 50.7623 892.461 51.1018 892.299C51.4494 892.129 51.8415 892.045 52.2781 892.045C53.232 892.045 53.8989 892.359 54.2789 892.989H54.4002C54.6104 892.674 54.8894 892.439 55.2369 892.287C55.5845 892.125 55.9565 892.045 56.3525 892.045ZM65.5472 896.802C65.5472 897.456 65.3168 897.976 64.856 898.363C64.4032 898.743 63.6918 898.932 62.7217 898.932C62.2528 898.932 61.8405 898.904 61.4849 898.848C61.1371 898.792 60.7855 898.69 60.4299 898.545V896.899C60.8179 897.076 61.222 897.213 61.6425 897.31C62.0628 897.4 62.4186 897.443 62.7096 897.443C63.0167 897.443 63.2391 897.403 63.3766 897.322C63.5139 897.242 63.5827 897.129 63.5827 896.983C63.5827 896.879 63.5463 896.785 63.4736 896.705C63.4088 896.625 63.2714 896.536 63.0613 896.439C62.8591 896.334 62.5559 896.197 62.1518 896.027C61.7556 895.858 61.4282 895.684 61.1696 895.507C60.9189 895.33 60.7289 895.119 60.5996 894.877C60.4784 894.627 60.4177 894.316 60.4177 893.945C60.4177 893.316 60.6603 892.843 61.1453 892.529C61.6384 892.206 62.2891 892.045 63.0977 892.045C63.526 892.045 63.9303 892.088 64.3103 892.178C64.6901 892.267 65.0823 892.403 65.4865 892.589L64.9045 893.969C64.573 893.824 64.2497 893.707 63.9344 893.618C63.6271 893.529 63.3482 893.485 63.0977 893.485C62.6287 893.485 62.3943 893.606 62.3943 893.848C62.3943 893.937 62.4266 894.022 62.4913 894.102C62.5641 894.175 62.6975 894.255 62.8915 894.344C63.0936 894.434 63.3846 894.558 63.7646 894.72C64.1445 894.873 64.4679 895.039 64.7347 895.216C65.0015 895.386 65.2035 895.596 65.341 895.846C65.4784 896.095 65.5472 896.414 65.5472 896.802ZM76.2138 898.811L75.6802 896.959H72.685L72.1515 898.811H69.896L72.8427 890.132H75.4862L78.4693 898.811H76.2138ZM75.2194 895.24L74.7101 893.509C74.6696 893.364 74.6131 893.17 74.5403 892.928C74.4756 892.679 74.407 892.424 74.3342 892.166C74.2695 891.907 74.2169 891.689 74.1766 891.512C74.1441 891.689 74.0917 891.911 74.0189 892.178C73.9542 892.436 73.8895 892.691 73.8249 892.94C73.7602 893.182 73.7076 893.371 73.6673 893.509L73.1579 895.24H75.2194ZM83.5869 892.045C84.3307 892.045 84.9249 892.34 85.3694 892.928C85.8142 893.509 86.0364 894.357 86.0364 895.47C86.0364 896.228 85.9273 896.867 85.709 897.383C85.4907 897.891 85.1917 898.279 84.8116 898.545C84.4398 898.804 84.0113 898.932 83.5263 898.932C83.0494 898.932 82.6735 898.848 82.3985 898.678C82.1317 898.509 81.9175 898.323 81.7558 898.121H81.6709C81.6952 898.274 81.7155 898.436 81.7316 898.606C81.7478 898.775 81.7558 898.957 81.7558 899.15V901.717H79.7065V892.166H81.3678L81.6588 893.013H81.7558C81.9256 892.754 82.156 892.529 82.447 892.335C82.738 892.141 83.1181 892.045 83.5869 892.045ZM82.8714 893.654C82.4591 893.654 82.1722 893.792 82.0105 894.066C81.8489 894.332 81.764 894.736 81.7558 895.277V895.458C81.7558 896.047 81.8368 896.499 81.9983 896.814C82.1601 897.129 82.4591 897.286 82.8957 897.286C83.599 897.286 83.9507 896.673 83.9507 895.446C83.9507 894.824 83.8618 894.373 83.6839 894.09C83.5061 893.8 83.2352 893.654 82.8714 893.654ZM91.6836 892.045C92.4274 892.045 93.0216 892.34 93.4662 892.928C93.9108 893.509 94.1331 894.357 94.1331 895.47C94.1331 896.228 94.024 896.867 93.8057 897.383C93.5875 897.891 93.2884 898.279 92.9084 898.545C92.5366 898.804 92.108 898.932 91.623 898.932C91.146 898.932 90.7701 898.848 90.4952 898.678C90.2285 898.509 90.0143 898.323 89.8526 898.121H89.7677C89.7919 898.274 89.8121 898.436 89.8283 898.606C89.8445 898.775 89.8526 898.957 89.8526 899.15V901.717H87.8032V892.166H89.4645L89.7555 893.013H89.8526C90.0223 892.754 90.2527 892.529 90.5438 892.335C90.8348 892.141 91.2148 892.045 91.6836 892.045ZM90.9682 893.654C90.5559 893.654 90.2689 893.792 90.1072 894.066C89.9455 894.332 89.8606 894.736 89.8526 895.277V895.458C89.8526 896.047 89.9333 896.499 90.0951 896.814C90.2568 897.129 90.5559 897.286 90.9924 897.286C91.6957 897.286 92.0474 896.673 92.0474 895.446C92.0474 894.824 91.9584 894.373 91.7806 894.09C91.6028 893.8 91.332 893.654 90.9682 893.654ZM97.9491 898.811H95.8998V889.611H97.9491V898.811ZM99.1919 892.166H101.375L102.575 895.93C102.615 896.068 102.648 896.221 102.672 896.39C102.704 896.552 102.729 896.717 102.745 896.887H102.781C102.806 896.701 102.834 896.531 102.866 896.378C102.907 896.216 102.947 896.071 102.987 895.942L104.188 892.166H106.322L103.582 899.465C103.307 900.208 102.931 900.768 102.454 901.148C101.977 901.527 101.366 901.717 100.623 901.717C100.413 901.717 100.231 901.704 100.077 901.68C99.9316 901.664 99.8022 901.644 99.6891 901.62V900.01C99.7779 900.026 99.8831 900.041 100.004 900.058C100.134 900.075 100.267 900.082 100.405 900.082C100.784 900.082 101.075 899.969 101.278 899.743C101.48 899.518 101.637 899.252 101.751 898.945L101.823 898.739L99.1919 892.166Z" fill="#0500FF"/>
</g>
<defs>
<clipPath id="clip0">
<rect width="288" height="907.89" fill="white"/>
</clipPath>
</defs>
</svg>
