<svg width="36" height="36" viewBox="0 0 36 36" fill="none" xmlns="http://www.w3.org/2000/svg">
<path d="M18 34.7679C27.2508 34.7679 34.75 27.2687 34.75 18.018C34.75 8.76726 27.2508 1.26807 18 1.26807C8.74923 1.26807 1.25 8.76726 1.25 18.018C1.25 27.2687 8.74923 34.7679 18 34.7679Z" stroke="#1FBBA6" stroke-width="1.5"/>
<path d="M25.1108 10.895H10.8886C9.91084 10.895 9.11973 11.695 9.11973 12.6728L9.11084 23.3394C9.11084 24.3172 9.91084 25.1172 10.8886 25.1172H25.1108C26.0886 25.1172 26.8886 24.3172 26.8886 23.3394V12.6728C26.8886 11.695 26.0886 10.895 25.1108 10.895ZM25.1108 14.4506L17.9997 18.895L10.8886 14.4506V12.6728L17.9997 17.1172L25.1108 12.6728V14.4506Z" fill="#1FBBA6"/>
</svg>
