<svg width="60" height="60" viewBox="0 0 60 60" fill="none" xmlns="http://www.w3.org/2000/svg">
<path fill-rule="evenodd" clip-rule="evenodd" d="M30.5568 11L30.5023 11L30.4479 11C25.1879 11 21.4681 12.3482 21.4681 15.3538C21.4681 16.6137 21.9304 17.9647 22.9349 19.1092C20.6778 21.1059 19.5089 24.0951 19.5089 27.4358L19.509 27.4868L19.5089 27.5446C19.5089 27.8305 19.5199 28.1115 19.5416 28.3871C16.4091 29.1083 14.7622 30.0461 13.9047 31.4538L14.5018 31.3279C13.4806 32.4426 13 33.9385 13 35.9344C13 41.7263 18.0706 48.519 30.3038 48.519L30.4086 48.5188V48.519L30.5135 48.5192C31.3585 48.5192 32.1693 48.4868 32.9467 48.4245C31.7229 48.8388 30.6217 49.1248 29.747 49.2614C30.3791 50.261 33.2385 50.0388 36.2889 48.7253C37.4455 48.2273 38.4693 47.6413 39.2788 47.0433C45.226 44.7272 47.8173 40.0751 47.8173 35.9345C47.8173 31.8913 45.845 29.8997 41.4002 28.9728C41.4632 28.5122 41.4957 28.0358 41.4957 27.5445L41.4956 27.4839L41.4957 27.4357C41.4957 24.095 40.3269 21.1058 38.0697 19.1092C39.0743 17.9647 39.5365 16.6136 39.5365 15.3538C39.5365 12.3481 35.8167 11 30.5568 11ZM30.5023 13.9389L30.5568 13.9388C32.9477 13.9388 34.6385 14.5516 34.6385 15.9178C34.6385 16.3284 34.5305 16.7603 34.301 17.1636C33.1933 16.8364 31.9623 16.6599 30.6112 16.6599C30.5748 16.6599 30.5385 16.6601 30.5023 16.6603V16.6605C30.4661 16.6602 30.4299 16.6601 30.3935 16.6601C29.0424 16.6601 27.8114 16.8365 26.7037 17.1638C26.4742 16.7604 26.3662 16.3285 26.3662 15.9178C26.3662 14.5516 28.057 13.9388 30.4479 13.9388L30.5023 13.9389ZM30.4687 35.721C37.3094 35.721 43.0057 34.4647 44.2398 32.8028C40.7163 33.4264 35.8675 33.8116 30.5149 33.8116C25.1082 33.8116 20.2157 33.4186 16.6838 32.7839C16.8204 32.9734 17.0149 33.1576 17.2624 33.3354C17.2041 33.3063 17.1474 33.2774 17.0924 33.2488C16.9123 34.2003 19.4024 35.6348 22.7018 36.4716C25.921 37.288 28.734 37.2371 29.1431 36.3774C27.6791 36.3106 25.5157 35.9563 23.1447 35.3549C22.5023 35.192 21.8819 35.0204 21.2925 34.8441C23.7515 35.3904 26.9596 35.721 30.4687 35.721ZM22.0559 27.1541C22.0559 24.5399 22.9624 22.1982 24.7134 20.6218C24.2947 22.0751 24.0671 23.6369 24.0671 25.2632C24.0671 27.6799 24.5697 29.9545 25.4553 31.9417C24.8196 31.9009 24.2032 31.8528 23.6093 31.7981C22.6304 30.56 22.0559 28.9883 22.0559 27.1541Z" fill="white"/>
</svg>
