<svg width="38" height="38" viewBox="0 0 38 38" fill="none" xmlns="http://www.w3.org/2000/svg">
<path d="M19 36.2499C28.5269 36.2499 36.25 28.5268 36.25 18.9999C36.25 9.47305 28.5269 1.75 19 1.75C9.47309 1.75 1.75 9.47305 1.75 18.9999C1.75 28.5268 9.47309 36.2499 19 36.2499Z" stroke="#000000" stroke-width="2.5"/>
<path d="M19.0285 34.9969C17.5898 34.9969 16.1947 34.8171 14.866 34.4793C14.8577 34.3889 14.8535 34.2959 14.8535 34.203V31.3603H12.7837C11.6664 31.3603 10.6308 30.8595 10.1757 29.939C10.0132 29.636 9.89215 29.2836 9.76476 28.9126C9.47036 28.0552 9.14199 27.0988 8.18906 26.4275C7.77482 26.0932 8.10593 25.7588 8.56103 25.8001C9.43037 26.0505 10.1334 26.6367 10.7957 27.5131C11.4579 28.391 11.7481 28.6001 12.9894 28.6001C13.5685 28.6001 14.4787 28.5589 15.3072 28.4322C15.7623 27.2613 16.5485 26.217 17.501 25.7161C11.9553 25.0474 9.30638 22.2887 9.30638 18.5268C9.30638 16.8963 10.0095 15.3498 11.169 14.0124C10.7971 12.7162 10.2997 10.0414 11.3353 8.99707C13.8193 8.99707 15.3086 10.6276 15.6806 11.0444C16.9219 10.6262 18.2886 10.3757 19.6948 10.3757C21.1432 10.3757 22.4676 10.6262 23.7089 11.0444C24.0809 10.6262 25.5716 8.99707 28.0542 8.99707C29.0475 10.0001 28.5924 12.7162 28.1782 14.0124C29.3378 15.3085 30 16.8963 30 18.5268C30 22.2887 27.392 25.0474 21.8885 25.6322C23.4201 26.4261 24.4965 28.6826 24.4965 30.3544V34.0899C22.7873 34.6772 20.9466 34.9969 19.0285 34.9969Z" fill="#000000"/>
</svg>
