<svg width="28" height="28" viewBox="0 0 28 28" fill="none" xmlns="http://www.w3.org/2000/svg">
<circle cx="14" cy="14" r="12.75" stroke="white" stroke-width="1.5"/>
<path d="M14.0214 26C12.9424 26 11.896 25.8651 10.8995 25.6118C10.8932 25.544 10.8901 25.4742 10.8901 25.4046V23.2725H9.3378C8.49981 23.2725 7.72311 22.8969 7.38179 22.2065C7.25988 21.9793 7.16911 21.715 7.07357 21.4367C6.85277 20.7937 6.6065 20.0764 5.89179 19.5729C5.58112 19.3222 5.82945 19.0714 6.17077 19.1023C6.82278 19.2901 7.35008 19.7298 7.84675 20.3871C8.34341 21.0455 8.5611 21.2024 9.49208 21.2024C9.9264 21.2024 10.609 21.1714 11.2304 21.0764C11.5717 20.1982 12.1614 19.415 12.8757 19.0394C8.71644 18.5378 6.72979 16.4688 6.72979 13.6474C6.72979 12.4245 7.25709 11.2646 8.12678 10.2615C7.84781 9.28937 7.47478 7.28324 8.25148 6.5C10.1145 6.5 11.2315 7.72289 11.5104 8.03554C12.4414 7.72182 13.4665 7.53401 14.5211 7.53401C15.6074 7.53401 16.6007 7.72182 17.5317 8.03554C17.8107 7.72182 18.9287 6.5 20.7907 6.5C21.5356 7.2523 21.1943 9.28937 20.8836 10.2615C21.7533 11.2336 22.25 12.4245 22.25 13.6474C22.25 16.4688 20.294 18.5378 16.1664 18.9764C17.3151 19.5719 18.1224 21.2643 18.1224 22.5181V25.3197C16.8405 25.7602 15.4599 26 14.0214 26Z" fill="white"/>
</svg>
