<svg width="211" height="42" viewBox="0 0 211 42" fill="none" xmlns="http://www.w3.org/2000/svg">
<path d="M106.268 36.8913C106.268 37.6222 106.268 37.7883 106.761 38.2367L109.52 40.9608V41.0771H97.2821V35.8449C96.0504 39.2933 92.7928 41.5737 89.167 41.5256C82.8754 41.5256 78.3086 36.5425 78.3086 27.3736C78.3086 18.7862 83.2368 13.0556 90.1527 13.0556C93.2183 12.8605 96.071 14.6458 97.2656 17.5072V5.96307C97.3566 5.42848 97.1402 4.88795 96.7071 4.56781L94.0788 2.00984V1.89357L106.268 0.448476V36.8913ZM97.2821 35.2303V18.0055C96.3952 16.8916 95.0493 16.2541 93.6352 16.278C90.6619 16.278 87.7871 19.0021 87.7871 27.0913C87.7871 34.6655 90.2676 37.3398 93.356 37.3398C94.9218 37.3074 96.3792 36.5243 97.2821 35.2303ZM114.383 41.0771V17.8228C114.461 17.3035 114.276 16.7792 113.89 16.4275L111.18 13.6038V13.4875H123.418V37.074C123.418 37.8049 123.418 37.971 123.911 38.4194L126.605 40.9774V41.0937L114.383 41.0771ZM113.939 4.98307C113.939 2.23099 116.146 0 118.867 0C121.589 0 123.796 2.23099 123.796 4.98307C123.796 7.73514 121.589 9.96613 118.867 9.96613C116.146 9.96613 113.939 7.73514 113.939 4.98307ZM156.437 36.8415C156.437 37.5723 156.437 37.7883 156.929 38.2367L159.689 40.9608V41.0771H147.385V35.114C146.265 38.8845 142.851 41.4814 138.958 41.5256C133.504 41.5256 130.58 37.5059 130.58 29.8984C130.58 26.2275 130.58 22.2079 130.695 17.6899C130.785 17.1841 130.596 16.6688 130.202 16.3445L127.492 13.6038V13.4875H139.631C139.631 13.6536 139.631 27.9218 139.631 28.6526C139.631 33.6357 140.354 36.9577 143.443 36.9577C145.101 36.8529 146.596 35.9099 147.418 34.4496V17.8394C147.496 17.3201 147.311 16.7958 146.925 16.4441L144.198 13.6038V13.4875H156.437V36.8415ZM198.096 41.0771C198.096 40.1801 198.26 28.7523 198.26 26.1279C198.26 21.1448 197.488 17.7065 194.022 17.7065C192.278 17.7609 190.663 18.6483 189.669 20.0984C190.016 21.6513 190.182 23.2402 190.162 24.8323C190.162 28.2872 190.047 32.6889 189.997 37.0906C189.907 37.5964 190.096 38.1117 190.49 38.4361L193.25 40.994V41.1103H180.897C180.897 40.2798 181.061 28.7855 181.061 26.1611C181.061 21.095 180.289 17.7397 176.872 17.7397C175.188 17.8008 173.651 18.7281 172.798 20.198V37.1405C172.798 37.8713 172.798 38.0374 173.291 38.4859L175.985 41.0439V41.1601H163.763V17.9058C163.841 17.3865 163.656 16.8622 163.27 16.5106L160.56 13.6038V13.4875H172.798V19.4007C173.933 15.4966 177.549 12.8739 181.57 13.039C185.644 13.039 188.404 15.3312 189.57 19.6831C190.866 15.6695 194.595 12.9763 198.77 13.039C204.223 13.039 207.312 17.1085 207.312 24.7991C207.312 28.4699 207.197 32.6557 207.147 37.0574C207.052 37.5784 207.271 38.1071 207.706 38.4028L210.4 40.9608V41.0771H198.096ZM44.3535 37.4561L47.9839 40.9608V41.0771H29.569V40.9608L33.2651 37.4561C33.6593 37.1317 33.8481 36.6164 33.758 36.1106V13.7034C33.758 12.7567 33.758 11.4777 33.9222 10.3814L21.5032 41.5256H21.3554L8.49288 12.8729C8.21362 12.1587 8.13148 12.1089 7.95078 11.6272V30.4133C7.79679 31.6707 8.00798 32.9461 8.55859 34.0842L13.7332 40.9608V41.0771H0V40.9608L5.17458 34.0676C5.72112 32.9341 5.93219 31.6652 5.78239 30.4133V9.65054C5.86652 8.62823 5.56092 7.61207 4.92817 6.81019L1.2649 2.00984V1.89357H14.4067L25.4129 26.1611L35.105 1.89357H47.9675V2.00984L44.3535 6.07934C43.9205 6.39948 43.7041 6.94001 43.795 7.4746V36.1106C43.6992 36.6316 43.9187 37.1603 44.3535 37.4561ZM58.7602 26.2275V26.3438C58.7602 33.453 62.3906 36.3099 66.6453 36.3099C70.198 36.4326 73.4859 34.4183 75.0232 31.1774H75.1382C73.6597 38.2035 69.3558 41.5256 62.9163 41.5256C55.9676 41.5256 49.4131 37.2899 49.4131 27.4733C49.4131 17.1584 55.984 13.039 63.2448 13.039C69.0929 13.039 75.3189 15.8295 75.3189 24.7991C75.3189 24.9652 75.3189 25.5631 75.3189 26.2275H58.7602ZM58.7602 24.7991H66.8588C66.8588 24.0682 66.8588 23.5699 66.8588 23.354C66.8588 16.0455 65.364 14.1021 63.1134 14.1021C60.3865 14.1021 58.7274 17.0089 58.7274 24.7991H58.7602Z" fill="#1C1B1A"/>
</svg>
