<svg width="30" height="27" viewBox="0 0 30 27" fill="none" xmlns="http://www.w3.org/2000/svg">
<path d="M21.6667 9.99996C21.6667 5.39579 16.8177 1.66663 10.8333 1.66663C4.84896 1.66663 0 5.39579 0 9.99996C0 11.7864 0.734375 13.4323 1.97917 14.7916C1.28125 16.3645 0.130208 17.6145 0.114583 17.6302C0 17.75 -0.03125 17.927 0.0364583 18.0833C0.104167 18.2395 0.25 18.3333 0.416667 18.3333C2.32292 18.3333 3.90104 17.6927 5.03646 17.0312C6.71354 17.8489 8.69792 18.3333 10.8333 18.3333C16.8177 18.3333 21.6667 14.6041 21.6667 9.99996ZM28.0208 21.4583C29.2656 20.1041 30 18.4531 30 16.6666C30 13.1823 27.2135 10.1979 23.2656 8.95308C23.3125 9.29683 23.3333 9.64579 23.3333 9.99996C23.3333 15.5156 17.724 20 10.8333 20C10.2708 20 9.72396 19.9583 9.18229 19.901C10.8229 22.8958 14.6771 25 19.1667 25C21.3021 25 23.2865 24.5208 24.9635 23.6979C26.099 24.3593 27.6771 25 29.5833 25C29.75 25 29.901 24.901 29.9635 24.75C30.0312 24.5989 30 24.4218 29.8854 24.2968C29.8698 24.2812 28.7188 23.0364 28.0208 21.4583Z" fill="#F28444"/>
</svg>
