<svg width="55" height="55" viewBox="0 0 55 55" fill="none" xmlns="http://www.w3.org/2000/svg">
<g clip-path="url(#clip0)">
<path d="M27.4967 54.9933C42.6845 54.9933 54.9967 42.6811 54.9967 27.4933C54.9967 12.3054 42.6845 -0.00671387 27.4967 -0.00671387C12.3088 -0.00671387 -0.00335693 12.3054 -0.00335693 27.4933C-0.00335693 42.6811 12.3088 54.9933 27.4967 54.9933Z" fill="#250063"/>
<path fill-rule="evenodd" clip-rule="evenodd" d="M27.4964 41.2382C22.6548 41.2382 18.3749 38.7593 15.8766 35.0023C15.9347 31.1484 23.6231 29.0375 27.4964 29.0375C31.3503 29.0375 39.058 31.1484 39.1161 35.0023C36.6179 38.7593 32.3379 41.2382 27.4964 41.2382Z" fill="white"/>
<path fill-rule="evenodd" clip-rule="evenodd" d="M27.4957 13.7366C30.7105 13.7366 33.3056 16.3316 33.3056 19.5464C33.3056 22.7612 30.7105 25.3563 27.4957 25.3563C24.2809 25.3563 21.6858 22.7612 21.6858 19.5464C21.6858 16.3316 24.2809 13.7366 27.4957 13.7366Z" fill="white"/>
</g>
<defs>
<clipPath id="clip0">
<rect width="55" height="55" fill="white"/>
</clipPath>
</defs>
</svg>
