<svg width="150" height="150" viewBox="0 0 150 150" fill="none" xmlns="http://www.w3.org/2000/svg">
<g clip-path="url(#clip0)">
<path d="M75.0001 150C116.421 150 150 116.421 150 75C150 33.5786 116.421 0 75.0001 0C33.5787 0 0 33.5786 0 75C0 116.421 33.5787 150 75.0001 150Z" fill="#45B29D"/>
<path d="M54.1676 41.6748H40.2786V52.786H54.1676V41.6748Z" fill="white"/>
<path d="M81.9447 41.6748H68.0557V52.786H81.9447V41.6748Z" fill="white"/>
<path d="M109.722 41.6748H95.8328V52.786H109.722V41.6748Z" fill="white"/>
<path d="M68.0561 52.7893H54.1672V63.9005H68.0561V52.7893Z" fill="white"/>
<path d="M95.8332 52.7893H81.9443V63.9005H95.8332V52.7893Z" fill="white"/>
<path d="M54.1676 63.9038H40.2786V75.015H54.1676V63.9038Z" fill="white"/>
<path d="M81.9447 63.9038H68.0557V75.015H81.9447V63.9038Z" fill="white"/>
<path d="M109.722 63.9038H95.8328V75.015H109.722V63.9038Z" fill="white"/>
<path d="M40.2778 41.6748H37.5V108.342H40.2778V41.6748Z" fill="white"/>
<path d="M112.499 41.6748H109.721V108.342H112.499V41.6748Z" fill="white"/>
</g>
<defs>
<clipPath id="clip0">
<rect width="150" height="150" fill="white"/>
</clipPath>
</defs>
</svg>
