<svg width="276" height="203" viewBox="0 0 276 203" fill="none" xmlns="http://www.w3.org/2000/svg">
<path d="M68.6414 22.3474H46.252V48.8999H68.6414V22.3474Z" fill="#309DDB"/>
<path d="M229.815 22.3474H207.425V48.8999H229.815V22.3474Z" fill="#309DDB"/>
<path fill-rule="evenodd" clip-rule="evenodd" d="M207.425 22.3474H225.34L229.815 26.7703V48.8999H207.425V22.3474Z" fill="#414042" fill-opacity="0.1"/>
<path d="M229.815 53.2466H207.425V79.7993H229.815V53.2466Z" fill="#647082"/>
<path d="M229.815 53.2466H207.425V79.7993H229.815V53.2466Z" fill="#414042" fill-opacity="0.25"/>
<path d="M68.6414 53.2466H46.252V79.7993H68.6414V53.2466Z" fill="#647082"/>
<path d="M68.6414 53.2466H46.252V79.7993H68.6414V53.2466Z" fill="#414042" fill-opacity="0.25"/>
<path d="M202.981 53.2466H180.592V93.0752H202.981V53.2466Z" fill="#647082"/>
<path d="M202.981 53.2466H180.592V93.0752H202.981V53.2466Z" fill="#414042" fill-opacity="0.25"/>
<path d="M95.518 53.2466H73.1285V93.0752H95.518V53.2466Z" fill="#647082"/>
<path d="M95.518 53.2466H73.1285V93.0752H95.518V53.2466Z" fill="#414042" fill-opacity="0.25"/>
<path d="M176.105 53.2466H153.715V106.351H176.105V53.2466Z" fill="#647082"/>
<path d="M176.105 53.2466H153.715V106.351H176.105V53.2466Z" fill="#414042" fill-opacity="0.25"/>
<path d="M149.228 53.2466H126.839V119.628H149.228V53.2466Z" fill="#647082"/>
<path d="M149.228 53.2466H126.839V119.628H149.228V53.2466Z" fill="#414042" fill-opacity="0.25"/>
<path d="M122.351 53.2466H99.9619V106.351H122.351V53.2466Z" fill="#647082"/>
<path d="M122.351 53.2466H99.9619V106.351H122.351V53.2466Z" fill="#414042" fill-opacity="0.25"/>
<path d="M149.228 22.3474H126.839V48.8999H149.228V22.3474Z" fill="#309DDB"/>
<path fill-rule="evenodd" clip-rule="evenodd" d="M126.839 22.3474H135.781L149.22 35.6312V48.8999H126.839V22.3474Z" fill="#414042" fill-opacity="0.1"/>
<path d="M94.9102 0.203125H72.5207V48.8853H94.9102V0.203125Z" fill="#309DDB"/>
<path fill-rule="evenodd" clip-rule="evenodd" d="M72.5208 26.124L94.9102 48.2533V48.8506H72.5208V26.124Z" fill="#414042" fill-opacity="0.1"/>
<path d="M202.981 0.203125H180.592V48.8853H202.981V0.203125Z" fill="#309DDB"/>
<path fill-rule="evenodd" clip-rule="evenodd" d="M180.592 13.4211L202.981 35.5509V48.8423H180.592V13.4211Z" fill="#414042" fill-opacity="0.1"/>
<path d="M122.351 9.12915H99.9619V48.9585H122.351V9.12915Z" fill="#309DDB"/>
<path fill-rule="evenodd" clip-rule="evenodd" d="M122.351 31.2515V48.9585H99.9619V9.13671L99.9695 9.12915L122.351 31.2515Z" fill="#414042" fill-opacity="0.1"/>
<path d="M176.105 9.12915H153.715V48.9585H176.105V9.12915Z" fill="#309DDB"/>
<path fill-rule="evenodd" clip-rule="evenodd" d="M153.715 26.8108L176.104 48.9321V48.9473H153.715V26.8108Z" fill="#414042" fill-opacity="0.1"/>
<path d="M12.7637 139.01H0V201.906H12.7637V139.01Z" fill="#309DDB"/>
<path d="M32.8698 155.143L33.4382 161.836C35.0135 159.447 36.9513 157.589 39.2517 156.266C41.5565 154.939 44.1343 154.276 46.9896 154.276C51.7648 154.276 55.4973 155.762 58.178 158.726C60.8588 161.694 62.1969 166.343 62.1969 172.682V201.881H49.3929V172.722C49.3929 169.585 48.7529 167.36 47.4685 166.051C46.1885 164.737 44.2507 164.083 41.6549 164.083C39.9677 164.083 38.4506 164.423 37.1125 165.1C35.7698 165.777 34.651 166.732 33.747 167.971V201.881H20.9832V155.143H32.8698Z" fill="#309DDB"/>
<path d="M84.7528 143.73V155.178H92.7056V164.034H84.7528V187.831C84.7528 189.649 85.1288 190.946 85.8896 191.72C86.6459 192.498 87.6663 192.887 88.9463 192.887C89.6176 192.887 90.1949 192.852 90.6737 192.781C91.1526 192.706 91.7165 192.587 92.3565 192.414L93.4485 201.526C92.1685 201.96 90.9154 202.283 89.6892 202.499C88.4674 202.716 87.1427 202.822 85.715 202.822C81.3113 202.822 77.9279 201.628 75.5515 199.239C73.175 196.846 71.9891 193.06 71.9891 187.876V164.034H65.0836V155.178H71.9891V143.73H84.7528Z" fill="#309DDB"/>
<path d="M117.471 202.788C110.655 202.788 105.204 200.629 101.127 196.307C97.045 191.99 95.0087 186.505 95.0087 179.852V178.123C95.0087 171.182 96.9376 165.467 100.8 160.973C104.658 156.479 109.836 154.25 116.334 154.276C122.716 154.276 127.67 156.178 131.197 159.978C134.719 163.782 136.482 168.922 136.482 175.402V182.267H108.251L108.162 182.528C108.395 185.612 109.437 188.146 111.286 190.132C113.138 192.118 115.649 193.114 118.827 193.114C121.651 193.114 124 192.831 125.862 192.269C127.728 191.707 129.769 190.822 131.98 189.615L135.435 197.387C133.51 198.944 130.991 200.231 127.871 201.253C124.757 202.279 121.288 202.788 117.471 202.788ZM116.334 163.999C113.975 163.999 112.109 164.888 110.74 166.675C109.37 168.462 108.529 170.806 108.207 173.717L108.336 173.934H123.982V172.81C123.982 170.13 123.351 167.993 122.08 166.396C120.814 164.795 118.898 163.999 116.334 163.999Z" fill="#309DDB"/>
<path d="M167.713 165.985L163.036 165.856C161.143 165.856 159.586 166.241 158.36 167.02C157.138 167.798 156.202 168.891 155.562 170.302V201.881H142.843V155.143H154.69L155.258 162.052C156.364 159.606 157.8 157.695 159.563 156.328C161.327 154.962 163.359 154.276 165.659 154.276C166.299 154.276 166.89 154.329 167.431 154.431C167.968 154.528 168.514 154.652 169.069 154.798L167.713 165.985Z" fill="#309DDB"/>
<path d="M192.478 184.512L193.311 188.829H193.57L194.448 184.512L202.226 155.181H215.553L199.474 201.917H187.278L171.194 155.181H184.526L192.478 184.512Z" fill="#309DDB"/>
<path d="M243.837 201.881C243.371 200.815 242.968 199.691 242.633 198.51C242.297 197.329 242.06 196.122 241.912 194.883C240.601 197.157 238.873 199.045 236.734 200.541C234.59 202.04 232.035 202.788 229.063 202.788C224.109 202.788 220.292 201.527 217.611 199.01C214.93 196.489 213.592 193.056 213.592 188.708C213.592 184.125 215.378 180.578 218.945 178.056C222.516 175.539 227.725 174.279 234.568 174.279H241.693V170.563C241.693 168.316 241.098 166.573 239.903 165.334C238.708 164.096 236.944 163.477 234.613 163.477C232.545 163.477 230.952 163.976 229.829 164.967C228.705 165.963 228.146 167.338 228.146 169.094L215.821 169.05L215.776 168.794C215.575 164.848 217.307 161.442 220.976 158.575C224.651 155.709 229.471 154.276 235.445 154.276C241.098 154.276 245.685 155.696 249.211 158.531C252.738 161.371 254.501 165.41 254.501 170.651V189.96C254.501 192.149 254.667 194.206 255.003 196.135C255.338 198.063 255.871 199.979 256.596 201.881H243.837ZM232.165 193.459C234.411 193.459 236.407 192.91 238.153 191.818C239.903 190.72 241.084 189.455 241.693 188.013V181.405H234.568C231.86 181.405 229.806 182.077 228.41 183.413C227.009 184.753 226.311 186.372 226.311 188.274C226.311 189.827 226.835 191.083 227.882 192.034C228.934 192.981 230.361 193.459 232.165 193.459Z" fill="#309DDB"/>
<path d="M275.41 134.491H262.646V201.877H275.41V134.491Z" fill="#309DDB"/>
</svg>
