<svg width="280" height="220" viewBox="0 0 280 220" fill="none" xmlns="http://www.w3.org/2000/svg">
<g clip-path="url(#clip0)">
<path opacity="0.15" d="M139.765 132.277C159.29 132.277 175.119 129.667 175.119 126.446C175.119 123.226 159.29 120.615 139.765 120.615C120.239 120.615 104.411 123.226 104.411 126.446C104.411 129.667 120.239 132.277 139.765 132.277Z" fill="black"/>
<path d="M178.071 98.9087H101.459V115.16H178.071V98.9087Z" fill="#414042"/>
<path d="M178.071 11.2874H101.459V27.5383H178.071V11.2874Z" fill="#414042"/>
<path d="M158.917 0H120.612V8.12592H158.917V0Z" fill="#414042"/>
<path d="M158.917 118.32H120.612V126.447H158.917V118.32Z" fill="#414042"/>
<path d="M147.891 73.9692L131.64 57.7183V90.7829H120.612V98.9088H158.918V90.7829H147.891V73.9692Z" fill="#349CD7"/>
<path d="M147.891 34.998H158.918V27.5383H120.612V34.998H131.64V57.7182V90.7828H120.612V98.9087H158.918V90.7828H147.891V73.9691V34.998Z" fill="#349CD7"/>
<path opacity="0.15" d="M120.612 27.5383V34.998H131.64V57.7182L147.891 73.9691V34.998H158.918V27.5383H120.612Z" fill="black"/>
<path opacity="0.15" d="M158.917 118.32H120.612V126.447H158.917V118.32Z" fill="black"/>
<path d="M0 203.781V149.74H10.8374V203.781H0Z" fill="#349CD7"/>
<path d="M17.5219 203.781V163.621H27.5793L28.0862 169.318C29.4242 167.282 31.0716 165.7 33.0283 164.571C34.985 163.442 37.1774 162.878 39.6056 162.878C43.6523 162.878 46.81 164.184 49.0798 166.794C51.3496 169.405 52.4845 173.53 52.4845 179.172V203.78H41.6462V179.152C41.6462 176.276 41.1449 174.236 40.1432 173.033C39.1416 171.831 37.6377 171.229 35.6335 171.229C34.0243 171.229 32.6081 171.532 31.3837 172.141C30.1594 172.749 29.1512 173.585 28.3583 174.651V203.78H17.5219V203.781Z" fill="#349CD7"/>
<path d="M55.4549 171.231V163.622H61.2822V153.786H72.1205V163.622H78.8749V171.231H72.1205V191.712C72.1205 193.273 72.4485 194.388 73.1035 195.058C73.7585 195.727 74.6186 196.06 75.6836 196.06C76.2519 196.06 76.7467 196.03 77.1679 195.967C77.5881 195.907 78.0707 195.8 78.6149 195.651L79.5057 203.451C78.4174 203.82 77.3589 204.097 76.333 204.283C75.3053 204.467 74.1862 204.56 72.974 204.56C69.2264 204.56 66.3417 203.533 64.3179 201.479C62.2941 199.426 61.2822 196.172 61.2822 191.717V171.231H55.4549Z" fill="#349CD7"/>
<path d="M80.8073 184.852V183.367C80.8073 177.354 82.4407 172.431 85.7066 168.595C88.9482 164.785 93.4011 162.878 99.0681 162.878C99.0923 162.878 99.1296 162.878 99.1799 162.878C104.574 162.878 108.712 164.529 111.595 167.833C114.477 171.136 115.919 175.584 115.919 181.176V186.781H91.9913L91.8804 187.002C92.0528 189.738 92.8886 191.957 94.385 193.658C95.8814 195.358 98.1018 196.208 101.047 196.208C103.473 196.208 105.532 195.961 107.227 195.469C108.921 194.976 110.672 194.224 112.479 193.214L115.4 199.898C113.792 201.217 111.614 202.323 108.867 203.217C106.121 204.112 103.126 204.559 99.8852 204.559C93.8968 204.559 89.2202 202.721 85.8547 199.047C82.4892 195.373 80.8073 190.642 80.8073 184.852ZM92.0528 179.433L92.1274 179.618H105.341V178.801C105.341 176.451 104.858 174.601 103.893 173.252C102.927 171.904 101.37 171.23 99.2162 171.23C97.0387 171.23 95.3624 171.979 94.1875 173.475C93.0125 174.972 92.3007 176.959 92.0528 179.433Z" fill="#349CD7"/>
<path d="M120.56 203.781V163.621H130.618L131.125 169.318C132.462 167.282 134.11 165.7 136.066 164.571C138.022 163.442 140.215 162.878 142.643 162.878C146.689 162.878 149.846 164.184 152.117 166.794C154.387 169.405 155.521 173.53 155.521 179.172V203.78H144.685V179.152C144.685 176.276 144.183 174.236 143.182 173.033C142.18 171.831 140.677 171.229 138.672 171.229C137.063 171.229 135.646 171.532 134.422 172.141C133.198 172.749 132.19 173.585 131.398 174.651V203.78H120.56V203.781Z" fill="#349CD7"/>
<path d="M160.275 184.295V183.181C160.275 177.294 161.889 172.437 165.118 168.613C168.348 164.79 172.918 162.879 178.833 162.879C183.766 162.879 187.74 164.29 190.754 167.107C193.668 169.828 195.126 173.389 195.126 177.79C195.126 177.941 195.126 178.091 195.126 178.242L195.051 178.468H185.067C185.067 176.39 184.517 174.663 183.416 173.29C182.316 171.916 180.788 171.23 178.833 171.23C176.037 171.23 174.05 172.348 172.875 174.584C171.699 176.82 171.111 179.681 171.111 183.164V184.275C171.111 187.833 171.699 190.711 172.875 192.911C174.05 195.11 176.061 196.209 178.906 196.209C180.788 196.209 182.284 195.649 183.397 194.53C184.51 193.411 185.067 191.917 185.067 190.048H195.051L195.126 190.259C195.126 190.377 195.126 190.496 195.126 190.612C195.126 194.48 193.611 197.753 190.583 200.431C187.455 203.159 183.583 204.535 178.966 204.56C173.007 204.56 168.404 202.662 165.153 198.863C161.9 195.065 160.275 190.21 160.275 184.295Z" fill="#414042"/>
<path d="M198.841 154.009V145.954H209.678V154.009H198.841ZM198.841 203.781V163.621H209.678V203.781H198.841Z" fill="#414042"/>
<path d="M214.948 171.231V163.622H220.775V153.786H231.614V163.622H238.369V171.231H231.614V191.712C231.614 193.273 231.942 194.388 232.597 195.058C233.253 195.727 234.113 196.06 235.178 196.06C235.746 196.06 236.241 196.03 236.662 195.967C237.082 195.907 237.565 195.8 238.11 195.651L239.001 203.451C237.911 203.82 236.853 204.097 235.828 204.283C234.799 204.467 233.68 204.56 232.469 204.56C228.722 204.56 225.837 203.533 223.813 201.479C221.789 199.426 220.777 196.172 220.777 191.717V171.231H214.948Z" fill="#414042"/>
<path d="M241.077 163.622H252.732L259.524 186.949L259.97 189.177H260.192L267.875 163.622H279.53L263.236 209.795C262.097 212.664 260.55 215.083 258.597 217.05C256.643 219.017 253.71 220.001 249.801 220.001C248.886 220.001 248.038 219.927 247.258 219.78C246.479 219.631 245.531 219.422 244.419 219.15L245.68 211.279C246.002 211.328 246.348 211.378 246.719 211.427C247.09 211.476 247.425 211.502 247.721 211.502C249.503 211.502 250.876 211.062 251.841 210.183C252.806 209.304 253.548 208.208 254.068 206.896L255.33 203.775L241.077 163.622Z" fill="#414042"/>
</g>
<defs>
<clipPath id="clip0">
<rect width="279.53" height="220" fill="white"/>
</clipPath>
</defs>
</svg>
