<svg width="32" height="32" viewBox="0 0 32 32" fill="none" xmlns="http://www.w3.org/2000/svg">
<g clip-path="url(#clip0)">
<path d="M11.9172 24.5001H8.28906V12.8165H11.9172V24.5001ZM10.1012 11.2228C8.94102 11.2228 8 10.2618 8 9.10166C8 8.54439 8.22137 8.00995 8.61542 7.61591C9.00947 7.22186 9.54391 7.00049 10.1012 7.00049C10.6584 7.00049 11.1929 7.22186 11.5869 7.61591C11.981 8.00995 12.2023 8.54439 12.2023 9.10166C12.2023 10.2618 11.2609 11.2228 10.1012 11.2228ZM25.4961 24.5001H21.8758V18.8126C21.8758 17.4571 21.8484 15.7188 19.9895 15.7188C18.1031 15.7188 17.8141 17.1915 17.8141 18.7149V24.5001H14.1898V12.8165H17.6695V14.4103H17.7203C18.2047 13.4923 19.3879 12.5235 21.1531 12.5235C24.825 12.5235 25.5 14.9415 25.5 18.0821V24.5001H25.4961Z" fill="#77BDD9"/>
</g>
<circle cx="16" cy="16" r="15.5" stroke="#77BDD9"/>
<defs>
<clipPath id="clip0">
<rect x="8" y="7" width="17.5" height="20" fill="white"/>
</clipPath>
</defs>
</svg>
