<svg width="125" height="40" viewBox="0 0 125 40" fill="none" xmlns="http://www.w3.org/2000/svg">
<path fill-rule="evenodd" clip-rule="evenodd" d="M17.5568 0L17.5023 4.82963e-05V2.93893L17.5568 2.93882C19.9477 2.93882 21.6385 3.55161 21.6385 4.91784C21.6385 5.32841 21.5305 5.76033 21.301 6.16364C20.1933 5.83642 18.9623 5.65995 17.6112 5.65995C17.5748 5.65995 17.5385 5.66008 17.5023 5.66033V16.2494V7.88619V5.66046C17.4661 5.6602 17.4299 5.66007 17.3935 5.66007C16.0424 5.66007 14.8114 5.83653 13.7037 6.16376C13.4742 5.76039 13.3662 5.32846 13.3662 4.91785C13.3662 3.55162 15.057 2.93884 17.4479 2.93884L17.5023 2.93894V5.99897e-05L17.4479 1.1817e-05C12.1879 1.1817e-05 8.46809 1.34815 8.46809 4.35384C8.46809 5.61368 8.93042 6.96473 9.93493 8.10925C7.6778 10.1059 6.5089 13.0951 6.5089 16.4358L6.50902 16.4868L6.5089 16.5446C6.5089 16.8305 6.51992 17.1115 6.54161 17.3871C3.40908 18.1083 1.76224 19.0461 0.904743 20.4538L1.50184 20.3279C0.480563 21.4426 0 22.9385 0 24.9344C0 30.7263 5.07056 37.519 17.3038 37.519L17.4086 37.5188V37.519L17.5135 37.5192C18.3585 37.5192 19.1693 37.4868 19.9467 37.4245C18.7229 37.8388 17.6217 38.1248 16.747 38.2614C17.3791 39.261 20.2385 39.0388 23.2889 37.7253C24.4455 37.2273 25.4693 36.6413 26.2788 36.0433C32.226 33.7272 34.8173 29.0751 34.8173 24.9345C34.8173 20.8913 32.845 18.8997 28.4002 17.9728C28.4632 17.5122 28.4957 17.0358 28.4957 16.5445L28.4956 16.4839L28.4957 16.4357C28.4957 13.095 27.3269 10.1058 25.0697 8.10919C26.0743 6.96467 26.5365 5.61364 26.5365 4.35383C26.5365 1.34814 22.8167 0 17.5568 0ZM17.5023 16.9541V17.2412V16.9541Z" fill="#3B8DBF"/>
<path fill-rule="evenodd" clip-rule="evenodd" d="M17.5568 0L17.5023 4.82963e-05V2.93893L17.5568 2.93882C19.9477 2.93882 21.6385 3.55161 21.6385 4.91784C21.6385 5.32841 21.5305 5.76033 21.301 6.16364C20.1933 5.83642 18.9623 5.65995 17.6112 5.65995C17.5748 5.65995 17.5385 5.66008 17.5023 5.66033V16.2494V7.88619V5.66046C17.4661 5.6602 17.4299 5.66007 17.3935 5.66007C16.0424 5.66007 14.8114 5.83653 13.7037 6.16376C13.4742 5.76039 13.3662 5.32846 13.3662 4.91785C13.3662 3.55162 15.057 2.93884 17.4479 2.93884L17.5023 2.93894V5.99897e-05L17.4479 1.1817e-05C12.1879 1.1817e-05 8.46809 1.34815 8.46809 4.35384C8.46809 5.61368 8.93042 6.96473 9.93493 8.10925C7.6778 10.1059 6.5089 13.0951 6.5089 16.4358L6.50902 16.4868L6.5089 16.5446C6.5089 16.8305 6.51992 17.1115 6.54161 17.3871C3.40908 18.1083 1.76224 19.0461 0.904743 20.4538L1.50184 20.3279C0.480563 21.4426 0 22.9385 0 24.9344C0 30.7263 5.07056 37.519 17.3038 37.519L17.4086 37.5188V37.519L17.5135 37.5192C18.3585 37.5192 19.1693 37.4868 19.9467 37.4245C18.7229 37.8388 17.6217 38.1248 16.747 38.2614C17.3791 39.261 20.2385 39.0388 23.2889 37.7253C24.4455 37.2273 25.4693 36.6413 26.2788 36.0433C32.226 33.7272 34.8173 29.0751 34.8173 24.9345C34.8173 20.8913 32.845 18.8997 28.4002 17.9728C28.4632 17.5122 28.4957 17.0358 28.4957 16.5445L28.4956 16.4839L28.4957 16.4357C28.4957 13.095 27.3269 10.1058 25.0697 8.10919C26.0743 6.96467 26.5365 5.61364 26.5365 4.35383C26.5365 1.34814 22.8167 0 17.5568 0ZM17.5023 16.9541V17.2412V16.9541Z" fill="url(#paint0_linear)"/>
<path fill-rule="evenodd" clip-rule="evenodd" d="M17.4687 24.7211C24.3094 24.7211 30.0057 23.4647 31.2398 21.8029C27.7163 22.4264 22.8675 22.8116 17.5149 22.8116C12.1082 22.8116 7.21566 22.4187 3.68384 21.784C3.8204 21.9734 4.01489 22.1577 4.26244 22.3354C4.20413 22.3063 4.14745 22.2775 4.09241 22.2488C3.91235 23.2003 6.40242 24.6348 9.70179 25.4716C12.921 26.2881 15.734 26.2371 16.1431 25.3775C14.6791 25.3106 12.5157 24.9563 10.1447 24.355C9.50225 24.192 8.88187 24.0204 8.29255 23.8441C10.7515 24.3905 13.9596 24.7211 17.4687 24.7211Z" fill="white"/>
<path fill-rule="evenodd" clip-rule="evenodd" d="M11.7133 9.6218C9.9623 11.1982 9.05585 13.5398 9.05585 16.1541C9.05585 17.9882 9.63033 19.5599 10.6092 20.7981C11.2031 20.8528 11.8195 20.9008 12.4552 20.9417C11.5697 18.9544 11.067 16.6799 11.067 14.2631C11.067 12.6369 11.2947 11.075 11.7133 9.6218Z" fill="white"/>
<path d="M49.8287 10.6164C48.7633 10.6164 47.9071 10.9684 47.2603 11.6724C46.6134 12.3763 46.2899 13.3086 46.2899 14.4692V15.2397H49.2009C49.6004 15.2397 49.9239 15.3539 50.1712 15.5822C50.4185 15.8105 50.5422 16.1149 50.5422 16.4954C50.5422 16.8379 50.4185 17.1233 50.1712 17.3516C49.9239 17.5799 49.6004 17.6941 49.2009 17.6941H46.2899V28.8242C46.2899 29.2618 46.1568 29.6138 45.8904 29.8801C45.624 30.1465 45.253 30.2797 44.7774 30.2797C44.3968 30.2797 44.0639 30.1465 43.7785 29.8801C43.5121 29.6138 43.379 29.2618 43.379 28.8242V17.6941H42.1518C41.7523 17.6941 41.4288 17.5799 41.1815 17.3516C40.9342 17.1233 40.8105 16.8379 40.8105 16.4954C40.8105 16.1149 40.9342 15.8105 41.1815 15.5822C41.4288 15.3539 41.7523 15.2397 42.1518 15.2397H43.379V14.7546C43.379 13.4037 43.6454 12.2242 44.1781 11.2158C44.7298 10.1884 45.4909 9.39881 46.4612 8.84704C47.4505 8.27626 48.573 7.99088 49.8287 7.99088C50.2473 7.99088 50.5898 8.11456 50.8561 8.36188C51.1415 8.6092 51.2842 8.92312 51.2842 9.30366C51.2842 9.6842 51.1415 9.99812 50.8561 10.2454C50.5898 10.4928 50.2473 10.6164 49.8287 10.6164Z" fill="#828282"/>
<path d="M53.2873 16.1244C53.2873 15.6868 53.4205 15.3349 53.6869 15.0685C53.9723 14.8021 54.3242 14.669 54.7428 14.669C55.1804 14.669 55.5324 14.8021 55.7988 15.0685C56.0651 15.3349 56.1983 15.6868 56.1983 16.1244V28.8242C56.1983 29.2428 56.0651 29.5947 55.7988 29.8801C55.5324 30.1465 55.1804 30.2797 54.7428 30.2797C54.3242 30.2797 53.9723 30.1465 53.6869 29.8801C53.4205 29.5947 53.2873 29.2428 53.2873 28.8242V16.1244ZM54.7428 8.36188C55.2565 8.36188 55.6941 8.55212 56.0556 8.93265C56.4361 9.29413 56.6264 9.73174 56.6264 10.2454C56.6264 10.7591 56.4361 11.2062 56.0556 11.5868C55.6941 11.9482 55.2565 12.129 54.7428 12.129C54.2291 12.129 53.782 11.9482 53.4015 11.5868C53.04 11.2062 52.8593 10.7591 52.8593 10.2454C52.8593 9.73174 53.04 9.29413 53.4015 8.93265C53.782 8.55212 54.2291 8.36188 54.7428 8.36188Z" fill="#828282"/>
<path d="M66.5508 27.4258C66.8932 27.4258 67.1786 27.5589 67.4069 27.8253C67.6547 28.0917 67.7779 28.4342 67.7779 28.8527C67.7779 29.2713 67.6164 29.6137 67.2928 29.8801C66.9886 30.1465 66.589 30.2797 66.0941 30.2797H65.5805C64.6484 30.2797 63.7922 30.0418 63.012 29.5662C62.2511 29.0715 61.6518 28.4056 61.214 27.5685C60.7768 26.7313 60.5576 25.7895 60.5576 24.7431V17.6941H59.2448C58.8453 17.6941 58.5222 17.5799 58.2745 17.3516C58.0274 17.1233 57.9035 16.8379 57.9035 16.4954C57.9035 16.1149 58.0274 15.8105 58.2745 15.5822C58.5222 15.3539 58.8453 15.2397 59.2448 15.2397H60.5576V11.1301C60.5576 10.7116 60.6912 10.3691 60.9572 10.1027C61.2237 9.83635 61.5662 9.70319 61.9846 9.70319C62.4035 9.70319 62.746 9.83635 63.012 10.1027C63.2785 10.3691 63.4115 10.7116 63.4115 11.1301V15.2397H65.8373C66.2368 15.2397 66.5605 15.3539 66.8076 15.5822C67.0553 15.8105 67.1786 16.1149 67.1786 16.4954C67.1786 16.8379 67.0553 17.1233 66.8076 17.3516C66.5605 17.5799 66.2368 17.6941 65.8373 17.6941H63.4115V24.7431C63.4115 25.5042 63.621 26.1415 64.0394 26.6552C64.4583 27.1689 64.972 27.4258 65.5805 27.4258H66.5508Z" fill="#828282"/>
<path d="M76.8356 14.5262C78.1484 14.5262 79.3276 14.8116 80.3744 15.3824C81.4207 15.9532 82.2386 16.7903 82.8288 17.8938C83.4184 18.9783 83.7135 20.2911 83.7135 21.8322V28.8527C83.7135 29.2713 83.5708 29.6233 83.2854 29.9087C83.0188 30.175 82.6764 30.3082 82.258 30.3082C81.839 30.3082 81.4874 30.175 81.2021 29.9087C80.9355 29.6233 80.8025 29.2713 80.8025 28.8527V21.8322C80.8025 20.2911 80.3836 19.1305 79.5468 18.3504C78.7283 17.5514 77.6347 17.1518 76.2648 17.1518C75.4657 17.1518 74.7329 17.3135 74.0674 17.637C73.4201 17.9604 72.9064 18.398 72.5263 18.9498C72.1644 19.5015 71.984 20.1199 71.984 20.8048V28.8527C71.984 29.2713 71.8505 29.6233 71.5845 29.9087C71.3179 30.175 70.9658 30.3082 70.5285 30.3082C70.1096 30.3082 69.758 30.175 69.4726 29.9087C69.2061 29.6233 69.0731 29.2713 69.0731 28.8527V22.4886V16.1244C69.0731 15.6868 69.2061 15.3349 69.4726 15.0685C69.758 14.8021 70.1096 14.6689 70.5285 14.6689C70.9658 14.6689 71.3179 14.8021 71.5845 15.0685C71.8505 15.3349 71.984 15.6868 71.984 16.1244V16.4383C72.5925 15.8295 73.3156 15.3634 74.153 15.0399C74.9897 14.6975 75.8841 14.5262 76.8356 14.5262Z" fill="#828282"/>
<path d="M100.256 22.2317C100.256 22.5932 100.132 22.8976 99.8847 23.145C99.637 23.3733 99.323 23.4874 98.9429 23.4874H88.0981C88.3071 24.8192 88.9064 25.8942 89.8961 26.7123C90.9041 27.5304 92.1313 27.9395 93.5776 27.9395C94.1484 27.9395 94.738 27.8349 95.347 27.6256C95.9749 27.4163 96.4886 27.1594 96.8881 26.855C97.1541 26.6457 97.468 26.5411 97.8299 26.5411C98.1912 26.5411 98.4766 26.6362 98.686 26.8265C99.0285 27.1119 99.1998 27.4353 99.1998 27.7968C99.1998 28.1393 99.0474 28.4246 98.7431 28.653C98.0959 29.1667 97.2876 29.5852 96.3173 29.9087C95.3658 30.2321 94.4526 30.3938 93.5776 30.3938C92.0171 30.3938 90.6187 30.0609 89.3824 29.395C88.1455 28.71 87.1752 27.7682 86.4714 26.5696C85.7865 25.371 85.444 24.0107 85.444 22.4886C85.444 20.9665 85.7671 19.6061 86.4143 18.4075C87.0799 17.1899 87.9931 16.2481 89.1541 15.5822C90.3333 14.8972 91.6655 14.5548 93.1495 14.5548C94.6141 14.5548 95.8795 14.8782 96.9452 15.5251C98.0103 16.172 98.8287 17.0757 99.3995 18.2363C99.9703 19.3968 100.256 20.7287 100.256 22.2317ZM93.1495 17.0091C91.7602 17.0091 90.6284 17.3897 89.7534 18.1507C88.8972 18.9117 88.355 19.9296 88.1267 21.2043H97.6301C97.4589 19.9296 96.9829 18.9117 96.2032 18.1507C95.4229 17.3897 94.4052 17.0091 93.1495 17.0091Z" fill="#828282"/>
<path d="M107.735 14.5548C108.972 14.5548 110.075 14.7546 111.046 15.1541C112.035 15.5536 112.815 16.1054 113.386 16.8093C113.634 17.1137 113.757 17.4182 113.757 17.7226C113.757 18.046 113.595 18.3409 113.272 18.6073C113.063 18.7595 112.796 18.8356 112.473 18.8356C111.978 18.8356 111.531 18.6548 111.131 18.2934C110.656 17.8557 110.152 17.5514 109.619 17.3801C109.086 17.1899 108.44 17.0947 107.678 17.0947C106.803 17.0947 106.08 17.247 105.509 17.5514C104.958 17.8367 104.682 18.2458 104.682 18.7785C104.682 19.1591 104.777 19.4825 104.967 19.7488C105.158 19.9962 105.519 20.234 106.051 20.4623C106.584 20.6716 107.355 20.8809 108.363 21.0902C110.437 21.5087 111.902 22.089 112.758 22.831C113.634 23.573 114.071 24.5338 114.071 25.7135C114.071 26.5886 113.833 27.3877 113.357 28.1107C112.882 28.8147 112.178 29.376 111.245 29.7945C110.332 30.194 109.229 30.3938 107.935 30.3938C106.642 30.3938 105.424 30.194 104.282 29.7945C103.14 29.395 102.247 28.8717 101.599 28.2249C101.352 27.9776 101.228 27.6826 101.228 27.3402C101.228 26.8835 101.419 26.5125 101.799 26.2272C102.161 25.9608 102.494 25.8276 102.798 25.8276C103.179 25.8276 103.54 25.9988 103.882 26.3413C104.244 26.7409 104.787 27.0929 105.509 27.3972C106.232 27.6826 107.003 27.8253 107.821 27.8253C108.905 27.8253 109.743 27.6446 110.332 27.2831C110.941 26.9216 111.245 26.4365 111.245 25.8276C111.245 25.2378 110.951 24.7527 110.361 24.3721C109.771 23.9726 108.772 23.6397 107.364 23.3733C103.711 22.6693 101.885 21.1663 101.885 18.8641C101.885 17.9319 102.161 17.1423 102.712 16.4954C103.264 15.8486 103.987 15.3634 104.881 15.0399C105.776 14.7165 106.727 14.5548 107.735 14.5548Z" fill="#828282"/>
<path d="M123.26 27.4258C123.602 27.4258 123.888 27.5589 124.116 27.8253C124.363 28.0917 124.487 28.4342 124.487 28.8527C124.487 29.2713 124.325 29.6137 124.002 29.8801C123.697 30.1465 123.297 30.2797 122.803 30.2797H122.289C121.357 30.2797 120.501 30.0418 119.721 29.5662C118.959 29.0715 118.36 28.4056 117.923 27.5685C117.485 26.7313 117.267 25.7895 117.267 24.7431V17.6941H115.954C115.554 17.6941 115.231 17.5799 114.983 17.3516C114.736 17.1233 114.612 16.8379 114.612 16.4954C114.612 16.1149 114.736 15.8105 114.983 15.5822C115.231 15.3539 115.554 15.2397 115.954 15.2397H117.267V11.1301C117.267 10.7116 117.4 10.3691 117.666 10.1027C117.932 9.83635 118.275 9.70319 118.693 9.70319C119.112 9.70319 119.454 9.83635 119.721 10.1027C119.987 10.3691 120.12 10.7116 120.12 11.1301V15.2397H122.546C122.946 15.2397 123.269 15.3539 123.517 15.5822C123.764 15.8105 123.888 16.1149 123.888 16.4954C123.888 16.8379 123.764 17.1233 123.517 17.3516C123.269 17.5799 122.946 17.6941 122.546 17.6941H120.12V24.7431C120.12 25.5042 120.329 26.1415 120.748 26.6552C121.167 27.1689 121.68 27.4258 122.289 27.4258H123.26Z" fill="#828282"/>
<defs>
<linearGradient id="paint0_linear" x1="17.4087" y1="0" x2="17.4087" y2="38.884" gradientUnits="userSpaceOnUse">
<stop stop-color="#77BDD9"/>
<stop offset="1" stop-color="white" stop-opacity="0"/>
</linearGradient>
</defs>
</svg>
