<svg width="245" height="245" viewBox="0 0 245 245" fill="none" xmlns="http://www.w3.org/2000/svg">
<path d="M39.8439 47.9787C51.1139 47.9787 60.11 51.1738 66.8344 57.5681C73.5567 63.9604 76.9178 72.6609 76.9178 83.6697C76.9178 90.4568 75.3527 96.6041 72.2223 102.107C69.092 107.611 63.7688 112.867 56.2548 117.877C64.6921 123.874 70.6896 130.021 74.2492 136.316C77.8087 142.609 79.5885 149.482 79.5885 156.929C79.5885 168.727 75.9621 178.252 68.7134 185.503C61.4626 192.751 51.8388 196.378 39.8439 196.378C27.3853 196.378 17.6319 193.033 10.5795 186.343C3.52719 179.653 0 170.112 0 157.72C0 149.415 1.76359 142.083 5.28876 135.723C8.81595 129.361 14.2707 123.809 21.6511 119.063C14.7972 113.592 9.90326 108.073 6.96934 102.502C4.03744 96.9341 2.57149 90.6552 2.57149 83.6697C2.57149 72.8593 6.04806 64.2094 13.0012 57.7159C19.9543 51.2244 28.9019 47.9787 39.8439 47.9787ZM25.5083 156.335C25.5083 162.137 26.7111 166.749 29.1165 170.177C31.522 173.605 34.9662 175.318 39.447 175.318C44.3247 175.318 47.9674 173.605 50.3728 170.177C52.7783 166.749 53.981 162.137 53.981 156.335C53.981 152.183 53.0253 148.263 51.1139 144.571C49.2025 140.88 45.5113 136.628 40.0403 131.817L38.6573 130.432C34.3729 133.597 31.1109 137.205 28.8695 141.259C26.6281 145.313 25.5083 150.338 25.5083 156.335ZM39.6455 68.8381C35.8895 68.8381 33.0547 70.2069 31.1433 72.9423C29.2319 75.6778 28.2762 79.5816 28.2762 84.6578C28.2762 89.0071 29.0659 92.7975 30.6493 96.027C32.2307 99.2566 35.2962 102.685 39.8439 106.309C44.1931 102.948 47.1757 99.5866 48.7914 96.2255C50.4052 92.8643 51.2131 89.0071 51.2131 84.6578C51.2131 74.1127 47.3579 68.8381 39.6455 68.8381Z" fill="white"/>
<g filter="url(#filter0_d)">
<path d="M168.967 122.129C168.967 148.296 165.821 167.211 159.526 178.878C153.231 190.545 143.099 196.378 129.124 196.378C115.15 196.378 105.116 190.511 99.0189 178.779C92.9223 167.047 89.8749 148.164 89.8749 122.129C89.8749 96.0276 93.0701 77.0776 99.4644 65.2811C105.859 53.4826 115.877 47.5824 129.52 47.5824C143.427 47.5824 153.478 53.351 159.674 64.8843C165.869 76.4195 168.967 95.5012 168.967 122.129ZM116.766 122.129C116.766 142.363 117.639 155.99 119.386 163.01C121.134 170.03 124.444 173.539 129.322 173.539C132.618 173.539 135.172 172.024 136.984 168.991C138.798 165.96 140.098 160.934 140.89 153.914C141.681 146.894 142.076 136.299 142.076 122.129C142.076 102.223 141.153 88.6452 139.308 81.3965C137.462 74.1457 134.133 70.5193 129.322 70.5193C124.444 70.5193 121.134 74.1295 119.386 81.3458C117.639 88.5642 116.766 102.157 116.766 122.129Z" fill="white"/>
<path d="M168.963 122.129C168.963 148.296 165.817 167.21 159.522 178.876C156.375 184.709 152.269 189.083 147.203 192C142.137 194.916 136.111 196.374 129.124 196.374C122.138 196.374 116.136 194.907 111.12 191.974C106.103 189.041 102.071 184.642 99.0226 178.777C92.9264 167.046 89.8791 148.164 89.8791 122.129C89.8791 96.0278 93.0742 77.0786 99.468 65.2831C102.665 59.3844 106.768 54.9603 111.776 52.0109C116.785 49.0615 122.699 47.5865 129.52 47.5865C136.473 47.5865 142.462 49.0286 147.486 51.912C152.511 54.7953 156.572 59.1202 159.67 64.8862C165.865 76.4205 168.963 95.5013 168.963 122.129ZM116.762 122.129C116.762 142.363 117.635 155.99 119.382 163.011C120.256 166.521 121.521 169.154 123.177 170.91C124.834 172.665 126.882 173.543 129.322 173.543C132.62 173.543 135.174 172.027 136.987 168.993C138.802 165.961 140.102 160.935 140.894 153.915C141.685 146.895 142.08 136.299 142.08 122.129C142.08 102.224 141.157 88.6448 139.312 81.3954C138.389 77.7697 137.095 75.0497 135.43 73.236C133.765 71.4222 131.729 70.5151 129.322 70.5151C126.882 70.5151 124.834 71.4182 123.177 73.2236C121.521 75.0289 120.256 77.7363 119.382 81.3449C117.635 88.5638 116.762 102.157 116.762 122.129Z" stroke="black" stroke-width="0.00826446"/>
</g>
<path d="M184.763 70.2722C184.763 74.8523 185.059 78.1892 185.652 80.2828C186.245 82.3744 187.233 83.4212 188.618 83.4212C190.003 83.4212 191.007 82.3744 191.633 80.2828C192.259 78.1892 192.573 74.8523 192.573 70.2722C192.573 65.6922 192.251 62.3553 191.609 60.2617C190.967 58.17 189.969 57.1232 188.618 57.1232C187.233 57.1232 186.245 58.17 185.652 60.2617C185.059 62.3553 184.763 65.6922 184.763 70.2722ZM203.101 70.173C203.101 77.6222 201.858 83.2815 199.37 87.1529C196.881 91.0264 193.265 92.9621 188.519 92.9621C183.609 92.9621 180.001 91.0669 177.692 87.2764C175.386 83.4881 174.232 77.8531 174.232 70.3714C174.232 55.1794 178.994 47.5824 188.519 47.5824C198.242 47.5824 203.101 55.1126 203.101 70.173ZM226.484 99.1417C226.484 103.722 226.781 107.059 227.375 109.152C227.968 111.244 228.956 112.291 230.339 112.291C231.724 112.291 232.728 111.244 233.356 109.152C233.982 107.059 234.295 103.722 234.295 99.1417C234.295 94.5596 233.974 91.2329 233.33 89.1555C232.688 87.08 231.692 86.0413 230.339 86.0413C228.988 86.0413 228.008 87.08 227.399 89.1555C226.79 91.2329 226.484 94.5596 226.484 99.1417ZM244.824 99.0425C244.824 106.49 243.571 112.143 241.066 115.998C238.562 119.853 234.954 121.783 230.242 121.783C225.297 121.783 221.681 119.896 219.391 116.122C217.101 112.347 215.955 106.721 215.955 99.241C215.955 91.8586 217.133 86.2155 219.49 82.3096C221.845 78.4038 225.429 76.4519 230.242 76.4519C239.963 76.4519 244.824 83.9821 244.824 99.0425ZM229.549 48.6211L199.692 120.892H189.458L219.217 48.6211H229.549Z" fill="white"/>
<defs>
<filter id="filter0_d" x="85.8749" y="47.5824" width="87.0925" height="156.796" filterUnits="userSpaceOnUse" color-interpolation-filters="sRGB">
<feFlood flood-opacity="0" result="BackgroundImageFix"/>
<feColorMatrix in="SourceAlpha" type="matrix" values="0 0 0 0 0 0 0 0 0 0 0 0 0 0 0 0 0 0 127 0"/>
<feOffset dy="4"/>
<feGaussianBlur stdDeviation="2"/>
<feColorMatrix type="matrix" values="0 0 0 0 0 0 0 0 0 0 0 0 0 0 0 0 0 0 0.25 0"/>
<feBlend mode="normal" in2="BackgroundImageFix" result="effect1_dropShadow"/>
<feBlend mode="normal" in="SourceGraphic" in2="effect1_dropShadow" result="shape"/>
</filter>
</defs>
</svg>
