<svg width="32" height="32" viewBox="0 0 32 32" fill="none" xmlns="http://www.w3.org/2000/svg">
<path d="M23.1992 13.9492C22.6133 13.9492 22.0977 14.1914 21.7188 14.5703C20.3242 13.6055 18.4453 12.9844 16.3633 12.918L17.4453 8.04297L20.8906 8.81641C20.8906 9.66016 21.5781 10.3477 22.4219 10.3477C23.2813 10.3477 23.9727 9.64062 23.9727 8.79687C23.9727 7.95312 23.2852 7.24609 22.4219 7.24609C21.8203 7.24609 21.3008 7.60938 21.043 8.10547L17.2383 7.26172C17.0469 7.21094 16.8594 7.34766 16.8086 7.53906L15.6211 12.9141C13.5547 13 11.6953 13.6211 10.2969 14.5859C9.91798 14.1914 9.38283 13.9492 8.79689 13.9492C6.62501 13.9492 5.91407 16.8633 7.90236 17.8594C7.83204 18.168 7.80079 18.4961 7.80079 18.8242C7.80079 22.0977 11.4883 24.75 16.0156 24.75C20.5625 24.75 24.25 22.0977 24.25 18.8242C24.25 18.4961 24.2149 18.1523 24.1289 17.8438C26.0782 16.8438 25.3594 13.9492 23.1992 13.9492ZM11.0547 18.0664C11.0547 17.207 11.7422 16.5156 12.6055 16.5156C13.4492 16.5156 14.1367 17.2031 14.1367 18.0664C14.1367 18.9102 13.4492 19.5977 12.6055 19.5977C11.7461 19.6016 11.0547 18.9102 11.0547 18.0664ZM19.4258 21.7188C18.0039 23.1406 13.9922 23.1406 12.5703 21.7188C12.4141 21.582 12.4141 21.3398 12.5703 21.1836C12.707 21.0469 12.9492 21.0469 13.086 21.1836C14.1719 22.2969 17.7735 22.3164 18.9063 21.1836C19.043 21.0469 19.2852 21.0469 19.4219 21.1836C19.5821 21.3398 19.5821 21.582 19.4258 21.7188ZM19.3946 19.6016C18.5508 19.6016 17.8633 18.9141 17.8633 18.0703C17.8633 17.2109 18.5508 16.5195 19.3946 16.5195C20.2539 16.5195 20.9453 17.207 20.9453 18.0703C20.9414 18.9102 20.2539 19.6016 19.3946 19.6016Z" fill="#77BDD9"/>
<circle cx="16" cy="16" r="15.5" stroke="#77BDD9"/>
</svg>
