<svg width="32" height="32" viewBox="0 0 32 32" fill="none" xmlns="http://www.w3.org/2000/svg">
<path d="M24.9441 11.9261C24.9568 12.1038 24.9568 12.2815 24.9568 12.4591C24.9568 17.8779 20.8325 24.1216 13.2944 24.1216C10.9721 24.1216 8.81473 23.4489 7 22.2815C7.32996 22.3195 7.64719 22.3322 7.98984 22.3322C9.90605 22.3322 11.67 21.685 13.0787 20.581C11.2766 20.5429 9.76648 19.3627 9.24617 17.7383C9.5 17.7764 9.75379 17.8018 10.0203 17.8018C10.3883 17.8018 10.7564 17.751 11.099 17.6622C9.22082 17.2814 7.81215 15.6317 7.81215 13.6393V13.5886C8.35781 13.8932 8.99238 14.0835 9.66492 14.1089C8.56086 13.3728 7.83754 12.1165 7.83754 10.6952C7.83754 9.93375 8.04055 9.23578 8.3959 8.62664C10.4137 11.1139 13.4467 12.7383 16.8477 12.916C16.7842 12.6114 16.7461 12.2942 16.7461 11.9769C16.7461 9.71801 18.5736 7.87793 20.8451 7.87793C22.0253 7.87793 23.0913 8.37285 23.84 9.17234C24.7664 8.99469 25.6547 8.65203 26.4416 8.1825C26.137 9.1343 25.4898 9.93379 24.6395 10.4414C25.4644 10.3526 26.2639 10.1241 26.9999 9.80687C26.4416 10.619 25.7436 11.3423 24.9441 11.9261Z" fill="#828282"/>
<circle cx="16" cy="16" r="15.5" stroke="#828282"/>
</svg>
