<svg width="288" height="967" viewBox="0 0 288 967" fill="none" xmlns="http://www.w3.org/2000/svg">
<path d="M287.568 59H0V966.895H287.568V59Z" fill="black" fill-opacity="0.3"/>
<path d="M266.378 915.448V929.066H280V915.448H266.378Z" fill="#522891" fill-opacity="0.5"/>
<path d="M249.73 915.448V929.066H263.351V915.448H249.73Z" fill="#522891" fill-opacity="0.5"/>
<path d="M233.081 915.448V929.066H246.703V915.448H233.081Z" fill="#522891" fill-opacity="0.5"/>
<path d="M216.432 915.448V929.066H230.054V915.448H216.432Z" fill="#522891" fill-opacity="0.5"/>
<path d="M266.378 897.289V910.908H280V897.289H266.378Z" fill="#7C009A" fill-opacity="0.5"/>
<path d="M249.73 897.289V910.908H263.351V897.289H249.73Z" fill="#7C009A" fill-opacity="0.5"/>
<path d="M233.081 897.289V910.908H246.703V897.289H233.081Z" fill="#7C009A" fill-opacity="0.5"/>
<path d="M216.432 897.289V910.908H230.054V897.289H216.432Z" fill="#7C009A" fill-opacity="0.5"/>
<path d="M199.784 897.289V910.908H213.405V897.289H199.784Z" fill="#7C009A" fill-opacity="0.5"/>
<path d="M183.135 897.289V910.908H196.757V897.289H183.135Z" fill="#7C009A" fill-opacity="0.5"/>
<path d="M166.487 897.289V910.908H180.108V897.289H166.487Z" fill="#7C009A" fill-opacity="0.5"/>
<path d="M266.378 879.132V892.75H280V879.132H266.378Z" fill="#B900E8" fill-opacity="0.5"/>
<path d="M249.73 879.132V892.75H263.351V879.132H249.73Z" fill="#B900E8" fill-opacity="0.5"/>
<path d="M233.081 879.132V892.75H246.703V879.132H233.081Z" fill="#B900E8" fill-opacity="0.5"/>
<path d="M216.432 879.132V892.75H230.054V879.132H216.432Z" fill="#B900E8" fill-opacity="0.5"/>
<path d="M199.784 879.132V892.75H213.405V879.132H199.784Z" fill="#B900E8" fill-opacity="0.5"/>
<path d="M183.135 879.132V892.75H196.757V879.132H183.135Z" fill="#B900E8" fill-opacity="0.5"/>
<path d="M266.378 860.974V874.592H280V860.974H266.378Z" fill="#C94DE8" fill-opacity="0.5"/>
<path d="M249.73 860.974V874.592H263.351V860.974H249.73Z" fill="#C94DE8" fill-opacity="0.5"/>
<path d="M233.081 860.974V874.592H246.703V860.974H233.081Z" fill="#C94DE8" fill-opacity="0.5"/>
<path d="M216.432 860.974V874.592H230.054V860.974H216.432Z" fill="#C94DE8" fill-opacity="0.5"/>
<path d="M199.784 860.974V874.592H213.405V860.974H199.784Z" fill="#C94DE8" fill-opacity="0.5"/>
<path d="M183.135 860.974V874.592H196.757V860.974H183.135Z" fill="#C94DE8" fill-opacity="0.5"/>
<path d="M166.487 860.974V874.592H180.108V860.974H166.487Z" fill="#C94DE8" fill-opacity="0.5"/>
<path d="M266.378 842.816V856.434H280V842.816H266.378Z" fill="#E84D8B" fill-opacity="0.5"/>
<path d="M249.73 842.816V856.434H263.351V842.816H249.73Z" fill="#E84D8B" fill-opacity="0.5"/>
<path d="M233.081 842.816V856.434H246.703V842.816H233.081Z" fill="#E84D8B" fill-opacity="0.5"/>
<path d="M216.432 842.816V856.434H230.054V842.816H216.432Z" fill="#E84D8B" fill-opacity="0.5"/>
<path d="M199.784 842.816V856.434H213.405V842.816H199.784Z" fill="#E84D8B" fill-opacity="0.5"/>
<path d="M266.378 824.658V838.276H280V824.658H266.378Z" fill="#9A003E" fill-opacity="0.5"/>
<path d="M249.73 824.658V838.276H263.351V824.658H249.73Z" fill="#9A003E" fill-opacity="0.5"/>
<path d="M233.081 824.658V838.276H246.703V824.658H233.081Z" fill="#9A003E" fill-opacity="0.5"/>
<path d="M216.432 824.658V838.276H230.054V824.658H216.432Z" fill="#9A003E" fill-opacity="0.5"/>
<path d="M199.784 824.658V838.276H213.405V824.658H199.784Z" fill="#9A003E" fill-opacity="0.5"/>
<path d="M183.135 824.658V838.276H196.757V824.658H183.135Z" fill="#9A003E" fill-opacity="0.5"/>
<path d="M166.487 824.658V838.276H180.108V824.658H166.487Z" fill="#9A003E" fill-opacity="0.5"/>
<path d="M266.378 806.5V820.118H280V806.5H266.378Z" fill="#E82626" fill-opacity="0.5"/>
<path d="M249.73 806.5V820.118H263.351V806.5H249.73Z" fill="#E82626" fill-opacity="0.5"/>
<path d="M233.081 806.5V820.118H246.703V806.5H233.081Z" fill="#E82626" fill-opacity="0.5"/>
<path d="M216.432 806.5V820.118H230.054V806.5H216.432Z" fill="#E82626" fill-opacity="0.5"/>
<path d="M266.378 788.342V801.96H280V788.342H266.378Z" fill="#E82626" fill-opacity="0.5"/>
<path d="M249.73 788.342V801.96H263.351V788.342H249.73Z" fill="#E82626" fill-opacity="0.5"/>
<path d="M233.081 788.342V801.96H246.703V788.342H233.081Z" fill="#E82626" fill-opacity="0.5"/>
<path d="M216.432 788.342V801.96H230.054V788.342H216.432Z" fill="#E82626" fill-opacity="0.5"/>
<path d="M199.784 788.342V801.96H213.405V788.342H199.784Z" fill="#E82626" fill-opacity="0.5"/>
<path d="M183.135 788.342V801.96H196.757V788.342H183.135Z" fill="#E82626" fill-opacity="0.5"/>
<path d="M166.487 788.342V801.96H180.108V788.342H166.487Z" fill="#E82626" fill-opacity="0.5"/>
<path d="M266.378 770.184V783.803H280V770.184H266.378Z" fill="#E87326" fill-opacity="0.5"/>
<path d="M249.73 770.184V783.803H263.351V770.184H249.73Z" fill="#E87326" fill-opacity="0.5"/>
<path d="M233.081 770.184V783.803H246.703V770.184H233.081Z" fill="#E87326" fill-opacity="0.5"/>
<path d="M216.432 770.184V783.803H230.054V770.184H216.432Z" fill="#E87326" fill-opacity="0.5"/>
<path d="M199.784 770.184V783.803H213.405V770.184H199.784Z" fill="#E87326" fill-opacity="0.5"/>
<path d="M266.378 752.026V765.645H280V752.026H266.378Z" fill="#E85D00" fill-opacity="0.5"/>
<path d="M249.73 752.026V765.645H263.351V752.026H249.73Z" fill="#E85D00" fill-opacity="0.5"/>
<path d="M233.081 752.026V765.645H246.703V752.026H233.081Z" fill="#E85D00" fill-opacity="0.5"/>
<path d="M216.432 752.026V765.645H230.054V752.026H216.432Z" fill="#E85D00" fill-opacity="0.5"/>
<path d="M199.784 752.026V765.645H213.405V752.026H199.784Z" fill="#E85D00" fill-opacity="0.5"/>
<path d="M183.135 752.026V765.645H196.757V752.026H183.135Z" fill="#E85D00" fill-opacity="0.5"/>
<path d="M266.378 733.868V747.487H280V733.868H266.378Z" fill="#E5E519" fill-opacity="0.5"/>
<path d="M249.73 733.868V747.487H263.351V733.868H249.73Z" fill="#E5E519" fill-opacity="0.5"/>
<path d="M233.081 733.868V747.487H246.703V733.868H233.081Z" fill="#E5E519" fill-opacity="0.5"/>
<path d="M216.432 733.868V747.487H230.054V733.868H216.432Z" fill="#E5E519" fill-opacity="0.5"/>
<path d="M199.784 733.868V747.487H213.405V733.868H199.784Z" fill="#E5E519" fill-opacity="0.5"/>
<path d="M183.135 733.868V747.487H196.757V733.868H183.135Z" fill="#E5E519" fill-opacity="0.5"/>
<path d="M166.487 733.868V747.487H180.108V733.868H166.487Z" fill="#E5E519" fill-opacity="0.5"/>
<path d="M266.378 715.711V729.329H280V715.711H266.378Z" fill="#E8C126" fill-opacity="0.5"/>
<path d="M249.73 715.711V729.329H263.351V715.711H249.73Z" fill="#E8C126" fill-opacity="0.5"/>
<path d="M233.081 715.711V729.329H246.703V715.711H233.081Z" fill="#E8C126" fill-opacity="0.5"/>
<path d="M216.432 715.711V729.329H230.054V715.711H216.432Z" fill="#E8C126" fill-opacity="0.5"/>
<path d="M266.378 697.552V711.171H280V697.552H266.378Z" fill="#F0E464" fill-opacity="0.5"/>
<path d="M249.73 697.552V711.171H263.351V697.552H249.73Z" fill="#F0E464" fill-opacity="0.5"/>
<path d="M233.081 697.552V711.171H246.703V697.552H233.081Z" fill="#F0E464" fill-opacity="0.5"/>
<path d="M216.432 697.553V711.171H230.054V697.553H216.432Z" fill="#F0E464" fill-opacity="0.5"/>
<path d="M199.784 697.552V711.171H213.405V697.552H199.784Z" fill="#F0E464" fill-opacity="0.5"/>
<path d="M183.135 697.552V711.171H196.757V697.552H183.135Z" fill="#F0E464" fill-opacity="0.5"/>
<path d="M166.487 697.552V711.171H180.108V697.552H166.487Z" fill="#F0E464" fill-opacity="0.5"/>
<path d="M266.378 679.395V693.013H280V679.395H266.378Z" fill="#DCB834" fill-opacity="0.5"/>
<path d="M249.73 679.395V693.013H263.351V679.395H249.73Z" fill="#DCB834" fill-opacity="0.5"/>
<path d="M233.081 679.395V693.013H246.703V679.395H233.081Z" fill="#DCB834" fill-opacity="0.5"/>
<path d="M216.432 679.395V693.013H230.054V679.395H216.432Z" fill="#DCB834" fill-opacity="0.5"/>
<path d="M199.784 679.395V693.013H213.405V679.395H199.784Z" fill="#DCB834" fill-opacity="0.5"/>
<path d="M266.378 661.237V674.855H280V661.237H266.378Z" fill="#C8FC04" fill-opacity="0.5"/>
<path d="M249.73 661.237V674.855H263.351V661.237H249.73Z" fill="#C8FC04" fill-opacity="0.5"/>
<path d="M233.081 661.237V674.855H246.703V661.237H233.081Z" fill="#C8FC04" fill-opacity="0.5"/>
<path d="M266.378 643.079V656.697H280V643.079H266.378Z" fill="#00C800" fill-opacity="0.5"/>
<path d="M249.73 643.079V656.697H263.351V643.079H249.73Z" fill="#00C800" fill-opacity="0.5"/>
<path d="M233.081 643.079V656.697H246.703V643.079H233.081Z" fill="#00C800" fill-opacity="0.5"/>
<path d="M216.432 643.079V656.697H230.054V643.079H216.432Z" fill="#00C800" fill-opacity="0.5"/>
<path d="M199.784 643.079V656.697H213.405V643.079H199.784Z" fill="#00C800" fill-opacity="0.5"/>
<path d="M183.135 643.079V656.697H196.757V643.079H183.135Z" fill="#00C800" fill-opacity="0.5"/>
<path d="M166.487 643.079V656.697H180.108V643.079H166.487Z" fill="#00C800" fill-opacity="0.5"/>
<path d="M266.378 624.921V638.54H280V624.921H266.378Z" fill="#00AC00" fill-opacity="0.5"/>
<path d="M249.73 624.921V638.54H263.351V624.921H249.73Z" fill="#00AC00" fill-opacity="0.5"/>
<path d="M233.081 624.921V638.54H246.703V624.921H233.081Z" fill="#00AC00" fill-opacity="0.5"/>
<path d="M216.432 624.921V638.54H230.054V624.921H216.432Z" fill="#00AC00" fill-opacity="0.5"/>
<path d="M199.784 624.921V638.54H213.405V624.921H199.784Z" fill="#00AC00" fill-opacity="0.5"/>
<path d="M183.135 624.921V638.54H196.757V624.921H183.135Z" fill="#00AC00" fill-opacity="0.5"/>
<path d="M266.378 606.763V620.382H280V606.763H266.378Z" fill="#24D000" fill-opacity="0.5"/>
<path d="M249.73 606.763V620.382H263.351V606.763H249.73Z" fill="#24D000" fill-opacity="0.5"/>
<path d="M233.081 606.763V620.382H246.703V606.763H233.081Z" fill="#24D000" fill-opacity="0.5"/>
<path d="M216.432 606.763V620.382H230.054V606.763H216.432Z" fill="#24D000" fill-opacity="0.5"/>
<path d="M199.784 606.763V620.382H213.405V606.763H199.784Z" fill="#24D000" fill-opacity="0.5"/>
<path d="M183.135 606.763V620.382H196.757V606.763H183.135Z" fill="#24D000" fill-opacity="0.5"/>
<path d="M166.487 606.763V620.382H180.108V606.763H166.487Z" fill="#24D000" fill-opacity="0.5"/>
<path d="M266.378 588.605V602.224H280V588.605H266.378Z" fill="#64E000" fill-opacity="0.5"/>
<path d="M249.73 588.605V602.224H263.351V588.605H249.73Z" fill="#64E000" fill-opacity="0.5"/>
<path d="M233.081 588.605V602.224H246.703V588.605H233.081Z" fill="#64E000" fill-opacity="0.5"/>
<path d="M216.432 588.605V602.224H230.054V588.605H216.432Z" fill="#64E000" fill-opacity="0.5"/>
<path d="M199.784 588.605V602.224H213.405V588.605H199.784Z" fill="#64E000" fill-opacity="0.5"/>
<path d="M266.378 570.448V584.066H280V570.448H266.378Z" fill="#4CD8FC" fill-opacity="0.5"/>
<path d="M249.73 570.448V584.066H263.351V570.448H249.73Z" fill="#4CD8FC" fill-opacity="0.5"/>
<path d="M233.081 570.448V584.066H246.703V570.448H233.081Z" fill="#4CD8FC" fill-opacity="0.5"/>
<path d="M216.432 570.448V584.066H230.054V570.448H216.432Z" fill="#4CD8FC" fill-opacity="0.5"/>
<path d="M199.784 570.448V584.066H213.405V570.448H199.784Z" fill="#4CD8FC" fill-opacity="0.5"/>
<path d="M183.135 570.448V584.066H196.757V570.448H183.135Z" fill="#4CD8FC" fill-opacity="0.5"/>
<path d="M266.378 552.289V565.908H280V552.289H266.378Z" fill="#00B8F8" fill-opacity="0.5"/>
<path d="M249.73 552.289V565.908H263.351V552.289H249.73Z" fill="#00B8F8" fill-opacity="0.5"/>
<path d="M233.081 552.289V565.908H246.703V552.289H233.081Z" fill="#00B8F8" fill-opacity="0.5"/>
<path d="M216.432 552.289V565.908H230.054V552.289H216.432Z" fill="#00B8F8" fill-opacity="0.5"/>
<path d="M199.784 552.289V565.908H213.405V552.289H199.784Z" fill="#00B8F8" fill-opacity="0.5"/>
<path d="M183.135 552.289V565.908H196.757V552.289H183.135Z" fill="#00B8F8" fill-opacity="0.5"/>
<path d="M166.487 552.289V565.908H180.108V552.289H166.487Z" fill="#00B8F8" fill-opacity="0.5"/>
<path d="M266.378 534.132V547.75H280V534.132H266.378Z" fill="#0074E4" fill-opacity="0.5"/>
<path d="M249.73 534.132V547.75H263.351V534.132H249.73Z" fill="#0074E4" fill-opacity="0.5"/>
<path d="M233.081 534.132V547.75H246.703V534.132H233.081Z" fill="#0074E4" fill-opacity="0.5"/>
<path d="M216.432 534.132V547.75H230.054V534.132H216.432Z" fill="#0074E4" fill-opacity="0.5"/>
<path d="M266.378 515.974V529.592H280V515.974H266.378Z" fill="#0004C8" fill-opacity="0.5"/>
<path d="M249.73 515.974V529.592H263.351V515.974H249.73Z" fill="#0004C8" fill-opacity="0.5"/>
<path d="M233.081 515.974V529.592H246.703V515.974H233.081Z" fill="#0004C8" fill-opacity="0.5"/>
<path d="M216.432 515.974V529.592H230.054V515.974H216.432Z" fill="#0004C8" fill-opacity="0.5"/>
<path d="M199.784 515.974V529.592H213.405V515.974H199.784Z" fill="#0004C8" fill-opacity="0.5"/>
<path d="M183.135 515.974V529.592H196.757V515.974H183.135Z" fill="#0004C8" fill-opacity="0.5"/>
<path d="M166.487 515.974V529.592H180.108V515.974H166.487Z" fill="#0004C8" fill-opacity="0.5"/>
<path d="M266.378 497.816V511.434H280V497.816H266.378Z" fill="#0004C8" fill-opacity="0.5"/>
<path d="M249.73 497.816V511.434H263.351V497.816H249.73Z" fill="#0004C8" fill-opacity="0.5"/>
<path d="M233.081 497.816V511.434H246.703V497.816H233.081Z" fill="#0004C8" fill-opacity="0.5"/>
<path d="M216.432 497.816V511.434H230.054V497.816H216.432Z" fill="#0004C8" fill-opacity="0.5"/>
<path d="M199.784 497.816V511.434H213.405V497.816H199.784Z" fill="#0004C8" fill-opacity="0.5"/>
<path d="M183.135 497.816V511.434H196.757V497.816H183.135Z" fill="#0004C8" fill-opacity="0.5"/>
<path d="M266.378 479.658V493.276H280V479.658H266.378Z" fill="#0074E4" fill-opacity="0.5"/>
<path d="M249.73 479.658V493.276H263.351V479.658H249.73Z" fill="#0074E4" fill-opacity="0.5"/>
<path d="M233.081 479.658V493.276H246.703V479.658H233.081Z" fill="#0074E4" fill-opacity="0.5"/>
<path d="M216.432 479.658V493.276H230.054V479.658H216.432Z" fill="#0074E4" fill-opacity="0.5"/>
<path d="M199.784 479.658V493.276H213.405V479.658H199.784Z" fill="#0074E4" fill-opacity="0.5"/>
<path d="M266.378 461.5V475.119H280V461.5H266.378Z" fill="#00B8F8" fill-opacity="0.5"/>
<path d="M249.73 461.5V475.119H263.351V461.5H249.73Z" fill="#00B8F8" fill-opacity="0.5"/>
<path d="M233.081 461.5V475.119H246.703V461.5H233.081Z" fill="#00B8F8" fill-opacity="0.5"/>
<path d="M216.432 461.5V475.119H230.054V461.5H216.432Z" fill="#00B8F8" fill-opacity="0.5"/>
<path d="M199.784 461.5V475.119H213.405V461.5H199.784Z" fill="#00B8F8" fill-opacity="0.5"/>
<path d="M183.135 461.5V475.119H196.757V461.5H183.135Z" fill="#00B8F8" fill-opacity="0.5"/>
<path d="M166.487 461.5V475.119H180.108V461.5H166.487Z" fill="#00B8F8" fill-opacity="0.5"/>
<path d="M266.378 443.342V456.96H280V443.342H266.378Z" fill="#4CD8FC" fill-opacity="0.5"/>
<path d="M249.73 443.342V456.96H263.351V443.342H249.73Z" fill="#4CD8FC" fill-opacity="0.5"/>
<path d="M233.081 443.342V456.96H246.703V443.342H233.081Z" fill="#4CD8FC" fill-opacity="0.5"/>
<path d="M216.432 443.342V456.96H230.054V443.342H216.432Z" fill="#4CD8FC" fill-opacity="0.5"/>
<path d="M199.784 443.342V456.96H213.405V443.342H199.784Z" fill="#4CD8FC" fill-opacity="0.5"/>
<path d="M183.135 443.342V456.96H196.757V443.342H183.135Z" fill="#4CD8FC" fill-opacity="0.5"/>
<path d="M266.378 425.184V438.803H280V425.184H266.378Z" fill="#64E000" fill-opacity="0.5"/>
<path d="M249.73 425.184V438.803H263.351V425.184H249.73Z" fill="#64E000" fill-opacity="0.5"/>
<path d="M233.081 425.184V438.803H246.703V425.184H233.081Z" fill="#64E000" fill-opacity="0.5"/>
<path d="M216.432 425.184V438.803H230.054V425.184H216.432Z" fill="#64E000" fill-opacity="0.5"/>
<path d="M266.378 407.026V420.645H280V407.026H266.378Z" fill="#24D000" fill-opacity="0.5"/>
<path d="M249.73 407.026V420.645H263.351V407.026H249.73Z" fill="#24D000" fill-opacity="0.5"/>
<path d="M233.081 407.026V420.645H246.703V407.026H233.081Z" fill="#24D000" fill-opacity="0.5"/>
<path d="M216.432 407.026V420.645H230.054V407.026H216.432Z" fill="#24D000" fill-opacity="0.5"/>
<path d="M199.784 407.026V420.645H213.405V407.026H199.784Z" fill="#24D000" fill-opacity="0.5"/>
<path d="M183.135 407.026V420.645H196.757V407.026H183.135Z" fill="#24D000" fill-opacity="0.5"/>
<path d="M166.487 407.026V420.645H180.108V407.026H166.487Z" fill="#24D000" fill-opacity="0.5"/>
<path d="M266.378 388.868V402.487H280V388.868H266.378Z" fill="#00AC00" fill-opacity="0.5"/>
<path d="M249.73 388.868V402.487H263.351V388.868H249.73Z" fill="#00AC00" fill-opacity="0.5"/>
<path d="M233.081 388.868V402.487H246.703V388.868H233.081Z" fill="#00AC00" fill-opacity="0.5"/>
<path d="M216.432 388.868V402.487H230.054V388.868H216.432Z" fill="#00AC00" fill-opacity="0.5"/>
<path d="M199.784 388.868V402.487H213.405V388.868H199.784Z" fill="#00AC00" fill-opacity="0.5"/>
<path d="M266.378 370.711V384.329H280V370.711H266.378Z" fill="#00C800" fill-opacity="0.5"/>
<path d="M249.73 370.711V384.329H263.351V370.711H249.73Z" fill="#00C800" fill-opacity="0.5"/>
<path d="M233.081 370.711V384.329H246.703V370.711H233.081Z" fill="#00C800" fill-opacity="0.5"/>
<path d="M216.432 370.711V384.329H230.054V370.711H216.432Z" fill="#00C800" fill-opacity="0.5"/>
<path d="M199.784 370.711V384.329H213.405V370.711H199.784Z" fill="#00C800" fill-opacity="0.5"/>
<path d="M183.135 370.711V384.329H196.757V370.711H183.135Z" fill="#00C800" fill-opacity="0.5"/>
<path d="M266.378 352.552V366.171H280V352.552H266.378Z" fill="#C8FC04" fill-opacity="0.5"/>
<path d="M249.73 352.552V366.171H263.351V352.552H249.73Z" fill="#C8FC04" fill-opacity="0.5"/>
<path d="M233.081 352.552V366.171H246.703V352.552H233.081Z" fill="#C8FC04" fill-opacity="0.5"/>
<path d="M216.432 352.552V366.171H230.054V352.552H216.432Z" fill="#C8FC04" fill-opacity="0.5"/>
<path d="M266.378 334.395V348.013H280V334.395H266.378Z" fill="#DCB834" fill-opacity="0.5"/>
<path d="M249.73 334.395V348.013H263.351V334.395H249.73Z" fill="#DCB834" fill-opacity="0.5"/>
<path d="M233.081 334.395V348.013H246.703V334.395H233.081Z" fill="#DCB834" fill-opacity="0.5"/>
<path d="M216.432 334.395V348.013H230.054V334.395H216.432Z" fill="#DCB834" fill-opacity="0.5"/>
<path d="M199.784 334.395V348.013H213.405V334.395H199.784Z" fill="#DCB834" fill-opacity="0.5"/>
<path d="M183.135 334.395V348.013H196.757V334.395H183.135Z" fill="#DCB834" fill-opacity="0.5"/>
<path d="M166.487 334.395V348.013H180.108V334.395H166.487Z" fill="#DCB834" fill-opacity="0.5"/>
<path d="M266.378 316.237V329.855H280V316.237H266.378Z" fill="#F0E464" fill-opacity="0.5"/>
<path d="M249.73 316.237V329.855H263.351V316.237H249.73Z" fill="#F0E464" fill-opacity="0.5"/>
<path d="M233.081 316.237V329.855H246.703V316.237H233.081Z" fill="#F0E464" fill-opacity="0.5"/>
<path d="M216.432 316.237V329.855H230.054V316.237H216.432Z" fill="#F0E464" fill-opacity="0.5"/>
<path d="M199.784 316.237V329.855H213.405V316.237H199.784Z" fill="#F0E464" fill-opacity="0.5"/>
<path d="M183.135 316.237V329.855H196.757V316.237H183.135Z" fill="#F0E464" fill-opacity="0.5"/>
<path d="M266.378 298.079V311.697H280V298.079H266.378Z" fill="#E8C126" fill-opacity="0.5"/>
<path d="M249.73 298.079V311.697H263.351V298.079H249.73Z" fill="#E8C126" fill-opacity="0.5"/>
<path d="M233.081 298.079V311.697H246.703V298.079H233.081Z" fill="#E8C126" fill-opacity="0.5"/>
<path d="M216.432 298.079V311.697H230.054V298.079H216.432Z" fill="#E8C126" fill-opacity="0.5"/>
<path d="M199.784 298.079V311.697H213.405V298.079H199.784Z" fill="#E8C126" fill-opacity="0.5"/>
<path d="M183.135 298.079V311.697H196.757V298.079H183.135Z" fill="#E8C126" fill-opacity="0.5"/>
<path d="M166.487 298.079V311.697H180.108V298.079H166.487Z" fill="#E8C126" fill-opacity="0.5"/>
<path d="M266.378 279.921V293.54H280V279.921H266.378Z" fill="#E5E519" fill-opacity="0.5"/>
<path d="M249.73 279.921V293.54H263.351V279.921H249.73Z" fill="#E5E519" fill-opacity="0.5"/>
<path d="M233.081 279.921V293.54H246.703V279.921H233.081Z" fill="#E5E519" fill-opacity="0.5"/>
<path d="M216.432 279.921V293.54H230.054V279.921H216.432Z" fill="#E5E519" fill-opacity="0.5"/>
<path d="M199.784 279.921V293.54H213.405V279.921H199.784Z" fill="#E5E519" fill-opacity="0.5"/>
<path d="M266.378 261.763V275.382H280V261.763H266.378Z" fill="#E85D00" fill-opacity="0.5"/>
<path d="M249.73 261.763V275.382H263.351V261.763H249.73Z" fill="#E85D00" fill-opacity="0.5"/>
<path d="M233.081 261.763V275.382H246.703V261.763H233.081Z" fill="#E85D00" fill-opacity="0.5"/>
<path d="M216.432 261.763V275.381H230.054V261.763H216.432Z" fill="#E85D00" fill-opacity="0.5"/>
<path d="M199.784 261.763V275.381H213.405V261.763H199.784Z" fill="#E85D00" fill-opacity="0.5"/>
<path d="M183.135 261.763V275.381H196.757V261.763H183.135Z" fill="#E85D00" fill-opacity="0.5"/>
<path d="M166.487 261.763V275.381H180.108V261.763H166.487Z" fill="#E85D00" fill-opacity="0.5"/>
<path d="M266.378 243.605V257.224H280V243.605H266.378Z" fill="#E87326" fill-opacity="0.5"/>
<path d="M249.73 243.605V257.224H263.351V243.605H249.73Z" fill="#E87326" fill-opacity="0.5"/>
<path d="M233.081 243.605V257.224H246.703V243.605H233.081Z" fill="#E87326" fill-opacity="0.5"/>
<path d="M216.432 243.605V257.224H230.054V243.605H216.432Z" fill="#E87326" fill-opacity="0.5"/>
<path d="M266.378 225.447V239.066H280V225.447H266.378Z" fill="#E82626" fill-opacity="0.5"/>
<path d="M249.73 225.447V239.066H263.351V225.447H249.73Z" fill="#E82626" fill-opacity="0.5"/>
<path d="M233.081 225.447V239.066H246.703V225.447H233.081Z" fill="#E82626" fill-opacity="0.5"/>
<path d="M216.432 225.448V239.066H230.054V225.448H216.432Z" fill="#E82626" fill-opacity="0.5"/>
<path d="M199.784 225.447V239.066H213.405V225.447H199.784Z" fill="#E82626" fill-opacity="0.5"/>
<path d="M183.135 225.447V239.066H196.757V225.447H183.135Z" fill="#E82626" fill-opacity="0.5"/>
<path d="M266.378 207.289V220.908H280V207.289H266.378Z" fill="#E82626" fill-opacity="0.5"/>
<path d="M249.73 207.289V220.908H263.351V207.289H249.73Z" fill="#E82626" fill-opacity="0.5"/>
<path d="M233.081 207.289V220.908H246.703V207.289H233.081Z" fill="#E82626" fill-opacity="0.5"/>
<path d="M216.432 207.289V220.908H230.054V207.289H216.432Z" fill="#E82626" fill-opacity="0.5"/>
<path d="M199.784 207.289V220.908H213.405V207.289H199.784Z" fill="#E82626" fill-opacity="0.5"/>
<path d="M183.135 207.289V220.908H196.757V207.289H183.135Z" fill="#E82626" fill-opacity="0.5"/>
<path d="M166.487 207.289V220.908H180.108V207.289H166.487Z" fill="#E82626" fill-opacity="0.5"/>
<path d="M266.378 189.132V202.75H280V189.132H266.378Z" fill="#9A003E" fill-opacity="0.5"/>
<path d="M249.73 189.132V202.75H263.351V189.132H249.73Z" fill="#9A003E" fill-opacity="0.5"/>
<path d="M233.081 189.132V202.75H246.703V189.132H233.081Z" fill="#9A003E" fill-opacity="0.5"/>
<path d="M216.432 189.132V202.75H230.054V189.132H216.432Z" fill="#9A003E" fill-opacity="0.5"/>
<path d="M266.378 170.974V184.592H280V170.974H266.378Z" fill="#E84D8B" fill-opacity="0.5"/>
<path d="M249.73 170.974V184.592H263.351V170.974H249.73Z" fill="#E84D8B" fill-opacity="0.5"/>
<path d="M233.081 170.974V184.592H246.703V170.974H233.081Z" fill="#E84D8B" fill-opacity="0.5"/>
<path d="M216.432 170.974V184.592H230.054V170.974H216.432Z" fill="#E84D8B" fill-opacity="0.5"/>
<path d="M199.784 170.974V184.592H213.405V170.974H199.784Z" fill="#E84D8B" fill-opacity="0.5"/>
<path d="M183.135 170.974V184.592H196.757V170.974H183.135Z" fill="#E84D8B" fill-opacity="0.5"/>
<path d="M166.487 170.974V184.592H180.108V170.974H166.487Z" fill="#E84D8B" fill-opacity="0.5"/>
<path d="M266.378 152.816V166.434H280V152.816H266.378Z" fill="#C94DE8" fill-opacity="0.5"/>
<path d="M249.73 152.816V166.434H263.351V152.816H249.73Z" fill="#C94DE8" fill-opacity="0.5"/>
<path d="M233.081 152.816V166.434H246.703V152.816H233.081Z" fill="#C94DE8" fill-opacity="0.5"/>
<path d="M266.378 134.658V148.276H280V134.658H266.378Z" fill="#B900E8" fill-opacity="0.5"/>
<path d="M249.73 134.658V148.276H263.351V134.658H249.73Z" fill="#B900E8" fill-opacity="0.5"/>
<path d="M233.081 134.658V148.276H246.703V134.658H233.081Z" fill="#B900E8" fill-opacity="0.5"/>
<path d="M216.432 134.658V148.276H230.054V134.658H216.432Z" fill="#B900E8" fill-opacity="0.5"/>
<path d="M199.784 134.658V148.276H213.405V134.658H199.784Z" fill="#B900E8" fill-opacity="0.5"/>
<path d="M266.378 116.5V130.119H280V116.5H266.378Z" fill="#7C009A" fill-opacity="0.5"/>
<path d="M249.73 116.5V130.119H263.351V116.5H249.73Z" fill="#7C009A" fill-opacity="0.5"/>
<path d="M233.081 116.5V130.119H246.703V116.5H233.081Z" fill="#7C009A" fill-opacity="0.5"/>
<path d="M216.432 116.5V130.119H230.054V116.5H216.432Z" fill="#7C009A" fill-opacity="0.5"/>
<path d="M199.784 116.5V130.119H213.405V116.5H199.784Z" fill="#7C009A" fill-opacity="0.5"/>
<path d="M183.135 116.5V130.119H196.757V116.5H183.135Z" fill="#7C009A" fill-opacity="0.5"/>
<path d="M166.487 116.5V130.119H180.108V116.5H166.487Z" fill="#7C009A" fill-opacity="0.5"/>
<path d="M266.378 98.342V111.96H280V98.342H266.378Z" fill="#522891" fill-opacity="0.5"/>
<path d="M249.73 98.342V111.96H263.351V98.342H249.73Z" fill="#522891" fill-opacity="0.5"/>
<path d="M233.081 98.342V111.96H246.703V98.342H233.081Z" fill="#522891" fill-opacity="0.5"/>
<path d="M216.432 98.3421V111.96H230.054V98.3421H216.432Z" fill="#522891" fill-opacity="0.5"/>
<path d="M21.1892 915.448L21.1892 929.066L7.56758 929.066L7.56758 915.448L21.1892 915.448Z" fill="#522891" fill-opacity="0.3"/>
<path d="M37.8379 915.448L37.8379 929.066L24.2163 929.066L24.2163 915.448L37.8379 915.448Z" fill="#522891" fill-opacity="0.3"/>
<path d="M54.4865 915.448L54.4865 929.066L40.8648 929.066L40.8648 915.448L54.4865 915.448Z" fill="#522891" fill-opacity="0.3"/>
<path d="M71.1351 915.448L71.1351 929.066L57.5135 929.066L57.5135 915.448L71.1351 915.448Z" fill="#522891" fill-opacity="0.3"/>
<path d="M21.1892 897.289L21.1892 910.908L7.56758 910.908L7.56758 897.289L21.1892 897.289Z" fill="#7C009A" fill-opacity="0.3"/>
<path d="M37.8379 897.289L37.8379 910.908L24.2163 910.908L24.2163 897.289L37.8379 897.289Z" fill="#7C009A" fill-opacity="0.3"/>
<path d="M54.4865 897.289L54.4865 910.908L40.8648 910.908L40.8648 897.289L54.4865 897.289Z" fill="#7C009A" fill-opacity="0.3"/>
<path d="M71.1351 897.289L71.1351 910.908L57.5135 910.908L57.5135 897.289L71.1351 897.289Z" fill="#7C009A" fill-opacity="0.3"/>
<path d="M87.7838 897.289L87.7838 910.908L74.1622 910.908L74.1622 897.289L87.7838 897.289Z" fill="#7C009A" fill-opacity="0.3"/>
<path d="M104.432 897.289L104.432 910.908L90.8108 910.908L90.8108 897.289L104.432 897.289Z" fill="#7C009A" fill-opacity="0.3"/>
<path d="M121.081 897.289L121.081 910.908L107.459 910.908L107.459 897.289L121.081 897.289Z" fill="#7C009A" fill-opacity="0.3"/>
<path d="M21.1892 879.132L21.1892 892.75L7.56758 892.75L7.56758 879.132L21.1892 879.132Z" fill="#B900E8" fill-opacity="0.3"/>
<path d="M37.8379 879.132L37.8379 892.75L24.2163 892.75L24.2163 879.132L37.8379 879.132Z" fill="#B900E8" fill-opacity="0.3"/>
<path d="M54.4865 879.132L54.4865 892.75L40.8648 892.75L40.8648 879.132L54.4865 879.132Z" fill="#B900E8" fill-opacity="0.3"/>
<path d="M71.1351 879.132L71.1351 892.75L57.5135 892.75L57.5135 879.132L71.1351 879.132Z" fill="#B900E8" fill-opacity="0.3"/>
<path d="M87.7838 879.132L87.7838 892.75L74.1622 892.75L74.1622 879.132L87.7838 879.132Z" fill="#B900E8" fill-opacity="0.3"/>
<path d="M104.432 879.132L104.432 892.75L90.8108 892.75L90.8108 879.132L104.432 879.132Z" fill="#B900E8" fill-opacity="0.3"/>
<path d="M21.1892 860.974L21.1892 874.592L7.56758 874.592L7.56758 860.974L21.1892 860.974Z" fill="#C94DE8" fill-opacity="0.3"/>
<path d="M37.8379 860.974L37.8379 874.592L24.2163 874.592L24.2163 860.974L37.8379 860.974Z" fill="#C94DE8" fill-opacity="0.3"/>
<path d="M54.4865 860.974L54.4865 874.592L40.8648 874.592L40.8648 860.974L54.4865 860.974Z" fill="#C94DE8" fill-opacity="0.3"/>
<path d="M71.1351 860.974L71.1351 874.592L57.5135 874.592L57.5135 860.974L71.1351 860.974Z" fill="#C94DE8" fill-opacity="0.3"/>
<path d="M87.7838 860.974L87.7838 874.592L74.1622 874.592L74.1622 860.974L87.7838 860.974Z" fill="#C94DE8" fill-opacity="0.3"/>
<path d="M104.432 860.974L104.432 874.592L90.8108 874.592L90.8108 860.974L104.432 860.974Z" fill="#C94DE8" fill-opacity="0.3"/>
<path d="M121.081 860.974L121.081 874.592L107.459 874.592L107.459 860.974L121.081 860.974Z" fill="#C94DE8" fill-opacity="0.3"/>
<path d="M21.1892 842.816L21.1892 856.434L7.56758 856.434L7.56758 842.816L21.1892 842.816Z" fill="#E84D8B" fill-opacity="0.3"/>
<path d="M37.8379 842.816L37.8379 856.434L24.2163 856.434L24.2163 842.816L37.8379 842.816Z" fill="#E84D8B" fill-opacity="0.3"/>
<path d="M54.4865 842.816L54.4865 856.434L40.8648 856.434L40.8648 842.816L54.4865 842.816Z" fill="#E84D8B" fill-opacity="0.3"/>
<path d="M71.1351 842.816L71.1351 856.434L57.5135 856.434L57.5135 842.816L71.1351 842.816Z" fill="#E84D8B" fill-opacity="0.3"/>
<path d="M87.7838 842.816L87.7838 856.434L74.1622 856.434L74.1622 842.816L87.7838 842.816Z" fill="#E84D8B" fill-opacity="0.3"/>
<path d="M21.1892 824.658L21.1892 838.276L7.56758 838.276L7.56758 824.658L21.1892 824.658Z" fill="#9A003E" fill-opacity="0.3"/>
<path d="M37.8379 824.658L37.8379 838.276L24.2163 838.276L24.2163 824.658L37.8379 824.658Z" fill="#9A003E" fill-opacity="0.3"/>
<path d="M54.4865 824.658L54.4865 838.276L40.8648 838.276L40.8648 824.658L54.4865 824.658Z" fill="#9A003E" fill-opacity="0.3"/>
<path d="M71.1351 824.658L71.1351 838.276L57.5135 838.276L57.5135 824.658L71.1351 824.658Z" fill="#9A003E" fill-opacity="0.3"/>
<path d="M87.7838 824.658L87.7838 838.276L74.1622 838.276L74.1622 824.658L87.7838 824.658Z" fill="#9A003E" fill-opacity="0.3"/>
<path d="M104.432 824.658L104.432 838.276L90.8108 838.276L90.8108 824.658L104.432 824.658Z" fill="#9A003E" fill-opacity="0.3"/>
<path d="M121.081 824.658L121.081 838.276L107.459 838.276L107.459 824.658L121.081 824.658Z" fill="#9A003E" fill-opacity="0.3"/>
<path d="M21.1892 806.5L21.1892 820.118L7.56758 820.118L7.56758 806.5L21.1892 806.5Z" fill="#E82626" fill-opacity="0.3"/>
<path d="M37.8379 806.5L37.8379 820.118L24.2163 820.118L24.2163 806.5L37.8379 806.5Z" fill="#E82626" fill-opacity="0.3"/>
<path d="M54.4865 806.5L54.4865 820.118L40.8648 820.118L40.8648 806.5L54.4865 806.5Z" fill="#E82626" fill-opacity="0.3"/>
<path d="M71.1351 806.5L71.1351 820.118L57.5135 820.118L57.5135 806.5L71.1351 806.5Z" fill="#E82626" fill-opacity="0.3"/>
<path d="M21.1892 788.342L21.1892 801.96L7.56758 801.96L7.56758 788.342L21.1892 788.342Z" fill="#E82626" fill-opacity="0.3"/>
<path d="M37.8379 788.342L37.8379 801.96L24.2163 801.96L24.2163 788.342L37.8379 788.342Z" fill="#E82626" fill-opacity="0.3"/>
<path d="M54.4865 788.342L54.4865 801.96L40.8648 801.96L40.8648 788.342L54.4865 788.342Z" fill="#E82626" fill-opacity="0.3"/>
<path d="M71.1351 788.342L71.1351 801.96L57.5135 801.96L57.5135 788.342L71.1351 788.342Z" fill="#E82626" fill-opacity="0.3"/>
<path d="M87.7838 788.342L87.7838 801.96L74.1622 801.96L74.1622 788.342L87.7838 788.342Z" fill="#E82626" fill-opacity="0.3"/>
<path d="M104.432 788.342L104.432 801.96L90.8108 801.96L90.8108 788.342L104.432 788.342Z" fill="#E82626" fill-opacity="0.3"/>
<path d="M121.081 788.342L121.081 801.96L107.459 801.96L107.459 788.342L121.081 788.342Z" fill="#E82626" fill-opacity="0.3"/>
<path d="M21.1892 770.184L21.1892 783.803L7.56758 783.803L7.56758 770.184L21.1892 770.184Z" fill="#E87326" fill-opacity="0.3"/>
<path d="M37.8379 770.184L37.8379 783.803L24.2163 783.803L24.2163 770.184L37.8379 770.184Z" fill="#E87326" fill-opacity="0.3"/>
<path d="M54.4865 770.184L54.4865 783.803L40.8648 783.803L40.8648 770.184L54.4865 770.184Z" fill="#E87326" fill-opacity="0.3"/>
<path d="M71.1351 770.184L71.1351 783.803L57.5135 783.803L57.5135 770.184L71.1351 770.184Z" fill="#E87326" fill-opacity="0.3"/>
<path d="M87.7838 770.184L87.7838 783.803L74.1622 783.803L74.1622 770.184L87.7838 770.184Z" fill="#E87326" fill-opacity="0.3"/>
<path d="M21.1892 752.026L21.1892 765.645L7.56758 765.645L7.56758 752.026L21.1892 752.026Z" fill="#E85D00" fill-opacity="0.3"/>
<path d="M37.8379 752.026L37.8379 765.645L24.2163 765.645L24.2163 752.026L37.8379 752.026Z" fill="#E85D00" fill-opacity="0.3"/>
<path d="M54.4865 752.026L54.4865 765.645L40.8648 765.645L40.8648 752.026L54.4865 752.026Z" fill="#E85D00" fill-opacity="0.3"/>
<path d="M71.1351 752.026L71.1351 765.645L57.5135 765.645L57.5135 752.026L71.1351 752.026Z" fill="#E85D00" fill-opacity="0.3"/>
<path d="M87.7838 752.026L87.7838 765.645L74.1622 765.645L74.1622 752.026L87.7838 752.026Z" fill="#E85D00" fill-opacity="0.3"/>
<path d="M104.432 752.026L104.432 765.645L90.8108 765.645L90.8108 752.026L104.432 752.026Z" fill="#E85D00" fill-opacity="0.3"/>
<path d="M21.1892 733.868L21.1892 747.487L7.56758 747.487L7.56758 733.868L21.1892 733.868Z" fill="#E5E519" fill-opacity="0.3"/>
<path d="M37.8379 733.868L37.8379 747.487L24.2163 747.487L24.2163 733.868L37.8379 733.868Z" fill="#E5E519" fill-opacity="0.3"/>
<path d="M54.4865 733.868L54.4865 747.487L40.8648 747.487L40.8648 733.868L54.4865 733.868Z" fill="#E5E519" fill-opacity="0.3"/>
<path d="M71.1351 733.868L71.1351 747.487L57.5135 747.487L57.5135 733.868L71.1351 733.868Z" fill="#E5E519" fill-opacity="0.3"/>
<path d="M87.7838 733.868L87.7838 747.487L74.1622 747.487L74.1622 733.868L87.7838 733.868Z" fill="#E5E519" fill-opacity="0.3"/>
<path d="M104.432 733.868L104.432 747.487L90.8108 747.487L90.8108 733.868L104.432 733.868Z" fill="#E5E519" fill-opacity="0.3"/>
<path d="M121.081 733.868L121.081 747.487L107.459 747.487L107.459 733.868L121.081 733.868Z" fill="#E5E519" fill-opacity="0.3"/>
<path d="M21.1892 715.711L21.1892 729.329L7.56758 729.329L7.56758 715.711L21.1892 715.711Z" fill="#E8C126" fill-opacity="0.3"/>
<path d="M37.8379 715.711L37.8379 729.329L24.2163 729.329L24.2163 715.711L37.8379 715.711Z" fill="#E8C126" fill-opacity="0.3"/>
<path d="M54.4865 715.711L54.4865 729.329L40.8648 729.329L40.8648 715.711L54.4865 715.711Z" fill="#E8C126" fill-opacity="0.3"/>
<path d="M71.1351 715.711L71.1351 729.329L57.5135 729.329L57.5135 715.711L71.1351 715.711Z" fill="#E8C126" fill-opacity="0.3"/>
<path d="M21.1892 697.552L21.1892 711.171L7.56758 711.171L7.56758 697.552L21.1892 697.552Z" fill="#F0E464" fill-opacity="0.3"/>
<path d="M37.8379 697.552L37.8379 711.171L24.2163 711.171L24.2163 697.552L37.8379 697.552Z" fill="#F0E464" fill-opacity="0.3"/>
<path d="M54.4865 697.552L54.4865 711.171L40.8648 711.171L40.8648 697.552L54.4865 697.552Z" fill="#F0E464" fill-opacity="0.3"/>
<path d="M71.1351 697.552L71.1351 711.171L57.5135 711.171L57.5135 697.552L71.1351 697.552Z" fill="#F0E464" fill-opacity="0.3"/>
<path d="M87.7838 697.552L87.7838 711.171L74.1622 711.171L74.1622 697.552L87.7838 697.552Z" fill="#F0E464" fill-opacity="0.3"/>
<path d="M104.432 697.552L104.432 711.171L90.8108 711.171L90.8108 697.552L104.432 697.552Z" fill="#F0E464" fill-opacity="0.3"/>
<path d="M121.081 697.552L121.081 711.171L107.459 711.171L107.459 697.552L121.081 697.552Z" fill="#F0E464" fill-opacity="0.3"/>
<path d="M21.1892 679.395L21.1892 693.013L7.56758 693.013L7.56758 679.395L21.1892 679.395Z" fill="#DCB834" fill-opacity="0.3"/>
<path d="M37.8379 679.395L37.8379 693.013L24.2163 693.013L24.2163 679.395L37.8379 679.395Z" fill="#DCB834" fill-opacity="0.3"/>
<path d="M54.4865 679.395L54.4865 693.013L40.8648 693.013L40.8648 679.395L54.4865 679.395Z" fill="#DCB834" fill-opacity="0.3"/>
<path d="M71.1351 679.395L71.1351 693.013L57.5135 693.013L57.5135 679.395L71.1351 679.395Z" fill="#DCB834" fill-opacity="0.3"/>
<path d="M87.7838 679.395L87.7838 693.013L74.1622 693.013L74.1622 679.395L87.7838 679.395Z" fill="#DCB834" fill-opacity="0.3"/>
<path d="M21.1892 661.237L21.1892 674.855L7.56758 674.855L7.56758 661.237L21.1892 661.237Z" fill="#C8FC04" fill-opacity="0.3"/>
<path d="M37.8379 661.237L37.8379 674.855L24.2163 674.855L24.2163 661.237L37.8379 661.237Z" fill="#C8FC04" fill-opacity="0.3"/>
<path d="M54.4865 661.237L54.4865 674.855L40.8648 674.855L40.8648 661.237L54.4865 661.237Z" fill="#C8FC04" fill-opacity="0.3"/>
<path d="M21.1892 643.079L21.1892 656.697L7.56758 656.697L7.56758 643.079L21.1892 643.079Z" fill="#00C800" fill-opacity="0.3"/>
<path d="M37.8379 643.079L37.8379 656.697L24.2163 656.697L24.2163 643.079L37.8379 643.079Z" fill="#00C800" fill-opacity="0.3"/>
<path d="M54.4865 643.079L54.4865 656.697L40.8648 656.697L40.8648 643.079L54.4865 643.079Z" fill="#00C800" fill-opacity="0.3"/>
<path d="M71.1351 643.079L71.1351 656.697L57.5135 656.697L57.5135 643.079L71.1351 643.079Z" fill="#00C800" fill-opacity="0.3"/>
<path d="M87.7838 643.079L87.7838 656.697L74.1622 656.697L74.1622 643.079L87.7838 643.079Z" fill="#00C800" fill-opacity="0.3"/>
<path d="M104.432 643.079L104.432 656.697L90.8108 656.697L90.8108 643.079L104.432 643.079Z" fill="#00C800" fill-opacity="0.3"/>
<path d="M121.081 643.079L121.081 656.697L107.459 656.697L107.459 643.079L121.081 643.079Z" fill="#00C800" fill-opacity="0.3"/>
<path d="M21.1892 624.921L21.1892 638.54L7.56758 638.54L7.56758 624.921L21.1892 624.921Z" fill="#00AC00" fill-opacity="0.3"/>
<path d="M37.8379 624.921L37.8379 638.54L24.2163 638.54L24.2163 624.921L37.8379 624.921Z" fill="#00AC00" fill-opacity="0.3"/>
<path d="M54.4865 624.921L54.4865 638.54L40.8648 638.54L40.8648 624.921L54.4865 624.921Z" fill="#00AC00" fill-opacity="0.3"/>
<path d="M71.1351 624.921L71.1351 638.54L57.5135 638.54L57.5135 624.921L71.1351 624.921Z" fill="#00AC00" fill-opacity="0.3"/>
<path d="M87.7838 624.921L87.7838 638.54L74.1622 638.54L74.1622 624.921L87.7838 624.921Z" fill="#00AC00" fill-opacity="0.3"/>
<path d="M104.432 624.921L104.432 638.54L90.8108 638.54L90.8108 624.921L104.432 624.921Z" fill="#00AC00" fill-opacity="0.3"/>
<path d="M21.1892 606.763L21.1892 620.382L7.56758 620.382L7.56758 606.763L21.1892 606.763Z" fill="#24D000" fill-opacity="0.3"/>
<path d="M37.8379 606.763L37.8379 620.382L24.2163 620.382L24.2163 606.763L37.8379 606.763Z" fill="#24D000" fill-opacity="0.3"/>
<path d="M54.4865 606.763L54.4865 620.382L40.8648 620.382L40.8648 606.763L54.4865 606.763Z" fill="#24D000" fill-opacity="0.3"/>
<path d="M71.1351 606.763L71.1351 620.382L57.5135 620.382L57.5135 606.763L71.1351 606.763Z" fill="#24D000" fill-opacity="0.3"/>
<path d="M87.7838 606.763L87.7838 620.382L74.1622 620.382L74.1622 606.763L87.7838 606.763Z" fill="#24D000" fill-opacity="0.3"/>
<path d="M104.432 606.763L104.432 620.382L90.8108 620.382L90.8108 606.763L104.432 606.763Z" fill="#24D000" fill-opacity="0.3"/>
<path d="M121.081 606.763L121.081 620.382L107.459 620.382L107.459 606.763L121.081 606.763Z" fill="#24D000" fill-opacity="0.3"/>
<path d="M21.1892 588.605L21.1892 602.224L7.56758 602.224L7.56758 588.605L21.1892 588.605Z" fill="#64E000" fill-opacity="0.3"/>
<path d="M37.8379 588.605L37.8379 602.224L24.2163 602.224L24.2163 588.605L37.8379 588.605Z" fill="#64E000" fill-opacity="0.3"/>
<path d="M54.4865 588.605L54.4865 602.224L40.8648 602.224L40.8648 588.605L54.4865 588.605Z" fill="#64E000" fill-opacity="0.3"/>
<path d="M71.1351 588.605L71.1351 602.224L57.5135 602.224L57.5135 588.605L71.1351 588.605Z" fill="#64E000" fill-opacity="0.3"/>
<path d="M87.7838 588.605L87.7838 602.224L74.1622 602.224L74.1622 588.605L87.7838 588.605Z" fill="#64E000" fill-opacity="0.3"/>
<path d="M21.1892 570.448L21.1892 584.066L7.56758 584.066L7.56758 570.448L21.1892 570.448Z" fill="#4CD8FC" fill-opacity="0.3"/>
<path d="M37.8379 570.448L37.8379 584.066L24.2163 584.066L24.2163 570.448L37.8379 570.448Z" fill="#4CD8FC" fill-opacity="0.3"/>
<path d="M54.4865 570.448L54.4865 584.066L40.8648 584.066L40.8648 570.448L54.4865 570.448Z" fill="#4CD8FC" fill-opacity="0.3"/>
<path d="M71.1351 570.448L71.1351 584.066L57.5135 584.066L57.5135 570.448L71.1351 570.448Z" fill="#4CD8FC" fill-opacity="0.3"/>
<path d="M87.7838 570.448L87.7838 584.066L74.1622 584.066L74.1622 570.448L87.7838 570.448Z" fill="#4CD8FC" fill-opacity="0.3"/>
<path d="M104.432 570.448L104.432 584.066L90.8108 584.066L90.8108 570.448L104.432 570.448Z" fill="#4CD8FC" fill-opacity="0.3"/>
<path d="M21.1892 552.289L21.1892 565.908L7.56758 565.908L7.56758 552.289L21.1892 552.289Z" fill="#00B8F8" fill-opacity="0.3"/>
<path d="M37.8379 552.289L37.8379 565.908L24.2163 565.908L24.2163 552.289L37.8379 552.289Z" fill="#00B8F8" fill-opacity="0.3"/>
<path d="M54.4865 552.289L54.4865 565.908L40.8648 565.908L40.8648 552.289L54.4865 552.289Z" fill="#00B8F8" fill-opacity="0.3"/>
<path d="M71.1351 552.289L71.1351 565.908L57.5135 565.908L57.5135 552.289L71.1351 552.289Z" fill="#00B8F8" fill-opacity="0.3"/>
<path d="M87.7838 552.289L87.7838 565.908L74.1622 565.908L74.1622 552.289L87.7838 552.289Z" fill="#00B8F8" fill-opacity="0.3"/>
<path d="M104.432 552.289L104.432 565.908L90.8108 565.908L90.8108 552.289L104.432 552.289Z" fill="#00B8F8" fill-opacity="0.3"/>
<path d="M121.081 552.289L121.081 565.908L107.459 565.908L107.459 552.289L121.081 552.289Z" fill="#00B8F8" fill-opacity="0.3"/>
<path d="M21.1892 534.132L21.1892 547.75L7.56758 547.75L7.56758 534.132L21.1892 534.132Z" fill="#0074E4" fill-opacity="0.3"/>
<path d="M37.8379 534.132L37.8379 547.75L24.2163 547.75L24.2163 534.132L37.8379 534.132Z" fill="#0074E4" fill-opacity="0.3"/>
<path d="M54.4865 534.132L54.4865 547.75L40.8648 547.75L40.8648 534.132L54.4865 534.132Z" fill="#0074E4" fill-opacity="0.3"/>
<path d="M71.1351 534.132L71.1351 547.75L57.5135 547.75L57.5135 534.132L71.1351 534.132Z" fill="#0074E4" fill-opacity="0.3"/>
<path d="M21.1892 515.974L21.1892 529.592L7.56758 529.592L7.56758 515.974L21.1892 515.974Z" fill="#0004C8" fill-opacity="0.3"/>
<path d="M37.8379 515.974L37.8379 529.592L24.2163 529.592L24.2163 515.974L37.8379 515.974Z" fill="#0004C8" fill-opacity="0.3"/>
<path d="M54.4865 515.974L54.4865 529.592L40.8648 529.592L40.8648 515.974L54.4865 515.974Z" fill="#0004C8" fill-opacity="0.3"/>
<path d="M71.1351 515.974L71.1351 529.592L57.5135 529.592L57.5135 515.974L71.1351 515.974Z" fill="#0004C8" fill-opacity="0.3"/>
<path d="M87.7838 515.974L87.7838 529.592L74.1622 529.592L74.1622 515.974L87.7838 515.974Z" fill="#0004C8" fill-opacity="0.3"/>
<path d="M104.432 515.974L104.432 529.592L90.8108 529.592L90.8108 515.974L104.432 515.974Z" fill="#0004C8" fill-opacity="0.3"/>
<path d="M121.081 515.974L121.081 529.592L107.459 529.592L107.459 515.974L121.081 515.974Z" fill="#0004C8" fill-opacity="0.3"/>
<path d="M21.1892 497.816L21.1892 511.434L7.56758 511.434L7.56758 497.816L21.1892 497.816Z" fill="#0004C8" fill-opacity="0.3"/>
<path d="M37.8379 497.816L37.8379 511.434L24.2163 511.434L24.2163 497.816L37.8379 497.816Z" fill="#0004C8" fill-opacity="0.3"/>
<path d="M54.4865 497.816L54.4865 511.434L40.8648 511.434L40.8648 497.816L54.4865 497.816Z" fill="#0004C8" fill-opacity="0.3"/>
<path d="M71.1351 497.816L71.1351 511.434L57.5135 511.434L57.5135 497.816L71.1351 497.816Z" fill="#0004C8" fill-opacity="0.3"/>
<path d="M87.7838 497.816L87.7838 511.434L74.1622 511.434L74.1622 497.816L87.7838 497.816Z" fill="#0004C8" fill-opacity="0.3"/>
<path d="M104.432 497.816L104.432 511.434L90.8108 511.434L90.8108 497.816L104.432 497.816Z" fill="#0004C8" fill-opacity="0.3"/>
<path d="M21.1892 479.658L21.1892 493.276L7.56758 493.276L7.56758 479.658L21.1892 479.658Z" fill="#0074E4" fill-opacity="0.3"/>
<path d="M37.8379 479.658L37.8379 493.276L24.2163 493.276L24.2163 479.658L37.8379 479.658Z" fill="#0074E4" fill-opacity="0.3"/>
<path d="M54.4865 479.658L54.4865 493.276L40.8648 493.276L40.8648 479.658L54.4865 479.658Z" fill="#0074E4" fill-opacity="0.3"/>
<path d="M71.1351 479.658L71.1351 493.276L57.5135 493.276L57.5135 479.658L71.1351 479.658Z" fill="#0074E4" fill-opacity="0.3"/>
<path d="M87.7838 479.658L87.7838 493.276L74.1622 493.276L74.1622 479.658L87.7838 479.658Z" fill="#0074E4" fill-opacity="0.3"/>
<path d="M21.1892 461.5L21.1892 475.119L7.56758 475.119L7.56758 461.5L21.1892 461.5Z" fill="#00B8F8" fill-opacity="0.3"/>
<path d="M37.8379 461.5L37.8379 475.119L24.2163 475.119L24.2163 461.5L37.8379 461.5Z" fill="#00B8F8" fill-opacity="0.3"/>
<path d="M54.4865 461.5L54.4865 475.119L40.8648 475.119L40.8648 461.5L54.4865 461.5Z" fill="#00B8F8" fill-opacity="0.3"/>
<path d="M71.1351 461.5L71.1351 475.119L57.5135 475.119L57.5135 461.5L71.1351 461.5Z" fill="#00B8F8" fill-opacity="0.3"/>
<path d="M87.7838 461.5L87.7838 475.119L74.1622 475.119L74.1622 461.5L87.7838 461.5Z" fill="#00B8F8" fill-opacity="0.3"/>
<path d="M104.432 461.5L104.432 475.119L90.8108 475.119L90.8108 461.5L104.432 461.5Z" fill="#00B8F8" fill-opacity="0.3"/>
<path d="M121.081 461.5L121.081 475.119L107.459 475.119L107.459 461.5L121.081 461.5Z" fill="#00B8F8" fill-opacity="0.3"/>
<path d="M21.1892 443.342L21.1892 456.96L7.56758 456.96L7.56758 443.342L21.1892 443.342Z" fill="#4CD8FC" fill-opacity="0.3"/>
<path d="M37.8379 443.342L37.8379 456.96L24.2163 456.96L24.2163 443.342L37.8379 443.342Z" fill="#4CD8FC" fill-opacity="0.3"/>
<path d="M54.4865 443.342L54.4865 456.96L40.8648 456.96L40.8648 443.342L54.4865 443.342Z" fill="#4CD8FC" fill-opacity="0.3"/>
<path d="M71.1351 443.342L71.1351 456.96L57.5135 456.96L57.5135 443.342L71.1351 443.342Z" fill="#4CD8FC" fill-opacity="0.3"/>
<path d="M87.7838 443.342L87.7838 456.96L74.1622 456.96L74.1622 443.342L87.7838 443.342Z" fill="#4CD8FC" fill-opacity="0.3"/>
<path d="M104.432 443.342L104.432 456.96L90.8108 456.96L90.8108 443.342L104.432 443.342Z" fill="#4CD8FC" fill-opacity="0.3"/>
<path d="M21.1892 425.184L21.1892 438.803L7.56758 438.803L7.56758 425.184L21.1892 425.184Z" fill="#64E000" fill-opacity="0.3"/>
<path d="M37.8379 425.184L37.8379 438.803L24.2163 438.803L24.2163 425.184L37.8379 425.184Z" fill="#64E000" fill-opacity="0.3"/>
<path d="M54.4865 425.184L54.4865 438.803L40.8648 438.803L40.8648 425.184L54.4865 425.184Z" fill="#64E000" fill-opacity="0.3"/>
<path d="M71.1351 425.184L71.1351 438.803L57.5135 438.803L57.5135 425.184L71.1351 425.184Z" fill="#64E000" fill-opacity="0.3"/>
<path d="M21.1892 407.026L21.1892 420.645L7.56758 420.645L7.56758 407.026L21.1892 407.026Z" fill="#24D000" fill-opacity="0.3"/>
<path d="M37.8379 407.026L37.8379 420.645L24.2163 420.645L24.2163 407.026L37.8379 407.026Z" fill="#24D000" fill-opacity="0.3"/>
<path d="M54.4865 407.026L54.4865 420.645L40.8648 420.645L40.8648 407.026L54.4865 407.026Z" fill="#24D000" fill-opacity="0.3"/>
<path d="M71.1351 407.026L71.1351 420.645L57.5135 420.645L57.5135 407.026L71.1351 407.026Z" fill="#24D000" fill-opacity="0.3"/>
<path d="M87.7838 407.026L87.7838 420.645L74.1622 420.645L74.1622 407.026L87.7838 407.026Z" fill="#24D000" fill-opacity="0.3"/>
<path d="M104.432 407.026L104.432 420.645L90.8108 420.645L90.8108 407.026L104.432 407.026Z" fill="#24D000" fill-opacity="0.3"/>
<path d="M121.081 407.026L121.081 420.645L107.459 420.645L107.459 407.026L121.081 407.026Z" fill="#24D000" fill-opacity="0.3"/>
<path d="M21.1892 388.868L21.1892 402.487L7.56758 402.487L7.56758 388.868L21.1892 388.868Z" fill="#00AC00" fill-opacity="0.3"/>
<path d="M37.8379 388.868L37.8379 402.487L24.2163 402.487L24.2163 388.868L37.8379 388.868Z" fill="#00AC00" fill-opacity="0.3"/>
<path d="M54.4865 388.868L54.4865 402.487L40.8648 402.487L40.8648 388.868L54.4865 388.868Z" fill="#00AC00" fill-opacity="0.3"/>
<path d="M71.1351 388.868L71.1351 402.487L57.5135 402.487L57.5135 388.868L71.1351 388.868Z" fill="#00AC00" fill-opacity="0.3"/>
<path d="M87.7838 388.868L87.7838 402.487L74.1622 402.487L74.1622 388.868L87.7838 388.868Z" fill="#00AC00" fill-opacity="0.3"/>
<path d="M21.1892 370.711L21.1892 384.329L7.56758 384.329L7.56758 370.711L21.1892 370.711Z" fill="#00C800" fill-opacity="0.3"/>
<path d="M37.8379 370.711L37.8379 384.329L24.2163 384.329L24.2163 370.711L37.8379 370.711Z" fill="#00C800" fill-opacity="0.3"/>
<path d="M54.4865 370.711L54.4865 384.329L40.8648 384.329L40.8648 370.711L54.4865 370.711Z" fill="#00C800" fill-opacity="0.3"/>
<path d="M71.1351 370.711L71.1351 384.329L57.5135 384.329L57.5135 370.711L71.1351 370.711Z" fill="#00C800" fill-opacity="0.3"/>
<path d="M87.7838 370.711L87.7838 384.329L74.1622 384.329L74.1622 370.711L87.7838 370.711Z" fill="#00C800" fill-opacity="0.3"/>
<path d="M104.432 370.711L104.432 384.329L90.8108 384.329L90.8108 370.711L104.432 370.711Z" fill="#00C800" fill-opacity="0.3"/>
<path d="M21.1892 352.552L21.1892 366.171L7.56758 366.171L7.56758 352.552L21.1892 352.552Z" fill="#C8FC04" fill-opacity="0.3"/>
<path d="M37.8379 352.552L37.8379 366.171L24.2163 366.171L24.2163 352.552L37.8379 352.552Z" fill="#C8FC04" fill-opacity="0.3"/>
<path d="M54.4865 352.552L54.4865 366.171L40.8648 366.171L40.8648 352.552L54.4865 352.552Z" fill="#C8FC04" fill-opacity="0.3"/>
<path d="M71.1351 352.552L71.1351 366.171L57.5135 366.171L57.5135 352.552L71.1351 352.552Z" fill="#C8FC04" fill-opacity="0.3"/>
<path d="M21.1892 334.395L21.1892 348.013L7.56758 348.013L7.56758 334.395L21.1892 334.395Z" fill="#DCB834" fill-opacity="0.3"/>
<path d="M37.8379 334.395L37.8379 348.013L24.2163 348.013L24.2163 334.395L37.8379 334.395Z" fill="#DCB834" fill-opacity="0.3"/>
<path d="M54.4865 334.395L54.4865 348.013L40.8648 348.013L40.8648 334.395L54.4865 334.395Z" fill="#DCB834" fill-opacity="0.3"/>
<path d="M71.1351 334.395L71.1351 348.013L57.5135 348.013L57.5135 334.395L71.1351 334.395Z" fill="#DCB834" fill-opacity="0.3"/>
<path d="M87.7838 334.395L87.7838 348.013L74.1622 348.013L74.1622 334.395L87.7838 334.395Z" fill="#DCB834" fill-opacity="0.3"/>
<path d="M104.432 334.395L104.432 348.013L90.8108 348.013L90.8108 334.395L104.432 334.395Z" fill="#DCB834" fill-opacity="0.3"/>
<path d="M121.081 334.395L121.081 348.013L107.459 348.013L107.459 334.395L121.081 334.395Z" fill="#DCB834" fill-opacity="0.3"/>
<path d="M21.1892 316.237L21.1892 329.855L7.56758 329.855L7.56758 316.237L21.1892 316.237Z" fill="#F0E464" fill-opacity="0.3"/>
<path d="M37.8379 316.237L37.8379 329.855L24.2163 329.855L24.2163 316.237L37.8379 316.237Z" fill="#F0E464" fill-opacity="0.3"/>
<path d="M54.4865 316.237L54.4865 329.855L40.8648 329.855L40.8648 316.237L54.4865 316.237Z" fill="#F0E464" fill-opacity="0.3"/>
<path d="M71.1351 316.237L71.1351 329.855L57.5135 329.855L57.5135 316.237L71.1351 316.237Z" fill="#F0E464" fill-opacity="0.3"/>
<path d="M87.7838 316.237L87.7838 329.855L74.1622 329.855L74.1622 316.237L87.7838 316.237Z" fill="#F0E464" fill-opacity="0.3"/>
<path d="M104.432 316.237L104.432 329.855L90.8108 329.855L90.8108 316.237L104.432 316.237Z" fill="#F0E464" fill-opacity="0.3"/>
<path d="M21.1892 298.079L21.1892 311.697L7.56758 311.697L7.56758 298.079L21.1892 298.079Z" fill="#E8C126" fill-opacity="0.3"/>
<path d="M37.8379 298.079L37.8379 311.697L24.2163 311.697L24.2163 298.079L37.8379 298.079Z" fill="#E8C126" fill-opacity="0.3"/>
<path d="M54.4865 298.079L54.4865 311.697L40.8648 311.697L40.8648 298.079L54.4865 298.079Z" fill="#E8C126" fill-opacity="0.3"/>
<path d="M71.1351 298.079L71.1351 311.697L57.5135 311.697L57.5135 298.079L71.1351 298.079Z" fill="#E8C126" fill-opacity="0.3"/>
<path d="M87.7838 298.079L87.7838 311.697L74.1622 311.697L74.1622 298.079L87.7838 298.079Z" fill="#E8C126" fill-opacity="0.3"/>
<path d="M104.432 298.079L104.432 311.697L90.8108 311.697L90.8108 298.079L104.432 298.079Z" fill="#E8C126" fill-opacity="0.3"/>
<path d="M121.081 298.079L121.081 311.697L107.459 311.697L107.459 298.079L121.081 298.079Z" fill="#E8C126" fill-opacity="0.3"/>
<path d="M21.1892 279.921L21.1892 293.54L7.56758 293.54L7.56758 279.921L21.1892 279.921Z" fill="#E5E519" fill-opacity="0.3"/>
<path d="M37.8379 279.921L37.8379 293.54L24.2163 293.54L24.2163 279.921L37.8379 279.921Z" fill="#E5E519" fill-opacity="0.3"/>
<path d="M54.4865 279.921L54.4865 293.54L40.8648 293.54L40.8648 279.921L54.4865 279.921Z" fill="#E5E519" fill-opacity="0.3"/>
<path d="M71.1351 279.921L71.1351 293.54L57.5135 293.54L57.5135 279.921L71.1351 279.921Z" fill="#E5E519" fill-opacity="0.3"/>
<path d="M87.7838 279.921L87.7838 293.54L74.1622 293.54L74.1622 279.921L87.7838 279.921Z" fill="#E5E519" fill-opacity="0.3"/>
<path d="M21.1892 261.763L21.1892 275.381L7.56758 275.381L7.56758 261.763L21.1892 261.763Z" fill="#E85D00" fill-opacity="0.3"/>
<path d="M37.8379 261.763L37.8379 275.381L24.2163 275.381L24.2163 261.763L37.8379 261.763Z" fill="#E85D00" fill-opacity="0.3"/>
<path d="M54.4865 261.763L54.4865 275.381L40.8648 275.381L40.8648 261.763L54.4865 261.763Z" fill="#E85D00" fill-opacity="0.3"/>
<path d="M71.1351 261.763L71.1351 275.381L57.5135 275.381L57.5135 261.763L71.1351 261.763Z" fill="#E85D00" fill-opacity="0.3"/>
<path d="M87.7838 261.763L87.7838 275.381L74.1622 275.381L74.1622 261.763L87.7838 261.763Z" fill="#E85D00" fill-opacity="0.3"/>
<path d="M104.432 261.763L104.432 275.381L90.8108 275.381L90.8108 261.763L104.432 261.763Z" fill="#E85D00" fill-opacity="0.3"/>
<path d="M121.081 261.763L121.081 275.381L107.459 275.381L107.459 261.763L121.081 261.763Z" fill="#E85D00" fill-opacity="0.3"/>
<path d="M21.1892 243.605L21.1892 257.224L7.56758 257.224L7.56758 243.605L21.1892 243.605Z" fill="#E87326" fill-opacity="0.3"/>
<path d="M37.8379 243.605L37.8379 257.224L24.2163 257.224L24.2163 243.605L37.8379 243.605Z" fill="#E87326" fill-opacity="0.3"/>
<path d="M54.4865 243.605L54.4865 257.224L40.8648 257.224L40.8648 243.605L54.4865 243.605Z" fill="#E87326" fill-opacity="0.3"/>
<path d="M71.1351 243.605L71.1351 257.224L57.5135 257.224L57.5135 243.605L71.1351 243.605Z" fill="#E87326" fill-opacity="0.3"/>
<path d="M21.1892 225.447L21.1892 239.066L7.56758 239.066L7.56758 225.447L21.1892 225.447Z" fill="#E82626" fill-opacity="0.3"/>
<path d="M37.8379 225.447L37.8379 239.066L24.2163 239.066L24.2163 225.447L37.8379 225.447Z" fill="#E82626" fill-opacity="0.3"/>
<path d="M54.4865 225.447L54.4865 239.066L40.8648 239.066L40.8648 225.447L54.4865 225.447Z" fill="#E82626" fill-opacity="0.3"/>
<path d="M71.1351 225.447L71.1351 239.066L57.5135 239.066L57.5135 225.447L71.1351 225.447Z" fill="#E82626" fill-opacity="0.3"/>
<path d="M87.7838 225.447L87.7838 239.066L74.1622 239.066L74.1622 225.447L87.7838 225.447Z" fill="#E82626" fill-opacity="0.3"/>
<path d="M104.432 225.447L104.432 239.066L90.8108 239.066L90.8108 225.447L104.432 225.447Z" fill="#E82626" fill-opacity="0.3"/>
<path d="M21.1892 207.289L21.1892 220.908L7.56758 220.908L7.56758 207.289L21.1892 207.289Z" fill="#E82626" fill-opacity="0.3"/>
<path d="M37.8379 207.289L37.8379 220.908L24.2163 220.908L24.2163 207.289L37.8379 207.289Z" fill="#E82626" fill-opacity="0.3"/>
<path d="M54.4865 207.289L54.4865 220.908L40.8648 220.908L40.8648 207.289L54.4865 207.289Z" fill="#E82626" fill-opacity="0.3"/>
<path d="M71.1351 207.289L71.1351 220.908L57.5135 220.908L57.5135 207.289L71.1351 207.289Z" fill="#E82626" fill-opacity="0.3"/>
<path d="M87.7838 207.289L87.7838 220.908L74.1622 220.908L74.1622 207.289L87.7838 207.289Z" fill="#E82626" fill-opacity="0.3"/>
<path d="M104.432 207.289L104.432 220.908L90.8108 220.908L90.8108 207.289L104.432 207.289Z" fill="#E82626" fill-opacity="0.3"/>
<path d="M121.081 207.289L121.081 220.908L107.459 220.908L107.459 207.289L121.081 207.289Z" fill="#E82626" fill-opacity="0.3"/>
<path d="M21.1892 189.132L21.1892 202.75L7.56758 202.75L7.56758 189.132L21.1892 189.132Z" fill="#9A003E" fill-opacity="0.3"/>
<path d="M37.8379 189.132L37.8379 202.75L24.2163 202.75L24.2163 189.132L37.8379 189.132Z" fill="#9A003E" fill-opacity="0.3"/>
<path d="M54.4865 189.132L54.4865 202.75L40.8648 202.75L40.8648 189.132L54.4865 189.132Z" fill="#9A003E" fill-opacity="0.3"/>
<path d="M71.1351 189.132L71.1351 202.75L57.5135 202.75L57.5135 189.132L71.1351 189.132Z" fill="#9A003E" fill-opacity="0.3"/>
<path d="M21.1892 170.974L21.1892 184.592L7.56758 184.592L7.56758 170.974L21.1892 170.974Z" fill="#E84D8B" fill-opacity="0.3"/>
<path d="M37.8379 170.974L37.8379 184.592L24.2163 184.592L24.2163 170.974L37.8379 170.974Z" fill="#E84D8B" fill-opacity="0.3"/>
<path d="M54.4865 170.974L54.4865 184.592L40.8648 184.592L40.8648 170.974L54.4865 170.974Z" fill="#E84D8B" fill-opacity="0.3"/>
<path d="M71.1351 170.974L71.1351 184.592L57.5135 184.592L57.5135 170.974L71.1351 170.974Z" fill="#E84D8B" fill-opacity="0.3"/>
<path d="M87.7838 170.974L87.7838 184.592L74.1622 184.592L74.1622 170.974L87.7838 170.974Z" fill="#E84D8B" fill-opacity="0.3"/>
<path d="M104.432 170.974L104.432 184.592L90.8108 184.592L90.8108 170.974L104.432 170.974Z" fill="#E84D8B" fill-opacity="0.3"/>
<path d="M121.081 170.974L121.081 184.592L107.459 184.592L107.459 170.974L121.081 170.974Z" fill="#E84D8B" fill-opacity="0.3"/>
<path d="M21.1892 152.816L21.1892 166.434L7.56758 166.434L7.56758 152.816L21.1892 152.816Z" fill="#C94DE8" fill-opacity="0.3"/>
<path d="M37.8379 152.816L37.8379 166.434L24.2163 166.434L24.2163 152.816L37.8379 152.816Z" fill="#C94DE8" fill-opacity="0.3"/>
<path d="M54.4865 152.816L54.4865 166.434L40.8648 166.434L40.8648 152.816L54.4865 152.816Z" fill="#C94DE8" fill-opacity="0.3"/>
<path d="M21.1892 134.658L21.1892 148.276L7.56758 148.276L7.56758 134.658L21.1892 134.658Z" fill="#B900E8" fill-opacity="0.3"/>
<path d="M37.8379 134.658L37.8379 148.276L24.2163 148.276L24.2163 134.658L37.8379 134.658Z" fill="#B900E8" fill-opacity="0.3"/>
<path d="M54.4865 134.658L54.4865 148.276L40.8648 148.276L40.8648 134.658L54.4865 134.658Z" fill="#B900E8" fill-opacity="0.3"/>
<path d="M71.1351 134.658L71.1351 148.276L57.5135 148.276L57.5135 134.658L71.1351 134.658Z" fill="#B900E8" fill-opacity="0.3"/>
<path d="M87.7838 134.658L87.7838 148.276L74.1622 148.276L74.1622 134.658L87.7838 134.658Z" fill="#B900E8" fill-opacity="0.3"/>
<path d="M21.1892 116.5L21.1892 130.119L7.56758 130.119L7.56758 116.5L21.1892 116.5Z" fill="#7C009A" fill-opacity="0.3"/>
<path d="M37.8379 116.5L37.8379 130.119L24.2163 130.119L24.2163 116.5L37.8379 116.5Z" fill="#7C009A" fill-opacity="0.3"/>
<path d="M54.4865 116.5L54.4865 130.119L40.8648 130.119L40.8648 116.5L54.4865 116.5Z" fill="#7C009A" fill-opacity="0.3"/>
<path d="M71.1351 116.5L71.1351 130.119L57.5135 130.119L57.5135 116.5L71.1351 116.5Z" fill="#7C009A" fill-opacity="0.3"/>
<path d="M87.7838 116.5L87.7838 130.119L74.1622 130.119L74.1622 116.5L87.7838 116.5Z" fill="#7C009A" fill-opacity="0.3"/>
<path d="M104.432 116.5L104.432 130.119L90.8108 130.119L90.8108 116.5L104.432 116.5Z" fill="#7C009A" fill-opacity="0.3"/>
<path d="M121.081 116.5L121.081 130.119L107.459 130.119L107.459 116.5L121.081 116.5Z" fill="#7C009A" fill-opacity="0.3"/>
<path d="M21.1892 98.342L21.1892 111.96L7.56758 111.96L7.56758 98.342L21.1892 98.342Z" fill="#522891" fill-opacity="0.3"/>
<path d="M37.8379 98.342L37.8379 111.96L24.2163 111.96L24.2163 98.342L37.8379 98.342Z" fill="#522891" fill-opacity="0.3"/>
<path d="M54.4865 98.342L54.4865 111.96L40.8648 111.96L40.8648 98.342L54.4865 98.342Z" fill="#522891" fill-opacity="0.3"/>
<path d="M71.1351 98.342L71.1351 111.96L57.5135 111.96L57.5135 98.342L71.1351 98.342Z" fill="#522891" fill-opacity="0.3"/>
<g filter="url(#filter0_d)">
<path d="M107.694 129.342C107.694 129.342 97.0857 91.9925 109.171 88.5259" stroke="black" stroke-width="5"/>
</g>
<g filter="url(#filter1_d)">
<path d="M101.31 187.26C114.632 190.829 129.29 179.326 134.05 161.567C138.81 143.808 131.868 126.519 118.546 122.95C105.224 119.381 90.5656 130.884 85.806 148.643C81.0464 166.402 87.9878 183.691 101.31 187.26Z" fill="#4B4646"/>
<path d="M133.319 161.371C130.978 170.108 126.209 177.277 120.424 181.816C114.641 186.355 107.886 188.238 101.507 186.529C95.1273 184.82 90.219 179.813 87.4796 172.991C84.7416 166.169 84.1968 157.575 86.5382 148.839C88.8796 140.102 93.6486 132.933 99.4333 128.394C105.216 123.855 111.971 121.972 118.351 123.681C124.73 125.39 129.638 130.397 132.376 137.219C135.116 144.041 135.661 152.635 133.319 161.371Z" stroke="black"/>
</g>
<g filter="url(#filter2_i)">
<path d="M126.742 159.609C123.497 171.717 113.339 179.517 104.054 177.029C94.7687 174.542 91.5479 161.917 94.7929 149.809C98.0379 137.701 106.52 130.694 115.805 133.181C125.09 135.669 129.987 147.501 126.742 159.609Z" fill="#C4C4C4"/>
</g>
<path d="M126.742 159.609C123.497 171.717 113.339 179.517 104.054 177.029C94.7687 174.542 91.5479 161.917 94.7929 149.809C98.0379 137.701 106.52 130.694 115.805 133.181C125.09 135.669 129.987 147.501 126.742 159.609Z" stroke="black"/>
<g filter="url(#filter3_d)">
<path d="M139.348 200.154C152.67 203.722 167.328 192.219 172.088 174.46C176.847 156.702 169.906 139.412 156.584 135.843C143.261 132.274 128.603 143.778 123.844 161.537C119.084 179.295 126.026 196.585 139.348 200.154Z" fill="#4B4646"/>
<path d="M171.357 174.265C169.016 183.001 164.245 190.171 158.462 194.71C152.677 199.249 145.922 201.132 139.543 199.423C133.163 197.714 128.257 192.707 125.517 185.885C122.778 179.062 122.233 170.469 124.574 161.732C126.916 152.996 131.686 145.826 137.469 141.287C143.254 136.748 150.009 134.865 156.388 136.574C162.768 138.283 167.675 143.29 170.414 150.112C173.154 156.935 173.698 165.528 171.357 174.265Z" stroke="black"/>
</g>
<g filter="url(#filter4_d)">
<path d="M145.013 179.749C149.937 181.068 155.355 176.817 157.114 170.253C158.873 163.689 156.308 157.299 151.384 155.98C146.46 154.661 141.042 158.913 139.283 165.476C137.524 172.04 140.09 178.43 145.013 179.749Z" fill="black"/>
</g>
<path d="M106.144 90.8068C139.441 59.7871 168.198 84.7428 172.739 92.3088" stroke="black" stroke-width="5"/>
<path d="M171.225 90.0391C184.092 104.414 160.826 157.302 149.033 171.414" stroke="black" stroke-width="5"/>
<mask id="mask0" mask-type="alpha" maskUnits="userSpaceOnUse" x="92" y="129" width="36" height="52">
<path d="M127.364 129.378H92.5529V180.825H127.364V129.378Z" fill="white"/>
<path fill-rule="evenodd" clip-rule="evenodd" d="M125.575 140.317C123.423 136.914 120.435 134.318 116.973 132.958L116.934 132.943L116.895 132.932C112.064 131.619 107.444 132.812 103.647 135.885C99.8647 138.945 96.9119 143.854 95.2894 149.993C93.6684 156.131 93.6593 162.434 95.2515 167.554C96.8452 172.677 100.08 176.7 104.982 178.033L105.03 178.046L105.079 178.052C105.678 178.133 106.277 178.183 106.878 178.204L107.621 176.695C106.853 176.703 106.085 176.658 105.321 176.557C101.098 175.389 98.1802 171.89 96.6939 167.111C95.2001 162.311 95.1895 156.303 96.7499 150.39C98.3119 144.48 101.124 139.881 104.599 137.067C108.05 134.276 112.164 133.228 116.47 134.384C119.836 135.718 122.764 138.392 124.78 141.927L125.575 140.317Z" fill="black"/>
</mask>
<g mask="url(#mask0)">
<path fill-rule="evenodd" clip-rule="evenodd" d="M125.575 140.317C123.423 136.914 120.435 134.318 116.973 132.958L116.934 132.943L116.895 132.932C112.064 131.619 107.444 132.812 103.647 135.885C99.8647 138.945 96.9119 143.854 95.2894 149.993C93.6684 156.131 93.6593 162.434 95.2515 167.554C96.8452 172.677 100.08 176.7 104.982 178.033L105.03 178.046L105.079 178.052C105.678 178.133 106.277 178.183 106.878 178.204L107.621 176.695C106.853 176.703 106.085 176.658 105.321 176.557C101.098 175.389 98.1802 171.89 96.6939 167.111C95.2001 162.311 95.1895 156.303 96.7499 150.39C98.3118 144.48 101.124 139.881 104.599 137.067C108.05 134.276 112.164 133.228 116.469 134.384C119.836 135.718 122.764 138.392 124.78 141.927L125.575 140.317Z" fill="black"/>
<path d="M116.973 132.957L117.526 131.549L116.973 132.957ZM125.575 140.316L126.932 140.986L127.308 140.225L126.854 139.508L125.575 140.316ZM116.934 132.942L117.488 131.534L117.411 131.504L117.332 131.482L116.934 132.942ZM116.895 132.932L117.293 131.471L116.895 132.932ZM103.647 135.884L102.695 134.708L103.647 135.884ZM95.2893 149.993L96.7528 150.379L95.2893 149.993ZM95.2514 167.554L96.6968 167.104L95.2514 167.554ZM104.982 178.032L104.585 179.492L104.982 178.032ZM105.03 178.045L104.634 179.505L104.729 179.531L104.827 179.544L105.03 178.045ZM105.079 178.052L104.876 179.551L105.079 178.052ZM106.878 178.203L106.827 179.715L107.803 179.748L108.234 178.872L106.878 178.203ZM107.621 176.695L108.979 177.364L110.069 175.156L107.606 175.182L107.621 176.695ZM105.321 176.556L104.918 178.014L105.018 178.042L105.123 178.056L105.321 176.556ZM96.6938 167.11L98.1392 166.661L96.6938 167.11ZM96.7498 150.39L95.2878 150.004L96.7498 150.39ZM104.599 137.067L105.552 138.243L104.599 137.067ZM116.469 134.384L117.026 132.977L116.946 132.945L116.861 132.923L116.469 134.384ZM124.78 141.926L123.465 142.676L124.877 145.151L126.138 142.596L124.78 141.926ZM116.419 134.366C119.545 135.593 122.293 137.959 124.296 141.125L126.854 139.508C124.553 135.868 121.325 133.041 117.526 131.549L116.419 134.366ZM116.382 134.351L116.419 134.366L117.526 131.549L117.488 131.534L116.382 134.351ZM116.498 134.392L116.538 134.403L117.332 131.482L117.293 131.471L116.498 134.392ZM104.599 137.061C108.054 134.264 112.18 133.218 116.498 134.392L117.293 131.471C111.947 130.019 106.833 131.359 102.695 134.708L104.599 137.061ZM96.7528 150.379C98.3148 144.468 101.125 139.871 104.599 137.061L102.695 134.708C98.6039 138.019 95.5087 143.238 93.8272 149.606L96.7528 150.379ZM96.6968 167.104C95.203 162.301 95.1909 156.292 96.7528 150.379L93.8272 149.606C92.1457 155.969 92.1154 162.566 93.806 168.003L96.6968 167.104ZM105.38 176.572C101.13 175.417 98.1907 171.907 96.6968 167.104L93.806 168.003C95.4996 173.446 99.0307 177.982 104.585 179.492L105.38 176.572ZM105.427 176.585L105.38 176.572L104.585 179.492L104.634 179.505L105.427 176.585ZM105.283 176.552L105.233 176.546L104.827 179.544L104.876 179.551L105.283 176.552ZM106.928 176.69C106.379 176.672 105.829 176.626 105.283 176.552L104.876 179.551C105.525 179.639 106.176 179.693 106.827 179.715L106.928 176.69ZM108.234 178.872L108.979 177.364L106.265 176.025L105.521 177.533L108.234 178.872ZM105.123 178.056C105.958 178.166 106.798 178.217 107.638 178.208L107.606 175.182C106.909 175.189 106.211 175.147 105.519 175.056L105.123 178.056ZM95.2484 167.56C96.8346 172.66 100.048 176.667 104.918 178.014L105.725 175.098C102.149 174.108 99.5256 171.119 98.1392 166.661L95.2484 167.56ZM95.2878 150.004C93.6653 156.141 93.6562 162.443 95.2484 167.56L98.1392 166.661C96.7438 162.177 96.712 156.464 98.2134 150.776L95.2878 150.004ZM103.647 135.891C99.8631 138.954 96.9087 143.864 95.2878 150.004L98.2134 150.776C99.7148 145.095 102.385 140.806 105.552 138.243L103.647 135.891ZM116.861 132.923C112.045 131.628 107.437 132.824 103.647 135.891L105.552 138.243C108.661 135.726 112.283 134.826 116.076 135.845L116.861 132.923ZM126.095 141.177C123.934 137.387 120.757 134.455 117.026 132.977L115.911 135.791C118.914 136.98 121.596 139.396 123.465 142.676L126.095 141.177ZM126.138 142.596L126.932 140.986L124.217 139.647L123.422 141.257L126.138 142.596Z" fill="black" fill-opacity="0.1"/>
</g>
<path d="M166.487 225.447C166.487 225.447 153.233 239.71 157.458 290.984C161.683 342.257 275.402 441.448 256.939 493.832C238.475 546.214 119.136 609.184 125.723 689.111C132.308 769.037 258.992 914.986 258.992 914.986" stroke="black" stroke-width="2"/>
<path d="M139.999 198.967C139.999 198.967 115.104 249.444 119.33 300.718C123.554 351.991 237.274 451.183 218.812 503.566C200.348 555.948 81.0078 618.918 87.5946 698.845C94.1799 778.771 220.864 924.72 220.864 924.72" stroke="black" stroke-width="2"/>
<path d="M99.1351 205.02C99.1351 205.02 76.9772 259.178 81.2015 310.452C85.4272 361.725 199.147 460.917 180.683 513.3C162.22 565.682 42.8808 628.652 49.4661 708.579C56.0529 788.505 182.737 934.454 182.737 934.454" stroke="black" stroke-width="2"/>
<path d="M50.7029 236.796C50.7029 236.796 37.7669 269.48 41.9926 320.755C46.2168 372.028 159.936 471.219 141.473 523.601C123.009 575.985 3.67043 638.954 10.2572 718.882C16.8425 798.808 143.527 944.757 143.527 944.757" stroke="black" stroke-width="2"/>
<defs>
<filter id="filter0_d" x="10.8882" y="0.122559" width="189.211" height="223.901" filterUnits="userSpaceOnUse" color-interpolation-filters="sRGB">
<feFlood flood-opacity="0" result="BackgroundImageFix"/>
<feColorMatrix in="SourceAlpha" type="matrix" values="0 0 0 0 0 0 0 0 0 0 0 0 0 0 0 0 0 0 127 0"/>
<feOffset dy="4"/>
<feGaussianBlur stdDeviation="45"/>
<feColorMatrix type="matrix" values="0 0 0 0 0 0 0 0 0 0 0 0 0 0 0 0 0 0 1 0"/>
<feBlend mode="normal" in2="BackgroundImageFix" result="effect1_dropShadow"/>
<feBlend mode="normal" in="SourceGraphic" in2="effect1_dropShadow" result="shape"/>
</filter>
<filter id="filter1_d" x="80.3058" y="122.3" width="59.2445" height="73.6088" filterUnits="userSpaceOnUse" color-interpolation-filters="sRGB">
<feFlood flood-opacity="0" result="BackgroundImageFix"/>
<feColorMatrix in="SourceAlpha" type="matrix" values="0 0 0 0 0 0 0 0 0 0 0 0 0 0 0 0 0 0 127 0"/>
<feOffset dy="4"/>
<feGaussianBlur stdDeviation="2"/>
<feColorMatrix type="matrix" values="0 0 0 0 0 0 0 0 0 0 0 0 0 0 0 0 0 0 0.25 0"/>
<feBlend mode="normal" in2="BackgroundImageFix" result="effect1_dropShadow"/>
<feBlend mode="normal" in="SourceGraphic" in2="effect1_dropShadow" result="shape"/>
</filter>
<filter id="filter2_i" x="93.5651" y="132.682" width="38.1786" height="48.8093" filterUnits="userSpaceOnUse" color-interpolation-filters="sRGB">
<feFlood flood-opacity="0" result="BackgroundImageFix"/>
<feBlend mode="normal" in="SourceGraphic" in2="BackgroundImageFix" result="shape"/>
<feColorMatrix in="SourceAlpha" type="matrix" values="0 0 0 0 0 0 0 0 0 0 0 0 0 0 0 0 0 0 127 0" result="hardAlpha"/>
<feOffset dx="6" dy="4"/>
<feGaussianBlur stdDeviation="2"/>
<feComposite in2="hardAlpha" operator="arithmetic" k2="-1" k3="1"/>
<feColorMatrix type="matrix" values="0 0 0 0 0 0 0 0 0 0 0 0 0 0 0 0 0 0 0.25 0"/>
<feBlend mode="normal" in2="shape" result="effect1_innerShadow"/>
</filter>
<filter id="filter3_d" x="118.344" y="135.194" width="59.2445" height="73.6088" filterUnits="userSpaceOnUse" color-interpolation-filters="sRGB">
<feFlood flood-opacity="0" result="BackgroundImageFix"/>
<feColorMatrix in="SourceAlpha" type="matrix" values="0 0 0 0 0 0 0 0 0 0 0 0 0 0 0 0 0 0 127 0"/>
<feOffset dy="4"/>
<feGaussianBlur stdDeviation="2"/>
<feColorMatrix type="matrix" values="0 0 0 0 0 0 0 0 0 0 0 0 0 0 0 0 0 0 0.25 0"/>
<feBlend mode="normal" in2="BackgroundImageFix" result="effect1_dropShadow"/>
<feBlend mode="normal" in="SourceGraphic" in2="effect1_dropShadow" result="shape"/>
</filter>
<filter id="filter4_d" x="118.729" y="139.74" width="58.9399" height="64.2489" filterUnits="userSpaceOnUse" color-interpolation-filters="sRGB">
<feFlood flood-opacity="0" result="BackgroundImageFix"/>
<feColorMatrix in="SourceAlpha" type="matrix" values="0 0 0 0 0 0 0 0 0 0 0 0 0 0 0 0 0 0 127 0"/>
<feOffset dy="4"/>
<feGaussianBlur stdDeviation="10"/>
<feColorMatrix type="matrix" values="0 0 0 0 0 0 0 0 0 0 0 0 0 0 0 0 0 0 1 0"/>
<feBlend mode="normal" in2="BackgroundImageFix" result="effect1_dropShadow"/>
<feBlend mode="normal" in="SourceGraphic" in2="effect1_dropShadow" result="shape"/>
</filter>
</defs>
</svg>
