<svg width="119" height="130" viewBox="0 0 119 130" fill="none" xmlns="http://www.w3.org/2000/svg">
<path d="M79.0974 103.189C80.2493 98.3635 84.7061 95.4785 89.052 96.7451C93.3978 98.0118 95.987 102.95 94.8351 107.776C93.7067 113.55 82.6477 118.337 78.9502 118.117C77.9249 113.337 77.9454 108.014 79.0974 103.189Z" fill="#3E1C49" fill-opacity="0.05"/>
<path d="M64.5276 66.3542C66.5615 59.5788 73.18 55.9383 79.3106 58.2228C85.4411 60.5074 88.7622 67.8519 86.7284 74.6273C84.6532 82.7619 68.4181 88.4034 63.1342 87.6871C62.0428 80.7386 62.4938 73.1295 64.5276 66.3542Z" fill="#3E1C49" fill-opacity="0.05"/>
<path d="M55.4901 61.1864C45.9165 69.261 32.1667 67.4054 24.779 57.042C17.3913 46.6785 19.1633 31.7316 28.7369 23.6571C39.66 13.5519 70.2787 23.1291 77.8305 30.147C72.9605 41.9892 65.0636 53.1119 55.4901 61.1864Z" fill="#3E1C49" fill-opacity="0.05"/>
<path d="M26.3292 129.598C11.7876 129.598 -0.00065818 116.858 -0.00065745 101.143C-0.00065672 85.4274 11.7876 72.6876 26.3292 72.6876C43.5242 71.8424 66.0927 105.369 68.5107 118.047C55.8831 125.372 40.8708 129.598 26.3292 129.598Z" fill="#3E1C49" fill-opacity="0.05"/>
</svg>
