<svg width="86" height="109" viewBox="0 0 86 109" fill="none" xmlns="http://www.w3.org/2000/svg">
<path d="M41.8768 13.39C46.4739 17.856 46.5673 25.1097 42.0853 29.5917C37.6034 34.0736 30.2433 34.0866 25.6462 29.6206C19.9692 24.5808 22.3961 8.08802 25.2474 3.72967C31.3285 5.51874 37.2797 8.92405 41.8768 13.39Z" fill="#FDFDFD" fill-opacity="0.05"/>
<path d="M60.5328 35.111C63.6174 29.5962 70.5118 27.6574 75.9319 30.7805C81.3521 33.9036 83.2454 40.906 80.1609 46.4208C76.805 53.1098 60.4547 55.006 55.5692 53.4035C55.7214 47.1589 57.4483 40.6258 60.5328 35.111Z" fill="#FDFDFD" fill-opacity="0.05"/>
<path d="M13.3369 82.4807C4.31395 73.4757 4.29328 58.8963 13.2907 49.9167C22.2881 40.9371 36.8965 40.9578 45.9194 49.9628C57.0726 60.1281 51.8815 93.2604 46.1233 102.002C34.0943 98.3676 22.3598 91.4858 13.3369 82.4807Z" fill="#FDFDFD" fill-opacity="0.05"/>
</svg>
