<svg width="61" height="69" viewBox="0 0 61 69" fill="none" xmlns="http://www.w3.org/2000/svg">
<path fill-rule="evenodd" clip-rule="evenodd" d="M30.7595 0L30.664 8.46252e-05V5.14902L30.7595 5.14884C34.9483 5.14884 37.9106 6.22245 37.9106 8.61607C37.9106 9.33539 37.7214 10.0921 37.3194 10.7987C35.3786 10.2254 33.2219 9.91625 30.8548 9.91625C30.791 9.91625 30.7275 9.91647 30.664 9.91692V28.4691L30.664 28.4691V13.8166V9.91713C30.6006 9.91668 30.5371 9.91646 30.4734 9.91646C28.1063 9.91646 25.9496 10.2256 24.0088 10.7989C23.6068 10.0922 23.4175 9.33547 23.4175 8.61609C23.4175 6.22247 26.3798 5.14886 30.5687 5.14886L30.664 5.14904V0.000105102L30.5687 2.07034e-05C21.3532 2.07034e-05 14.8361 2.36196 14.8361 7.62793C14.8361 9.83516 15.6461 12.2022 17.406 14.2074C13.4515 17.7055 11.4036 22.9426 11.4036 28.7955L11.4038 28.8849L11.4036 28.9862C11.4036 29.4872 11.4229 29.9793 11.4609 30.4623C5.97274 31.7257 3.08747 33.3688 1.58514 35.8352L2.6312 35.6146C0.841936 37.5676 0 40.1884 0 43.685C0 53.8324 8.88363 65.7332 30.3163 65.7332L30.4999 65.7329V65.7333L30.6837 65.7336C32.1642 65.7336 33.5847 65.6768 34.9466 65.5678C32.8025 66.2936 30.8733 66.7946 29.3408 67.0339C30.448 68.7853 35.4578 68.396 40.8021 66.0948C42.8286 65.2222 44.6223 64.1956 46.0405 63.1479C56.4599 59.09 61 50.9397 61 43.6854C61 36.6016 57.5445 33.1123 49.7571 31.4884C49.8675 30.6813 49.9245 29.8467 49.9245 28.986L49.9243 28.8807L49.9245 28.7953C49.9245 22.9424 47.8767 17.7054 43.9223 14.2073C45.6821 12.2021 46.492 9.8351 46.492 7.62791C46.492 2.36194 39.9749 0 30.7595 0ZM30.664 29.7036L30.664 29.7036V30.2066H30.664V29.7036Z" fill="#3B8DBF"/>
<path fill-rule="evenodd" clip-rule="evenodd" d="M30.7595 0L30.664 8.46252e-05V5.14902L30.7595 5.14884C34.9483 5.14884 37.9106 6.22245 37.9106 8.61607C37.9106 9.33539 37.7214 10.0921 37.3194 10.7987C35.3786 10.2254 33.2219 9.91625 30.8548 9.91625C30.791 9.91625 30.7275 9.91647 30.664 9.91692V28.4691L30.664 28.4691V13.8166V9.91713C30.6006 9.91668 30.5371 9.91646 30.4734 9.91646C28.1063 9.91646 25.9496 10.2256 24.0088 10.7989C23.6068 10.0922 23.4175 9.33547 23.4175 8.61609C23.4175 6.22247 26.3798 5.14886 30.5687 5.14886L30.664 5.14904V0.000105102L30.5687 2.07034e-05C21.3532 2.07034e-05 14.8361 2.36196 14.8361 7.62793C14.8361 9.83516 15.6461 12.2022 17.406 14.2074C13.4515 17.7055 11.4036 22.9426 11.4036 28.7955L11.4038 28.8849L11.4036 28.9862C11.4036 29.4872 11.4229 29.9793 11.4609 30.4623C5.97274 31.7257 3.08747 33.3688 1.58514 35.8352L2.6312 35.6146C0.841936 37.5676 0 40.1884 0 43.685C0 53.8324 8.88363 65.7332 30.3163 65.7332L30.4999 65.7329V65.7333L30.6837 65.7336C32.1642 65.7336 33.5847 65.6768 34.9466 65.5678C32.8025 66.2936 30.8733 66.7946 29.3408 67.0339C30.448 68.7853 35.4578 68.396 40.8021 66.0948C42.8286 65.2222 44.6223 64.1956 46.0405 63.1479C56.4599 59.09 61 50.9397 61 43.6854C61 36.6016 57.5445 33.1123 49.7571 31.4884C49.8675 30.6813 49.9245 29.8467 49.9245 28.986L49.9243 28.8807L49.9245 28.7953C49.9245 22.9424 47.8767 17.7054 43.9223 14.2073C45.6821 12.2021 46.492 9.8351 46.492 7.62791C46.492 2.36194 39.9749 0 30.7595 0ZM30.664 29.7036L30.664 29.7036V30.2066H30.664V29.7036Z" fill="url(#paint0_linear)"/>
<path fill-rule="evenodd" clip-rule="evenodd" d="M30.6051 43.3114C42.5899 43.3114 52.5699 41.1103 54.7319 38.1987C48.559 39.2912 40.0638 39.966 30.6859 39.966C21.2136 39.966 12.6417 39.2775 6.45399 38.1655C6.69325 38.4974 7.03402 38.8202 7.46774 39.1317C7.36557 39.0808 7.26624 39.0302 7.16979 38.9799C6.85433 40.647 11.2169 43.1603 16.9975 44.6263C22.6374 46.0568 27.5658 45.9675 28.2825 44.4614C25.7176 44.3443 21.9274 43.7235 17.7734 42.67C16.6478 42.3845 15.5609 42.0838 14.5284 41.7749C18.8365 42.7321 24.457 43.3114 30.6051 43.3114Z" fill="white"/>
<path fill-rule="evenodd" clip-rule="evenodd" d="M20.5218 16.8574C17.454 19.6193 15.8658 23.7219 15.8658 28.3021C15.8658 31.5155 16.8724 34.269 18.5874 36.4383C19.6278 36.5342 20.7077 36.6184 21.8216 36.6899C20.2701 33.2082 19.3895 29.2233 19.3895 24.9891C19.3895 22.1399 19.7882 19.4035 20.5218 16.8574Z" fill="white"/>
<defs>
<linearGradient id="paint0_linear" x1="30.5" y1="0" x2="30.5" y2="68.1247" gradientUnits="userSpaceOnUse">
<stop stop-color="#77BDD9"/>
<stop offset="1" stop-color="white" stop-opacity="0"/>
</linearGradient>
</defs>
</svg>
