<svg width="392" height="399" viewBox="0 0 392 399" fill="none" xmlns="http://www.w3.org/2000/svg">
<path d="M187.523 307.185C206.579 326.017 206.803 356.626 188.024 375.552C169.245 394.479 138.575 394.555 119.519 375.723C95.9769 354.473 106.465 284.869 118.446 266.469C143.746 274.001 168.468 288.353 187.523 307.185Z" fill="#FDFDFD" fill-opacity="0.05"/>
<path d="M136.565 142.867C153.841 132.912 175.895 138.752 185.822 155.912C195.749 173.072 189.79 195.053 172.513 205.009C152.618 217.703 104.626 196.545 93.745 184.357C104.121 167.714 119.288 152.822 136.565 142.867Z" fill="#FDFDFD" fill-opacity="0.05"/>
<path d="M170.354 239.932C176.566 236.353 184.494 238.453 188.064 244.622C191.633 250.792 189.491 258.695 183.279 262.274C176.126 266.839 158.871 259.231 154.959 254.849C158.689 248.865 164.142 243.511 170.354 239.932Z" fill="#FDFDFD" fill-opacity="0.05"/>
<path d="M215.354 207.924C213.288 160.386 250.041 120.185 297.444 118.133C344.848 116.08 384.951 152.953 387.018 200.491C392.011 256.592 294.09 334.749 256.191 344.31C232.301 303.986 217.421 255.461 215.354 207.924Z" fill="#FDFDFD" fill-opacity="0.05"/>
</svg>
