<svg width="373" height="400" viewBox="0 0 373 400" fill="none" xmlns="http://www.w3.org/2000/svg">
<path d="M350.952 117.954C355.963 122.913 356.036 130.972 351.114 135.955C346.193 140.937 338.14 140.957 333.129 135.998C326.938 130.403 329.66 112.077 332.797 107.233C339.443 109.216 345.941 112.995 350.952 117.954Z" fill="url(#paint0_linear)"/>
<path d="M218.068 160.366C228.739 148.729 246.768 147.88 258.338 158.47C269.908 169.061 270.637 187.08 259.966 198.717C247.971 213.048 206.728 208.516 195.62 201.908C199.493 186.866 207.398 172.004 218.068 160.366Z" fill="url(#paint1_linear)"/>
<path d="M324.229 184.423C332.496 192.002 333.099 204.81 325.576 213.029C318.053 221.247 305.253 221.765 296.986 214.185C286.806 205.664 290.026 176.367 294.72 168.476C305.405 171.228 315.962 176.843 324.229 184.423Z" fill="url(#paint2_linear)"/>
<path fill-rule="evenodd" clip-rule="evenodd" d="M190.559 293.434L42.0905 293.434C33.1159 263.868 46.6378 230.033 76.2924 212.896C115.744 187.801 208.27 225.436 228.872 247.981C218.228 264.18 205.226 279.596 190.559 293.434Z" fill="url(#paint3_linear)"/>
<defs>
<linearGradient id="paint0_linear" x1="319" y1="182.435" x2="346.938" y2="110.911" gradientUnits="userSpaceOnUse">
<stop offset="0.510417" stop-color="#3E1C49" stop-opacity="0.2"/>
<stop offset="1" stop-color="#3E1C49" stop-opacity="0"/>
</linearGradient>
<linearGradient id="paint1_linear" x1="260.499" y1="163.435" x2="198.034" y2="203.489" gradientUnits="userSpaceOnUse">
<stop offset="0.0734954" stop-color="#3E1C49" stop-opacity="0.4"/>
<stop offset="0.985471" stop-color="#3E1C49" stop-opacity="0.6"/>
</linearGradient>
<linearGradient id="paint2_linear" x1="328.999" y1="195.435" x2="266.488" y2="182.489" gradientUnits="userSpaceOnUse">
<stop stop-color="#3E1C49" stop-opacity="0.2"/>
<stop offset="1" stop-color="#3E1C49" stop-opacity="0.4"/>
</linearGradient>
<linearGradient id="paint3_linear" x1="130.999" y1="306.935" x2="134.041" y2="202.436" gradientUnits="userSpaceOnUse">
<stop offset="0.249422" stop-color="#3E1C49" stop-opacity="0.75"/>
<stop offset="0.699649" stop-color="#3E1C49" stop-opacity="0.676302"/>
<stop offset="1" stop-color="#3E1C49" stop-opacity="0.6"/>
</linearGradient>
</defs>
</svg>
