<svg width="36" height="36" viewBox="0 0 36 36" fill="none" xmlns="http://www.w3.org/2000/svg">
<path d="M18 34.7699C27.2508 34.7699 34.75 27.2707 34.75 18.0199C34.75 8.76921 27.2508 1.27002 18 1.27002C8.74923 1.27002 1.25 8.76921 1.25 18.0199C1.25 27.2707 8.74923 34.7699 18 34.7699Z" stroke="#1FBBA6" stroke-width="1.5"/>
<path d="M18.0285 34.017C16.5898 34.017 15.1947 33.8371 13.866 33.4993C13.8577 33.4089 13.8535 33.3159 13.8535 33.223V30.3803H11.7837C10.6664 30.3803 9.63082 29.8795 9.17571 28.959C9.01318 28.6561 8.89215 28.3036 8.76477 27.9326C8.47036 27.0752 8.14199 26.1189 7.18906 25.4476C6.77482 25.1132 7.10593 24.7789 7.56103 24.8201C8.43037 25.0705 9.13345 25.6567 9.79566 26.5331C10.4579 27.411 10.7481 27.6201 11.9894 27.6201C12.5685 27.6201 13.4787 27.5789 14.3072 27.4523C14.7623 26.2813 15.5485 25.237 16.501 24.7362C10.9553 24.0675 8.30638 21.3087 8.30638 17.5469C8.30638 15.9164 9.00946 14.3698 10.169 13.0324C9.79707 11.7362 9.29971 9.06141 10.3353 8.01709C12.8193 8.01709 14.3086 9.6476 14.6806 10.0645C15.9219 9.64617 17.2886 9.39576 18.6948 9.39576C20.1432 9.39576 21.4676 9.64617 22.7089 10.0645C23.0809 9.64617 24.5716 8.01709 27.0542 8.01709C28.0475 9.02015 27.5924 11.7362 27.1782 13.0324C28.3378 14.3285 29 15.9164 29 17.5469C29 21.3087 26.392 24.0675 20.8885 24.6522C22.4201 25.4461 23.4965 27.7027 23.4965 29.3744V33.1099C21.7873 33.6972 19.9466 34.017 18.0285 34.017Z" fill="#1FBBA6"/>
</svg>
