<svg width="469" height="406" viewBox="0 0 469 406" fill="none" xmlns="http://www.w3.org/2000/svg">
<path d="M473.013 46.8488V0.00293505H349L448.231 0.00292969C382.539 0.00292969 319.538 26.3258 273.086 73.1808C226.635 120.036 200.539 183.585 200.539 249.848C200.539 291.262 184.229 330.98 155.197 360.265C126.165 389.549 86.7891 406.001 45.7316 406.001H0H136.554H256.387H300.976C366.668 406.001 250.068 406.001 315.558 406.001C402.646 406.001 473.013 406.001 473.013 406.001C473.013 406.001 473.013 249.848 473.013 193.964C473.013 163.738 473.013 141.244 473.013 141.244V93.6948V46.8488Z" fill="url(#paint0_linear)"/>
<defs>
<linearGradient id="paint0_linear" x1="317" y1="0.00292969" x2="317" y2="406.001" gradientUnits="userSpaceOnUse">
<stop stop-color="#3E1C49" stop-opacity="0.1"/>
<stop offset="1" stop-color="white" stop-opacity="0"/>
</linearGradient>
</defs>
</svg>
