<svg width="38" height="38" viewBox="0 0 38 38" fill="none" xmlns="http://www.w3.org/2000/svg">
<path d="M19 36.2479C28.5269 36.2479 36.25 28.5248 36.25 18.998C36.25 9.4711 28.5269 1.74805 19 1.74805C9.47309 1.74805 1.75 9.4711 1.75 18.998C1.75 28.5248 9.47309 36.2479 19 36.2479Z" stroke="#000000" stroke-width="2.5"/>
<path d="M28.7778 19.6221V26.1947H24.9674V20.0623C24.9674 18.5218 24.4163 17.4705 23.0371 17.4705C21.9842 17.4705 21.3577 18.179 21.082 18.8644C20.9815 19.1094 20.9556 19.4504 20.9556 19.7934V26.1947H17.144C17.144 26.1947 17.1953 15.8085 17.144 14.7324H20.9552V16.3571C20.9475 16.3693 20.9375 16.3824 20.9302 16.3942H20.9552V16.3571C21.4616 15.5772 22.3659 14.4631 24.3901 14.4631C26.8978 14.4631 28.7778 16.1014 28.7778 19.6221ZM13.1569 9.20703C11.8529 9.20703 11 10.0623 11 11.1871C11 12.2873 11.8282 13.1685 13.1063 13.1685H13.1317C14.4609 13.1685 15.2876 12.2874 15.2876 11.1871C15.2625 10.0623 14.4609 9.20703 13.1569 9.20703ZM11.2264 26.1947H15.0366V14.7324H11.2264V26.1947Z" fill="#000000"/>
</svg>
