<svg width="36" height="36" viewBox="0 0 36 36" fill="none" xmlns="http://www.w3.org/2000/svg">
<path d="M18 34.7684C27.2508 34.7684 34.75 27.2692 34.75 18.0185C34.75 8.76775 27.2508 1.26855 18 1.26855C8.74923 1.26855 1.25 8.76775 1.25 18.0185C1.25 27.2692 8.74923 34.7684 18 34.7684Z" stroke="#1FBBA6" stroke-width="1.5"/>
<path d="M27.7778 18.6431V25.2157H23.9674V19.0833C23.9674 17.5428 23.4163 16.4915 22.0371 16.4915C20.9842 16.4915 20.3577 17.2 20.082 17.8854C19.9815 18.1304 19.9556 18.4714 19.9556 18.8144V25.2157H16.144C16.144 25.2157 16.1953 14.8295 16.144 13.7534H19.9552V15.3781C19.9475 15.3903 19.9375 15.4034 19.9302 15.4152H19.9552V15.3781C20.4616 14.5982 21.3659 13.4841 23.3901 13.4841C25.8978 13.4841 27.7778 15.1224 27.7778 18.6431ZM12.1569 8.22803C10.8529 8.22803 10 9.08332 10 10.208C10 11.3083 10.8282 12.1895 12.1063 12.1895H12.1317C13.4609 12.1895 14.2876 11.3084 14.2876 10.208C14.2625 9.08332 13.4609 8.22803 12.1569 8.22803ZM10.2264 25.2157H14.0366V13.7534H10.2264V25.2157Z" fill="#1FBBA6"/>
</svg>
