<svg width="28" height="28" viewBox="0 0 28 28" fill="none" xmlns="http://www.w3.org/2000/svg">
<circle cx="14" cy="14" r="12.75" stroke="white" stroke-width="1.5"/>
<path d="M21.3333 14.4779V19.4073H18.4756V14.808C18.4756 13.6526 18.0622 12.8641 17.0278 12.8641C16.2382 12.8641 15.7682 13.3955 15.5615 13.9096C15.4861 14.0933 15.4667 14.3491 15.4667 14.6063V19.4073H12.608C12.608 19.4073 12.6465 11.6176 12.608 10.8106H15.4664V12.0291C15.4606 12.0382 15.4531 12.048 15.4476 12.0569H15.4664V12.0291C15.8462 11.4442 16.5244 10.6086 18.0425 10.6086C19.9234 10.6086 21.3333 11.8373 21.3333 14.4779ZM9.61764 6.6665C8.63967 6.6665 8 7.30797 8 8.15153C8 8.9767 8.62116 9.63763 9.57969 9.63763H9.59879C10.5957 9.63763 11.2157 8.97682 11.2157 8.15153C11.1969 7.30797 10.5957 6.6665 9.61764 6.6665ZM8.16978 19.4073H11.0274V10.8106H8.16978V19.4073Z" fill="white"/>
</svg>
