<svg width="54" height="30" viewBox="0 0 54 30" fill="none" xmlns="http://www.w3.org/2000/svg">
<g opacity="0.18">
<path d="M15.947 15.637C19.2537 17.2387 20.5129 20.999 18.7595 24.036C17.0061 27.0729 12.9042 28.2364 9.59748 26.6347C5.59314 24.9041 4.20178 15.9395 5.06643 13.2231C8.75514 13.1985 12.6404 14.0353 15.947 15.637Z" fill="#FDFDFD"/>
<path d="M48.8912 25.1769C47.2722 27.8406 43.9507 28.84 41.4725 27.4092C38.9942 25.9784 38.2976 22.6591 39.9166 19.9953C41.6977 16.7686 49.4974 15.687 51.7659 16.3983C51.5152 19.3784 50.5102 22.5131 48.8912 25.1769Z" fill="#FDFDFD"/>
<path d="M38.3369 14.9353C40.1225 20.0757 37.5031 25.3324 32.4864 26.6766C27.4697 28.0208 21.9554 24.9435 20.1698 19.8032C17.7887 13.7972 25.7198 2.95181 29.47 1.01264C33.3589 4.84981 36.5513 9.79505 38.3369 14.9353Z" fill="#FDFDFD"/>
</g>
</svg>
