<svg width="43" height="24" viewBox="0 0 43 24" fill="none" xmlns="http://www.w3.org/2000/svg">
<g opacity="0.8">
<path d="M12.4983 12.2372C15.09 13.4926 16.077 16.44 14.7027 18.8203C13.3284 21.2007 10.1132 22.1127 7.52145 20.8573C4.38283 19.5008 3.29227 12.4743 3.96999 10.3452C6.86121 10.3258 9.90647 10.9818 12.4983 12.2372Z" fill="#FDFDFD" fill-opacity="0.2"/>
<path d="M38.3202 19.7144C37.0512 21.8023 34.4478 22.5857 32.5053 21.4642C30.5629 20.3427 30.0169 17.741 31.2858 15.6531C32.6819 13.124 38.7953 12.2762 40.5734 12.8338C40.3769 15.1696 39.5892 17.6266 38.3202 19.7144Z" fill="#FDFDFD" fill-opacity="0.2"/>
<path d="M30.0482 11.6871C31.4477 15.7161 29.3947 19.8364 25.4625 20.89C21.5304 21.9436 17.2083 19.5316 15.8087 15.5026C13.9424 10.7951 20.1589 2.29439 23.0983 0.774452C26.1464 3.78205 28.6486 7.65815 30.0482 11.6871Z" fill="#FDFDFD" fill-opacity="0.2"/>
</g>
</svg>
