<svg width="36" height="36" viewBox="0 0 36 36" fill="none" xmlns="http://www.w3.org/2000/svg">
<path d="M18 34.7694C27.2508 34.7694 34.75 27.2702 34.75 18.0195C34.75 8.76872 27.2508 1.26953 18 1.26953C8.74923 1.26953 1.25 8.76872 1.25 18.0195C1.25 27.2702 8.74923 34.7694 18 34.7694Z" stroke="#1FBBA6" stroke-width="1.5"/>
<path d="M13.2178 16.9469C14.4978 19.4624 16.56 21.5157 19.0756 22.8046L21.0311 20.8491C21.2711 20.6091 21.6267 20.5291 21.9378 20.6357C22.9333 20.9646 24.0089 21.1424 25.1111 21.1424C25.6 21.1424 26 21.5424 26 22.0313V25.1335C26 25.6224 25.6 26.0224 25.1111 26.0224C16.7644 26.0224 10 19.258 10 10.9113C10 10.4225 10.4 10.0225 10.8889 10.0225H14C14.4889 10.0225 14.8889 10.4225 14.8889 10.9113C14.8889 12.0225 15.0667 13.0891 15.3956 14.0847C15.4933 14.3958 15.4222 14.7424 15.1733 14.9913L13.2178 16.9469Z" fill="#1FBBA6"/>
</svg>
