<svg width="456" height="229" viewBox="0 0 456 229" fill="none" xmlns="http://www.w3.org/2000/svg">
<g filter="url(#filter0_d)">
<path d="M88.224 154.042C88.224 154.878 86.288 155.846 82.416 156.946C82.768 161.522 82.944 165.416 82.944 168.628C82.944 174.172 82.24 176.944 80.832 176.944C80.084 176.944 79.49 176.482 79.05 175.558C78.61 174.634 78.258 173.028 77.994 170.74C77.686 166.516 77.356 162.38 77.004 158.332C75.024 158.86 73.22 159.344 71.592 159.784C69.964 160.18 67.5 160.84 64.2 161.764C60.328 171.884 58.04 176.944 57.336 176.944C56.632 176.944 55.862 176.526 55.026 175.69C54.234 174.81 53.838 173.886 53.838 172.918C53.838 172.478 55.092 169.354 57.6 163.546H57.138C56.258 163.546 55.466 163.26 54.762 162.688C54.102 162.116 53.772 161.412 53.772 160.576C53.772 159.696 55.95 158.552 60.306 157.144C61.01 155.56 61.582 154.13 62.022 152.854C63.034 150.346 64.442 146.914 66.246 142.558C68.05 138.202 69.194 135.43 69.678 134.242C70.162 133.01 70.998 131.976 72.186 131.14C73.418 130.26 74.606 129.82 75.75 129.82C77.114 129.82 78.324 131.998 79.38 136.354C80.48 140.71 81.36 146.1 82.02 152.524C83.252 152.392 84.33 152.326 85.254 152.326C87.234 152.326 88.224 152.898 88.224 154.042ZM66.642 155.428C69.766 154.592 73.066 153.888 76.542 153.316C75.75 145.792 74.98 140.138 74.232 136.354C72.252 140.886 69.722 147.244 66.642 155.428ZM96.4343 176.944C95.7743 176.944 95.0263 176.46 94.1903 175.492C93.3543 174.524 92.9363 173.556 92.9363 172.588C92.9363 171.576 94.1463 166.802 96.5663 158.266C98.9863 149.73 100.372 143.24 100.724 138.796C100.152 138.444 99.6463 137.894 99.2063 137.146C98.7663 136.398 98.5463 135.738 98.5463 135.166C98.5463 134.154 100.042 133.12 103.034 132.064C106.026 130.964 109.326 130.414 112.934 130.414C116.586 130.414 119.732 131.294 122.372 133.054C125.056 134.77 126.398 137.212 126.398 140.38C126.398 142.536 125.782 144.56 124.55 146.452C123.362 148.3 121.888 149.818 120.128 151.006C118.412 152.194 116.696 153.25 114.98 154.174C113.264 155.098 111.79 155.868 110.558 156.484C109.37 157.056 108.776 157.474 108.776 157.738C108.776 158.706 109.524 159.96 111.02 161.5C112.56 163.04 113.638 164.096 114.254 164.668C114.87 165.24 115.684 166.01 116.696 166.978C117.708 167.902 118.654 168.738 119.534 169.486C120.458 170.234 121.184 170.85 121.712 171.334C122.284 171.818 122.856 172.324 123.428 172.852C124.528 173.864 125.078 174.678 125.078 175.294C125.078 176.35 124.352 176.878 122.9 176.878C120.26 176.878 116.498 174.59 111.614 170.014C106.73 165.394 103.738 161.478 102.638 158.266C100.57 165.13 99.3823 169.112 99.0743 170.212C98.7663 171.268 98.4143 172.368 98.0183 173.512C97.3143 175.8 96.7863 176.944 96.4343 176.944ZM106.4 140.578C106.4 143.438 105.476 148.168 103.628 154.768C104.376 154.196 105.806 153.36 107.918 152.26C110.03 151.116 111.922 150.082 113.594 149.158C115.31 148.19 116.872 146.914 118.28 145.33C119.688 143.746 120.392 142.096 120.392 140.38C120.392 137.652 118.016 136.288 113.264 136.288C111.108 136.288 108.6 136.838 105.74 137.938C106.18 138.906 106.4 139.786 106.4 140.578ZM166.261 154.042C166.261 154.878 164.325 155.846 160.453 156.946C160.805 161.522 160.981 165.416 160.981 168.628C160.981 174.172 160.277 176.944 158.869 176.944C158.121 176.944 157.527 176.482 157.087 175.558C156.647 174.634 156.295 173.028 156.031 170.74C155.723 166.516 155.393 162.38 155.041 158.332C153.061 158.86 151.257 159.344 149.629 159.784C148.001 160.18 145.537 160.84 142.237 161.764C138.365 171.884 136.077 176.944 135.373 176.944C134.669 176.944 133.899 176.526 133.063 175.69C132.271 174.81 131.875 173.886 131.875 172.918C131.875 172.478 133.129 169.354 135.637 163.546H135.175C134.295 163.546 133.503 163.26 132.799 162.688C132.139 162.116 131.809 161.412 131.809 160.576C131.809 159.696 133.987 158.552 138.343 157.144C139.047 155.56 139.619 154.13 140.059 152.854C141.071 150.346 142.479 146.914 144.283 142.558C146.087 138.202 147.231 135.43 147.715 134.242C148.199 133.01 149.035 131.976 150.223 131.14C151.455 130.26 152.643 129.82 153.787 129.82C155.151 129.82 156.361 131.998 157.417 136.354C158.517 140.71 159.397 146.1 160.057 152.524C161.289 152.392 162.367 152.326 163.291 152.326C165.271 152.326 166.261 152.898 166.261 154.042ZM144.679 155.428C147.803 154.592 151.103 153.888 154.579 153.316C153.787 145.792 153.017 140.138 152.269 136.354C150.289 140.886 147.759 147.244 144.679 155.428ZM175.792 176.878C175.264 176.878 174.538 176.306 173.614 175.162C172.69 173.974 172.228 172.852 172.228 171.796C172.228 170.74 173.196 166.428 175.132 158.86C174.56 158.64 174.054 158.266 173.614 157.738C173.218 157.166 173.02 156.528 173.02 155.824C173.02 155.252 174.164 154.614 176.452 153.91C179.4 142.382 180.874 135.232 180.874 132.46C180.874 131.712 180.962 131.206 181.138 130.942C181.358 130.634 181.754 130.48 182.326 130.48C182.942 130.48 183.734 131.162 184.702 132.526C185.714 133.89 186.22 135.43 186.22 137.146C186.22 138.818 185.142 143.9 182.986 152.392C188.794 151.204 194.492 150.434 200.08 150.082C202.324 140.93 203.446 135.056 203.446 132.46C203.446 131.14 203.886 130.48 204.766 130.48C205.514 130.48 206.394 131.162 207.406 132.526C208.418 133.89 208.924 135.32 208.924 136.816C208.924 138.268 207.934 142.734 205.954 150.214C207.978 150.522 208.99 151.138 208.99 152.062C208.99 152.942 207.626 153.668 204.898 154.24C203.49 159.432 202.522 163.04 201.994 165.064C201.51 167.044 201.114 168.628 200.806 169.816C200.498 171.004 200.168 172.192 199.816 173.38C199.2 175.712 198.65 176.878 198.166 176.878C197.55 176.878 196.824 176.372 195.988 175.36C195.196 174.304 194.8 173.226 194.8 172.126C194.8 171.026 196.12 165.372 198.76 155.164C192.336 156.044 186.55 157.056 181.402 158.2C180.786 160.488 180.192 162.71 179.62 164.866C179.092 166.978 178.674 168.628 178.366 169.816C178.058 171.004 177.728 172.192 177.376 173.38C176.76 175.712 176.232 176.878 175.792 176.878Z" fill="#FDFDFD"/>
<path d="M44.928 157.456C44.928 162.704 42.56 167.12 37.824 170.704C33.088 174.224 27.648 175.984 21.504 175.984C15.424 175.984 10.4 174.416 6.432 171.28C2.464 168.08 0.48 165.072 0.48 162.256C0.48 160.336 1.056 159.376 2.208 159.376C3.232 159.376 5.248 160.912 8.256 163.984C9.408 165.072 10.944 166.096 12.864 167.056C14.848 168.016 16.928 168.496 19.104 168.496C23.584 168.496 27.552 167.344 31.008 165.04C34.528 162.736 36.288 160.24 36.288 157.552C36.288 155.824 35.136 153.616 32.832 150.928C30.528 148.24 27.968 145.712 25.152 143.344C22.4 140.912 19.872 138.32 17.568 135.568C15.264 132.816 14.112 130.64 14.112 129.04C14.112 127.44 14.432 125.744 15.072 123.952C15.712 122.16 16.416 120.848 17.184 120.016C19.68 117.264 23.552 114.736 28.8 112.432C34.112 110.128 38.56 108.976 42.144 108.976C44 108.976 45.568 109.584 46.848 110.8C48.128 112.016 48.768 113.296 48.768 114.64C48.768 115.28 48.096 115.792 46.752 116.176C45.408 116.56 43.36 117.072 40.608 117.712C37.92 118.288 35.52 118.992 33.408 119.824C26.048 122.64 22.368 125.36 22.368 127.984C22.368 129.392 26.112 133.328 33.6 139.792C36.48 142.288 39.072 145.2 41.376 148.528C43.744 151.792 44.928 154.768 44.928 157.456Z" fill="#FDFDFD"/>
<path d="M298.92 176.878C298.392 176.878 297.666 176.306 296.742 175.162C295.818 173.974 295.356 172.852 295.356 171.796C295.356 170.74 296.324 166.428 298.26 158.86C297.688 158.64 297.182 158.266 296.742 157.738C296.346 157.166 296.148 156.528 296.148 155.824C296.148 155.252 297.292 154.614 299.58 153.91C302.528 142.382 304.002 135.232 304.002 132.46C304.002 131.712 304.09 131.206 304.266 130.942C304.486 130.634 304.882 130.48 305.454 130.48C306.07 130.48 306.862 131.162 307.83 132.526C308.842 133.89 309.348 135.43 309.348 137.146C309.348 138.818 308.27 143.9 306.114 152.392C311.922 151.204 317.62 150.434 323.208 150.082C325.452 140.93 326.574 135.056 326.574 132.46C326.574 131.14 327.014 130.48 327.894 130.48C328.642 130.48 329.522 131.162 330.534 132.526C331.546 133.89 332.052 135.32 332.052 136.816C332.052 138.268 331.062 142.734 329.082 150.214C331.106 150.522 332.118 151.138 332.118 152.062C332.118 152.942 330.754 153.668 328.026 154.24C326.618 159.432 325.65 163.04 325.122 165.064C324.638 167.044 324.242 168.628 323.934 169.816C323.626 171.004 323.296 172.192 322.944 173.38C322.328 175.712 321.778 176.878 321.294 176.878C320.678 176.878 319.952 176.372 319.116 175.36C318.324 174.304 317.928 173.226 317.928 172.126C317.928 171.026 319.248 165.372 321.888 155.164C315.464 156.044 309.678 157.056 304.53 158.2C303.914 160.488 303.32 162.71 302.748 164.866C302.22 166.978 301.802 168.628 301.494 169.816C301.186 171.004 300.856 172.192 300.504 173.38C299.888 175.712 299.36 176.878 298.92 176.878ZM356.335 167.77C359.239 165.174 361.725 161.984 363.793 158.2C365.861 154.372 366.895 150.764 366.895 147.376C366.895 143.988 366.235 141.238 364.915 139.126C363.639 137.014 362.121 135.958 360.361 135.958C358.601 135.958 356.401 137.322 353.761 140.05C351.121 142.778 348.745 146.364 346.633 150.808C344.521 155.208 343.465 159.432 343.465 163.48C343.465 165.9 343.993 167.88 345.049 169.42C346.105 170.916 347.337 171.664 348.745 171.664C350.945 171.664 353.475 170.366 356.335 167.77ZM348.349 176.878C345.445 176.878 342.893 175.448 340.693 172.588C338.537 169.728 337.459 166.824 337.459 163.876C337.459 159.872 338.185 155.802 339.637 151.666C341.133 147.53 342.981 143.922 345.181 140.842C347.425 137.762 349.889 135.254 352.573 133.318C355.257 131.338 357.743 130.348 360.031 130.348C363.727 130.348 366.807 132.042 369.271 135.43C371.735 138.774 372.967 142.558 372.967 146.782C372.967 151.006 371.801 155.45 369.469 160.114C367.137 164.734 364.013 168.694 360.097 171.994C356.225 175.25 352.309 176.878 348.349 176.878ZM410.935 154.042C410.935 154.878 408.999 155.846 405.127 156.946C405.479 161.522 405.655 165.416 405.655 168.628C405.655 174.172 404.951 176.944 403.543 176.944C402.795 176.944 402.201 176.482 401.761 175.558C401.321 174.634 400.969 173.028 400.705 170.74C400.397 166.516 400.067 162.38 399.715 158.332C397.735 158.86 395.931 159.344 394.303 159.784C392.675 160.18 390.211 160.84 386.911 161.764C383.039 171.884 380.751 176.944 380.047 176.944C379.343 176.944 378.573 176.526 377.737 175.69C376.945 174.81 376.549 173.886 376.549 172.918C376.549 172.478 377.803 169.354 380.311 163.546H379.849C378.969 163.546 378.177 163.26 377.473 162.688C376.813 162.116 376.483 161.412 376.483 160.576C376.483 159.696 378.661 158.552 383.017 157.144C383.721 155.56 384.293 154.13 384.733 152.854C385.745 150.346 387.153 146.914 388.957 142.558C390.761 138.202 391.905 135.43 392.389 134.242C392.873 133.01 393.709 131.976 394.897 131.14C396.129 130.26 397.317 129.82 398.461 129.82C399.825 129.82 401.035 131.998 402.091 136.354C403.191 140.71 404.071 146.1 404.731 152.524C405.963 152.392 407.041 152.326 407.965 152.326C409.945 152.326 410.935 152.898 410.935 154.042ZM389.353 155.428C392.477 154.592 395.777 153.888 399.253 153.316C398.461 145.792 397.691 140.138 396.943 136.354C394.963 140.886 392.433 147.244 389.353 155.428ZM421.192 130.414C425.328 130.414 429.728 131.492 434.392 133.648C439.1 135.804 443.148 138.796 446.536 142.624C449.924 146.408 451.618 150.346 451.618 154.438C451.618 157.122 449.748 160.29 446.008 163.942C442.312 167.55 438.022 170.652 433.138 173.248C428.254 175.8 424.206 177.076 420.994 177.076C420.158 177.076 419.19 176.372 418.09 174.964C417.034 173.512 416.506 172.06 416.506 170.608C416.506 169.112 417.782 163.788 420.334 154.636C422.886 145.484 424.272 139.456 424.492 136.552C423.084 135.98 421.962 135.232 421.126 134.308C420.29 133.384 419.872 132.504 419.872 131.668C419.872 130.832 420.312 130.414 421.192 130.414ZM445.546 153.712C445.546 150.984 443.918 148.036 440.662 144.868C437.406 141.656 433.622 139.346 429.31 137.938C429.53 138.73 429.64 139.676 429.64 140.776C429.64 141.832 429.244 143.834 428.452 146.782C427.704 149.73 426.318 154.658 424.294 161.566C423.458 164.47 422.776 167.66 422.248 171.136C425.284 170.74 428.672 169.42 432.412 167.176C436.196 164.888 439.32 162.446 441.784 159.85C444.292 157.254 445.546 155.208 445.546 153.712Z" fill="#FDFDFD"/>
<path d="M243.6 176.464C242.64 176.464 241.552 175.76 240.336 174.352C239.12 172.944 238.512 171.536 238.512 170.128C238.512 168.656 240.272 161.712 243.792 149.296C247.312 136.88 249.328 127.44 249.84 120.976C249.008 120.464 248.272 119.664 247.632 118.576C246.992 117.488 246.672 116.528 246.672 115.696C246.672 114.224 248.848 112.72 253.2 111.184C257.552 109.584 262.352 108.784 267.6 108.784C272.912 108.784 277.488 110.064 281.328 112.624C285.232 115.12 287.184 118.672 287.184 123.28C287.184 126.416 286.288 129.36 284.496 132.112C282.768 134.8 280.624 137.008 278.064 138.736C275.568 140.464 273.072 142 270.576 143.344C268.08 144.688 265.936 145.808 264.144 146.704C262.416 147.536 261.552 148.144 261.552 148.528C261.552 149.936 262.64 151.76 264.816 154C267.056 156.24 268.624 157.776 269.52 158.608C270.416 159.44 271.6 160.56 273.072 161.968C274.544 163.312 275.92 164.528 277.2 165.616C278.544 166.704 279.6 167.6 280.368 168.304C281.2 169.008 282.032 169.744 282.864 170.512C284.464 171.984 285.264 173.168 285.264 174.064C285.264 175.6 284.208 176.368 282.096 176.368C278.256 176.368 272.784 173.04 265.68 166.384C258.576 159.664 254.224 153.968 252.624 149.296C249.616 159.28 247.888 165.072 247.44 166.672C246.992 168.208 246.48 169.808 245.904 171.472C244.88 174.8 244.112 176.464 243.6 176.464ZM258.096 123.568C258.096 127.728 256.752 134.608 254.064 144.208C255.152 143.376 257.232 142.16 260.304 140.56C263.376 138.896 266.128 137.392 268.56 136.048C271.056 134.64 273.328 132.784 275.376 130.48C277.424 128.176 278.448 125.776 278.448 123.28C278.448 119.312 274.992 117.328 268.08 117.328C264.944 117.328 261.296 118.128 257.136 119.728C257.776 121.136 258.096 122.416 258.096 123.568Z" fill="#FDFDFD"/>
</g>
<path d="M80.632 20.664L72.424 21.048C71.912 21.048 71.384 20.712 70.84 20.04C70.296 19.368 70.024 18.712 70.024 18.072C70.024 17.496 70.936 17.128 72.76 16.968C74.616 16.808 78.664 16.728 84.904 16.728C88.136 16.728 90.792 17.08 92.872 17.784C94.984 18.488 96.04 19.272 96.04 20.136C96.04 20.744 95.512 21.048 94.456 21.048C93.4 21.048 91.928 20.984 90.04 20.856C88.152 20.728 86.344 20.648 84.616 20.616C84.712 20.936 84.76 21.288 84.76 21.672C84.76 22.856 83.512 28.36 81.016 38.184C80.76 39.208 80.376 40.808 79.864 42.984C79.352 45.16 78.968 46.68 78.712 47.544C78.264 49.24 77.864 50.088 77.512 50.088C77.032 50.088 76.488 49.736 75.88 49.032C75.304 48.296 75.016 47.56 75.016 46.824C75.016 46.088 75.88 42.312 77.608 35.496C79.336 28.648 80.344 23.704 80.632 20.664ZM101.28 14.904C101.28 13.656 101.664 13.032 102.432 13.032C103.04 13.032 103.68 13.512 104.352 14.472C105.056 15.432 105.408 16.36 105.408 17.256C105.408 19.336 104.88 22.888 103.824 27.912C102.8 32.904 101.456 37.896 99.7915 42.888C102.992 37.096 105.664 32.92 107.808 30.36C109.984 27.768 111.84 26.472 113.376 26.472C114.208 26.472 115.168 27.192 116.256 28.632C117.376 30.072 117.936 31.512 117.936 32.952C117.936 34.392 117.536 36.552 116.736 39.432C114.752 46.664 112.88 50.28 111.12 50.28C110.416 50.28 110.064 49.8 110.064 48.84C110.064 47.88 110.448 46.264 111.216 43.992C112.912 39.032 113.76 35.688 113.76 33.96C113.76 33.384 113.616 32.904 113.328 32.52C113.04 32.136 112.688 31.944 112.272 31.944C111.856 31.944 111.344 32.168 110.736 32.616C110.128 33.064 109.392 33.848 108.528 34.968C107.44 36.408 106.304 38.024 105.12 39.816C103.968 41.608 103.264 42.696 103.008 43.08C102.784 43.432 102.368 44.088 101.76 45.048C101.184 46.008 100.752 46.728 100.464 47.208C100.176 47.656 99.8235 48.152 99.4075 48.696C98.6715 49.752 98.1115 50.28 97.7275 50.28C97.3435 50.28 96.8315 49.928 96.1915 49.224C95.5515 48.488 95.2315 47.88 95.2315 47.4C95.2315 46.888 95.4075 45.944 95.7595 44.568C97.3595 38.424 98.3675 34.216 98.7835 31.944C100.448 23.624 101.28 17.944 101.28 14.904ZM141.462 34.44C141.462 36.136 140.534 37.528 138.678 38.616C136.854 39.672 134.774 40.2 132.438 40.2C130.134 40.2 128.038 39.944 126.15 39.432C125.702 40.84 125.478 42.104 125.478 43.224C125.478 44.312 125.814 45.16 126.486 45.768C127.19 46.376 128.326 46.68 129.894 46.68C131.494 46.68 133.126 46.408 134.79 45.864C136.486 45.288 137.414 45 137.574 45C138.406 45 138.822 45.32 138.822 45.96C138.822 46.824 137.846 47.768 135.894 48.792C133.942 49.784 132.038 50.28 130.182 50.28C127.686 50.28 125.654 49.544 124.086 48.072C122.518 46.568 121.734 44.68 121.734 42.408C121.734 40.136 122.342 37.768 123.558 35.304C124.774 32.808 126.342 30.712 128.262 29.016C130.182 27.32 132.086 26.472 133.974 26.472C135.862 26.472 137.574 27.368 139.11 29.16C140.678 30.952 141.462 32.712 141.462 34.44ZM134.214 30.264C133.03 30.264 131.798 30.888 130.518 32.136C129.238 33.352 128.15 34.872 127.254 36.696C128.534 36.984 129.99 37.128 131.622 37.128C133.254 37.128 134.678 36.872 135.894 36.36C137.11 35.816 137.718 35.112 137.718 34.248C137.718 33.384 137.318 32.504 136.518 31.608C135.75 30.712 134.982 30.264 134.214 30.264ZM184.689 24.456C184.689 27.912 183.025 30.84 179.697 33.24C176.401 35.64 172.033 37.368 166.593 38.424C164.257 46.328 162.865 50.28 162.417 50.28C161.969 50.28 161.441 49.928 160.833 49.224C160.225 48.488 159.921 47.768 159.921 47.064C159.921 46.328 160.385 44.408 161.313 41.304C164.193 31.736 165.697 25.064 165.825 21.288C165.057 20.584 164.673 19.944 164.673 19.368C164.673 18.568 165.761 17.8 167.937 17.064C170.113 16.328 172.193 15.96 174.177 15.96C177.249 15.96 179.761 16.744 181.713 18.312C183.697 19.88 184.689 21.928 184.689 24.456ZM180.465 24.744C180.465 23.336 179.921 22.184 178.833 21.288C177.777 20.36 176.497 19.896 174.993 19.896C173.489 19.896 171.665 20.376 169.521 21.336C169.841 22.04 170.001 22.696 170.001 23.304C170.001 25.096 169.217 28.888 167.649 34.68C171.489 33.656 174.577 32.248 176.913 30.456C179.281 28.632 180.465 26.728 180.465 24.744ZM198.943 34.632C198.943 33.544 198.767 32.52 198.415 31.56C198.063 30.568 197.551 29.848 196.879 29.4C194.671 30.008 192.767 31.72 191.167 34.536C189.599 37.32 188.815 39.944 188.815 42.408C188.815 44.872 189.423 46.408 190.639 47.016C192.943 46.568 194.895 45 196.495 42.312C198.127 39.592 198.943 37.032 198.943 34.632ZM186.319 35.064C187.439 32.568 188.895 30.52 190.687 28.92C192.511 27.288 194.367 26.472 196.255 26.472C198.175 26.472 199.775 27.288 201.055 28.92C202.335 30.52 202.975 32.488 202.975 34.824C202.975 37.128 202.415 39.496 201.295 41.928C200.175 44.328 198.623 46.328 196.639 47.928C194.687 49.496 192.607 50.28 190.399 50.28C188.767 50.28 187.407 49.528 186.319 48.024C185.231 46.52 184.687 44.616 184.687 42.312C184.687 39.976 185.231 37.56 186.319 35.064ZM209.077 32.328L208.933 28.728C208.933 27.224 209.285 26.472 209.989 26.472C210.597 26.472 211.173 26.872 211.717 27.672C212.293 28.44 212.581 29.368 212.581 30.456C212.581 31.512 212.549 32.312 212.485 32.856C215.269 28.632 217.909 26.52 220.405 26.52C221.973 26.52 222.757 26.904 222.757 27.672C222.757 28.056 222.581 28.408 222.229 28.728C221.877 29.048 221.317 29.416 220.549 29.832C218.853 30.568 217.413 31.704 216.229 33.24C215.077 34.744 214.133 36.456 213.397 38.376C212.661 40.296 212.069 41.912 211.621 43.224C211.205 44.536 210.885 45.56 210.661 46.296C210.437 47.032 210.181 47.752 209.893 48.456C209.381 49.736 208.789 50.376 208.117 50.376C207.573 50.376 207.125 50.072 206.773 49.464C206.453 48.824 206.293 48.216 206.293 47.64C206.293 47.032 206.565 45.848 207.109 44.088C208.421 40.056 209.077 36.136 209.077 32.328ZM231.784 45.48C231.784 46.088 232.136 46.392 232.84 46.392C234.056 46.392 235.528 46.056 237.256 45.384C239.016 44.68 239.992 44.328 240.184 44.328C240.76 44.328 241.048 44.632 241.048 45.24C241.048 46.168 240.088 47.24 238.168 48.456C236.28 49.672 234.552 50.28 232.984 50.28C231.448 50.28 230.168 49.864 229.144 49.032C228.12 48.168 227.608 47.288 227.608 46.392C227.608 45.496 227.8 44.36 228.184 42.984C228.568 41.576 229.112 39.736 229.816 37.464C230.552 35.16 231.128 33.256 231.544 31.752C230.04 32.104 229.032 32.28 228.52 32.28C228.008 32.28 227.496 32.024 226.984 31.512C226.504 30.968 226.264 30.456 226.264 29.976C226.264 29.208 228.344 28.472 232.504 27.768C233.08 25.112 233.368 22.76 233.368 20.712C233.368 19.752 233.688 19.272 234.328 19.272C234.872 19.272 235.544 19.624 236.344 20.328C237.144 21 237.544 21.768 237.544 22.632C237.544 23.496 237.272 25.016 236.728 27.192C238.552 27.032 240.008 26.952 241.096 26.952C243.016 26.952 243.976 27.368 243.976 28.2C243.976 28.68 243.448 29.08 242.392 29.4C241.368 29.72 239.192 30.216 235.864 30.888C235.192 33.416 234.344 36.312 233.32 39.576C232.296 42.808 231.784 44.776 231.784 45.48ZM250.827 50.376C250.411 50.376 249.963 50.072 249.483 49.464C249.003 48.856 248.763 48.36 248.763 47.976C248.763 47.592 248.923 46.84 249.243 45.72C250.843 39.96 251.931 35.848 252.507 33.384C251.131 33.704 250.187 33.864 249.675 33.864C249.163 33.864 248.651 33.64 248.139 33.192C247.627 32.744 247.371 32.248 247.371 31.704C247.371 31.16 248.091 30.68 249.531 30.264C251.387 29.816 252.667 29.528 253.371 29.4C253.691 27.864 253.931 26.68 254.091 25.848C254.859 21.432 255.899 18.248 257.211 16.296C258.523 14.344 260.299 13.368 262.539 13.368C264.139 13.368 265.451 14.008 266.475 15.288C267.499 16.536 268.011 18.024 268.011 19.752C268.011 21.448 267.563 22.296 266.667 22.296C265.899 22.296 265.275 21.432 264.795 19.704C264.635 19.064 264.363 18.472 263.979 17.928C263.595 17.384 263.131 17.112 262.587 17.112C262.043 17.112 261.547 17.368 261.099 17.88C260.651 18.36 260.251 19.064 259.899 19.992C258.971 22.584 258.331 24.952 257.979 27.096L257.595 28.776C258.779 28.616 259.947 28.536 261.099 28.536C262.283 28.536 263.131 28.664 263.643 28.92C264.187 29.176 264.459 29.496 264.459 29.88C264.459 30.488 263.931 30.952 262.875 31.272C261.819 31.592 259.755 32.008 256.683 32.52C254.411 41.736 252.859 47.224 252.027 48.984C251.579 49.912 251.179 50.376 250.827 50.376ZM279.913 34.632C279.913 33.544 279.737 32.52 279.385 31.56C279.033 30.568 278.521 29.848 277.849 29.4C275.641 30.008 273.737 31.72 272.137 34.536C270.569 37.32 269.785 39.944 269.785 42.408C269.785 44.872 270.393 46.408 271.609 47.016C273.913 46.568 275.865 45 277.465 42.312C279.097 39.592 279.913 37.032 279.913 34.632ZM267.289 35.064C268.409 32.568 269.865 30.52 271.657 28.92C273.481 27.288 275.337 26.472 277.225 26.472C279.145 26.472 280.745 27.288 282.025 28.92C283.305 30.52 283.945 32.488 283.945 34.824C283.945 37.128 283.385 39.496 282.265 41.928C281.145 44.328 279.593 46.328 277.609 47.928C275.657 49.496 273.577 50.28 271.369 50.28C269.737 50.28 268.377 49.528 267.289 48.024C266.201 46.52 265.657 44.616 265.657 42.312C265.657 39.976 266.201 37.56 267.289 35.064ZM297.583 17.064C297.583 23.08 296.335 30.888 293.839 40.488C292.239 47.016 291.119 50.28 290.479 50.28C290.031 50.28 289.503 49.928 288.895 49.224C288.319 48.52 288.031 47.976 288.031 47.592C288.031 47.208 288.495 45.224 289.423 41.64C290.351 38.056 291.279 33.656 292.207 28.44C293.135 23.192 293.599 18.472 293.599 14.28C293.599 13.832 293.663 13.512 293.791 13.32C293.919 13.128 294.191 13.032 294.607 13.032C295.023 13.032 295.615 13.496 296.383 14.424C297.183 15.32 297.583 16.2 297.583 17.064ZM306.997 19.656C306.997 19.016 307.253 18.408 307.765 17.832C308.277 17.256 308.789 16.968 309.301 16.968C309.845 16.968 310.485 17.624 311.221 18.936C311.957 20.216 312.325 21.288 312.325 22.152C312.325 22.472 312.181 22.76 311.893 23.016C311.605 23.272 311.301 23.4 310.981 23.4C310.213 23.4 309.349 22.936 308.389 22.008C307.461 21.08 306.997 20.296 306.997 19.656ZM306.757 26.472C307.365 26.472 307.941 26.84 308.485 27.576C309.029 28.312 309.301 29.032 309.301 29.736C309.301 30.44 308.837 32.552 307.909 36.072C306.981 39.56 305.813 43.48 304.405 47.832C303.861 49.432 303.173 50.232 302.341 50.232C301.893 50.232 301.509 50.056 301.189 49.704C300.869 49.32 300.709 48.904 300.709 48.456C300.709 47.976 300.821 47.24 301.045 46.248C301.301 45.224 301.653 43.88 302.101 42.216C302.581 40.52 302.949 39.144 303.205 38.088C303.493 37.032 303.781 35.848 304.069 34.536C304.357 33.192 304.581 32.12 304.741 31.32C304.933 30.488 305.141 29.656 305.365 28.824C305.813 27.256 306.277 26.472 306.757 26.472ZM327.746 34.632C327.746 33.544 327.57 32.52 327.218 31.56C326.866 30.568 326.354 29.848 325.682 29.4C323.474 30.008 321.57 31.72 319.97 34.536C318.402 37.32 317.618 39.944 317.618 42.408C317.618 44.872 318.226 46.408 319.442 47.016C321.746 46.568 323.698 45 325.298 42.312C326.93 39.592 327.746 37.032 327.746 34.632ZM315.122 35.064C316.242 32.568 317.698 30.52 319.49 28.92C321.314 27.288 323.17 26.472 325.058 26.472C326.978 26.472 328.578 27.288 329.858 28.92C331.138 30.52 331.778 32.488 331.778 34.824C331.778 37.128 331.218 39.496 330.098 41.928C328.978 44.328 327.426 46.328 325.442 47.928C323.49 49.496 321.41 50.28 319.202 50.28C317.57 50.28 316.21 49.528 315.122 48.024C314.034 46.52 313.49 44.616 313.49 42.312C313.49 39.976 314.034 37.56 315.122 35.064ZM363.482 34.632C363.482 33.544 363.306 32.52 362.954 31.56C362.602 30.568 362.09 29.848 361.418 29.4C359.21 30.008 357.306 31.72 355.706 34.536C354.138 37.32 353.354 39.944 353.354 42.408C353.354 44.872 353.962 46.408 355.178 47.016C357.482 46.568 359.434 45 361.034 42.312C362.666 39.592 363.482 37.032 363.482 34.632ZM350.858 35.064C351.978 32.568 353.434 30.52 355.226 28.92C357.05 27.288 358.906 26.472 360.794 26.472C362.714 26.472 364.314 27.288 365.594 28.92C366.874 30.52 367.514 32.488 367.514 34.824C367.514 37.128 366.954 39.496 365.834 41.928C364.714 44.328 363.162 46.328 361.178 47.928C359.226 49.496 357.146 50.28 354.938 50.28C353.306 50.28 351.946 49.528 350.858 48.024C349.77 46.52 349.226 44.616 349.226 42.312C349.226 39.976 349.77 37.56 350.858 35.064ZM375.632 50.376C375.216 50.376 374.768 50.072 374.288 49.464C373.808 48.856 373.568 48.36 373.568 47.976C373.568 47.592 373.728 46.84 374.048 45.72C375.648 39.96 376.736 35.848 377.312 33.384C375.936 33.704 374.992 33.864 374.48 33.864C373.968 33.864 373.456 33.64 372.944 33.192C372.432 32.744 372.176 32.248 372.176 31.704C372.176 31.16 372.896 30.68 374.336 30.264C376.192 29.816 377.472 29.528 378.176 29.4C378.496 27.864 378.736 26.68 378.896 25.848C379.664 21.432 380.704 18.248 382.016 16.296C383.328 14.344 385.104 13.368 387.344 13.368C388.944 13.368 390.256 14.008 391.28 15.288C392.304 16.536 392.816 18.024 392.816 19.752C392.816 21.448 392.368 22.296 391.472 22.296C390.704 22.296 390.08 21.432 389.6 19.704C389.44 19.064 389.168 18.472 388.784 17.928C388.4 17.384 387.936 17.112 387.392 17.112C386.848 17.112 386.352 17.368 385.904 17.88C385.456 18.36 385.056 19.064 384.704 19.992C383.776 22.584 383.136 24.952 382.784 27.096L382.4 28.776C383.584 28.616 384.752 28.536 385.904 28.536C387.088 28.536 387.936 28.664 388.448 28.92C388.992 29.176 389.264 29.496 389.264 29.88C389.264 30.488 388.736 30.952 387.68 31.272C386.624 31.592 384.56 32.008 381.488 32.52C379.216 41.736 377.664 47.224 376.832 48.984C376.384 49.912 375.984 50.376 375.632 50.376Z" fill="#FDFDFD"/>
<defs>
<filter id="filter0_d" x="0.47998" y="108.784" width="455.138" height="72.2921" filterUnits="userSpaceOnUse" color-interpolation-filters="sRGB">
<feFlood flood-opacity="0" result="BackgroundImageFix"/>
<feColorMatrix in="SourceAlpha" type="matrix" values="0 0 0 0 0 0 0 0 0 0 0 0 0 0 0 0 0 0 127 0"/>
<feOffset dx="2" dy="2"/>
<feGaussianBlur stdDeviation="1"/>
<feColorMatrix type="matrix" values="0 0 0 0 0 0 0 0 0 0 0 0 0 0 0 0 0 0 0.25 0"/>
<feBlend mode="normal" in2="BackgroundImageFix" result="effect1_dropShadow"/>
<feBlend mode="normal" in="SourceGraphic" in2="effect1_dropShadow" result="shape"/>
</filter>
</defs>
</svg>
