<svg width="185" height="92" viewBox="0 0 185 92" fill="none" xmlns="http://www.w3.org/2000/svg">
<path d="M91.7152 67.4408C92.9282 62.7787 97.6214 59.9913 102.198 61.2151C106.774 62.4388 109.5 67.2103 108.287 71.8725C107.099 77.4512 95.4539 82.0761 91.5603 81.8641C90.4806 77.2452 90.5023 72.103 91.7152 67.4408Z" fill="#3E1C49" fill-opacity="0.05"/>
<path d="M76.373 31.8529C78.5146 25.3067 85.4841 21.7894 91.9397 23.9967C98.3953 26.2039 101.892 33.3 99.7508 39.8461C97.5656 47.7054 80.4697 53.1561 74.9056 52.464C73.7564 45.7506 74.2313 38.399 76.373 31.8529Z" fill="#3E1C49" fill-opacity="0.05"/>
<path d="M155.665 70.8992C145.584 78.7005 131.105 76.9077 123.326 66.8949C115.546 56.8821 117.412 42.4409 127.493 34.6396C138.996 24.8763 171.238 34.1295 179.19 40.9099C174.062 52.3514 165.746 63.0979 155.665 70.8992Z" fill="#3E1C49" fill-opacity="0.05"/>
<path d="M20.7265 55C5.41391 55 -6.99939 42.6912 -6.99939 27.5076C-6.99939 12.3239 5.41391 0.0151571 20.7265 0.0151579C38.8332 -0.801423 62.5983 31.5906 65.1445 43.8397C51.8474 50.917 36.0391 55 20.7265 55Z" fill="#3E1C49" fill-opacity="0.05"/>
</svg>
