<svg width="179" height="105" viewBox="0 0 179 105" fill="none" xmlns="http://www.w3.org/2000/svg">
<path d="M59.7435 75.4634C59.2962 73.6747 58.0537 72.7804 56.0159 72.7804C52.4871 72.7804 49.6541 74.5442 47.5169 78.0718C45.5785 81.1523 44.6093 84.3818 44.6093 87.7604C44.6093 91.139 45.3549 93.7971 46.8459 95.7348C48.3867 97.9706 50.7227 99.0885 53.8539 99.0885C59.6193 99.0885 65.3101 95.1386 70.9264 87.2387C74.1074 82.618 76.667 78.3451 78.6054 74.42C77.3628 74.1716 75.996 73.7493 74.505 73.153C72.0696 78.3203 69.162 83.09 65.7823 87.4623C61.0109 93.7226 56.7863 96.8527 53.1083 96.8527C52.661 96.8527 52.4374 96.6788 52.4374 96.331C52.4374 96.0329 52.7356 95.8342 53.332 95.7348C53.9284 95.6851 54.674 95.5361 55.5686 95.2876C58.8489 93.9958 62.4274 90.7663 66.3042 85.5991C68.9881 81.9224 71.4732 77.6744 73.7594 72.8549C70.4294 71.265 68.7644 69.5509 68.7644 67.7126C68.7644 66.8182 69.2366 65.9984 70.1809 65.2532C71.1252 64.4582 72.1441 64.0607 73.2376 64.0607C74.3807 64.0607 75.6233 64.5576 76.9652 65.5513C79.997 57.6514 81.7614 50.3229 82.2584 43.5657C77.7853 43.7645 73.2376 44.6091 68.6153 46.0996C63.993 47.5902 60.3151 49.7763 57.5815 52.658C55.6928 54.5461 54.7485 56.6577 54.7485 58.9929C54.7485 62.9677 56.836 65.75 61.0109 67.3399C61.5577 67.638 62.5517 67.9361 63.993 68.2342C64.2912 68.3336 64.4404 68.4827 64.4404 68.6814C64.4404 68.8801 64.2415 68.9298 63.8439 68.8305H63.7694C61.0855 68.8305 58.327 67.6629 55.494 65.3277C52.7107 62.9925 51.3191 60.3592 51.3191 57.4278C51.3191 55.341 52.1889 53.4282 53.9284 51.6892C56.8111 48.7081 60.9115 46.4723 66.2296 44.9817C71.5974 43.4912 76.9901 42.6217 82.4076 42.3733V37.6035C82.4076 37.2061 82.5567 37.0073 82.8549 37.0073C83.1531 37.0073 83.3022 37.7774 83.3022 39.3177C83.3022 40.8579 83.3022 41.8516 83.3022 42.2988H86.6571C90.2356 42.2988 93.9632 42.6714 97.84 43.4167C102.263 44.4104 105.867 45.8761 108.65 47.8138C112.427 50.4471 114.316 53.6517 114.316 57.4278C114.316 61.1542 112.502 64.4582 108.874 67.3399C103.506 71.7619 95.6531 74.2213 85.3151 74.7181C86.0109 75.6621 87.005 77.0285 88.2972 78.8171C91.1799 82.7422 93.3916 85.6985 94.9324 87.6859C99.0576 93.3002 102.437 97.0266 105.072 98.8649C107.755 100.703 109.992 101.622 111.781 101.622C114.465 101.622 115.807 99.9083 115.807 96.4801C115.807 93.1015 114.788 90.021 112.75 87.2387C112.601 87.0896 112.527 86.9654 112.527 86.8661C112.527 86.717 112.626 86.6425 112.825 86.6425C113.074 86.6425 113.297 86.8164 113.496 87.1642C115.832 89.8471 117 92.7786 117 95.9584C117 98.2439 116.304 100.157 114.913 101.697C113.521 103.237 111.707 104.007 109.47 104.007C106.19 104.007 102.76 102.442 99.1819 99.3121C94.9075 95.6354 91.006 90.0459 87.4771 82.5435L83.6004 74.7181H82.333C74.1819 91.5116 64.7634 99.9083 54.0775 99.9083C50.3996 99.9083 47.4672 98.7159 45.2803 96.331C43.0934 93.9958 42 90.8657 42 86.9406C42 82.9658 43.2177 79.3885 45.6531 76.2087C48.1382 73.0288 51.3439 71.4389 55.2704 71.4389C56.4135 71.4389 57.4573 71.7619 58.4016 72.4078C59.4453 72.9543 59.9672 73.7989 59.9672 74.9417C59.9672 75.2398 59.8926 75.4137 59.7435 75.4634ZM97.84 71.4389C106.339 68.8553 110.588 64.6569 110.588 58.8438C110.588 55.5149 108.948 52.509 105.668 49.826C103.282 47.7392 100.027 46.0996 95.9016 44.9072C92.3231 43.9632 88.5706 43.4912 84.6441 43.4912H83.2276C82.7803 50.1986 80.9165 57.7011 77.6362 65.9984C78.8787 67.0418 79.9722 68.11 80.9165 69.2031C82.8052 64.6321 84.3956 59.44 85.6879 53.6269C85.8867 52.5338 86.0358 51.8134 86.1352 51.4656C86.4831 49.9751 87.4523 49.2298 89.0427 49.2298C89.9374 49.2298 90.3847 49.6024 90.3847 50.3477C90.3847 50.6955 90.1859 51.7389 89.7883 53.4778C88.4463 59.6388 86.3588 65.9239 83.5258 72.3332L84.0477 73.004C89.4652 73.004 94.0626 72.4823 97.84 71.4389ZM73.0885 64.955C71.6968 64.955 71.001 65.7252 71.001 67.2654C71.001 68.7559 72.169 70.1471 74.505 71.4389C75.4493 69.4018 76.1451 67.7126 76.5924 66.3711C75.1511 65.4271 73.9831 64.955 73.0885 64.955ZM80.5437 70.2465C79.4006 68.905 78.3072 67.8119 77.2634 66.9673C76.5179 68.8056 75.8221 70.3955 75.1759 71.737C76.4682 72.2836 77.8598 72.6562 79.3509 72.8549L80.5437 70.2465Z" fill="#1FBBA6"/>
<path d="M72.1215 14.7477C72.1215 12.8913 71.2687 11.141 69.5629 9.49682C67.1109 7.16312 63.726 5.99627 59.4083 5.99627C55.6237 5.99627 51.4392 6.81837 46.855 8.46257C44.4563 9.31119 42.3774 10.478 40.6183 11.9631C37.8998 14.2968 36.5405 16.6305 36.5405 18.9642C36.5405 22.0935 38.5394 24.9046 42.5373 27.3974C44.0299 28.299 47.0149 29.7841 51.4925 31.8526C56.0235 33.8681 59.3284 35.5123 61.4072 36.7852C64.5522 38.6946 66.7111 40.7366 67.8838 42.9112C69.1098 45.0858 69.7228 47.1012 69.7228 48.9576C69.7228 51.6095 68.8433 54.3145 67.0842 57.0725C63.9925 62.0051 59.4616 66.2482 53.4915 69.8018C46.6151 73.9388 38.3262 76.0073 28.6247 76.0073C19.2964 76.0073 11.887 73.6471 6.39659 68.9267C2.1322 65.32 0 60.6791 0 55.004C0 51.3974 1.30597 47.4195 3.91791 43.0703C6.58316 38.7211 9.83475 35.6449 13.6727 33.8416C14.4723 33.5233 15.0586 33.4173 15.4318 33.5233C15.8582 33.6294 15.5384 34.1333 14.4723 35.0349C12.1802 36.8383 10.3412 38.8272 8.95522 41.0018C5.97015 45.6692 4.47761 50.7344 4.47761 56.1974C4.47761 59.804 5.49041 62.9598 7.51599 65.6648C11.1407 70.4913 17.4307 73.2228 26.3859 73.8592C27.3987 73.9653 28.8913 74.0184 30.8635 74.0184C32.8891 74.0184 35.6077 73.6471 39.0192 72.9046C42.484 72.2151 45.8156 71.0482 49.0139 69.404C55.8902 65.7974 60.3412 61.13 62.3667 55.4018C63.0064 53.7046 63.3262 52.0604 63.3262 50.4692C63.3262 46.8626 61.7004 43.6802 58.4488 40.9222C56.6898 39.5432 53.0917 37.7134 47.6546 35.4327C42.2708 33.099 38.6461 31.3222 36.7804 30.1023C32.6759 27.3443 30.6237 24.0825 30.6237 20.3167C30.6237 17.0283 32.4627 13.8195 36.1407 10.6902C41.4179 6.23495 48.8806 4.00732 58.5288 4.00732C63.0597 4.00732 66.7377 4.69683 69.5629 6.07583C72.4414 7.4018 74.2004 9.41727 74.8401 12.1222C74.9467 12.6526 75 13.183 75 13.7134C75 15.7819 74.0405 17.6383 72.1215 19.2825C70.7889 20.3432 69.0032 21.1919 66.7644 21.8283C65.8049 22.0935 65.2719 21.9874 65.1652 21.5101C65.0586 20.8206 65.7249 20.3963 67.1642 20.2372C69.7228 19.9189 71.2953 18.646 71.8817 16.4184C72.0416 15.8349 72.1215 15.278 72.1215 14.7477Z" fill="#1FBBA6"/>
<path d="M85.718 22.7093C85.262 23.1653 84.616 24.204 83.78 25.8253C82.944 27.4213 82.4373 28.6247 82.26 29.4353C82.108 30.2207 82.032 30.8667 82.032 31.3733C82.032 31.8547 82.222 32.0953 82.602 32.0953C83.0833 32.0953 83.6787 31.652 84.388 30.7653C85.4267 29.4733 86.4527 27.7887 87.466 25.7113C87.5673 25.4833 87.6813 25.3567 87.808 25.3313C88.0107 25.2553 88.112 25.3313 88.112 25.5593C88.112 25.686 88.074 25.838 87.998 26.0153C85.6673 30.7273 83.704 33.0833 82.108 33.0833C81.3733 33.0833 80.778 32.7287 80.322 32.0193C80.094 31.6393 79.98 31.1327 79.98 30.4993C79.98 29.866 80.1067 29.0933 80.36 28.1813C78.3333 31.4493 76.5853 33.0833 75.116 33.0833C74.7107 33.0833 74.3433 32.9567 74.014 32.7033C73.254 32.1713 72.874 31.2593 72.874 29.9673C72.874 27.4847 73.9507 24.964 76.104 22.4053C77.32 20.9867 78.8147 20.062 80.588 19.6313C81.0693 19.5047 81.5253 19.4413 81.956 19.4413C83.1213 19.4413 84.1093 19.8467 84.92 20.6573C85.1733 20.936 85.2493 21.202 85.148 21.4553C85.0467 21.7087 84.8313 21.81 84.502 21.7593C84.2233 20.8473 83.6153 20.3913 82.678 20.3913C81.5887 20.3913 80.246 21.2527 78.65 22.9753C77.738 23.9887 76.8893 25.1793 76.104 26.5473C75.116 28.194 74.622 29.5113 74.622 30.4993C74.622 31.4873 74.9387 31.9813 75.572 31.9813C77.092 31.9813 79.0807 29.6507 81.538 24.9893C82.0193 24.052 82.4247 23.4187 82.754 23.0893C83.0833 22.7347 83.5013 22.5573 84.008 22.5573C84.1093 22.5573 84.3627 22.5953 84.768 22.6713C85.1987 22.7473 85.5153 22.76 85.718 22.7093ZM93.3412 17.7693C93.3412 18.9093 92.6192 19.986 91.1752 20.9993C91.6818 21.0247 92.3532 21.0373 93.1892 21.0373C94.0505 21.0373 95.1272 20.974 96.4192 20.8473C96.4698 20.9233 96.4952 21.126 96.4952 21.4553C96.4952 21.7847 96.3432 22.2787 96.0392 22.9373C95.7352 23.5707 95.4565 24.128 95.2032 24.6093C94.9752 25.0653 94.7472 25.5087 94.5192 25.9393C94.3165 26.3447 94.0758 26.8513 93.7972 27.4593C93.5438 28.0673 93.3285 28.6247 93.1512 29.1313C92.5178 31.0567 92.6192 32.0193 93.4552 32.0193C94.5192 32.0193 96.0898 29.904 98.1672 25.6733C98.3445 25.344 98.4838 25.2173 98.5852 25.2933C98.7118 25.3693 98.7752 25.4707 98.7752 25.5973C98.7752 25.6987 98.6105 26.0913 98.2812 26.7753C97.9518 27.434 97.5972 28.118 97.2172 28.8273C96.8372 29.5367 96.2418 30.36 95.4312 31.2973C94.4685 32.4627 93.5438 33.0453 92.6572 33.0453C91.6692 33.0453 90.9852 32.45 90.6052 31.2593C90.5292 31.0313 90.4912 30.6893 90.4912 30.2333C90.4912 29.7773 90.6305 29.1693 90.9092 28.4093C91.2132 27.6493 91.6818 26.7247 92.3152 25.6353C92.9485 24.546 93.3032 23.9127 93.3792 23.7353C93.4552 23.5327 93.4932 23.3427 93.4932 23.1653C93.4932 22.38 92.4798 21.962 90.4532 21.9113L89.9972 23.1273C88.4012 27.3073 86.8685 30.1067 85.3992 31.5253C85.1458 31.7533 85.0192 31.6773 85.0192 31.2973C85.0192 31.2213 85.0445 31.1327 85.0952 31.0313C86.5138 29.1567 87.7425 26.94 88.7812 24.3813C89.8198 21.8227 90.5418 19.3907 90.9472 17.0853C91.0992 16.3 91.4538 15.9073 92.0112 15.9073C92.5685 15.9073 92.9738 16.262 93.2272 16.9713C93.3032 17.1993 93.3412 17.4653 93.3412 17.7693ZM110.394 22.7093C109.938 23.1653 109.292 24.204 108.456 25.8253C107.62 27.4213 107.114 28.6247 106.936 29.4353C106.784 30.2207 106.708 30.8667 106.708 31.3733C106.708 31.8547 106.898 32.0953 107.278 32.0953C107.76 32.0953 108.355 31.652 109.064 30.7653C110.103 29.4733 111.129 27.7887 112.142 25.7113C112.244 25.4833 112.358 25.3567 112.484 25.3313C112.687 25.2553 112.788 25.3313 112.788 25.5593C112.788 25.686 112.75 25.838 112.674 26.0153C110.344 30.7273 108.38 33.0833 106.784 33.0833C106.05 33.0833 105.454 32.7287 104.998 32.0193C104.77 31.6393 104.656 31.1327 104.656 30.4993C104.656 29.866 104.783 29.0933 105.036 28.1813C103.01 31.4493 101.262 33.0833 99.7923 33.0833C99.3869 33.0833 99.0196 32.9567 98.6903 32.7033C97.9303 32.1713 97.5503 31.2593 97.5503 29.9673C97.5503 27.4847 98.6269 24.964 100.78 22.4053C101.996 20.9867 103.491 20.062 105.264 19.6313C105.746 19.5047 106.202 19.4413 106.632 19.4413C107.798 19.4413 108.786 19.8467 109.596 20.6573C109.85 20.936 109.926 21.202 109.824 21.4553C109.723 21.7087 109.508 21.81 109.178 21.7593C108.9 20.8473 108.292 20.3913 107.354 20.3913C106.265 20.3913 104.922 21.2527 103.326 22.9753C102.414 23.9887 101.566 25.1793 100.78 26.5473C99.7923 28.194 99.2983 29.5113 99.2983 30.4993C99.2983 31.4873 99.6149 31.9813 100.248 31.9813C101.768 31.9813 103.757 29.6507 106.214 24.9893C106.696 24.052 107.101 23.4187 107.43 23.0893C107.76 22.7347 108.178 22.5573 108.684 22.5573C108.786 22.5573 109.039 22.5953 109.444 22.6713C109.875 22.7473 110.192 22.76 110.394 22.7093ZM119.651 31.2973C119.651 32.0067 119.905 32.3613 120.411 32.3613C121.602 32.3613 123.287 30.132 125.465 25.6733C125.643 25.3187 125.795 25.1793 125.921 25.2553C126.073 25.3313 126.149 25.4327 126.149 25.5593C126.149 25.686 125.997 26.0533 125.693 26.6613C125.415 27.244 125.123 27.814 124.819 28.3713C124.541 28.9033 124.123 29.6127 123.565 30.4993C122.4 32.2727 121.159 33.1593 119.841 33.1593C118.98 33.1593 118.296 32.8047 117.789 32.0953C117.561 31.766 117.447 31.3227 117.447 30.7653C117.447 30.1827 117.574 29.486 117.827 28.6753C118.081 27.8647 118.777 26.5473 119.917 24.7233C120.196 24.2673 120.335 23.9127 120.335 23.6593C120.335 23.3807 120.12 23.2413 119.689 23.2413C119.259 23.2413 118.435 23.8113 117.219 24.9513C115.395 26.6233 113.622 29.1313 111.899 32.4753C111.722 32.8553 111.253 33.0453 110.493 33.0453C109.809 33.096 109.379 33.172 109.201 33.2733C114.015 23.2667 117.498 16.2873 119.651 12.3353C120.133 11.4487 120.551 10.828 120.905 10.4733C121.285 10.1187 121.729 9.94132 122.235 9.94132C122.362 9.94132 122.628 9.97932 123.033 10.0553C123.439 10.106 123.743 10.1187 123.945 10.0933C123.185 10.8787 121.817 13.0573 119.841 16.6293C117.891 20.176 116.016 23.786 114.217 27.4593C115.408 25.9647 116.472 24.7993 117.409 23.9633C118.372 23.1273 119.537 22.342 120.905 21.6073C122.273 20.8473 123.274 20.4673 123.907 20.4673C124.059 20.4673 124.199 20.4927 124.325 20.5433C121.209 26.0153 119.651 29.6 119.651 31.2973Z" fill="#1FBBA6"/>
<path d="M125.93 64.2973C125.93 65.0067 126.183 65.3613 126.69 65.3613C127.881 65.3613 129.565 63.132 131.744 58.6733C131.921 58.3187 132.073 58.1793 132.2 58.2553C132.352 58.3313 132.428 58.4327 132.428 58.5593C132.428 58.686 132.276 59.0533 131.972 59.6613C131.693 60.244 131.402 60.814 131.098 61.3713C130.819 61.9033 130.401 62.6127 129.844 63.4993C128.679 65.2727 127.437 66.1593 126.12 66.1593C125.259 66.1593 124.575 65.8047 124.068 65.0953C123.84 64.766 123.726 64.3227 123.726 63.7653C123.726 63.1827 123.853 62.486 124.106 61.6753C124.359 60.8647 125.056 59.5473 126.196 57.7233C126.475 57.2673 126.614 56.9127 126.614 56.6593C126.614 56.3807 126.399 56.2413 125.968 56.2413C125.537 56.2413 124.714 56.8113 123.498 57.9513C121.674 59.6233 119.901 62.1313 118.178 65.4753C118.001 65.8553 117.532 66.0453 116.772 66.0453C116.088 66.096 115.657 66.172 115.48 66.2733C120.293 56.2667 123.777 49.2873 125.93 45.3353C126.411 44.4487 126.829 43.828 127.184 43.4733C127.564 43.1187 128.007 42.9413 128.514 42.9413C128.641 42.9413 128.907 42.9793 129.312 43.0553C129.717 43.106 130.021 43.1187 130.224 43.0933C129.464 43.8787 128.096 46.0573 126.12 49.6293C124.169 53.176 122.295 56.786 120.496 60.4593C121.687 58.9647 122.751 57.7993 123.688 56.9633C124.651 56.1273 125.816 55.342 127.184 54.6073C128.552 53.8473 129.553 53.4673 130.186 53.4673C130.338 53.4673 130.477 53.4927 130.604 53.5433C127.488 59.0153 125.93 62.6 125.93 64.2973ZM139.459 52.7073C141.309 52.7073 142.233 53.8727 142.233 56.2033C142.233 57.2673 141.955 58.4073 141.397 59.6233C140.688 61.27 139.624 62.7647 138.205 64.1073C138.535 64.7407 139.13 65.0573 139.991 65.0573C140.675 65.0573 141.321 64.7153 141.929 64.0313C142.689 63.246 143.234 62.562 143.563 61.9793C143.893 61.3713 144.133 60.928 144.285 60.6493C144.437 60.3707 144.627 59.978 144.855 59.4713C145.109 58.9393 145.261 58.6227 145.311 58.5213C145.362 58.3947 145.451 58.3313 145.577 58.3313C145.831 58.306 145.957 58.3947 145.957 58.5973C145.957 58.6733 145.932 58.762 145.881 58.8633L145.653 59.3953C145.501 59.75 145.387 60.0033 145.311 60.1553C145.235 60.3073 145.096 60.586 144.893 60.9913C144.716 61.3713 144.551 61.6753 144.399 61.9033C144.273 62.1313 144.083 62.4353 143.829 62.8153C143.601 63.1953 143.386 63.4993 143.183 63.7273C143.006 63.9553 142.778 64.2087 142.499 64.4873C142.221 64.766 141.955 64.9813 141.701 65.1333C141.068 65.5133 140.473 65.7033 139.915 65.7033C138.877 65.7033 138.066 65.374 137.483 64.7153C136.318 65.5767 135.241 66.0073 134.253 66.0073C132.404 66.0073 131.479 64.842 131.479 62.5113C131.479 61.4473 131.758 60.3073 132.315 59.0913C133.075 57.318 134.139 55.8107 135.507 54.5693C136.901 53.328 138.218 52.7073 139.459 52.7073ZM139.877 53.8853C139.193 53.8853 138.383 54.3413 137.445 55.2533C136.508 56.1653 135.672 57.4067 134.937 58.9773C134.051 60.8013 133.607 62.296 133.607 63.4613C133.607 64.6267 134.051 65.2093 134.937 65.2093C135.571 65.2093 136.28 64.8673 137.065 64.1833C136.66 63.6007 136.457 62.98 136.457 62.3213C136.508 61.232 136.951 60.6873 137.787 60.6873C138.117 60.6873 138.383 60.8013 138.585 61.0293C138.813 61.2573 138.927 61.4727 138.927 61.6753C138.927 61.8527 138.902 62.0427 138.851 62.2453C139.282 61.612 139.776 60.7127 140.333 59.5473C140.967 58.2553 141.283 56.9887 141.283 55.7473C141.283 54.506 140.815 53.8853 139.877 53.8853ZM157.584 55.7093C157.128 56.1653 156.482 57.204 155.646 58.8253C154.81 60.4213 154.303 61.6247 154.126 62.4353C153.974 63.2207 153.898 63.8667 153.898 64.3733C153.898 64.8547 154.088 65.0953 154.468 65.0953C154.949 65.0953 155.544 64.652 156.254 63.7653C157.292 62.4733 158.318 60.7887 159.332 58.7113C159.433 58.4833 159.547 58.3567 159.674 58.3313C159.876 58.2553 159.978 58.3313 159.978 58.5593C159.978 58.686 159.94 58.838 159.864 59.0153C157.533 63.7273 155.57 66.0833 153.974 66.0833C153.239 66.0833 152.644 65.7287 152.188 65.0193C151.96 64.6393 151.846 64.1327 151.846 63.4993C151.846 62.866 151.972 62.0933 152.226 61.1813C150.199 64.4493 148.451 66.0833 146.982 66.0833C146.576 66.0833 146.209 65.9567 145.88 65.7033C145.12 65.1713 144.74 64.2593 144.74 62.9673C144.74 60.4847 145.816 57.964 147.97 55.4053C149.186 53.9867 150.68 53.062 152.454 52.6313C152.935 52.5047 153.391 52.4413 153.822 52.4413C154.987 52.4413 155.975 52.8467 156.786 53.6573C157.039 53.936 157.115 54.202 157.014 54.4553C156.912 54.7087 156.697 54.81 156.368 54.7593C156.089 53.8473 155.481 53.3913 154.544 53.3913C153.454 53.3913 152.112 54.2527 150.516 55.9753C149.604 56.9887 148.755 58.1793 147.97 59.5473C146.982 61.194 146.488 62.5113 146.488 63.4993C146.488 64.4873 146.804 64.9813 147.438 64.9813C148.958 64.9813 150.946 62.6507 153.404 57.9893C153.885 57.052 154.29 56.4187 154.62 56.0893C154.949 55.7347 155.367 55.5573 155.874 55.5573C155.975 55.5573 156.228 55.5953 156.634 55.6713C157.064 55.7473 157.381 55.76 157.584 55.7093ZM168.095 63.8033C168.095 64.614 168.424 65.0193 169.083 65.0193C170.274 65.0193 171.857 63.0307 173.833 59.0533C173.909 58.9013 173.972 58.7493 174.023 58.5973C174.099 58.4453 174.2 58.344 174.327 58.2933C174.479 58.2427 174.58 58.2807 174.631 58.4073C174.682 58.5087 174.656 58.686 174.555 58.9393C172.528 63.6513 170.476 66.0073 168.399 66.0073C167.715 66.0073 167.17 65.7033 166.765 65.0953C166.36 64.4873 166.157 63.892 166.157 63.3093C166.157 62.7013 166.22 62.144 166.347 61.6373C164.878 64.0693 163.611 65.45 162.547 65.7793C162.243 65.906 161.939 65.9693 161.635 65.9693C161.356 65.9693 161.078 65.9313 160.799 65.8553C159.558 65.526 158.937 64.538 158.937 62.8913C158.937 61.7767 159.216 60.548 159.773 59.2053C160.356 57.8373 161.166 56.5327 162.205 55.2913C163.244 54.05 164.498 53.214 165.967 52.7833C166.499 52.606 167.12 52.5173 167.829 52.5173C168.564 52.5173 169.374 52.7453 170.261 53.2013C171.984 49.9587 173.453 46.9567 174.669 44.1953C175.024 43.3593 175.366 42.8273 175.695 42.5993C176.05 42.346 176.366 42.2193 176.645 42.2193C176.949 42.2193 177.126 42.2193 177.177 42.2193C177.253 42.2193 177.494 42.2573 177.899 42.3333C178.33 42.384 178.659 42.3967 178.887 42.3713C178.304 42.9033 176.759 45.4873 174.251 50.1233C171.059 56.0513 169.134 60.0033 168.475 61.9793C168.222 62.714 168.095 63.322 168.095 63.8033ZM169.957 53.8093C169.628 53.48 169.159 53.3153 168.551 53.3153C167.968 53.3153 167.145 53.7587 166.081 54.6453C164.384 56.064 162.978 57.812 161.863 59.8893C161.128 61.2573 160.761 62.3847 160.761 63.2713C160.761 63.6767 160.837 64.044 160.989 64.3733C161.166 64.7027 161.432 64.8673 161.787 64.8673C162.648 64.8673 163.712 63.9807 164.979 62.2073C166.246 60.434 167.905 57.6347 169.957 53.8093Z" fill="#1FBBA6"/>
</svg>
