<svg width="85" height="101" viewBox="0 0 85 101" fill="none" xmlns="http://www.w3.org/2000/svg">
<path fill-rule="evenodd" clip-rule="evenodd" d="M78.2803 36.0764C79.5532 37.4473 80.7349 38.72 82.1094 39.8L84.4094 41.9L81.4094 42.8C79.3094 43.4 77.5094 44.6 75.7094 45.9C73.2094 47.7 70.5094 49.6 66.8094 49.9H65.7094C62.7094 49.9 59.6094 48.9 57.2094 48C56.8797 47.8764 56.55 47.7357 56.2133 47.5921C55.733 47.3873 55.2385 47.1764 54.7094 47C52.4094 46.1 50.1094 45.2 48.0094 44.7L46.7094 44.4C45.0381 44.7343 43.0176 45.6272 41.5816 46.2618C41.2992 46.3866 41.0394 46.5014 40.8094 46.6C43.5079 58.1649 42.1196 72.609 37.6293 84.2037C38.8361 87.1543 39.5098 90.4185 39.507 93.6008C39.5036 97.6 36.2801 100.842 32.3072 100.842C28.3344 100.842 25.1165 97.6 25.1199 93.6008C24.9514 89.7973 30.4045 85.0379 34.2133 82.9746C39.096 71.7441 40.3217 59.0104 37.7094 47.4L37.2094 46.2C36.3094 44.2 35.1094 42.3 33.8094 40.5C31.2094 39.2 28.4094 38.6 25.4094 38C21.3094 37.2 16.9094 36.3 13.4094 33.5C10.1094 31 8.20937 27.3 6.80937 24.3C6.40937 23.4 6.00938 22.5 5.60938 21.5C4.60938 19 3.40937 16.3 2.10938 14.3L0.109375 11.2L1.30937 10.3C1.40937 10.2 3.50937 8.6 6.00937 7.6C8.33022 6.67166 11.8576 6.17423 14.0314 5.86769C14.1992 5.84402 14.3589 5.8215 14.5094 5.8C16.5094 5.6 20.0094 5.6 22.7094 6.2H22.8094C28.1094 7.8 32.7094 11.9 35.5094 17.5C37.1094 20.8 37.9094 24.3 37.9094 27.6C37.9094 29.213 37.6492 30.761 37.3911 32.2964C37.3292 32.6647 37.2674 33.0324 37.2094 33.4C37.1819 33.5742 37.1544 33.7467 37.1271 33.9178C36.8569 35.6126 36.6094 37.165 36.6094 38.8C36.7594 39 36.8844 39.175 37.0094 39.35C37.1344 39.525 37.2594 39.7 37.4094 39.9C37.4094 38.9 37.6094 37.8 37.9094 36.8C38.5094 35 39.4094 33.5 40.4094 31.9C42.615 28.4478 45.2804 25.2714 47.7883 22.2827C47.8956 22.1548 48.0027 22.0272 48.1094 21.9C48.3094 21.6 48.6094 21.2 48.9094 20.9C48.8094 20.9 48.7094 20.8 48.6094 20.7C47.8094 19.8 47.3094 18.9 47.0094 18.2C47.0094 18.0536 46.9558 17.9608 46.8878 17.8431C46.863 17.8 46.8362 17.7536 46.8094 17.7C46.3094 16.6 45.9094 15 45.8094 13.7V13.6V13.5C46.0094 10.7 47.7094 7.8 50.6094 5.5C52.3094 4.2 54.1094 3.2 56.0094 2.6C57.1094 2.2 58.2094 2 59.3094 1.8C59.8022 1.66559 60.295 1.55126 60.7789 1.43901C61.375 1.30072 61.9574 1.16559 62.5094 1L65.5094 0L64.6094 3C64.3094 4.2 64.3094 5.5 64.4094 6.9C64.4094 7.14733 64.4124 7.39771 64.4155 7.65078C64.4374 9.44412 64.461 11.3721 63.4094 13.3C62.4094 15.3 60.5094 16.9 59.0094 18C58.1084 18.7208 57.2074 19.1169 56.3796 19.4808C56.2886 19.5208 56.1985 19.5604 56.1094 19.6C55.9624 19.6735 55.8094 19.747 55.6533 19.822C55.1724 20.053 54.6624 20.298 54.2094 20.6C54.0094 20.7 52.3094 22 52.3094 22L52.0094 22.1L50.5094 23.9C47.8094 27.1 45.3094 30.2 43.1094 33.6C42.2094 35 41.4094 36.4 41.0094 37.8C40.5094 39.2 40.5094 41 40.7094 43.1C41.9094 42.5 43.4094 41.9 44.8094 41.5C44.8094 40.7 44.9094 39.6 45.1094 38.5C45.5094 36.6 46.7094 34.2 47.7094 32.6C48.7094 31 50.4094 29.2 51.9094 28.1L52.1094 28C55.8094 26 60.9094 25.9 66.2094 27.7C69.3094 28.8 72.1094 30.4 74.4094 32.3C75.8094 33.4 77.0094 34.7 78.2094 36L78.2803 36.0764Z" fill="url(#paint0_linear)"/>
<defs>
<linearGradient id="paint0_linear" x1="37.759" y1="97.5069" x2="34.5253" y2="0.00278583" gradientUnits="userSpaceOnUse">
<stop stop-color="#3E1C49" stop-opacity="0.3"/>
<stop offset="1" stop-color="#3E1C49" stop-opacity="0.5"/>
</linearGradient>
</defs>
</svg>
