<svg width="156" height="217" viewBox="0 0 156 217" fill="none" xmlns="http://www.w3.org/2000/svg">
<path d="M123.855 160.673C136 157.68 148.07 165.886 150.816 179.001C153.561 192.116 145.941 205.175 133.796 208.168C119.583 212.413 94.8781 189.079 90.6439 178.996C99.9105 170.284 111.71 163.667 123.855 160.673Z" fill="#3E1C49" fill-opacity="0.05"/>
<path d="M2.86374 18.6542C3.26532 8.6102 11.0584 0.819472 20.27 1.25315C29.4817 1.68682 36.6237 10.1807 36.2221 20.2247C36.2426 32.1248 15.9677 46.7879 8.46961 48.1082C4.52469 39.1841 2.46216 28.6982 2.86374 18.6542Z" fill="#3E1C49" fill-opacity="0.05"/>
<path d="M40.6201 145.508C18.5906 143.094 2.52693 121.851 4.74073 98.061C6.95454 74.2708 26.6076 56.9419 48.637 59.3557C74.8052 60.9306 104.272 115.43 106.149 135.023C85.9874 144.016 62.6495 147.921 40.6201 145.508Z" fill="#3E1C49" fill-opacity="0.05"/>
</svg>
