<svg width="27" height="47" viewBox="0 0 27 47" fill="none" xmlns="http://www.w3.org/2000/svg">
<path fill-rule="evenodd" clip-rule="evenodd" d="M23.5758 21.6586C23.596 21.2975 23.6094 21.0585 23.6094 21C23.6094 19.8472 23.6614 18.969 23.8534 17.7522C23.8905 17.5168 23.9301 17.2813 23.9697 17.0454C24.1349 16.0621 24.3014 15.0708 24.3014 14.0378C24.3014 11.9244 23.7894 9.68291 22.7654 7.56952C20.9734 3.98317 18.0294 1.35745 14.6374 0.332772H14.5734C12.8454 -0.0514799 10.6054 -0.0514801 9.32538 0.076604C9.22906 0.0903719 9.12683 0.104798 9.01944 0.119952C7.62824 0.316268 5.37072 0.634833 3.88538 1.22936C2.28538 1.86978 0.941375 2.89445 0.877375 2.9585L0.109375 3.53487L1.38937 5.52018C2.22137 6.80102 2.98938 8.53015 3.62937 10.1312C3.88538 10.7716 4.14137 11.348 4.39737 11.9244C5.29337 13.8456 6.50938 16.2152 8.62138 17.8162C10.8614 19.6094 13.6774 20.1858 16.3014 20.6981C16.8053 20.799 17.2612 20.8734 17.6898 20.9433C18.8942 21.1397 19.8821 21.3009 21.1094 21.9149C21.6094 22.5 22.8733 26.7341 21.6074 28C21.3106 28.2968 20.7509 28.7932 20.171 29.2816C16.5536 31.4093 11.9577 35.682 12.1173 39.2825C12.1138 43.2817 15.3317 46.5237 19.3046 46.5237C23.2774 46.5237 26.5009 43.2817 26.5044 39.2825C26.5075 35.5761 25.1749 32.0318 23.508 28.7682C23.2402 27.6646 23.4819 23.3389 23.5758 21.6586Z" fill="url(#paint0_linear)"/>
<defs>
<linearGradient id="paint0_linear" x1="12.1094" y1="-6.35993e-08" x2="22.1094" y2="48.5" gradientUnits="userSpaceOnUse">
<stop stop-color="#3E1C49" stop-opacity="0.5"/>
<stop offset="1" stop-color="#3E1C49" stop-opacity="0.3"/>
</linearGradient>
</defs>
</svg>
