<svg width="158" height="119" viewBox="0 0 158 119" fill="none" xmlns="http://www.w3.org/2000/svg">
<path d="M1.354 105.269V119L8.54082 118.999L26.561 118.999C45.7298 118.999 64.1135 111.284 77.6679 97.5508C91.2223 83.8175 98.8371 65.191 98.8371 45.7691C98.8371 33.6304 103.596 21.9889 112.068 13.4055C120.539 4.82217 132.029 9.01225e-05 144.01 9.01225e-05H157.354H117.508H82.5408H69.5298C50.361 9.01225e-05 37.4089 9.01225e-05 18.2991 9.01225e-05C-7.11303 9.01225e-05 1.354 0.000143528 1.354 0.000143528C1.354 0.000143528 1.354 45.7691 1.354 62.1488C1.354 71.0083 1.354 77.6014 1.354 77.6014V91.5381V105.269Z" fill="url(#paint0_linear)"/>
<defs>
<linearGradient id="paint0_linear" x1="64.854" y1="119" x2="64.854" y2="0.000134138" gradientUnits="userSpaceOnUse">
<stop stop-color="#3E1C49" stop-opacity="0.1"/>
<stop offset="1" stop-color="white" stop-opacity="0"/>
</linearGradient>
</defs>
</svg>
