<svg width="58" height="58" viewBox="0 0 58 58" fill="none" xmlns="http://www.w3.org/2000/svg">
<g filter="url(#filter0_d)">
<rect x="4" width="50" height="50" rx="25" fill="#1FBBA6"/>
</g>
<path d="M35.0833 29.3333H34.1617L33.835 29.0183C34.9783 27.6883 35.6667 25.9617 35.6667 24.0833C35.6667 19.895 32.2717 16.5 28.0833 16.5C23.895 16.5 20.5 19.895 20.5 24.0833C20.5 28.2717 23.895 31.6667 28.0833 31.6667C29.9617 31.6667 31.6883 30.9783 33.0183 29.835L33.3333 30.1617V31.0833L39.1667 36.905L40.905 35.1667L35.0833 29.3333ZM28.0833 29.3333C25.1783 29.3333 22.8333 26.9883 22.8333 24.0833C22.8333 21.1783 25.1783 18.8333 28.0833 18.8333C30.9883 18.8333 33.3333 21.1783 33.3333 24.0833C33.3333 26.9883 30.9883 29.3333 28.0833 29.3333Z" fill="#FDFDFD"/>
<path d="M31.0003 24.6665H28.667V26.9998H27.5003V24.6665H25.167V23.4998H27.5003V21.1665H28.667V23.4998H31.0003V24.6665Z" fill="#FDFDFD"/>
<defs>
<filter id="filter0_d" x="0" y="0" width="58" height="58" filterUnits="userSpaceOnUse" color-interpolation-filters="sRGB">
<feFlood flood-opacity="0" result="BackgroundImageFix"/>
<feColorMatrix in="SourceAlpha" type="matrix" values="0 0 0 0 0 0 0 0 0 0 0 0 0 0 0 0 0 0 127 0"/>
<feOffset dy="4"/>
<feGaussianBlur stdDeviation="2"/>
<feColorMatrix type="matrix" values="0 0 0 0 0 0 0 0 0 0 0 0 0 0 0 0 0 0 0.25 0"/>
<feBlend mode="normal" in2="BackgroundImageFix" result="effect1_dropShadow"/>
<feBlend mode="normal" in="SourceGraphic" in2="effect1_dropShadow" result="shape"/>
</filter>
</defs>
</svg>
