<svg width="141" height="35" viewBox="0 0 141 35" fill="none" xmlns="http://www.w3.org/2000/svg">
<path d="M6.65283 22.4521C6.55518 22.2487 6.45752 21.9069 6.35986 21.4268C5.74137 22.2731 4.90316 22.6963 3.84521 22.6963C2.73844 22.6963 1.81885 22.3301 1.08643 21.5977C0.362142 20.8652 0 19.9172 0 18.7534C0 17.37 0.439453 16.2998 1.31836 15.543C2.2054 14.7861 3.479 14.3996 5.13916 14.3833H6.18896V13.3213C6.18896 12.7272 6.08724 12.3081 5.88379 12.064C5.68034 11.8198 5.3833 11.6978 4.99268 11.6978C4.13005 11.6978 3.69873 12.2023 3.69873 13.2114H0.244141C0.244141 11.9907 0.69987 10.9857 1.61133 10.1963C2.53092 9.39876 3.69059 9 5.09033 9C6.5389 9 7.65788 9.37842 8.44727 10.1353C9.24479 10.884 9.64355 11.9582 9.64355 13.3579V19.5713C9.65983 20.7106 9.82259 21.6017 10.1318 22.2446V22.4521H6.65283ZM4.61426 19.9863C4.99674 19.9863 5.32227 19.909 5.59082 19.7544C5.85938 19.5998 6.05876 19.4167 6.18896 19.2051V16.4585H5.35889C4.77295 16.4585 4.30908 16.6457 3.96729 17.02C3.63363 17.3944 3.4668 17.8949 3.4668 18.5215C3.4668 19.498 3.84928 19.9863 4.61426 19.9863Z" fill="#FEFDFF"/>
<path d="M15.1431 9.24414L15.2407 10.4648C16.0138 9.48828 17.0352 9 18.3047 9C19.623 9 20.5549 9.59408 21.1001 10.7822C21.8569 9.59408 22.9352 9 24.335 9C26.6462 9 27.8302 10.5991 27.8872 13.7974V22.4521H24.4326V14.0171C24.4326 13.2521 24.3268 12.7069 24.1152 12.3813C23.9036 12.0558 23.5456 11.8931 23.041 11.8931C22.3981 11.8931 21.918 12.2878 21.6006 13.0771L21.625 13.4922V22.4521H18.1704V14.0415C18.1704 13.2847 18.0687 12.7394 17.8652 12.4058C17.6618 12.064 17.2996 11.8931 16.7788 11.8931C16.1847 11.8931 15.7127 12.2145 15.3628 12.8574V22.4521H11.9082V9.24414H15.1431Z" fill="#FEFDFF"/>
<path d="M36.4751 22.4521C36.3774 22.2487 36.2798 21.9069 36.1821 21.4268C35.5636 22.2731 34.7254 22.6963 33.6675 22.6963C32.5607 22.6963 31.6411 22.3301 30.9087 21.5977C30.1844 20.8652 29.8223 19.9172 29.8223 18.7534C29.8223 17.37 30.2617 16.2998 31.1406 15.543C32.0277 14.7861 33.3013 14.3996 34.9614 14.3833H36.0112V13.3213C36.0112 12.7272 35.9095 12.3081 35.7061 12.064C35.5026 11.8198 35.2056 11.6978 34.8149 11.6978C33.9523 11.6978 33.521 12.2023 33.521 13.2114H30.0664C30.0664 11.9907 30.5221 10.9857 31.4336 10.1963C32.3532 9.39876 33.5129 9 34.9126 9C36.3612 9 37.4801 9.37842 38.2695 10.1353C39.0671 10.884 39.4658 11.9582 39.4658 13.3579V19.5713C39.4821 20.7106 39.6449 21.6017 39.9541 22.2446V22.4521H36.4751ZM34.4365 19.9863C34.819 19.9863 35.1445 19.909 35.4131 19.7544C35.6816 19.5998 35.881 19.4167 36.0112 19.2051V16.4585H35.1812C34.5952 16.4585 34.1313 16.6457 33.7896 17.02C33.4559 17.3944 33.2891 17.8949 33.2891 18.5215C33.2891 19.498 33.6715 19.9863 34.4365 19.9863Z" fill="#FEFDFF"/>
<path d="M45.4658 18.8196H47.0908L48.5 19L50.6904 19.6809V22.4521L49.5 21.8909L48.5 21.4268L47.5 21.3177H46.5H45.4658H44.4223L43 21.5977L41.3643 22.4521V20.2915L46.4668 12.125H41.4863V9.24414H50.6172V11.3315L45.4658 18.8196Z" fill="#FEFDFF"/>
<path d="M52.1982 15.4209C52.1982 13.4189 52.6702 11.8483 53.6143 10.709C54.5583 9.56966 55.8644 9 57.5327 9C59.2173 9 60.5316 9.56966 61.4756 10.709C62.4196 11.8483 62.8916 13.4271 62.8916 15.4453V16.2876C62.8916 18.2977 62.4237 19.8683 61.4878 20.9995C60.5519 22.1307 59.2417 22.6963 57.5571 22.6963C55.8644 22.6963 54.5461 22.1307 53.6021 20.9995C52.6662 19.8602 52.1982 18.2814 52.1982 16.2632V15.4209ZM55.665 16.2876C55.665 18.6476 56.2957 19.8276 57.5571 19.8276C58.7209 19.8276 59.3475 18.8429 59.437 16.8735L59.4492 15.4209C59.4492 14.2165 59.2824 13.3254 58.9487 12.7476C58.6151 12.1616 58.1431 11.8687 57.5327 11.8687C56.9468 11.8687 56.487 12.1616 56.1533 12.7476C55.8278 13.3254 55.665 14.2165 55.665 15.4209V16.2876Z" fill="#FEFDFF"/>
<path d="M67.9639 9.24414L68.0615 10.5503C68.8428 9.51676 69.8641 9 71.1255 9C73.396 9 74.5638 10.591 74.6289 13.7729V22.4521H71.1621V14.0293C71.1621 13.2806 71.0482 12.7394 70.8203 12.4058C70.6006 12.064 70.21 11.8931 69.6484 11.8931C69.0218 11.8931 68.5335 12.2145 68.1836 12.8574V22.4521H64.7168V9.24414H67.9639Z" fill="#FEFDFF"/>
<path d="M45.0414 25.6094C45.2327 27.0663 38.4555 30.3506 29.714 31.4989C20.9725 32.6472 9.21253 25.2382 9.02115 23.7813C8.82977 22.3244 21.0496 29.7835 29.7912 28.6352C38.5327 27.487 44.85 24.1525 45.0414 25.6094Z" fill="#FEFDFF"/>
<path d="M45.5374 29.0221C44.2393 30.0517 48.1159 25.8545 46 24.0944C44.1492 22.555 40.371 24.5934 41.6691 23.5638C42.9672 22.5341 44.5048 21.9683 47.6254 22.6841C48.6252 26.6765 46.697 28.1023 45.5374 29.0221Z" fill="#FEFDFF"/>
<path d="M81.6499 9.79199L81.6987 11.0127C82.5044 10.0361 83.5664 9.54785 84.8848 9.54785C86.3577 9.54785 87.3872 10.1867 87.9731 11.4644C88.8032 10.1867 89.9588 9.54785 91.4399 9.54785C93.8732 9.54785 95.1183 11.0656 95.1753 14.1011V23H93.0269V14.3086C93.0269 13.3483 92.856 12.6362 92.5142 12.1724C92.1724 11.7004 91.5946 11.4644 90.7808 11.4644C90.1297 11.4644 89.6007 11.7166 89.1938 12.2212C88.7869 12.7257 88.5509 13.3687 88.4858 14.1499V23H86.313V14.2109C86.2886 12.3799 85.5439 11.4644 84.0791 11.4644C82.9886 11.4644 82.2196 12.0096 81.772 13.1001V23H79.6235V9.79199H81.6499ZM105.923 21.8403C105.207 22.7762 104.161 23.2441 102.786 23.2441C101.589 23.2441 100.686 22.8332 100.076 22.0112C99.4653 21.1812 99.1561 19.9767 99.1479 18.3979V9.79199H101.296V18.2393C101.296 20.2982 101.915 21.3276 103.152 21.3276C104.462 21.3276 105.365 20.7417 105.862 19.5698V9.79199H108.022V23H105.972L105.923 21.8403ZM118.44 19.6187C118.44 19.1548 118.265 18.756 117.916 18.4224C117.566 18.0887 116.89 17.6981 115.889 17.2505C114.725 16.7703 113.903 16.3594 113.423 16.0176C112.951 15.6758 112.597 15.2892 112.361 14.8579C112.125 14.4185 112.007 13.8976 112.007 13.2954C112.007 12.2212 112.398 11.3301 113.179 10.6221C113.969 9.90592 114.974 9.54785 116.194 9.54785C117.48 9.54785 118.514 9.9222 119.295 10.6709C120.076 11.4196 120.467 12.3799 120.467 13.5518H118.318C118.318 12.9577 118.119 12.4531 117.72 12.0381C117.321 11.6149 116.813 11.4033 116.194 11.4033C115.56 11.4033 115.059 11.5701 114.693 11.9038C114.335 12.2293 114.156 12.6688 114.156 13.2222C114.156 13.6616 114.286 14.0156 114.546 14.2842C114.815 14.5527 115.454 14.9067 116.463 15.3462C118.066 15.9728 119.157 16.5872 119.734 17.1895C120.312 17.7835 120.601 18.5404 120.601 19.46C120.601 20.6074 120.206 21.527 119.417 22.2188C118.628 22.9023 117.57 23.2441 116.243 23.2441C114.868 23.2441 113.753 22.8494 112.898 22.0601C112.044 21.2707 111.617 20.2697 111.617 19.0571H113.79C113.814 19.7896 114.038 20.3633 114.461 20.7783C114.884 21.1934 115.478 21.4009 116.243 21.4009C116.959 21.4009 117.505 21.2422 117.879 20.9248C118.253 20.5993 118.44 20.1639 118.44 19.6187ZM126.502 23H124.342V9.79199H126.502V23ZM126.673 6.28857C126.673 6.65479 126.572 6.95996 126.368 7.2041C126.165 7.44824 125.855 7.57031 125.44 7.57031C125.034 7.57031 124.728 7.44824 124.525 7.2041C124.321 6.95996 124.22 6.65479 124.22 6.28857C124.22 5.92236 124.321 5.61312 124.525 5.36084C124.728 5.10856 125.034 4.98242 125.44 4.98242C125.847 4.98242 126.153 5.11263 126.356 5.37305C126.568 5.62533 126.673 5.9305 126.673 6.28857ZM135.248 21.4009C135.964 21.4009 136.538 21.1812 136.969 20.7417C137.401 20.2941 137.637 19.6593 137.677 18.8374H139.716C139.667 20.1069 139.215 21.1608 138.361 21.999C137.514 22.8291 136.477 23.2441 135.248 23.2441C133.612 23.2441 132.363 22.7314 131.5 21.7061C130.646 20.6725 130.219 19.1385 130.219 17.104V15.6514C130.219 13.6576 130.646 12.1439 131.5 11.1104C132.355 10.0687 133.6 9.54785 135.236 9.54785C136.587 9.54785 137.657 9.9751 138.446 10.8296C139.244 11.6841 139.667 12.8519 139.716 14.333H137.677C137.628 13.3564 137.392 12.624 136.969 12.1357C136.554 11.6475 135.976 11.4033 135.236 11.4033C134.276 11.4033 133.563 11.7207 133.1 12.3555C132.636 12.9821 132.396 14.0156 132.379 15.4561V17.1406C132.379 18.695 132.607 19.7936 133.063 20.4365C133.527 21.0794 134.255 21.4009 135.248 21.4009Z" fill="#FEFDFF"/>
</svg>
