<svg width="38" height="38" viewBox="0 0 38 38" fill="none" xmlns="http://www.w3.org/2000/svg">
<path d="M19 36.2479C28.5269 36.2479 36.25 28.5248 36.25 18.998C36.25 9.4711 28.5269 1.74805 19 1.74805C9.47309 1.74805 1.75 9.4711 1.75 18.998C1.75 28.5248 9.47309 36.2479 19 36.2479Z" stroke="#1FBBA6" stroke-width="2.5"/>
<path d="M26.1108 11.875H11.8886C10.9108 11.875 10.1197 12.675 10.1197 13.6528L10.1108 24.3194C10.1108 25.2972 10.9108 26.0972 11.8886 26.0972H26.1108C27.0886 26.0972 27.8886 25.2972 27.8886 24.3194V13.6528C27.8886 12.675 27.0886 11.875 26.1108 11.875ZM26.1108 15.4305L18.9997 19.875L11.8886 15.4305V13.6528L18.9997 18.0972L26.1108 13.6528V15.4305Z" fill="#1FBBA6"/>
</svg>
