<svg width="38" height="38" viewBox="0 0 38 38" fill="none" xmlns="http://www.w3.org/2000/svg">
<path d="M19 36.2499C28.5269 36.2499 36.25 28.5268 36.25 18.9999C36.25 9.47305 28.5269 1.75 19 1.75C9.47309 1.75 1.75 9.47305 1.75 18.9999C1.75 28.5268 9.47309 36.2499 19 36.2499Z" stroke="#1FBBA6" stroke-width="2.5"/>
<path d="M14.2178 17.9273C15.4978 20.4429 17.56 22.4962 20.0756 23.7851L22.0311 21.8295C22.2711 21.5895 22.6267 21.5095 22.9378 21.6162C23.9333 21.9451 25.0089 22.1229 26.1111 22.1229C26.6 22.1229 27 22.5229 27 23.0118V26.114C27 26.6029 26.6 27.0029 26.1111 27.0029C17.7644 27.0029 11 20.2384 11 11.8918C11 11.4029 11.4 11.0029 11.8889 11.0029H15C15.4889 11.0029 15.8889 11.4029 15.8889 11.8918C15.8889 13.0029 16.0667 14.0696 16.3956 15.0651C16.4933 15.3762 16.4222 15.7229 16.1733 15.9718L14.2178 17.9273Z" fill="#1FBBA6"/>
</svg>
