<svg width="28" height="28" viewBox="0 0 28 28" fill="none" xmlns="http://www.w3.org/2000/svg">
<circle cx="14" cy="14" r="12.75" stroke="white" stroke-width="1.5"/>
<path d="M10.4133 13.1933C11.3733 15.08 12.92 16.62 14.8067 17.5867L16.2733 16.12C16.4533 15.94 16.72 15.88 16.9533 15.96C17.7 16.2067 18.5067 16.34 19.3333 16.34C19.7 16.34 20 16.64 20 17.0067V19.3333C20 19.7 19.7 20 19.3333 20C13.0733 20 8 14.9267 8 8.66667C8 8.3 8.3 8 8.66667 8H11C11.3667 8 11.6667 8.3 11.6667 8.66667C11.6667 9.5 11.8 10.3 12.0467 11.0467C12.12 11.28 12.0667 11.54 11.88 11.7267L10.4133 13.1933Z" fill="white"/>
</svg>
